<?xml version="1.0" encoding="utf-8" ?>
<svg xmlns="http://www.w3.org/2000/svg" xmlns:xlink="http://www.w3.org/1999/xlink" width="512" height="512">
	<path fill="#237568" transform="scale(0.666667 0.666667)" d="M448.828 282.134L515.058 255.747C530.009 250.255 544.592 244.455 560.176 241.014C557.327 250.927 553.666 260.557 549.938 270.169L543.699 286.467L528.492 319.899C524.442 328.573 520.795 337.723 515.789 345.885C514.339 344.028 513.214 342.156 512.077 340.1C503.093 327.345 493.487 315.479 482.02 304.854C476.39 299.637 470.371 295.003 464.23 290.41L448.828 282.134Z"/>
	<path fill="#1A1919" transform="scale(0.666667 0.666667)" d="M464.23 290.41C467.349 289.946 470.984 291.019 474.062 291.604C484.012 293.496 494.286 296.01 503.797 299.518C506.266 310.06 509.476 320.347 511.243 331.052C511.735 334.034 512.523 337.072 512.077 340.1C503.093 327.345 493.487 315.479 482.02 304.854C476.39 299.637 470.371 295.003 464.23 290.41Z"/>
	<path fill="#237568" transform="scale(0.666667 0.666667)" d="M237.41 427.362C245.671 433.825 255.989 438.908 265.373 443.602C296.317 459.079 330.874 467.291 365.172 470.881C384.13 472.865 402.934 473.549 421.875 471.003C431.054 469.769 440.003 467.42 448.898 464.891C458.557 462.145 468.266 459.059 477.527 455.164C488.384 450.598 498.649 445.184 508.792 439.214L522.726 430.759C524.808 429.468 527.52 427.247 529.819 426.561L530.411 426.399C525.92 458.453 507.698 486.706 482.031 506.077C465.238 518.751 445.926 528.686 425.347 533.436C412.504 536.401 399.565 537.398 386.422 537.55C375.852 537.672 365.317 537.421 354.841 535.926C317.897 530.655 281.66 509.699 259.285 479.705C248.067 464.667 240.444 445.857 237.41 427.362Z"/>
	<defs>
		<linearGradient id="gradient_0" gradientUnits="userSpaceOnUse" x1="480.82501" y1="218.21001" x2="258.608" y2="446.69199">
			<stop offset="0" stop-color="#7BD370"/>
			<stop offset="1" stop-color="#B5EE8A"/>
		</linearGradient>
	</defs>
	<path fill="url(#gradient_0)" transform="scale(0.666667 0.666667)" d="M237.41 427.362C237.014 414.097 236.425 400.189 238.596 387.027C239.788 379.805 242.079 372.548 244.613 365.695C245.892 362.235 247.451 358.822 249.314 355.637C249.961 354.53 252.277 351.599 252.448 350.495C252.508 350.113 249.996 345.575 249.621 344.717L225.527 289.36L213.962 258.573C211.746 252.499 208.886 246.349 207.491 240.045C213.298 240.418 219.539 242.545 225.026 244.391L252.469 254.518L285.28 267.034C297.063 271.604 309.558 275.491 320.772 281.319C322.949 278.346 324.607 275.05 326.898 272.136C334.519 262.441 345.174 253.573 355.037 246.301C382.22 226.259 414.449 213.439 448.405 212.135C453.498 211.939 458.487 212.32 463.562 212.607C468.543 212.889 473.476 213.101 478.415 213.843C475.906 218.017 472.325 221.35 468.923 224.784C459.152 234.65 448.902 243.201 437.245 250.782C432.371 253.952 427.198 256.786 421.997 259.377C419.419 260.661 407.364 265.402 406.312 266.762C405.843 267.369 405.453 268.366 405.137 269.062C407.883 270.324 411.92 270.218 414.938 270.799C419.193 271.619 423.581 272.622 427.723 273.876C431 274.868 434.386 275.992 437.542 277.32C440.722 278.659 444.724 281.611 448.09 282.059L448.828 282.134L464.23 290.41C470.371 295.003 476.39 299.637 482.02 304.854C493.487 315.479 503.093 327.345 512.077 340.1C513.214 342.156 514.339 344.028 515.789 345.885C528.011 364.334 530.858 390.05 531.019 411.708C531.055 416.587 531.339 421.591 530.411 426.399L529.819 426.561C527.52 427.247 524.808 429.468 522.726 430.759L508.792 439.214C498.649 445.184 488.384 450.598 477.527 455.164C468.266 459.059 458.557 462.145 448.898 464.891C440.003 467.42 431.054 469.769 421.875 471.003C402.934 473.549 384.13 472.865 365.172 470.881C330.874 467.291 296.317 459.079 265.373 443.602C255.989 438.908 245.671 433.825 237.41 427.362ZM279.048 409.181C273.537 410.514 269.284 412.699 266.314 417.711C264.351 421.023 263.381 425.511 264.446 429.284C265.624 433.453 268.836 436.693 272.625 438.659C277.345 441.108 282.788 441.789 287.985 440.947C292.638 440.064 296.733 438.449 299.584 434.408C301.75 431.338 302.826 427.228 302.214 423.497C301.514 419.231 298.69 415.213 295.115 412.885C290.439 409.84 284.6 408.476 279.048 409.181ZM483.902 409.552C478.131 411.006 472.773 412.698 469.522 418.125C467.609 421.319 467.543 426.447 468.447 429.987C469.418 433.792 471.39 436.534 474.81 438.454C479.224 440.932 483.432 441.101 488.339 440.971C493.44 440.12 498.978 438.82 502.104 434.263C504.317 431.037 504.558 425.592 503.792 421.787C503.035 418.03 499.721 413.923 496.447 412.063C492.539 409.842 488.359 408.988 483.902 409.552ZM362.58 434.108C367.008 440.555 372.824 444.06 380.559 445.458C386.682 446.564 393.069 445.097 398.167 441.505C400.915 439.568 402.917 437.162 405.282 434.828C403.333 433.654 401.396 432.623 399.209 431.952C394.377 430.471 389.471 430.459 384.474 430.457C376.704 430.454 369.674 430.412 362.58 434.108Z"/>
	<path fill="#1A1919" transform="scale(0.666667 0.666667)" d="M299.986 291.562C300.345 291.669 300.119 291.571 300.562 292.03C291.722 299.724 282.996 307.554 275.151 316.283C267.702 324.572 261.415 333.263 255.179 342.456C253.576 327.204 260.779 313.735 263.727 299.25L263.81 298.821L299.986 291.562Z"/>
	<path fill="#1A1919" transform="scale(0.666667 0.666667)" d="M362.58 434.108L362.231 433.814C361.111 432.697 360.314 430.914 359.536 429.54L352.667 415.87C351.74 414.024 349.338 410.96 349.386 408.938C350.384 408.2 350.478 408.159 351.717 408.11C356.353 411.32 357.045 418.534 363.967 417.549C368.899 416.847 374.42 417.017 379.416 417.003L402.054 416.995L407.656 416.998C408.023 416.999 409.193 417.122 409.528 417C410.055 416.808 411.888 414.32 412.312 413.777C413.85 411.81 414.769 409.791 417.188 408.709C418.22 408.84 418.664 409.062 419.493 409.688C419.57 411.286 416.927 414.227 416.021 415.789C412.69 421.526 411.01 428.841 406.558 433.831C406.177 434.257 405.832 434.64 405.282 434.828C403.333 433.654 401.396 432.623 399.209 431.952C394.377 430.471 389.471 430.459 384.474 430.457C376.704 430.454 369.674 430.412 362.58 434.108Z"/>
	<defs>
		<linearGradient id="gradient_1" gradientUnits="userSpaceOnUse" x1="265.258" y1="421.23801" x2="301.16699" y2="428.72101">
			<stop offset="0" stop-color="#F2B880" stop-opacity="0.90196079"/>
			<stop offset="1" stop-color="#F1B980" stop-opacity="0.95294118"/>
		</linearGradient>
	</defs>
	<path fill="url(#gradient_1)" transform="scale(0.666667 0.666667)" d="M279.048 409.181C284.6 408.476 290.439 409.84 295.115 412.885C298.69 415.213 301.514 419.231 302.214 423.497C302.826 427.228 301.75 431.338 299.584 434.408C296.733 438.449 292.638 440.064 287.985 440.947C282.788 441.789 277.345 441.108 272.625 438.659C268.836 436.693 265.624 433.453 264.446 429.284C263.381 425.511 264.351 421.023 266.314 417.711C269.284 412.699 273.537 410.514 279.048 409.181Z"/>
	<path fill="#1A1919" transform="scale(0.666667 0.666667)" d="M451.195 358.536C455.717 358.384 459.38 358.694 463.337 361.114C467.792 363.839 471.381 368.503 472.486 373.659L472.604 374.25C473.202 377.155 473.153 380.733 472.62 383.648L472.514 384.188C472.106 386.428 471.389 388.578 470.132 390.499C466.986 395.309 462.387 397.536 456.926 398.688C452.361 398.74 448.835 398.444 444.738 396.249C439.949 393.683 436.48 389.175 435.014 383.957C433.527 378.661 434.326 372.754 437.033 367.981C440.176 362.441 445.337 360.138 451.195 358.536Z"/>
	<path fill="#1A1919" transform="scale(0.666667 0.666667)" d="M314.593 358.26C316.916 358.033 319.518 358.616 321.648 359.499C326.806 361.637 331.149 366.071 333.237 371.242L333.506 371.927C333.848 372.773 334.187 373.594 334.35 374.496C335.334 379.934 333.968 386.266 330.751 390.779C326.891 396.192 321.765 398.155 315.474 399.271C312.523 399.643 307.906 397.962 305.387 396.415C300.6 393.475 297.556 388.565 296.328 383.153L296.184 382.5L295.851 380.823C295.235 375.352 296.294 370.317 299.809 365.972C303.537 361.365 308.819 358.979 314.593 358.26Z"/>
</svg>
