<svg width="512" height="512" xmlns="http://www.w3.org/2000/svg">

 <g>
  <title>Layer 1</title>
  <path id="svg_1" d="m1.875,768l-1.875,0l0.01758,-767.79492l1.10742,-0.20508l766.5,0c0.629,1.38976 0.4,3.08823 0.4,4.58635l-0.001,8.54065l0.001,32.0484l0,122.1026l-0.025,596.676l0,4.046l-766.125,0z" transform="scale(0.666667 0.666667)" fill="#A0E1E1"/>
  <g stroke="null" id="svg_12">
   <path stroke="null" id="svg_2" d="m239.74783,398.22314c0.55088,18.08863 2.389,35.44809 13.64323,50.41454c2.77278,3.68824 6.18119,7.04788 9.53603,10.20684c20.26096,19.07685 50.63121,26.68361 77.88089,25.79852c27.0314,-0.87789 53.7334,-12.01058 72.25058,-31.91415c7.58757,-8.15603 12.38876,-19.55737 13.67361,-30.55974c0.07835,-0.66761 0.44614,-0.78674 1.05458,-0.98422l16.73982,-4.30229c0.64202,1.50072 0.30942,4.42941 0.18069,6.06925c-2.10437,26.73718 -14.66583,50.6624 -35.02833,67.99387c-5.28331,4.49657 -11.17027,8.36151 -17.18676,11.8035c-6.05326,3.46278 -12.29522,6.65051 -18.87857,8.99235c-14.76897,5.25533 -30.87476,6.96473 -46.46245,5.67668c-11.93942,-0.98582 -24.95102,-3.37803 -36.01415,-8.07368c-6.83521,-2.9023 -13.22267,-6.848 -19.42065,-10.90962c-8.50543,-5.57354 -16.32806,-11.9842 -22.90502,-19.76925c-3.71143,-4.39423 -7.40447,-9.16744 -10.274,-14.16132c-7.74268,-13.47293 -11.36296,-28.63527 -13.91987,-43.8048l-1.40558,-8.2136c-0.22467,-1.30804 -0.63883,-2.80556 -0.52929,-4.12559l13.61764,-6.60254c0.94345,-0.65242 0.86429,-1.23128 1.00581,-2.27787l2.44177,-1.25687z" transform="translate(36 21) scale(0.666667 0.666667)" fill="white"/>
   <path stroke="null" id="svg_3" d="m368.8348,315.35236c5.84059,-4.34066 11.64919,-8.87162 17.82798,-12.72137c4.9611,-3.09099 10.16046,-5.6551 15.44138,-8.14084c5.18097,-2.43858 10.50586,-4.89634 15.92669,-6.74726c15.41499,-5.26572 32.97193,-7.67711 49.24322,-7.19899c7.16381,0.21028 14.18131,1.16732 21.27477,2.10197c13.61205,1.46714 28.51854,5.48799 40.45556,12.25364c1.95486,1.10815 4.32147,2.35462 5.75983,4.11919c0.28863,0.35339 1.01061,1.22888 1.12015,1.66543c0.30382,1.20969 0.10074,3.10299 0.03918,4.36625c-0.20308,4.15597 -0.75316,8.27836 -1.33522,12.39516c-2.30585,16.28888 -8.25997,33.65793 -17.19795,47.53063c-5.01067,7.77706 -10.86805,14.43317 -17.51856,20.83183c-3.22931,3.10618 -6.55857,6.31951 -10.15487,9.00434c-9.50165,7.09585 -20.49682,13.40976 -31.62872,17.57533c-4.4478,1.66463 -9.17784,2.75039 -13.56168,4.49497l-16.73982,4.30229c-0.59085,-1.18331 -0.1743,-2.36582 -0.03518,-3.66826l0.45973,-6.80242c0.24466,-9.34814 -0.31262,-18.58514 -1.51511,-27.85252c-0.25345,-4.87155 -1.28805,-9.71192 -2.7368,-14.35961c-5.60153,-17.9759 -20.43926,-34.59658 -36.48748,-44.03667c-3.95769,-2.32744 -8.16883,-4.38944 -12.35038,-6.28992c-1.98524,-0.90267 -4.02325,-1.61026 -5.95172,-2.64086l-0.335,-0.18229z" transform="translate(36 21) scale(0.666667 0.666667)" fill="#154941"/>
   <path stroke="null" id="svg_4" d="m298.90686,311.56258c10.64658,-3.81057 23.92762,-5.97731 35.17465,-4.30708l5.8246,0.98582c7.70989,0.52369 15.20871,2.37381 22.47327,4.9611l4.11999,1.42637c0.66521,0.20948 1.75897,0.37898 2.33544,0.72358l0.335,0.18229c1.92847,1.0306 3.96648,1.73818 5.95172,2.64086c4.18156,1.90049 8.3927,3.96248 12.35038,6.28992c16.04822,9.44008 30.88595,26.06077 36.48748,44.03667c1.44875,4.64768 2.48335,9.48806 2.7368,14.35961c1.2025,9.26738 1.75977,18.50439 1.51511,27.85252l-0.45973,6.80242c-0.13912,1.30244 -0.55568,2.48495 0.03518,3.66826c-0.60844,0.19748 -0.97623,0.31661 -1.05458,0.98422c-1.28485,11.00237 -6.08604,22.40371 -13.67361,30.55974c-18.51718,19.90357 -45.21918,31.03626 -72.25058,31.91415c-27.24968,0.88508 -57.61993,-6.72167 -77.88089,-25.79852c-3.35484,-3.15895 -6.76325,-6.51859 -9.53603,-10.20684c-11.25422,-14.96645 -13.09235,-32.32591 -13.64323,-50.41454l-0.01359,-0.14791l1.52231,-22.86424l0.28703,-2.58969c0.90267,-4.92192 3.39402,-10.33796 5.67588,-14.76257c7.98333,-15.47736 18.67389,-27.13374 33.01831,-36.96c6.03247,-3.98807 11.89145,-6.8512 18.66909,-9.33614z" transform="translate(36 21) scale(0.666667 0.666667)" fill="#FFC091"/>
   <path stroke="null" id="svg_5" d="m361.32479,431.98661c0.54128,-0.09434 0.23746,-0.10074 0.90187,0.14232c0,0.79953 -0.04158,1.18651 -0.59965,1.80055c-0.72038,0.79394 -1.97325,1.37999 -2.91989,1.85012c-3.21412,1.59587 -6.56976,2.58889 -10.12209,3.01264c-5.33688,0.63643 -9.42889,-1.47914 -13.96384,-3.92651l-7.5316,2.97106c-6.64412,2.02442 -12.03617,1.2033 -18.08703,-2.06999l-0.45014,-0.3366c-0.75236,-0.58846 -0.87229,-0.57726 -0.99622,-1.49433c0.18389,-0.11993 0.33341,-0.3374 0.55248,-0.36059c0.682,-0.07036 2.09238,0.62683 2.77678,0.87469c3.61229,1.30644 6.68329,2.5745 10.63059,1.98764l0.53409,-0.08315c3.02783,-0.44854 5.66869,-1.57108 8.47025,-2.72161c0.79953,-0.32781 3.11898,-1.48873 3.85455,-1.42237c1.86291,0.1663 4.84597,2.0508 6.69769,2.81436c7.24057,2.98705 13.53689,-0.20868 20.25217,-3.03822z" transform="translate(36 21) scale(0.666667 0.666667)" fill="#FD946D"/>
   <path stroke="null" id="svg_6" d="m398.50626,426.20519c2.43538,-0.12473 4.69885,-0.14871 6.88398,1.11215c1.99963,1.15453 3.67145,3.2549 4.23992,5.50958c0.70679,2.80716 0.39817,6.34829 -1.15932,8.82444c-2.01322,3.20213 -5.00508,4.17756 -8.49184,4.9707c-2.34423,0.0072 -4.64129,-0.18469 -6.86959,-0.97143c-2.06519,-0.72917 -3.92491,-2.14115 -4.88834,-4.13199l-0.15271,-0.32861c-0.22227,-0.46213 -0.42615,-0.88988 -0.49251,-1.40798c-0.40296,-3.12617 0.67001,-6.38827 2.52892,-8.89001c2.27547,-3.06301 4.81878,-4.08881 8.40149,-4.68686z" transform="translate(36 21) scale(0.666667 0.666667)" fill="#FD946D"/>
   <path stroke="null" id="svg_7" d="m376.07857,394.38778c1.43676,0.04797 2.83035,-0.15591 4.20474,0.38777l0.38298,0.16231c3.30607,1.38079 6.48821,4.20954 7.96654,7.50681c1.65423,3.69224 1.23848,8.08727 -0.20228,11.78511c-1.52311,3.90732 -3.81457,6.25235 -7.65073,7.93216c-2.15714,0.57327 -4.51576,0.6836 -6.56017,-0.3366c-3.17894,-1.58707 -5.35607,-4.443 -6.41785,-7.78425l-0.13272,-0.42935l-0.21987,-0.71478c-1.03779,-3.98407 -0.45893,-9.7551 1.61266,-13.29143c1.62225,-2.76878 3.98647,-4.35985 7.0167,-5.21775z" transform="translate(36 21) scale(0.666667 0.666667)" fill="#DE643D"/>
   <path stroke="null" id="svg_8" d="m285.48271,394.71079c2.42738,-0.10714 4.41022,0.01839 6.65211,1.12334c3.09819,1.52791 5.61592,4.43261 6.72247,7.7059c1.29924,3.84335 0.57167,8.74689 -1.26646,12.3128c-1.70221,3.30287 -4.33027,5.07224 -7.76426,6.158c-2.48655,0.32941 -4.97949,0.27584 -7.30293,-0.77715c-2.89191,-1.31123 -4.83477,-4.17756 -5.8254,-7.10865l-0.1711,-0.52609c-1.21689,-3.65546 -0.98822,-8.88041 0.72438,-12.34399c1.68062,-3.39801 4.72444,-5.43123 8.23119,-6.54418z" transform="translate(36 21) scale(0.666667 0.666667)" fill="#DE643D"/>
   <path stroke="null" id="svg_9" d="m298.90686,311.56258c10.64658,-3.81057 23.92762,-5.97731 35.17465,-4.30708l5.8246,0.98582c1.35601,2.9023 2.5617,5.46401 3.29887,8.61257c3.09499,13.21868 -0.11193,27.56789 -7.05108,39.04279c-8.50623,14.06538 -22.89542,24.72875 -38.89647,28.64646c-15.19832,3.72183 -38.12012,2.80556 -51.66581,-5.62471c-1.62865,-1.01381 -2.95427,-2.3938 -4.33507,-3.70743l0.28703,-2.58969c0.90267,-4.92192 3.39402,-10.33796 5.67588,-14.76257c7.98333,-15.47736 18.67389,-27.13374 33.01831,-36.96c6.03247,-3.98807 11.89145,-6.8512 18.66909,-9.33614z" transform="translate(36 21) scale(0.666667 0.666667)" fill="white"/>
   <path stroke="null" id="svg_10" d="m237.30606,399.48l-10.29958,4.66687c-3.86334,1.52711 -7.8634,2.59688 -11.85147,3.72902c-10.24601,2.9095 -20.52561,4.89154 -31.20017,5.01467c-8.54541,0.09914 -16.96449,-1.05219 -25.3284,-2.69602c-5.3129,-1.04339 -11.19986,-2.14994 -16.11378,-4.4446c-1.72939,-0.80753 -3.00065,-2.09478 -3.57551,-3.9377c-0.71478,-2.29146 -0.12872,-5.16098 0.32861,-7.45324c1.94606,-9.7575 5.96372,-19.39826 10.75132,-28.09798c10.71054,-19.46223 26.64843,-36.82008 46.07628,-47.7393c3.31726,-1.86451 6.60734,-3.96408 10.30518,-4.98988l0.43015,-0.11673c-2.9175,-3.14856 -5.12181,-7.11025 -7.03509,-10.91602c-4.80119,-9.54882 -7.59636,-19.62213 -9.90381,-30.00727l-3.84016,-20.06587c-1.372,-9.16584 -1.91248,-18.41564 -2.23389,-27.67023c-0.11913,-3.43 -0.47492,-7.29574 -0.03038,-10.69615c0.14871,-1.13853 0.5213,-2.30985 1.24887,-3.21572c3.16855,-3.94729 23.01615,-5.9901 28.72801,-6.42345c14.40678,-1.09536 29.27729,0.1743 42.9509,5.04505c11.48369,4.09121 22.29817,11.02955 31.50879,18.95772c0.66761,-0.61244 1.61106,-4.41582 2.04201,-5.476c0.72278,-1.77816 1.66703,-3.50515 2.59448,-5.18497c8.25358,-14.95526 19.02408,-29.30128 32.60894,-39.84552c3.68425,-2.85993 10.4323,-8.35512 15.28947,-7.61075c3.10139,0.47572 6.3243,2.85513 8.82444,4.65888c8.16403,5.89096 15.53252,12.93724 21.33633,21.19242c14.35161,20.41527 23.94201,46.63755 19.46303,71.84522c-2.60248,14.64504 -10.50106,27.97885 -20.78385,38.61504l-7.21738,6.58495c-7.26455,-2.58729 -14.76337,-4.43741 -22.47327,-4.9611l-5.8246,-0.98582c-11.24703,-1.67022 -24.52807,0.49651 -35.17465,4.30708c-6.77764,2.48495 -12.63662,5.34807 -18.66909,9.33614c-14.34442,9.82626 -25.03497,21.48265 -33.01831,36.96c-2.28187,4.42461 -4.77321,9.84065 -5.67588,14.76257l-0.28703,2.58969l-1.52231,22.86424l0.01359,0.14791l-2.44177,1.25687z" transform="translate(36 21) scale(0.666667 0.666667)" fill="#154941"/>
   <path stroke="null" id="svg_11" d="m334.08151,307.25549l1.10815,-10.79049c2.32984,0.70199 4.71165,0.89708 7.09905,1.29524l5.97651,1.10975c3.74421,0.5093 7.46364,1.80215 11.07513,2.87672c3.52194,1.04739 7.29334,2.66964 10.25641,4.87075l-7.21738,6.58495c-7.26455,-2.58729 -14.76337,-4.43741 -22.47327,-4.9611l-5.8246,-0.98582z" transform="translate(36 21) scale(0.666667 0.666667)" fill="#6CE062"/>
  </g>
 </g>
</svg>