<?xml version="1.0" encoding="utf-8" ?>
<svg xmlns="http://www.w3.org/2000/svg" xmlns:xlink="http://www.w3.org/1999/xlink" width="512" height="511">
	<path fill="#AFE67F" transform="scale(0.666667 0.666667)" d="M0 767.625L0.0175781 0.205078L1.125 0L600.086 -0.0249082L723.285 -0.025145L754.827 -0.0235952L763.401 -0.0248613C764.902 -0.0248914 766.608 -0.255201 768 0.375L768 767.625C767.5 767.851 767.05 768.007 766.494 768.023L736.935 768.025L676.957 768.026L495.75 768L118.184 768.025L31.7745 768.025L10.1868 768.024C7.5607 768.023 2.30088 768.666 0 767.625Z"/>
	<path fill="#7EB9B1" transform="scale(0.666667 0.666667)" d="M1.125 0L600.086 -0.0249082L723.285 -0.025145L754.827 -0.0235952L763.401 -0.0248613C764.902 -0.0248914 766.608 -0.255201 768 0.375L718.388 0.535983L643.634 0.517755L390.183 0.5247L136.482 0.528132L52.1292 0.496672L2.87208 0.439276C2.18384 0.424029 1.73806 0.304911 1.125 0Z"/>
	<path fill="#7EB9B1" transform="scale(0.666667 0.666667)" d="M0 767.625C6.43309 766.96 13.137 767.307 19.6043 767.314L52.3022 767.351L155.665 767.35L495.161 767.399L768 767.625C767.5 767.851 767.05 768.007 766.494 768.023L736.935 768.025L676.957 768.026L495.75 768L118.184 768.025L31.7745 768.025L10.1868 768.024C7.5607 768.023 2.30088 768.666 0 767.625Z"/>
	<path fill="#237468" transform="scale(0.666667 0.666667)" d="M252.008 461.014L250.995 459.471C248.181 454.799 245.943 449.701 243.875 444.664C233.378 419.092 232.214 391.732 239.107 365.102C248.153 330.154 272.162 298.874 303.222 280.688C342.744 257.547 389.191 252.183 433.284 263.693C433.454 259.38 434.268 254.891 435.369 250.719C442.225 224.759 461.381 202.896 484.375 189.636C511.171 174.184 542.212 171.248 572.578 170.647L583.139 170.455C584.717 170.42 586.743 170.088 588.248 170.49C588.332 184.007 588.431 197.615 586.405 211.014C584.363 224.514 579.955 238.019 573.736 250.191C566.781 263.803 558.078 276.216 546.642 286.434C533.21 298.436 515.895 306.732 498.822 312.163L498.421 312.287C505.283 319.451 511.57 327.146 516.67 335.681C528.302 355.148 534.41 378.961 533.926 401.65C533.233 434.113 521.016 464.493 497.43 487.056C482.282 501.548 463.791 512.94 443.894 519.579L437.176 521.73C436.895 521.819 435.642 522.097 435.436 522.278C435.392 522.317 435.309 523.043 435.305 523.097C435.008 527.456 435.434 532.155 435.463 536.541L435.442 565.296C435.436 567.159 435.949 571.945 435.261 573.446C434.987 574.046 433.96 575.102 433.471 575.6C432.181 576.913 429.919 577.915 428.062 577.803C425.974 577.678 423.857 576.169 422.586 574.596C421.778 573.596 421.462 572.615 421.303 571.35C420.707 566.608 421.13 561.283 421.106 556.484L421.039 525.592C397.306 530.219 372.324 530.503 348.54 526.299L348.727 559.028C348.741 563.001 349.298 567.894 348.633 571.781C348.455 572.825 347.823 573.966 347.105 574.733C345.285 576.678 342.446 577.691 339.807 577.612C337.627 577.547 335.812 575.898 334.486 574.312C334.282 574.069 333.876 573.51 333.794 573.206C333.409 571.763 333.531 569.629 333.532 568.121L333.574 558.306L333.817 524.145L333.842 522.486C333.844 522.38 333.935 522.227 333.847 522.169C333.016 521.623 329.618 521.354 328.44 521.015C323.433 519.575 318.482 517.809 313.722 515.694C287.921 504.232 267.025 484.727 252.008 461.014Z"/>
	<path fill="#191816" transform="scale(0.666667 0.666667)" d="M399.682 398.438C400.302 398.386 400.972 398.315 401.59 398.396C403.255 398.612 404.392 399.958 405.274 401.25C405.49 403.209 405.121 404.783 404.186 406.523C401.804 410.953 396.884 413.616 392.187 414.984L391.5 415.177L390.242 415.533C383.168 417.246 375.455 414.065 369.551 410.412C368.4 409.417 367.14 408.38 366.342 407.062C365.314 405.365 365.054 403.746 365.438 401.829C366.151 400.872 366.833 400.076 368.062 399.825C372.224 398.975 374.641 402.366 377.923 404.176C383.194 407.083 388.954 407.2 393.518 402.998C395.43 401.238 397.099 399.164 399.682 398.438Z"/>
	<path fill="#191816" transform="scale(0.666667 0.666667)" d="M458.139 392.333C460.085 392.211 462.264 392.119 464.099 392.875C467.322 394.202 469.761 396.779 471.023 400.015C472.024 402.582 471.389 406.9 470.198 409.312C468.43 412.895 465.568 414.588 461.894 415.754C459.399 415.847 457.751 415.474 455.567 414.25C452.169 412.346 449.756 409.507 448.823 405.663C448.164 402.951 448.905 400.034 450.344 397.688C452.292 394.51 454.619 393.202 458.139 392.333Z"/>
	<path fill="#191816" transform="scale(0.666667 0.666667)" d="M306.06 391.612C308.133 391.512 310.177 391.853 312.058 392.767C315.113 394.251 317.636 397.226 318.562 400.489C319.477 403.706 318.931 407.732 317.256 410.625C315.394 413.839 312.619 414.805 309.244 415.694C306.917 415.647 304.911 415.33 302.866 414.122C299.821 412.322 296.754 409.565 295.93 405.987C295.237 402.978 296.152 399.676 297.753 397.125C299.735 393.968 302.525 392.449 306.06 391.612Z"/>
	<path fill="#AFE67F" transform="scale(0.666667 0.666667)" d="M500.995 248.526L501.333 248.373C506.429 246.004 510.982 242.497 516.188 240.299C516.684 240.513 516.952 240.686 517.38 241.024C518.33 241.774 520.266 241.849 521.44 242.058L528.746 243.731C536.042 245.777 543.953 248.066 550.234 252.441C543.848 255.945 536.413 258.631 529.312 260.274C525.488 261.159 521.406 261.942 517.538 260.83C510.466 258.798 504.284 253.861 498 250.203C499.054 249.771 500.021 249.113 500.995 248.526Z"/>
	<path fill="#AFE67F" transform="scale(0.666667 0.666667)" d="M494.538 251.731L494.782 252.004C496.652 253.991 499.265 255.247 501.545 256.705C505.946 259.518 510.384 262.243 514.484 265.487L514.339 265.706L513.847 265.694C510.142 265.68 506.544 267.72 503.197 269.14L487.989 275.709C480.755 278.689 473.12 281.862 465.581 283.912C462.653 281.47 459.915 279.439 456.527 277.669C460.592 272.86 466.509 269.349 471.812 266.044C479.229 261.42 487.024 257.004 494.167 251.995L494.538 251.731Z"/>
	<path fill="#AFE67F" transform="scale(0.666667 0.666667)" d="M460.21 268.457C459.403 267.124 459.419 264.942 459.199 263.398C458.261 256.811 457.835 250.356 458.383 243.706C459.258 233.094 463.731 222.816 470.693 214.786C473.986 210.988 477.792 207.762 481.616 204.523C485.064 208.869 488.856 212.702 493.066 216.306C495.399 208.766 499.149 201.88 504.66 196.189C508.534 192.189 513.084 188.789 517.139 184.951C518.042 187.993 519.765 191.081 521.226 193.892C526.048 203.173 532.261 211.01 539.484 218.51C542.641 221.788 545.85 225.084 549.44 227.892L549.784 228.156L537.845 231.883L525.861 236.16C523.378 237.03 520.658 238.142 517.999 238.102C513.061 238.029 505.294 241.836 501.216 244.519L500.956 244.695C492.154 248.639 483.898 253.907 475.608 258.812C470.584 261.785 464.704 264.771 460.21 268.457Z"/>
	<path fill="#191816" transform="scale(0.666667 0.666667)" d="M500.956 244.695L501.509 244.745C502.506 244.797 503.545 244.147 504.418 243.727C506.651 242.652 511.97 239.521 514.316 239.812L514.312 240.191L511.337 241.763C508.151 243.356 505.133 245.824 501.844 247.127L500.995 248.526C500.021 249.113 499.054 249.771 498 250.203C496.748 250.498 496.132 250.742 495.197 251.637L494.538 251.731L494.167 251.995C487.024 257.004 479.229 261.42 471.812 266.044C466.509 269.349 460.592 272.86 456.527 277.669C459.915 279.439 462.653 281.47 465.581 283.912C468.081 286.423 471.175 288.418 474.023 290.525C479.473 294.558 484.909 298.716 489.973 303.227C493.024 305.945 496.215 308.824 498.421 312.287C505.283 319.451 511.57 327.146 516.67 335.681C528.302 355.148 534.41 378.961 533.926 401.65C533.233 434.113 521.016 464.493 497.43 487.056C482.282 501.548 463.791 512.94 443.894 519.579L437.176 521.73C436.895 521.819 435.642 522.097 435.436 522.278C435.392 522.317 435.309 523.043 435.305 523.097C435.008 527.456 435.434 532.155 435.463 536.541L435.442 565.296C435.436 567.159 435.949 571.945 435.261 573.446C434.987 574.046 433.96 575.102 433.471 575.6C432.181 576.913 429.919 577.915 428.062 577.803C425.974 577.678 423.857 576.169 422.586 574.596C421.778 573.596 421.462 572.615 421.303 571.35C420.707 566.608 421.13 561.283 421.106 556.484L421.039 525.592C397.306 530.219 372.324 530.503 348.54 526.299L348.727 559.028C348.741 563.001 349.298 567.894 348.633 571.781C348.455 572.825 347.823 573.966 347.105 574.733C345.285 576.678 342.446 577.691 339.807 577.612C337.627 577.547 335.812 575.898 334.486 574.312C334.282 574.069 333.876 573.51 333.794 573.206C333.409 571.763 333.531 569.629 333.532 568.121L333.574 558.306L333.817 524.145L333.842 522.486C333.844 522.38 333.935 522.227 333.847 522.169C333.016 521.623 329.618 521.354 328.44 521.015C323.433 519.575 318.482 517.809 313.722 515.694C287.921 504.232 267.025 484.727 252.008 461.014C254.536 460.191 257.003 459.631 259.359 458.346C264.439 455.576 269.85 448.77 273.026 444.011C274.212 444.333 275.573 445.536 276.675 446.163C285.568 451.23 296.557 453.567 306.325 456.465C318.652 460.121 331.347 462.617 344.026 464.717C357.473 466.943 370.956 468.967 384.616 469.093C400.614 469.241 416.756 466.811 432.491 464.21C444.667 462.197 456.838 460.045 468.777 456.889C483.498 452.998 496.408 447.31 504.333 433.597C514.99 415.156 515.119 391.703 509.61 371.625C503.143 348.06 487.55 326.231 467.813 311.892C459.215 305.645 449.665 300.591 440.417 295.385C438.349 297.779 436.728 300.753 434.937 303.375C429.941 310.69 424.703 317.834 420.523 325.668C417.943 330.505 415.85 335.752 412.979 340.413C412.217 341.651 410.961 343.812 409.535 344.302C407.576 344.975 403.695 343.473 402.188 342.253C401.595 341.774 401.199 341.262 401.21 340.488C401.227 339.176 402.036 337.661 402.54 336.466L407.975 325.102C412.129 317.046 416.448 309.187 421.497 301.649C423.146 299.188 424.764 296.369 426.843 294.262C432.085 288.951 439.119 284.422 445.099 279.917C450.153 276.11 455.526 272.73 460.21 268.457C464.704 264.771 470.584 261.785 475.608 258.812C483.898 253.907 492.154 248.639 500.956 244.695Z"/>
</svg>
