<?xml version="1.0" encoding="utf-8" ?>
<svg xmlns="http://www.w3.org/2000/svg" xmlns:xlink="http://www.w3.org/1999/xlink" width="512" height="512">
	<path fill="#A0E1E1" transform="scale(0.666667 0.666667)" d="M1.875 768L0 768L0.0175781 0.205078L1.125 0L767.625 0C768.254 1.38976 768.025 3.08823 768.025 4.58635L768.024 13.127L768.025 45.1754L768.025 167.278L768 763.954L768 768L1.875 768Z"/>
	<path fill="white" transform="scale(0.666667 0.666667)" d="M262.874 439.083C263.563 461.707 265.862 483.419 279.938 502.138C283.406 506.751 287.669 510.953 291.865 514.904C317.206 538.764 355.191 548.278 389.273 547.171C423.082 546.073 456.479 532.149 479.639 507.255C489.129 497.054 495.134 482.794 496.741 469.033C496.839 468.198 497.299 468.049 498.06 467.802L518.997 462.421C519.8 464.298 519.384 467.961 519.223 470.012C516.591 503.453 500.88 533.377 475.412 555.054C468.804 560.678 461.441 565.512 453.916 569.817C446.345 574.148 438.538 578.135 430.304 581.064C411.832 587.637 391.688 589.775 372.192 588.164C357.259 586.931 340.985 583.939 327.148 578.066C318.599 574.436 310.61 569.501 302.858 564.421C292.22 557.45 282.436 549.432 274.21 539.695C269.568 534.199 264.949 528.229 261.36 521.983C251.676 505.132 247.148 486.168 243.95 467.195L242.192 456.922C241.911 455.286 241.393 453.413 241.53 451.762L258.562 443.504C259.742 442.688 259.643 441.964 259.82 440.655L262.874 439.083Z"/>
	<path fill="#154941" transform="scale(0.666667 0.666667)" d="M424.327 335.434C431.632 330.005 438.897 324.338 446.625 319.523C452.83 315.657 459.333 312.45 465.938 309.341C472.418 306.291 479.078 303.217 485.858 300.902C505.138 294.316 527.097 291.3 547.448 291.898C556.408 292.161 565.185 293.358 574.057 294.527C591.082 296.362 609.726 301.391 624.656 309.853C627.101 311.239 630.061 312.798 631.86 315.005C632.221 315.447 633.124 316.542 633.261 317.088C633.641 318.601 633.387 320.969 633.31 322.549C633.056 327.747 632.368 332.903 631.64 338.052C628.756 358.425 621.309 380.149 610.13 397.5C603.863 407.227 596.537 415.552 588.219 423.555C584.18 427.44 580.016 431.459 575.518 434.817C563.634 443.692 549.882 451.589 535.959 456.799C530.396 458.881 524.48 460.239 518.997 462.421L498.06 467.802C497.321 466.322 497.842 464.843 498.016 463.214L498.591 454.706C498.897 443.014 498.2 431.461 496.696 419.87C496.379 413.777 495.085 407.723 493.273 401.91C486.267 379.427 467.709 358.639 447.637 346.832C442.687 343.921 437.42 341.342 432.19 338.965C429.707 337.836 427.158 336.951 424.746 335.662L424.327 335.434Z"/>
	<path fill="#FFC091" transform="scale(0.666667 0.666667)" d="M336.866 330.694C350.182 325.928 366.793 323.218 380.86 325.307L388.145 326.54C397.788 327.195 407.167 329.509 416.253 332.745L421.406 334.529C422.238 334.791 423.606 335.003 424.327 335.434L424.746 335.662C427.158 336.951 429.707 337.836 432.19 338.965C437.42 341.342 442.687 343.921 447.637 346.832C467.709 358.639 486.267 379.427 493.273 401.91C495.085 407.723 496.379 413.777 496.696 419.87C498.2 431.461 498.897 443.014 498.591 454.706L498.016 463.214C497.842 464.843 497.321 466.322 498.06 467.802C497.299 468.049 496.839 468.198 496.741 469.033C495.134 482.794 489.129 497.054 479.639 507.255C456.479 532.149 423.082 546.073 389.273 547.171C355.191 548.278 317.206 538.764 291.865 514.904C287.669 510.953 283.406 506.751 279.938 502.138C265.862 483.419 263.563 461.707 262.874 439.083L262.857 438.898L264.761 410.301L265.12 407.062C266.249 400.906 269.365 394.132 272.219 388.598C282.204 369.24 295.575 354.661 313.516 342.371C321.061 337.383 328.389 333.802 336.866 330.694Z"/>
	<path fill="#FD946D" transform="scale(0.666667 0.666667)" d="M414.934 481.312C415.611 481.194 415.231 481.186 416.062 481.49C416.062 482.49 416.01 482.974 415.312 483.742C414.411 484.735 412.844 485.468 411.66 486.056C407.64 488.052 403.443 489.294 399 489.824C392.325 490.62 387.207 487.974 381.535 484.913L372.115 488.629C363.805 491.161 357.061 490.134 349.493 486.04L348.93 485.619C347.989 484.883 347.839 484.897 347.684 483.75C347.914 483.6 348.101 483.328 348.375 483.299C349.228 483.211 350.992 484.083 351.848 484.393C356.366 486.027 360.207 487.613 365.144 486.879L365.812 486.775C369.599 486.214 372.902 484.81 376.406 483.371C377.406 482.961 380.307 481.509 381.227 481.592C383.557 481.8 387.288 484.157 389.604 485.112C398.66 488.848 406.535 484.851 414.934 481.312Z"/>
	<path fill="#FD946D" transform="scale(0.666667 0.666667)" d="M461.438 474.081C464.484 473.925 467.315 473.895 470.048 475.472C472.549 476.916 474.64 479.543 475.351 482.363C476.235 485.874 475.849 490.303 473.901 493.4C471.383 497.405 467.641 498.625 463.28 499.617C460.348 499.626 457.475 499.386 454.688 498.402C452.105 497.49 449.779 495.724 448.574 493.234L448.383 492.823C448.105 492.245 447.85 491.71 447.767 491.062C447.263 487.152 448.605 483.072 450.93 479.943C453.776 476.112 456.957 474.829 461.438 474.081Z"/>
	<path fill="#DE643D" transform="scale(0.666667 0.666667)" d="M433.387 434.286C435.184 434.346 436.927 434.091 438.646 434.771L439.125 434.974C443.26 436.701 447.24 440.239 449.089 444.363C451.158 448.981 450.638 454.478 448.836 459.103C446.931 463.99 444.065 466.923 439.267 469.024C436.569 469.741 433.619 469.879 431.062 468.603C427.086 466.618 424.363 463.046 423.035 458.867L422.869 458.33L422.594 457.436C421.296 452.453 422.02 445.235 424.611 440.812C426.64 437.349 429.597 435.359 433.387 434.286Z"/>
	<path fill="#DE643D" transform="scale(0.666667 0.666667)" d="M320.076 434.69C323.112 434.556 325.592 434.713 328.396 436.095C332.271 438.006 335.42 441.639 336.804 445.733C338.429 450.54 337.519 456.673 335.22 461.133C333.091 465.264 329.804 467.477 325.509 468.835C322.399 469.247 319.281 469.18 316.375 467.863C312.758 466.223 310.328 462.638 309.089 458.972L308.875 458.314C307.353 453.742 307.639 447.207 309.781 442.875C311.883 438.625 315.69 436.082 320.076 434.69Z"/>
	<path fill="white" transform="scale(0.666667 0.666667)" d="M336.866 330.694C350.182 325.928 366.793 323.218 380.86 325.307L388.145 326.54C389.841 330.17 391.349 333.374 392.271 337.312C396.142 353.845 392.131 371.792 383.452 386.144C372.813 403.736 354.816 417.073 334.803 421.973C315.794 426.628 287.125 425.482 270.183 414.938C268.146 413.67 266.488 411.944 264.761 410.301L265.12 407.062C266.249 400.906 269.365 394.132 272.219 388.598C282.204 369.24 295.575 354.661 313.516 342.371C321.061 337.383 328.389 333.802 336.866 330.694Z"/>
	<path fill="#154941" transform="scale(0.666667 0.666667)" d="M259.82 440.655L246.938 446.492C242.106 448.402 237.103 449.74 232.115 451.156C219.3 454.795 206.443 457.274 193.092 457.428C182.404 457.552 171.874 456.112 161.413 454.056C154.768 452.751 147.405 451.367 141.259 448.497C139.096 447.487 137.506 445.877 136.787 443.572C135.893 440.706 136.626 437.117 137.198 434.25C139.632 422.046 144.657 409.988 150.645 399.107C164.041 374.765 183.975 353.055 208.274 339.398C212.423 337.066 216.538 334.44 221.163 333.157L221.701 333.011C218.052 329.073 215.295 324.118 212.902 319.358C206.897 307.415 203.401 294.816 200.515 281.827L195.712 256.73C193.996 245.266 193.32 233.697 192.918 222.122C192.769 217.832 192.324 212.997 192.88 208.744C193.066 207.32 193.532 205.855 194.442 204.722C198.405 199.785 223.229 197.23 230.373 196.688C248.392 195.318 266.991 196.906 284.093 202.998C298.456 208.115 311.982 216.793 323.502 226.709C324.337 225.943 325.517 221.186 326.056 219.86C326.96 217.636 328.141 215.476 329.301 213.375C339.624 194.67 353.095 176.727 370.086 163.539C374.694 159.962 383.134 153.089 389.209 154.02C393.088 154.615 397.119 157.591 400.246 159.847C410.457 167.215 419.673 176.028 426.932 186.353C444.882 211.887 456.877 244.684 451.275 276.212C448.02 294.529 438.141 311.206 425.28 324.509L416.253 332.745C407.167 329.509 397.788 327.195 388.145 326.54L380.86 325.307C366.793 323.218 350.182 325.928 336.866 330.694C328.389 333.802 321.061 337.383 313.516 342.371C295.575 354.661 282.204 369.24 272.219 388.598C269.365 394.132 266.249 400.906 265.12 407.062L264.761 410.301L262.857 438.898L262.874 439.083L259.82 440.655Z"/>
	<path fill="#6CE062" transform="scale(0.666667 0.666667)" d="M380.86 325.307L382.246 311.811C385.16 312.689 388.139 312.933 391.125 313.431L398.6 314.819C403.283 315.456 407.935 317.073 412.452 318.417C416.857 319.727 421.574 321.756 425.28 324.509L416.253 332.745C407.167 329.509 397.788 327.195 388.145 326.54L380.86 325.307Z"/>
</svg>
