<?xml version="1.0" encoding="utf-8" ?>
<svg xmlns="http://www.w3.org/2000/svg" xmlns:xlink="http://www.w3.org/1999/xlink" width="512" height="512">
	<path fill="#FFC091" transform="scale(0.666667 0.666667)" d="M-0 -0L768 0L768 768L-0 768L0 -0Z"/>
	<path fill="#237468" transform="scale(0.666667 0.666667)" d="M448.527 282.193L489.546 265.123L536.111 247.885C543.858 245.346 552.271 242.112 560.325 240.966C558.818 246.488 556.773 251.834 554.88 257.231L543.815 286.406L531.158 314.219L522.418 333.11C520.397 337.378 518.46 341.884 515.812 345.809C514.408 345.039 512.702 341.975 512.13 340.487C499.331 321.31 482.896 303.566 463.909 290.385L448.527 282.193Z"/>
	<path fill="#191816" transform="scale(0.666667 0.666667)" d="M463.909 290.385C467.381 289.222 498.979 297.253 503.131 299.334L503.817 299.696C506.427 311.126 510.314 322.292 511.724 333.978C511.974 336.048 512.478 338.423 512.13 340.487C499.331 321.31 482.896 303.566 463.909 290.385Z"/>
	<path fill="#237468" transform="scale(0.666667 0.666667)" d="M237.253 427.094C239.316 428.388 241.176 429.975 243.296 431.257C262.904 443.118 284.62 453.48 306.74 459.558C328.001 465.4 349.29 469.443 371.275 471.347C389.04 472.887 406.464 473.115 424.161 470.522C431.478 469.449 438.594 467.516 445.721 465.588C459.95 461.737 474.173 456.929 487.483 450.556C498.167 445.441 508.529 439.256 518.625 433.061L529.875 426.077L530.45 426.675C526.149 458.798 507.519 486.799 481.982 506.2C465.29 518.882 445.725 528.766 425.256 533.562C411.731 536.731 398.088 537.762 384.238 537.795C374.418 537.818 364.587 537.482 354.851 536.088C318.451 530.875 281.183 509.495 259.225 479.839C247.564 464.091 240.902 446.185 237.253 427.094Z"/>
	<defs>
		<linearGradient id="gradient_0" gradientUnits="userSpaceOnUse" x1="482.409" y1="217.58501" x2="257.27899" y2="446.68399">
			<stop offset="0" stop-color="#7BD26F"/>
			<stop offset="1" stop-color="#B4ED8A"/>
		</linearGradient>
	</defs>
	<path fill="url(#gradient_0)" transform="scale(0.666667 0.666667)" d="M399.127 222.139C415.901 215.58 435.653 211.859 453.619 211.961C462.138 212.01 470.589 212.917 479.07 213.59C465.059 230.559 448.85 244.854 429.568 255.539C424.249 258.486 418.846 261.346 413.136 263.467L412.65 263.731C408.594 265.882 403.701 267.191 399.405 268.895C411.615 269.816 422.903 271.75 434.443 276.043C437.174 277.058 439.822 278.148 442.431 279.448C444.254 280.356 446.508 281.963 448.527 282.193L463.909 290.385C482.896 303.566 499.331 321.31 512.13 340.487C512.702 341.975 514.408 345.039 515.812 345.809C518.05 348.412 519.592 352.209 520.978 355.359C528.903 373.382 530.882 391.539 530.976 411.018C530.997 415.441 531.252 420.124 530.857 424.521L530.499 426.659L530.45 426.675L529.875 426.077L518.625 433.061C508.529 439.256 498.167 445.441 487.483 450.556C474.173 456.929 459.95 461.737 445.721 465.588C438.594 467.516 431.478 469.449 424.161 470.522C406.464 473.115 389.04 472.887 371.275 471.347C349.29 469.443 328.001 465.4 306.74 459.558C284.62 453.48 262.904 443.118 243.296 431.257C241.176 429.975 239.316 428.388 237.253 427.094L237.064 426.55C236.79 425.371 236.889 423.782 236.841 422.544L236.703 412.712C236.667 397.577 238.379 383.201 243.424 368.863C244.802 364.949 246.225 361.028 248.216 357.375C249.523 354.978 251.504 353.13 252.896 350.825C248.913 344.904 246.884 338.004 243.856 331.574L223.139 284.314L206.823 239.744C215.695 240.771 224.495 244.133 232.936 246.926L300.965 272.917C307.475 275.623 314.697 277.418 320.574 281.409L320.993 281.698L323.54 276.73C326.669 271.443 331.093 267.035 335.451 262.764C349.974 248.53 367.21 236.501 385.541 227.714C389.802 225.671 394.545 223.327 399.127 222.139Z"/>
	<path fill="#D2636D" transform="scale(0.666667 0.666667)" d="M362.249 434.133C368.746 430.369 376.657 430.456 383.966 430.463C388.972 430.468 394.123 430.49 398.99 431.812C401.447 432.48 403.535 433.641 405.736 434.882C403.656 437.505 401.354 439.881 398.545 441.723C392.816 445.482 386.781 447.09 380.011 445.672C372.656 444.132 366.373 440.491 362.249 434.133Z"/>
	<path fill="#191816" transform="scale(0.666667 0.666667)" d="M300.013 291.562L300.473 291.601L300.756 291.938C283.288 306.55 267.806 322.491 255.61 341.812L255.036 341.742C254.907 336.803 255.144 331.76 256.07 326.895C257.206 320.923 259.27 315.17 261.012 309.36L263.889 298.883C275.604 294.852 287.864 293.606 300.013 291.562Z"/>
	<path fill="#191816" transform="scale(0.666667 0.666667)" d="M362.249 434.133C358.134 427.854 355.296 420.945 351.875 414.289C351.206 412.987 349.019 410.003 349.177 408.785C350.265 408.098 350.452 408.107 351.75 408.105C355.204 410.227 356.362 415.24 359.814 417.201C360.616 417.656 362.014 417.663 362.909 417.639L373.491 416.984L409.256 416.996C412.435 415.178 413.848 409.403 417.562 408.649C418.574 409.063 419.187 409.119 419.774 410.062C418.031 412.51 416.313 414.981 414.972 417.678C412.197 423.262 410.028 430.236 405.736 434.882C403.535 433.641 401.447 432.48 398.99 431.812C394.123 430.49 388.972 430.468 383.966 430.463C376.657 430.456 368.746 430.369 362.249 434.133Z"/>
	<path fill="#F2B980" transform="scale(0.666667 0.666667)" d="M484.185 409.619C488.863 409.368 493.739 410.114 497.634 412.917C501.187 415.473 503.599 418.992 504.285 423.362C504.866 427.066 504.802 431.607 502.377 434.663C498.842 439.118 493.087 440.228 487.745 440.825C485.02 441.017 481.716 440.917 479.062 440.271C474.874 439.251 471.025 436.323 468.88 432.596L468.613 432.119C468.147 431.299 467.842 430.595 467.662 429.658C466.902 425.691 467.574 420.932 469.888 417.591C473.566 412.284 478.137 410.656 484.185 409.619Z"/>
	<path fill="#F2B980" transform="scale(0.666667 0.666667)" d="M278.599 409.219C283.859 408.601 289.862 409.583 294.432 412.304C298.122 414.502 301.125 418.215 302.059 422.438C303.014 426.758 302.115 430.8 299.695 434.437C297.101 438.334 293.145 439.984 288.735 440.941C283.099 442.1 276.908 441.24 271.875 438.438C268.493 436.555 265.435 433.356 264.396 429.572C263.298 425.574 264.064 421.063 266.185 417.55C269.136 412.665 273.289 410.547 278.599 409.219Z"/>
	<path fill="#191816" transform="scale(0.666667 0.666667)" d="M451.138 358.571C455.855 358.205 460.064 358.861 464.062 361.526C468.378 364.402 471.678 369.244 472.688 374.319C473.725 379.536 472.984 386.546 469.906 390.947C466.711 395.517 462.234 397.715 456.886 398.736C452.718 399.224 448.638 398.363 444.938 396.424C440.246 393.967 436.605 389.453 435.112 384.375C433.514 378.941 434.22 372.622 437.093 367.754C440.27 362.374 445.31 360.022 451.138 358.571Z"/>
	<path fill="#191816" transform="scale(0.666667 0.666667)" d="M314.213 358.266C318.285 357.871 322.331 359.302 325.607 361.664C329.978 364.817 333.768 370.038 334.453 375.451C335.176 381.163 333.927 386.83 330.366 391.403C326.541 396.314 321.571 398.487 315.481 399.245C311.352 399.158 307.659 398.183 304.299 395.762C299.843 392.551 296.92 387.574 296.045 382.181C295.132 376.558 295.684 371.321 299.224 366.647C302.946 361.734 308.194 359.051 314.213 358.266Z"/>
</svg>
