<?xml version="1.0" encoding="utf-8" ?>
<svg xmlns="http://www.w3.org/2000/svg" xmlns:xlink="http://www.w3.org/1999/xlink" width="512" height="512">
	<path fill="#AFE67F" transform="scale(0.666667 0.666667)" d="M0 1.125L0.0878906 0.275391C0.780375 -0.388829 7.77062 -8.22773e-05 9.38748 -0.000100172L509.998 -0.00330958L767.578 0.046875L768 0.75L768 768L-0 768L0 1.125Z"/>
	<path fill="#F1F0FB" transform="scale(0.666667 0.666667)" d="M0 1.125L0.0878906 0.275391C0.780375 -0.388829 7.77062 -8.22773e-05 9.38748 -0.000100172L509.998 -0.00330958L767.578 0.046875L768 0.75L697.293 1.092L571.3 1.11482L201.261 1.14034L60.7014 1.14799L18.8419 1.08155L6.68022 1.04223C4.50175 1.03251 2.15105 0.847965 0 1.125Z"/>
	<path fill="#237468" transform="scale(0.666667 0.666667)" d="M547.058 218.539L551.853 218.452C552.027 218.754 552.242 219.066 552.363 219.392C552.56 241.277 550.433 263.219 539.225 282.506C536.517 287.167 533.694 291.445 529.901 295.312C525.573 299.726 520.83 303.496 515.443 306.542C512.394 308.267 509.164 309.558 506.088 311.205C503.94 311.607 501.711 312.783 499.647 313.539C495.972 314.884 492.087 315.969 488.237 316.682C472.029 319.683 455.115 316.567 441.505 307.134C440.856 306.828 440.23 306.256 439.647 305.827L435.066 300.919C424.932 288.383 419.607 271.333 421.367 255.231C422.096 252.591 422.358 249.796 423.004 247.125C424.713 240.059 427.867 233.305 433.017 228.093C437.426 223.63 442.802 220.745 448.942 219.45C453.801 218.425 458.924 218.689 463.861 218.688L483.833 218.694L547.058 218.539Z"/>
	<path fill="#191816" transform="scale(0.666667 0.666667)" d="M506.088 311.205C510.608 316.853 514.631 322.856 517.975 329.279C523.303 339.512 527.429 350.498 530.749 361.533C531.943 365.503 533.359 369.616 534.131 373.688C536.122 384.181 535.778 395.755 535.887 406.427C535.949 412.522 536.298 418.941 535.692 424.995C534.71 434.817 532.541 445.211 529.552 454.638C521.12 481.224 501.956 503.109 477.252 515.837C429.856 540.257 372.825 545.069 322.069 528.724C291.113 518.756 260.854 502.894 245.525 472.623C238.168 458.093 233.416 441.307 231.971 425.068C231.134 415.653 231.462 405.675 232.019 396.24C232.943 380.58 235.28 365.624 240.231 350.692C243.49 340.863 247.196 331.077 252.59 322.197C261.696 307.209 274.554 295.843 288.674 285.702C297.815 279.137 307.51 273.026 317.586 267.998C342.931 255.351 371.098 248.413 399.457 251.047C406.802 251.729 414.354 252.872 421.367 255.231C419.607 271.333 424.932 288.383 435.066 300.919L439.647 305.827C440.23 306.256 440.856 306.828 441.505 307.134C455.115 316.567 472.029 319.683 488.237 316.682C492.087 315.969 495.972 314.884 499.647 313.539C501.711 312.783 503.94 311.607 506.088 311.205Z"/>
	<path fill="#FBEAC8" transform="scale(0.666667 0.666667)" d="M462.792 413.68C465.186 413.63 467.56 413.996 469.714 415.099C472.96 416.761 475.501 419.686 476.512 423.21C477.467 426.54 477.197 429.579 475.413 432.579C473.205 436.291 469.868 438.093 465.803 439.048C462.736 439.212 460.195 438.689 457.509 437.141C454.658 435.497 452.41 432.61 451.624 429.408C450.897 426.445 451.57 422.513 453.18 419.976C455.477 416.357 458.778 414.677 462.792 413.68Z"/>
	<path fill="#FBEAC8" transform="scale(0.666667 0.666667)" d="M298.798 414.069C301.736 413.923 304.574 413.854 307.312 415.139C310.544 416.656 313.647 419.72 314.812 423.117C315.822 426.059 315.565 429.253 314.17 432.007C312.329 435.639 308.847 437.424 305.132 438.601C301.735 439.013 298.432 438.871 295.346 437.231C292.352 435.64 289.854 432.878 288.865 429.604C287.969 426.635 288.282 423.071 289.826 420.363C291.878 416.762 294.979 415.224 298.798 414.069Z"/>
</svg>
