<?xml version="1.0" encoding="utf-8" ?>
<svg xmlns="http://www.w3.org/2000/svg" xmlns:xlink="http://www.w3.org/1999/xlink" width="512" height="512">
	<path fill="#191816" transform="scale(0.666667 0.666667)" d="M0 767.625L0 -0L768 0L768 767.625L767.586 767.812C765.327 768.565 761.49 768.025 758.986 768.026L735.982 768.027L634.51 768.036L131.918 768.036L38.5387 768.028L10.8109 768.025C7.90423 768.026 2.45036 768.734 0 767.625Z"/>
	<path fill="#237468" transform="scale(0.666667 0.666667)" d="M272.663 485.02L273.023 485.202C275.215 486.349 276.858 488.207 278.926 489.566C283.309 492.446 288.214 494.923 292.965 497.141C324.8 512.007 359.942 519.42 395.033 518.291C410.601 517.79 425.993 515.756 440.93 511.261C453.877 507.364 466.301 502.655 478.565 496.983C481.572 495.592 484.545 493.906 487.353 492.143C489.283 490.931 490.957 489.424 493.207 488.865C491.821 491.388 489.683 493.671 487.727 495.763C482.067 501.818 475.027 507.329 468.043 511.784C465.063 513.685 461.048 515.423 458.512 517.814C459.435 522.918 463.702 542.118 461.178 546.188C458.919 549.828 452.458 551.672 448.5 552.313C444.819 552.909 439.176 553.367 436.055 550.983C433.97 549.392 433.037 547.052 432.233 544.645C430.172 538.471 429.977 532.045 428.292 525.865C425.013 526.569 421.492 526.835 418.158 527.353C391.509 531.497 364.35 531.215 337.925 525.772C337.212 531.336 335.089 546.522 330.965 550.42C328.878 552.392 324.409 552.086 321.75 551.98C316.031 551.751 309.575 550.341 305.548 546.043C304.11 542.674 308.14 520.183 309.604 516.071L309.733 515.73L308.429 515.214C296.782 510.518 285.53 501.516 277.524 491.918C275.751 489.792 273.758 487.589 272.663 485.02Z"/>
	<path fill="#AFE67F" transform="scale(0.666667 0.666667)" d="M389.342 318.228C389.645 318.089 390.049 318.078 390.25 317.812C390.58 317.375 390.435 311.711 390.5 310.697C391.927 288.365 402.716 267.046 416.718 249.982C427.586 236.737 440.437 225.903 455.026 216.974C460.096 213.871 465.287 210.755 470.768 208.421C477.327 205.628 483.948 203.986 490.875 202.418C496.663 201.107 502.571 199.862 508.488 199.346C510.066 199.208 510.641 199.014 511.866 200.062C512.499 205.296 512.172 210.473 511.747 215.707C510.527 230.738 506.786 245.105 502.477 259.492C502.221 262.164 501.163 264.913 500.414 267.489C497.06 279.03 492.597 290.094 487.598 301.007L483.938 308.862C483.224 310.34 482.132 312 481.938 313.642C504.681 302.763 530.887 299.416 555.75 303.424C564.73 304.871 573.715 307.58 582.303 310.543C578.548 320.537 574.418 330.192 569.151 339.49C558.813 357.74 544.375 374.588 527.683 387.309L511.435 398.507C509.753 399.592 507.933 400.465 506.297 401.607C507.868 406.04 508.754 411.07 509.627 415.688C511.89 427.668 512.671 440.883 510.221 452.898C508.758 460.075 506.112 466.996 502.974 473.598C500.375 479.066 497.167 484.271 493.207 488.865C490.957 489.424 489.283 490.931 487.353 492.143C484.545 493.906 481.572 495.592 478.565 496.983C466.301 502.655 453.877 507.364 440.93 511.261C425.993 515.756 410.601 517.79 395.033 518.291C359.942 519.42 324.8 512.007 292.965 497.141C288.214 494.923 283.309 492.446 278.926 489.566C276.858 488.207 275.215 486.349 273.023 485.202L272.663 485.02C269.453 480.886 267.031 476.122 264.749 471.434C256.62 454.737 256.204 438.232 258.738 420.188C259.652 413.68 260.818 407.021 262.955 400.796C260.915 399.289 258.277 398.323 256.064 397.021L240.916 387.171C219.439 371.647 203.881 350.869 192.102 327.285L184.722 310.489C189.104 308.696 193.816 307.555 198.396 306.379C209.013 303.654 219.584 301.932 230.571 301.829C261.615 301.538 297.359 312.27 319.899 334.415C321.29 334.342 322.939 333.315 324.2 332.745L332.843 328.966C350.225 321.954 370.419 316.373 389.342 318.228Z"/>
	<path fill="#5CC765" transform="scale(0.666667 0.666667)" d="M286.63 360.939C284.375 360.68 281.913 358.982 279.949 357.888L268.483 351.607L218.232 325.541L209.764 321.043C208.603 320.404 207.152 319.8 206.315 318.75L206.795 318.173C209.034 317.789 210.563 318.242 212.643 319.083C217.428 321.017 221.935 323.544 226.5 325.935L251.845 339.451L271.124 349.617C275.812 352.008 280.918 354.209 285.337 357.066C286.755 357.983 287.231 358.403 287.592 360.092L286.63 360.939Z"/>
	<path fill="#5CC765" transform="scale(0.666667 0.666667)" d="M480.405 358.671C487.888 352.256 498.71 348.359 507.565 343.988L534.191 330.479L556.772 318.447C558.561 317.594 561.232 316.032 563.25 316.213C563.728 316.255 564.118 316.407 564.562 316.576L564.562 317.275C544.305 329.847 522.69 340.397 501.375 351.036L489.28 357.047C486.986 358.173 484.491 359.609 482.023 360.253L480.405 358.671Z"/>
	<path fill="#191816" transform="scale(0.666667 0.666667)" d="M399.647 469.304L425.693 469.075C421.566 472.656 414.867 475.871 409.494 477.056C405.426 477.952 400.325 477.382 396.14 477.386L369.562 477.399L361.923 477.359C356.613 477.255 347.514 473.984 343.75 470.062L343.875 469.483C345.643 469.154 347.665 469.365 349.468 469.384L359.724 469.44L399.647 469.304Z"/>
	<path fill="#191816" transform="scale(0.666667 0.666667)" d="M446.524 416.728C449.358 416.566 452.042 416.788 454.677 417.952C458.766 419.758 462.007 422.881 463.527 427.131C464.862 430.864 464.546 435.003 462.777 438.552C460.352 443.419 456.759 445.982 451.699 447.681C448.101 448.028 445.105 447.837 441.854 446.04C438.378 444.12 435.341 440.94 434.247 437.062C433.079 432.925 434.124 427.458 436.256 423.808C438.566 419.854 442.196 417.851 446.524 416.728Z"/>
	<path fill="#191816" transform="scale(0.666667 0.666667)" d="M316.391 416.676C320.279 416.659 323.383 416.679 326.973 418.584C330.468 420.439 333.322 423.897 334.462 427.688C335.662 431.676 335.565 436.638 333.5 440.33C331.347 444.178 327.675 446.559 323.519 447.703C320.322 448.113 317.267 448.218 314.25 446.847C310.112 444.967 307.216 441.633 305.673 437.37C304.165 433.203 304.1 428.578 306.131 424.564C308.293 420.291 311.986 418.058 316.391 416.676Z"/>
	<path fill="#F17D71" transform="scale(0.666667 0.666667)" d="M295.455 447.435C299.52 447.24 302.807 447.529 306.456 449.539C310.646 451.849 314.147 456.057 315.409 460.731C316.368 464.285 316.081 467.607 314.202 470.791C311.709 475.015 307.545 477.057 302.95 478.174C298.557 479.047 293.558 478.018 289.688 475.827C286.292 473.904 283.737 470.509 282.851 466.7C281.888 462.563 282.594 458.454 284.846 454.861C287.306 450.935 290.968 448.468 295.455 447.435Z"/>
	<path fill="#F17D71" transform="scale(0.666667 0.666667)" d="M467.267 446.727C471.211 446.47 475.175 446.995 478.688 448.936C481.93 450.728 484.97 454.114 485.945 457.748C487.026 461.778 486.039 465.929 483.831 469.392C480.759 474.209 476.944 476.714 471.434 478.035C467.109 478.566 462.735 477.811 459.04 475.431C455.888 473.402 453.616 469.508 452.824 465.887C451.853 461.446 452.322 457.832 454.919 454.038C458 449.536 462.078 447.698 467.267 446.727Z"/>
	<path fill="#237468" transform="scale(0.666667 0.666667)" d="M427.053 325.194C429.253 320.843 430.7 315.734 432.566 311.186L442.812 288.154L457.083 260.438L474.047 230.221C477.228 224.851 479.975 218.837 483.689 213.839C485.033 212.03 486.899 210.144 488.755 208.865C491.098 207.251 494.64 205.694 497.544 206.444C500.23 207.137 501.956 210.412 502.505 212.902C503.375 216.849 503.052 221.537 502.925 225.581L501.645 248.821C501.498 251.212 500.754 257.065 502.172 259.094L502.477 259.492C502.221 262.164 501.163 264.913 500.414 267.489C497.06 279.03 492.597 290.094 487.598 301.007L483.938 308.862C483.224 310.34 482.132 312 481.938 313.642C478.975 316.253 474.856 317.717 471.485 319.807C464.092 324.391 456.771 330.126 450.638 336.319C445.748 333.32 440.419 330.736 435.193 328.384C432.587 327.211 429.851 325.818 427.053 325.194Z"/>
</svg>
