<?xml version="1.0" encoding="utf-8" ?>
<svg xmlns="http://www.w3.org/2000/svg" xmlns:xlink="http://www.w3.org/1999/xlink" width="512" height="512">
	<path fill="#191816" transform="scale(0.666667 0.666667)" d="M0 767.625L0 -0L768 0L768 767.625L767.586 767.812C765.327 768.565 761.49 768.025 758.986 768.026L735.982 768.027L634.51 768.036L131.918 768.036L38.5387 768.028L10.8109 768.025C7.90423 768.026 2.45036 768.734 0 767.625Z"/>
	<path fill="#656665" transform="scale(0.666667 0.666667)" d="M0 767.625C6.16253 766.945 12.6145 767.302 18.8186 767.311L51.2174 767.356L158.693 767.335L493.798 767.43L690.765 767.345L743.555 767.345L758.703 767.357C761.746 767.367 764.999 767.158 768 767.625L767.586 767.812C765.327 768.565 761.49 768.025 758.986 768.026L735.982 768.027L634.51 768.036L131.918 768.036L38.5387 768.028L10.8109 768.025C7.90423 768.026 2.45036 768.734 0 767.625Z"/>
	<path fill="#AFE67F" transform="scale(0.666667 0.666667)" d="M295.115 211.566C296.654 211.4 298.426 210.977 299.962 211.102C304.192 211.444 308.221 214.444 311.415 217.016C325.902 228.683 339.029 240.81 356.134 248.693C377.365 258.477 400.699 261.673 422.674 269.272C470.841 285.928 518.741 325.764 524.362 379.37C525.708 392.21 525.429 405.88 522.503 418.475C518.995 433.57 511.332 448.22 501.556 460.205C486.28 478.933 466.405 492.092 443.697 500.096L444.89 544.005C437.685 538.331 430.965 532.138 425.921 524.412C422.792 519.62 420.467 514.361 418.107 509.164C396.07 512.159 372.202 513.165 350.499 507.498C345.622 523.149 334.72 534.17 321.712 543.451L322.195 504.078C322.191 503.397 322.36 499.292 322.159 499.01C321.701 498.368 312.644 494.876 311.014 494.09C286.937 482.487 265.284 464.866 253.71 440.284C241.218 413.752 239.389 380.899 249.323 353.24C255.309 336.573 264.94 321.834 278.286 310.101C290.754 299.14 306.305 290.743 321.273 283.703C323.302 282.579 325.373 281.582 327.575 280.838C328.215 280.622 328.209 280.41 328.581 279.865C320.328 274.741 312.466 268.358 305.758 261.315C295.987 251.056 286.367 235.685 286.77 221.016C286.857 217.831 287.586 215.296 290.062 213.129C291.583 211.799 293.146 211.401 295.115 211.566Z"/>
	<path fill="#E2E1E0" transform="scale(0.666667 0.666667)" d="M322.203 390.877C322.127 389.337 321.909 387.299 322.419 385.828L322.65 385.312C323.152 384.14 323.751 382.766 324.861 382.04C325.707 381.486 326.614 381.504 327.562 381.808C330.04 382.604 333.32 384.985 334.246 387.435L335.173 390.061C335.047 391.575 334.745 392.446 333.527 393.424C331.771 394.834 328.664 395.392 326.462 395.108C325.079 394.93 324.163 394.139 323.36 393.057C322.867 392.391 322.531 391.633 322.203 390.877Z"/>
	<path fill="#191816" transform="scale(0.666667 0.666667)" d="M367.124 421.312C368.849 421.081 370.635 422.129 372.205 422.768C374.367 423.649 376.612 424.452 378.88 425.005C384.268 426.317 389.602 426.566 395.102 425.817C397.615 425.474 400.151 424.878 402.562 424.093C404.737 423.386 409.266 420.995 411.385 421.688C412.097 422.804 412.337 423.066 412.391 424.429L410.789 425.87C403.107 430.014 392.999 432.133 384.313 431.067C379.031 430.419 371.518 429.212 367.125 426.081C366.059 425.321 365.89 424.804 365.63 423.562C366.02 422.306 366.126 422.174 367.124 421.312Z"/>
	<path fill="#191816" transform="scale(0.666667 0.666667)" d="M335.173 390.061L335.466 388.875C337.346 394.059 336.749 400.763 334.398 405.723C331.742 411.328 326.409 415.812 320.559 417.77C315.683 419.401 310.06 419.262 305.432 416.916C300.367 414.349 296.852 410.26 295.177 404.812C294.926 403.996 294.793 403.218 294.682 402.375L294.594 401.736C293.944 396.594 295.992 391.103 299.162 387.074C303.242 381.887 309.478 379.243 315.914 378.494C319.219 378.109 323.209 379.063 326.037 380.812L325.663 380.913C324.152 381.387 322.926 382.243 322.2 383.69C321.305 385.473 321.079 388.03 321.761 389.912L322.203 390.877C322.531 391.633 322.867 392.391 323.36 393.057C324.163 394.139 325.079 394.93 326.462 395.108C328.664 395.392 331.771 394.834 333.527 393.424C334.745 392.446 335.047 391.575 335.173 390.061Z"/>
	<path fill="#191816" transform="scale(0.666667 0.666667)" d="M483.797 390.717L484.153 390.252L484.505 390.375C485.733 393.279 485.588 396.482 485.215 399.562C484.49 405.561 481.133 410.998 476.361 414.62C471.94 417.974 466.053 419.501 460.576 418.643L459.938 418.536C455.929 417.894 452.439 415.895 449.562 413.062C445.781 409.342 443.934 404.272 443.979 399.026C444.03 393.233 446.596 387.442 450.719 383.407C454.583 379.625 460.199 377.442 465.595 377.57C469.188 377.654 473.052 378.885 475.583 381.562L472.732 382.026C475.835 381.973 477.928 382.355 480.288 384.581C481.9 386.102 483.567 388.456 483.797 390.717Z"/>
	<path fill="#E2E1E0" transform="scale(0.666667 0.666667)" d="M472.732 382.026C475.835 381.973 477.928 382.355 480.288 384.581C481.9 386.102 483.567 388.456 483.797 390.717C483.412 392.297 482.574 393.714 481.348 394.805C479.495 396.453 477.123 396.772 474.72 396.52C472.991 396.339 471.387 396.02 470.297 394.557C468.806 392.555 468.686 389.561 469.072 387.188C469.491 384.611 470.681 383.516 472.732 382.026Z"/>
	<path fill="#237468" transform="scale(0.666667 0.666667)" d="M328.581 279.865C320.328 274.741 312.466 268.358 305.758 261.315C295.987 251.056 286.367 235.685 286.77 221.016C286.857 217.831 287.586 215.296 290.062 213.129C291.583 211.799 293.146 211.401 295.115 211.566L310.449 226.693C318.608 234.796 326.77 243.034 335.687 250.31C349.071 261.229 363.957 269.958 380.069 276.188C388.461 279.433 397.074 281.007 405.584 283.693C401.459 289.279 392.119 291.531 385.5 292.501C369.624 294.829 353.485 290.842 338.819 284.863C336.503 286.509 334 288.19 331.4 289.345C325.23 293.702 318.486 297.156 312.392 301.699C292.429 316.581 274.373 338.999 270.013 364.02C266.012 386.986 272.033 409.739 285.394 428.664C305.681 457.398 339.474 474.573 372.113 485.422C379.921 488.017 387.911 490.804 396.038 492.173L402.657 493.153C403.19 493.243 404.266 493.294 404.717 493.54C405.352 493.886 406.236 495.041 406.794 495.567C409.754 498.358 412.664 498.759 416.58 499.094C416.701 502.581 416.909 505.852 418.107 509.164C396.07 512.159 372.202 513.165 350.499 507.498C345.622 523.149 334.72 534.17 321.712 543.451L322.195 504.078C322.191 503.397 322.36 499.292 322.159 499.01C321.701 498.368 312.644 494.876 311.014 494.09C286.937 482.487 265.284 464.866 253.71 440.284C241.218 413.752 239.389 380.899 249.323 353.24C255.309 336.573 264.94 321.834 278.286 310.101C290.754 299.14 306.305 290.743 321.273 283.703C323.302 282.579 325.373 281.582 327.575 280.838C328.215 280.622 328.209 280.41 328.581 279.865Z"/>
</svg>
