<?xml version="1.0" encoding="utf-8" ?>
<svg xmlns="http://www.w3.org/2000/svg" xmlns:xlink="http://www.w3.org/1999/xlink" width="512" height="511">
	<path fill="#AFE67F" transform="scale(0.666667 0.666667)" d="M0 767.25L0 -0L768 0L768 767.25L767.824 767.637C767.633 767.758 767.46 767.916 767.25 768C766.159 768.436 762.99 768 761.626 768L739.733 768L616.357 768.002L210.061 768.003L0.421875 767.953L0 767.25Z"/>
	<path fill="#6E6E6B" transform="scale(0.666667 0.666667)" d="M0 767.25L768 767.25L767.824 767.637C767.633 767.758 767.46 767.916 767.25 768C766.159 768.436 762.99 768 761.626 768L739.733 768L616.357 768.002L210.061 768.003L0.421875 767.953L0 767.25Z"/>
	<path fill="#237468" transform="scale(0.666667 0.666667)" d="M348.343 293.844C348.403 288.009 349.535 282.619 351.096 277.016C355.98 259.492 366.189 242.984 379.124 230.255C402.574 207.177 434.17 195.923 466.849 196.258C474.23 196.334 491.235 196.426 496.795 201.188C500.976 210.976 494.645 229.343 490.881 238.763C485.002 253.476 475.194 269.052 463.286 279.562C455.374 286.546 445.612 292.072 435.938 296.222L432.307 297.798L405.849 290.853C396.692 289.97 387.649 287.602 378.34 289.02C368.166 289.749 358.31 291.747 348.343 293.844Z"/>
	<path fill="#4FA477" transform="scale(0.666667 0.666667)" d="M378.34 289.02C379.972 284.158 381.338 279.33 383.459 274.625C392.56 254.443 409.03 239.322 428.625 229.544C442.917 222.411 457.653 218.39 473.218 215.16C468.731 221.448 465.283 228.34 461.225 234.895C452.139 249.576 440.901 263.84 427.724 275.068C421.205 280.623 414.025 285.48 406.689 289.884C406.061 290.261 405.923 290.108 405.849 290.853C396.692 289.97 387.649 287.602 378.34 289.02Z"/>
	<path fill="#131E09" transform="scale(0.666667 0.666667)" d="M378.34 289.02C387.649 287.602 396.692 289.97 405.849 290.853L432.307 297.798C442.031 301.188 451.23 305.453 460.163 310.567C474.244 318.628 487.086 328.47 497.719 340.812C510.381 355.51 519.993 374.466 525.019 393.173C533.992 426.569 530.521 463.907 512.964 493.987C496.479 522.229 470.265 541.693 438.62 549.938C406.391 558.334 372.782 558.502 340.125 552.438C323.83 549.412 308.041 544.928 293.67 536.423C269.159 521.918 249.878 495.492 242.957 468.002C233.506 430.464 237.924 393.167 258.052 359.812C277.949 326.84 311.008 303.06 348.343 293.844C358.31 291.747 368.166 289.749 378.34 289.02Z"/>
	<path fill="#AFE67F" transform="scale(0.666667 0.666667)" d="M402.819 446.812C403.534 446.758 404.337 446.82 404.968 447.198C405.801 447.697 406.569 448.562 406.731 449.535C406.968 450.955 406.264 452.158 405.408 453.246C401.303 458.465 394.131 461.267 387.734 462.106C379.176 463.228 370.886 460.636 364.171 455.385C363.263 454.537 362.333 453.527 361.656 452.482C360.979 451.438 360.883 450.623 361.137 449.438C362.204 448.227 363.328 447.734 364.759 447.061C364.858 447.015 365.867 446.503 365.938 446.517C366.445 446.617 368.851 449.242 369.466 449.748C371.039 451.041 372.989 451.884 374.904 452.54C382.601 455.18 389.727 454.855 396.851 450.578C398.644 449.501 400.248 447.998 402.143 447.115L402.819 446.812Z"/>
	<path fill="#AFE67F" transform="scale(0.666667 0.666667)" d="M459.96 412.599C463.43 412.299 466.688 412.317 469.905 413.816C473.046 415.28 475.372 417.825 476.44 421.132C477.729 425.124 477.327 429.893 475.351 433.606C473.578 436.939 470.788 438.347 467.379 439.463C463.754 440.129 460.615 439.939 457.281 438.245C453.478 436.312 450.974 433.189 449.799 429.108C448.829 425.742 449.879 421.139 451.612 418.225C453.593 414.894 456.387 413.582 459.96 412.599Z"/>
	<path fill="#AFE67F" transform="scale(0.666667 0.666667)" d="M299.874 412.585C303.408 412.245 306.779 412.32 310.125 413.648C313.409 414.951 316.814 417.961 318.09 421.316C319.268 424.413 319.311 428.482 317.895 431.485C315.927 435.661 312.726 437.82 308.545 439.37C304.633 440.448 300.678 440.407 296.939 438.698C293.719 437.226 291.278 434.558 290.103 431.219C288.792 427.493 289.076 422.366 290.968 418.883C292.914 415.3 296.155 413.72 299.874 412.585Z"/>
	<path fill="#CA9085" transform="scale(0.666667 0.666667)" d="M288.853 446.731C294.81 446.479 300.942 447.005 306.343 449.771C309.298 451.285 311.667 453.935 312.544 457.172C313.271 459.854 312.503 462.935 311.132 465.295C308.834 469.251 304.637 471.192 300.435 472.401C294.856 473.771 289.159 473.194 284.142 470.319C280.646 468.316 277.924 465.452 276.948 461.457C276.189 458.354 276.876 454.953 278.602 452.309C281.006 448.624 284.774 447.45 288.853 446.731Z"/>
	<path fill="#CA9085" transform="scale(0.666667 0.666667)" d="M472.547 446.77C477.01 446.023 482.254 447.151 486.092 449.49C489.089 451.316 491.351 454.472 492.131 457.887C492.72 460.462 491.902 463.176 490.522 465.361C487.133 470.728 482.011 472.35 476.198 473.628C473.605 473.711 471.265 473.533 468.771 472.746L468.188 472.557C466.214 471.933 464.536 471.13 462.832 469.937C459.266 467.441 456.476 463.753 455.783 459.383C455.415 457.061 455.912 454.474 457.358 452.573C460.93 447.877 467.163 447.407 472.547 446.77Z"/>
</svg>
