<svg width="91" height="91" xmlns="http://www.w3.org/2000/svg" xml:space="preserve" version="1.1">

 <g>
  <title>Layer 1</title>
  <g stroke="null" id="svg_1">
   <g stroke="null" id="svg_2">
    <path id="svg_3" fill="#9fe870" d="m73.87122,21.84907c-4.49696,0 -9.6185,-0.49966 -14.24038,0c2.74814,-3.2478 5.24645,-6.62053 7.2451,-10.36799c0.87441,-1.6239 -0.99932,-3.9973 -2.74814,-2.74814c-5.87103,4.37205 -10.86766,9.86833 -16.11411,14.98987c-1.37407,1.24916 -1.49899,3.9973 0,5.24645c2.87306,2.3734 5.74612,4.74679 8.61917,6.99527c14.11546,10.49291 14.24038,1.6239 12.49156,0.12492c-0.49966,-0.37475 -1.12424,-0.87441 -1.6239,-1.24916c-1.87373,-1.49899 -3.87238,-2.99797 -5.74612,-4.49696c-0.49966,-0.37475 -0.87441,-0.74949 -1.37407,-0.99932c4.49696,0.37475 9.24375,0 13.49088,0c4.87171,0.12492 4.87171,-7.49493 0,-7.49493z" class="st0"/>
    <path id="svg_4" fill="#9fe870" d="m23.90499,32.84164c0.12492,-4.24713 0.24983,-8.36934 0.24983,-12.61647c0,-3.37272 0.49966,-7.2451 -0.74949,-10.36799c-0.74949,-1.74882 -3.49764,-1.49899 -4.37205,0c-1.6239,2.87306 -1.37407,7.12019 -1.74882,10.36799c-0.37475,4.24713 -0.62458,8.36934 -0.99932,12.61647c-0.49966,4.87171 7.49493,4.99662 7.61985,0z" class="st0"/>
    <path id="svg_5" fill="#9fe870" d="m65.37696,53.57762c-4.99662,2.49831 -9.49358,7.12019 -13.86563,10.74274c-2.12356,1.74882 -4.24713,3.49764 -6.37069,5.24645c-0.99932,0.74949 -2.24848,2.24848 -3.49764,2.74814c-0.24983,0.12492 -0.49966,0.24983 -0.49966,0.24983c-0.24983,-0.37475 -0.62458,-0.74949 -0.87441,-0.99932c-5.87103,-7.12019 -14.11546,-15.73936 -23.35921,-18.23767c-2.74814,-0.62458 -4.74679,2.74814 -2.74814,4.62188c4.37205,4.24713 9.6185,7.49493 13.99054,11.74206c2.24848,2.24848 4.24713,4.74679 6.24578,7.2451c1.37407,1.74882 2.87306,3.49764 5.12154,4.12221c2.49831,0.62458 4.37205,-0.24983 6.24578,-1.6239c2.74814,-2.12356 5.37137,-4.37205 8.11951,-6.62053c2.74814,-2.24848 5.37137,-4.37205 8.11951,-6.62053c2.62323,-2.12356 5.74612,-4.24713 7.86968,-6.87036c2.3734,-3.2478 -0.62458,-7.61985 -4.49696,-5.74612z" class="st0"/>
   </g>
  </g>
 </g>
</svg>