<svg width="400" height="190" xmlns="http://www.w3.org/2000/svg" stroke="null">
 <g stroke="null">
  <title stroke="null">Layer 1</title>
  <path fill="#A0E1E1" transform="translate(0 0.278898) scale(0.295892 0.272422)" d="m0,0.50507c2.59425,-0.79371 5.54214,-0.51744 8.34404,-0.51852l15.8398,-0.00166l54.68349,-0.00747l201.84685,-0.02261l964.86268,0.00013l212.14522,0.02437l49.16906,0.00585c4.15425,0.00087 13.40081,-0.74585 17.00414,0.26828l0.81894,0.25163l0,772.49498l-1524.71421,0l0,-772.49498l-0.00001,0z" id="svg_1" stroke="null"/>
  <path fill="#507093" transform="translate(0 0.278898) scale(0.295892 0.272422)" d="m0,0.5c1.7423,-0.78858 3.72211,-0.51409 5.60387,-0.51517l10.63803,-0.00165l36.7255,-0.00742l135.5606,-0.02246l648.003,0.00013l142.477,0.02421l33.022,0.00581c2.79,0.00086 9,-0.74103 11.42,0.26655l0.55,0.25l-1024,0z" id="svg_3" stroke="null"/>
  <g stroke="null" id="svg_9">
   <path stroke="null" fill="#F4FBEE" transform="translate(47.5 -0.625) scale(0.295892 0.272422)" d="m485.82297,415.5783l0.74018,0.01013c-3.37194,5.66713 -28.52415,16.57878 -34.64171,18.60067c-18.73606,6.19475 -38.84239,7.5258 -58.27056,4.26521c-7.56123,-1.2678 -14.87573,-2.91517 -21.73979,-6.42755c-0.70728,-0.46056 -1.17163,-0.91478 -1.75872,-1.51199c2.05732,-0.77687 11.85681,3.17329 14.71377,3.82237c5.43558,1.23616 11.0116,2.08136 16.55221,2.69628c13.66487,1.51832 27.12983,0.47067 40.55556,-2.44197c16.08153,-3.48961 29.22005,-12.17945 43.84905,-19.01315z" id="svg_2"/>
   <path stroke="null" fill="#FFC19E" transform="translate(47.5 -0.625) scale(0.295892 0.272422)" d="m880.16079,226.21607c20.05826,-15.75129 48.08138,-19.92034 72.84515,-19.02327l-64.48681,47.75747c-1.07295,-2.88607 -1.03372,-6.66163 -1.5702,-9.72863c-1.22098,-6.97668 -3.5592,-12.76653 -6.78815,-19.00556l0,-0.00001z" id="svg_4"/>
   <path stroke="null" fill="white" transform="translate(47.5 -0.625) scale(0.295892 0.272422)" d="m183.61673,303.05821c10.51435,11.02552 15.48305,31.06227 31.48108,35.33888c4.44868,1.18935 9.12763,1.05017 13.70156,0.9616c19.77864,-0.38337 38.07311,-7.12724 55.74762,-15.54885c-2.34201,5.22681 -7.54857,10.86105 -11.25834,15.31478c-10.99896,13.20685 -27.03493,27.69667 -44.05909,31.82776c-7.25884,1.76252 -14.81373,1.88525 -22.22059,2.57608c-2.49511,0.23281 -4.30823,0.48586 -5.98471,2.51028l0.43019,1.41077c5.23947,5.42419 11.68094,8.69617 18.54753,11.59617l-10.03103,3.53009c-23.02911,6.5642 -45.8836,5.72406 -68.60272,-1.84729c5.99483,-2.59126 9.80707,-4.79536 14.46831,-9.40852c-15.04148,-10.13351 -26.5263,-26.54781 -37.66697,-40.65426c0.82622,-0.23027 7.96106,3.30867 9.25163,3.83629c6.92101,2.83166 13.9989,5.03829 20.55298,8.72907c5.73039,3.22516 11.78343,9.26302 17.9111,11.23683c2.20282,0.70981 4.70172,-0.12399 6.64265,-1.21213c2.79371,-1.56513 4.63973,-4.39807 5.92145,-7.25377c3.49467,-7.78897 2.36858,-15.33376 0.5428,-23.30873c-0.71867,-3.13912 -1.8903,-7.2525 -1.56134,-10.48147c0.62884,-6.15931 4.31709,-13.17141 6.18589,-19.1536l0.00001,0.00001z" id="svg_5"/>
   <path stroke="null" fill="#FFC19E" transform="translate(47.5 -0.625) scale(0.295892 0.272422)" d="m848.2976,323.02157c4.42969,-0.96413 8.56838,-2.6849 12.99428,-3.65409c19.27506,-4.21587 39.97101,-4.13236 57.94412,4.73336c-1.85867,8.59242 -3.10117,17.23419 -5.57855,25.69502c-12.34646,42.16751 -39.3523,79.19805 -76.42206,103.14827c-43.26197,27.95099 -93.8764,38.88036 -144.38202,27.92568c-34.96942,-7.58401 -69.94263,-28.242 -96.41833,-52.00496l20.39482,0.71741c16.4472,0.59087 32.45534,0.69083 48.53307,-3.30993c6.60342,-1.64358 13.28276,-3.81098 19.60277,-6.34151c5.43937,-2.17879 53.51442,-24.32094 54.29256,-25.61151c-5.4204,-1.14633 -10.91419,-2.48119 -16.01701,-4.67895l0.62631,-0.62631l5.69749,1.77391c3.08345,0.92744 8.22802,2.98603 11.34058,2.97337c4.80421,-0.01771 13.3979,-6.09858 17.43536,-8.59875c10.28029,-6.36555 20.52261,-12.80575 30.25756,-19.9912l40.23039,-29.3567c6.40225,-4.4259 12.59699,-9.09726 19.46865,-12.7931l0.00001,-0.00001z" id="svg_6"/>
   <path stroke="null" fill="white" transform="translate(47.5 -0.625) scale(0.295892 0.272422)" d="m596.43504,428.86485c-21.4045,-17.00517 -39.85461,-40.47712 -50.33734,-65.66603c-13.98878,-33.61432 -15.83986,-78.77039 -1.86627,-112.56312c2.10287,1.44872 3.89575,4.25635 5.59374,6.22637l10.80031,12.0795l31.83029,32.55402c16.98872,16.4143 35.63115,31.34696 55.10865,44.7107l35.4983,22.77732l0.91731,-0.22016l-10.05253,-7.0121c-5.43685,-4.50688 -10.43086,-10.5966 -14.74667,-16.19793c-16.2612,-21.10591 -25.35592,-45.54831 -28.0054,-72.01261c-1.9017,-18.99417 -0.19865,-42.08654 8.89482,-59.1398c2.30278,-4.31835 5.47987,-8.0724 8.55952,-11.84921l27.7865,32.37057c12.16806,14.50627 24.3589,29.08973 37.79855,42.44588c10.55232,10.48653 21.70691,21.21851 36.4928,25.04974c10.60546,-10.45742 11.77709,-28.72154 15.63109,-42.49649c4.59924,-16.44213 13.40296,-32.50215 26.60348,-43.58967c12.18198,-10.23094 29.77803,-16.09418 45.72039,-14.47337c17.69474,1.79921 30.5511,10.84079 41.49819,24.35763c3.22895,6.23903 5.56717,12.02888 6.78815,19.00556c0.53647,3.06701 0.49725,6.84256 1.5702,9.72863c1.10585,2.75068 -0.46182,6.06948 -1.29183,8.7936c-1.63726,5.37231 -2.99868,10.7168 -5.18759,15.91072c-7.5878,17.99967 -19.6926,30.30818 -33.74211,43.36699c-6.87166,3.69585 -13.0664,8.3672 -19.46865,12.7931l-40.23039,29.3567c-9.73496,7.18544 -19.97729,13.62565 -30.25756,19.9912c-4.03747,2.50017 -12.63115,8.58104 -17.43536,8.59875c-3.11256,0.01266 -8.25713,-2.04593 -11.34058,-2.97337l-5.69749,-1.77391l-0.62631,0.62631c5.10282,2.19776 10.5966,3.53262 16.01701,4.67895c-0.77813,1.29057 -48.85318,23.43272 -54.29256,25.61151c-6.32001,2.53054 -12.99935,4.69793 -19.60277,6.34151c-16.07773,4.00078 -32.08588,3.90082 -48.53307,3.30993l-20.39482,-0.71741l-0.00002,-0.00001z" id="svg_7"/>
   <path stroke="null" fill="#A0E1E1" transform="translate(47.5 -0.625) scale(0.295892 0.272422)" d="m831.52398,245.84794c2.44829,0.22016 4.52965,0.76421 6.6844,1.99153c3.99191,2.27242 7.17406,5.9303 8.30521,10.4511c1.09193,4.36138 0.3062,8.96567 -2.11426,12.74503c-3.06448,4.7865 -6.39718,6.4187 -11.76317,7.62449c-2.77726,-0.49346 -5.41281,-0.97805 -7.85731,-2.44956c-3.60728,-2.17246 -7.12091,-6.1631 -7.99647,-10.35493c-0.90846,-4.35504 0.11135,-8.74552 2.52041,-12.43883c3.02272,-4.63214 7.00831,-6.42376 12.2212,-7.56882l0,-0.00001z" id="svg_8"/>
  </g>
 </g>

</svg>