<svg width="91" height="91" xmlns="http://www.w3.org/2000/svg" version="1.1" xml:space="preserve">
 <g>
  <title>Layer 1</title>
  <g stroke="null" id="svg_1">
   <g stroke="null" id="svg_2">
    <path stroke="null" class="st0" d="m29.49763,35.96464c3.16788,2.80236 8.04155,-0.73105 5.97024,-4.62998c-2.31499,-4.14261 -6.33576,-7.67603 -9.86918,-10.84391c-3.41157,-3.04604 -6.94497,-6.45761 -11.20943,-8.16339c-2.07131,-0.85289 -4.14261,2.07131 -2.9242,3.77709c2.43683,3.5334 5.97024,6.33576 9.01628,9.50365c3.04604,3.28973 5.72656,7.3105 9.01628,10.35654z" fill="#9fe870" id="svg_3"/>
    <path stroke="null" class="st0" d="m81.03666,13.0584c-3.65525,2.80236 -7.06682,5.97024 -10.35654,9.13813c-2.19315,2.07131 -4.26446,4.14261 -6.45761,6.21392c-1.21842,1.09658 -3.04604,2.43683 -3.28973,4.14261c-0.48737,2.80236 1.58394,5.23919 4.50815,4.50815c1.82763,-0.36552 2.9242,-2.19315 4.02078,-3.5334c1.94946,-2.31499 3.89894,-4.50815 5.97024,-6.82313c3.04604,-3.5334 5.97024,-7.06682 8.52892,-10.84391c1.09658,-1.58394 -1.21842,-4.14261 -2.9242,-2.80236l-0.00001,-0.00001z" fill="#9fe870" id="svg_4"/>
    <path stroke="null" class="st0" d="m58.61779,59.60193c-2.43683,-2.43683 -4.87367,-5.11735 -7.67603,-7.3105c-1.70579,-1.34026 -3.41157,-2.07131 -5.48288,-1.09658c-2.07131,0.97473 -3.5334,3.5334 -4.87367,5.23919c-1.94946,2.43683 -3.77709,4.75182 -5.72656,7.06682c-3.89894,4.62998 -7.79787,9.25997 -12.18416,13.28074c-1.94946,1.70579 0.48737,4.75182 2.68052,3.5334c4.99551,-2.80236 9.25997,-6.21392 13.28074,-10.35654c1.94946,-2.07131 3.77709,-4.14261 5.60472,-6.33576c0.85289,-0.97473 1.70579,-1.94946 2.55867,-2.9242c0.36552,-0.36552 0.60921,-0.73105 0.97473,-1.09658c1.09658,1.09658 2.07131,2.43683 3.04604,3.41157c1.94946,1.94946 3.77709,4.02078 5.72656,5.97024c3.65525,3.77709 7.43234,7.43234 11.08759,11.20943c3.89894,3.89894 9.99101,-2.19315 6.09209,-6.09209c-5.11735,-4.75182 -10.11286,-9.62549 -15.10837,-14.49916l0,0.00001z" fill="#9fe870" id="svg_5"/>
   </g>
  </g>
 </g>

</svg>