<?xml version="1.0" encoding="utf-8" ?>
<svg xmlns="http://www.w3.org/2000/svg" xmlns:xlink="http://www.w3.org/1999/xlink" width="302" height="209">
	<path fill="#A0E1E1" transform="scale(0.295892 0.272422)" d="M0 0.5C1.7423 -0.288576 3.72211 -0.014089 5.60387 -0.015174L16.2419 -0.0168178L52.9674 -0.0242371L188.528 -0.0466957L836.531 -0.046566L979.008 -0.0223588L1012.03 -0.0165461C1014.82 -0.0156862 1021.03 -0.757584 1023.45 0.25L1024 0.5L1024 768L-0 768L0 0.5Z"/>
	<path fill="#F4FBEE" transform="scale(0.295892 0.272422)" d="M435.612 448.25L436.197 448.258C433.532 452.737 413.653 461.361 408.818 462.959C394.01 467.855 378.119 468.907 362.764 466.33C356.788 465.328 351.007 464.026 345.582 461.25C345.023 460.886 344.656 460.527 344.192 460.055C345.818 459.441 353.563 462.563 355.821 463.076C360.117 464.053 364.524 464.721 368.903 465.207C379.703 466.407 390.345 465.579 400.956 463.277C413.666 460.519 424.05 453.651 435.612 448.25Z"/>
	<path fill="#507093" transform="scale(0.295892 0.272422)" d="M0 0.5C1.7423 -0.288576 3.72211 -0.014089 5.60387 -0.015174L16.2419 -0.0168178L52.9674 -0.0242371L188.528 -0.0466957L836.531 -0.046566L979.008 -0.0223588L1012.03 -0.0165461C1014.82 -0.0156862 1021.03 -0.757584 1023.45 0.25L1024 0.5L0 0.5Z"/>
	<path fill="#FFC19E" transform="scale(0.295892 0.272422)" d="M747.276 298.588C763.129 286.139 785.277 282.844 804.849 283.553L753.882 321.298C753.034 319.017 753.065 316.033 752.641 313.609C751.676 308.095 749.828 303.519 747.276 298.588Z"/>
	<path fill="white" transform="scale(0.295892 0.272422)" d="M196.764 359.32C205.074 368.034 209.001 383.87 221.645 387.25C225.161 388.19 228.859 388.08 232.474 388.01C248.106 387.707 262.565 382.377 276.534 375.721C274.683 379.852 270.568 384.305 267.636 387.825C258.943 398.263 246.269 409.715 232.814 412.98C227.077 414.373 221.106 414.47 215.252 415.016C213.28 415.2 211.847 415.4 210.522 417L210.862 418.115C215.003 422.402 220.094 424.988 225.521 427.28L217.593 430.07C199.392 435.258 181.329 434.594 163.373 428.61C168.111 426.562 171.124 424.82 174.808 421.174C162.92 413.165 153.843 400.192 145.038 389.043C145.691 388.861 151.33 391.658 152.35 392.075C157.82 394.313 163.414 396.057 168.594 398.974C173.123 401.523 177.907 406.295 182.75 407.855C184.491 408.416 186.466 407.757 188 406.897C190.208 405.66 191.667 403.421 192.68 401.164C195.442 395.008 194.552 389.045 193.109 382.742C192.541 380.261 191.615 377.01 191.875 374.458C192.372 369.59 195.287 364.048 196.764 359.32Z"/>
	<path fill="#FFC19E" transform="scale(0.295892 0.272422)" d="M722.093 375.098C725.594 374.336 728.865 372.976 732.363 372.21C747.597 368.878 763.954 368.944 778.159 375.951C776.69 382.742 775.708 389.572 773.75 396.259C763.992 429.586 742.648 458.853 713.35 477.782C679.158 499.873 639.155 508.511 599.238 499.853C571.6 493.859 543.959 477.532 523.034 458.751L539.153 459.318C552.152 459.785 564.804 459.864 577.511 456.702C582.73 455.403 588.009 453.69 593.004 451.69C597.303 449.968 635.299 432.468 635.914 431.448C631.63 430.542 627.288 429.487 623.255 427.75L623.75 427.255L628.253 428.657C630.69 429.39 634.756 431.017 637.216 431.007C641.013 430.993 647.805 426.187 650.996 424.211C659.121 419.18 667.216 414.09 674.91 408.411L706.706 385.209C711.766 381.711 716.662 378.019 722.093 375.098Z"/>
	<path fill="white" transform="scale(0.295892 0.272422)" d="M523.034 458.751C506.117 445.311 491.535 426.76 483.25 406.852C472.194 380.285 470.731 344.596 481.775 317.888C483.437 319.033 484.854 321.252 486.196 322.809L494.732 332.356L519.889 358.085C533.316 371.058 548.05 382.86 563.444 393.422L591.5 411.424L592.225 411.25L584.28 405.708C579.983 402.146 576.036 397.333 572.625 392.906C559.773 376.225 552.585 356.907 550.491 335.991C548.988 320.979 550.334 302.728 557.521 289.25C559.341 285.837 561.852 282.87 564.286 279.885L586.247 305.469C595.864 316.934 605.499 328.46 616.121 339.016C624.461 347.304 633.277 355.786 644.963 358.814C653.345 350.549 654.271 336.114 657.317 325.227C660.952 312.232 667.91 299.539 678.343 290.776C687.971 282.69 701.878 278.056 714.478 279.337C728.463 280.759 738.624 287.905 747.276 298.588C749.828 303.519 751.676 308.095 752.641 313.609C753.065 316.033 753.034 319.017 753.882 321.298C754.756 323.472 753.517 326.095 752.861 328.248C751.567 332.494 750.491 336.718 748.761 340.823C742.764 355.049 733.197 364.777 722.093 375.098C716.662 378.019 711.766 381.711 706.706 385.209L674.91 408.411C667.216 414.09 659.121 419.18 650.996 424.211C647.805 426.187 641.013 430.993 637.216 431.007C634.756 431.017 630.69 429.39 628.253 428.657L623.75 427.255L623.255 427.75C627.288 429.487 631.63 430.542 635.914 431.448C635.299 432.468 597.303 449.968 593.004 451.69C588.009 453.69 582.73 455.403 577.511 456.702C564.804 459.864 552.152 459.785 539.153 459.318L523.034 458.751Z"/>
	<path fill="#A0E1E1" transform="scale(0.295892 0.272422)" d="M708.836 314.104C710.771 314.278 712.416 314.708 714.119 315.678C717.274 317.474 719.789 320.365 720.683 323.938C721.546 327.385 720.925 331.024 719.012 334.011C716.59 337.794 713.956 339.084 709.715 340.037C707.52 339.647 705.437 339.264 703.505 338.101C700.654 336.384 697.877 333.23 697.185 329.917C696.467 326.475 697.273 323.005 699.177 320.086C701.566 316.425 704.716 315.009 708.836 314.104Z"/>
</svg>
