<svg width="91" height="91" xmlns="http://www.w3.org/2000/svg" xml:space="preserve" version="1.1">

 <g>
  <title>Layer 1</title>
  <g stroke="null" id="svg_1">
   <g stroke="null" id="svg_2">
    <path stroke="null" id="svg_3" fill="#9fe870" d="m24.67511,30.76328c-2.68665,2.80877 -5.12906,5.86179 -6.71663,9.15904c-1.95393,4.1521 3.29726,9.03692 6.83875,5.25119c4.39634,-4.64058 7.57148,-10.38025 11.96782,-15.14295c1.83181,-1.95393 1.34333,-4.7627 -0.85484,-6.22815c-3.29726,-2.32029 -6.22815,-5.12906 -9.03692,-7.93784c-2.07605,-2.19817 -4.02998,-5.86179 -7.44936,-5.86179c-0.85484,0 -1.46545,0.6106 -1.83181,1.34333c-1.34333,3.29726 2.32029,7.20511 4.1521,9.64753c0.48848,0.6106 1.09909,1.22121 1.58757,1.83181c-1.09909,0 -2.32029,0 -3.29726,0c-3.5415,0 -8.3042,-0.36636 -11.23509,1.95393c-1.34333,0.97696 -1.58757,3.05301 0,3.90786c3.05301,1.83181 7.08299,1.22121 10.50237,1.46545c1.83181,0.12212 3.5415,0.36636 5.37331,0.6106z" class="st0"/>
    <path stroke="null" id="svg_4" fill="#9fe870" d="m83.9036,24.77937c-2.93089,-2.19817 -7.6936,-1.83181 -11.23509,-1.95393c-1.09909,0 -2.19817,0 -3.29726,0c0.48848,-0.6106 1.09909,-1.22121 1.58757,-1.83181c1.95393,-2.44241 5.61755,-6.35027 4.1521,-9.64753c-0.36636,-0.73272 -0.85484,-1.34333 -1.83181,-1.34333c-3.41938,0 -5.25119,3.66362 -7.44936,5.86179c-2.80877,2.93089 -5.73967,5.61755 -9.03692,7.93784c-2.07605,1.46545 -2.68665,4.27422 -0.85484,6.22815c4.39634,4.7627 7.57148,10.50237 11.96782,15.14295c3.5415,3.78574 8.79268,-0.97696 6.83875,-5.25119c-1.58757,-3.17514 -4.02998,-6.22815 -6.71663,-9.15904c1.83181,-0.24424 3.5415,-0.48848 5.25119,-0.6106c3.41938,-0.24424 7.44936,0.36636 10.50237,-1.46545c1.70969,-0.85484 1.46545,-2.93089 0.12212,-3.90786z" class="st0"/>
    <path stroke="null" id="svg_5" fill="#9fe870" d="m45.31349,57.26345c-6.83875,0 -13.79963,2.07605 -19.66142,5.61755c-4.51846,2.68665 -12.57842,8.42632 -12.4563,14.28811c0,1.22121 1.22121,1.70969 2.19817,1.22121c2.56453,-1.09909 4.1521,-3.90786 6.10603,-5.73967c2.07605,-1.95393 4.39634,-3.66362 6.83875,-5.12906c5.12906,-2.93089 10.99085,-4.51846 16.85264,-4.39634c5.73967,0.12212 11.23509,1.83181 15.9978,4.7627c5.25119,3.17514 8.42632,7.44936 11.8457,12.33418c2.56453,3.66362 7.93784,0.6106 5.98391,-3.5415c-5.37331,-11.96782 -20.7605,-19.41717 -33.70528,-19.41717z" class="st0"/>
   </g>
  </g>
 </g>
</svg>