<svg width="24" height="18" viewBox="0 0 24 18" fill="none" xmlns="http://www.w3.org/2000/svg">
<path fill-rule="evenodd" clip-rule="evenodd" d="M9.522 12.135L9.52125 5.34387L16.0058 8.75113L9.522 12.135ZM23.76 4.16708C23.76 4.16708 23.5252 2.50161 22.806 1.76819C21.8932 0.805155 20.8702 0.800614 20.4015 0.74472C17.043 0.499996 12.0052 0.5 12.0052 0.5H11.9948C11.9948 0.5 6.957 0.499996 3.5985 0.74472C3.129 0.800614 2.10675 0.805155 1.19325 1.76819C0.474003 2.50161 0.239998 4.16708 0.239998 4.16708C0.239998 4.16708 0 6.12336 0 8.07889V9.91281C0 11.8691 0.239998 13.8246 0.239998 13.8246C0.239998 13.8246 0.474003 15.4901 1.19325 16.2235C2.10675 17.1865 3.306 17.1563 3.84 17.2568C5.76 17.4426 12 17.5 12 17.5C12 17.5 17.043 17.4925 20.4015 17.2477C20.8702 17.1911 21.8932 17.1865 22.806 16.2235C23.5252 15.4901 23.76 13.8246 23.76 13.8246C23.76 13.8246 24 11.8691 24 9.91281V8.07889C24 6.12336 23.76 4.16708 23.76 4.16708Z" fill="#163300"/>
</svg>
