<svg width="89" height="88" viewBox="0 0 89 88" fill="none" xmlns="http://www.w3.org/2000/svg">
<rect x="0.125" width="88" height="88" rx="44" fill="#9FE870"/>
<path d="M35.7917 50.6666C36.4547 50.6666 37.0906 50.4032 37.5594 49.9344C38.0283 49.4655 38.2917 48.8296 38.2917 48.1666C38.2998 48.0835 38.2998 47.9997 38.2917 47.9166L42.9417 43.2666H43.325H43.7083L46.3917 45.9499C46.3917 45.9499 46.3917 46.0333 46.3917 46.0833C46.3917 46.7463 46.6551 47.3822 47.1239 47.851C47.5927 48.3199 48.2286 48.5833 48.8917 48.5833C49.5547 48.5833 50.1906 48.3199 50.6594 47.851C51.1283 47.3822 51.3917 46.7463 51.3917 46.0833V45.9499L57.4583 39.8333C57.9528 39.8333 58.4361 39.6866 58.8473 39.4119C59.2584 39.1372 59.5788 38.7468 59.768 38.29C59.9572 37.8331 60.0068 37.3305 59.9103 36.8455C59.8138 36.3606 59.5757 35.9151 59.2261 35.5655C58.8765 35.2159 58.431 34.9778 57.9461 34.8813C57.4611 34.7848 56.9584 34.8343 56.5016 35.0236C56.0448 35.2128 55.6544 35.5332 55.3797 35.9443C55.105 36.3554 54.9583 36.8388 54.9583 37.3333C54.9502 37.4164 54.9502 37.5001 54.9583 37.5833L48.9417 43.5999H48.675L45.7917 40.6666C45.7917 40.0035 45.5283 39.3677 45.0594 38.8988C44.5906 38.43 43.9547 38.1666 43.2917 38.1666C42.6286 38.1666 41.9927 38.43 41.5239 38.8988C41.0551 39.3677 40.7917 40.0035 40.7917 40.6666L35.7917 45.6666C35.1286 45.6666 34.4927 45.93 34.0239 46.3988C33.5551 46.8677 33.2917 47.5035 33.2917 48.1666C33.2917 48.8296 33.5551 49.4655 34.0239 49.9344C34.4927 50.4032 35.1286 50.6666 35.7917 50.6666ZM58.2917 57.3333H29.9583V28.9999C29.9583 28.5579 29.7827 28.134 29.4702 27.8214C29.1576 27.5088 28.7337 27.3333 28.2917 27.3333C27.8496 27.3333 27.4257 27.5088 27.1132 27.8214C26.8006 28.134 26.625 28.5579 26.625 28.9999V58.9999C26.625 59.4419 26.8006 59.8659 27.1132 60.1784C27.4257 60.491 27.8496 60.6666 28.2917 60.6666H58.2917C58.7337 60.6666 59.1576 60.491 59.4702 60.1784C59.7827 59.8659 59.9583 59.4419 59.9583 58.9999C59.9583 58.5579 59.7827 58.134 59.4702 57.8214C59.1576 57.5088 58.7337 57.3333 58.2917 57.3333Z" fill="#163300"/>
</svg>
