<svg width="635" height="420" viewBox="0 0 635 420" fill="none" xmlns="http://www.w3.org/2000/svg">
<path d="M254.022 0L578 294.539L158 420L254.022 0Z" fill="white"/>
<path fill-rule="evenodd" clip-rule="evenodd" d="M303.661 80.5978C315.146 80.1064 329.491 65.7193 332.011 56.662C334.521 47.6383 327.992 40.9309 321.07 39.7003L320.904 39.6709C316.765 38.9359 312.571 38.1883 308.573 39.8032C285.693 49.0369 281.567 81.5449 303.661 80.5978ZM309.438 56.0509C309.438 60.5323 302.661 60.5323 302.661 56.0509C302.661 51.5695 309.438 51.5695 309.438 56.0509Z" fill="#163300"/>
<path fill-rule="evenodd" clip-rule="evenodd" d="M479.945 242.205C475.848 245.973 471.905 246.506 467.558 247.094C462.715 247.749 457.375 248.472 450.764 253.808C439.871 262.6 423.611 257.796 428.834 249.204C430.742 246.065 433.235 243.413 435.81 240.842C438.668 237.986 440.953 234.983 443.097 232.165C448.842 224.611 453.574 218.393 465.615 219.933C479.964 221.768 490.595 232.413 479.945 242.205ZM451.757 241.292C451.757 245.773 444.98 245.773 444.98 241.292C444.98 236.81 451.757 236.81 451.757 241.292ZM468.022 237.226C468.022 239.914 463.956 239.914 463.956 237.226C463.956 234.538 468.022 234.538 468.022 237.226Z" fill="#163300"/>
<path fill-rule="evenodd" clip-rule="evenodd" d="M465.718 203.931C473.148 204.246 480.79 204.571 490.939 198.943L490.941 198.946C508.312 189.311 514.136 173.622 513.825 154.085C513.541 136.384 507.157 123.373 503.346 115.603L503.344 115.601C502.514 113.906 501.804 112.461 501.309 111.273C496.697 100.229 495.177 93.4479 494.041 88.3785C492.705 82.4292 491.901 78.8403 487.254 73.4937C479.299 64.3419 468.654 61.1835 457.146 60.3183C451.787 59.9151 446.253 60.9861 440.369 62.1243C428.714 64.3755 415.694 66.8913 399.969 58.7559L399.879 58.7076C389.385 53.2791 378.232 47.5062 367.159 50.7591C364.164 51.639 350.73 58.0104 343.11 67.62C332.2 81.375 322.044 88.0656 313.388 93.765C300.752 102.089 291.315 108.305 287.392 131.319C285.956 139.747 286.809 144.495 288.938 156.337C289.15 157.513 289.375 158.76 289.61 160.085C291.79 172.357 290.471 178.628 289.503 183.227C288.978 185.718 288.556 187.721 288.852 189.918C289.772 196.749 296.88 208.23 302.428 208.135C305.324 208.087 308.111 207.856 310.814 207.633C323.346 206.602 334.054 205.72 345.147 223.658C361.829 250.641 372.495 253.615 391.722 249.117C398.247 247.59 411.5 241.649 421.194 231.691C424.298 228.503 426.759 225.227 429.126 222.079C434.376 215.095 439.149 208.744 449.386 205.405C455.273 203.484 460.441 203.706 465.718 203.931ZM395.733 94.0023C395.733 98.4837 388.957 98.4837 388.957 94.0023C388.957 89.5209 395.733 89.5209 395.733 94.0023ZM427.359 174.875C427.359 179.357 420.583 179.357 420.583 174.875C420.583 170.394 427.359 170.394 427.359 174.875ZM310.795 174.875C310.795 179.357 304.018 179.357 304.018 174.875C304.018 170.394 310.795 170.394 310.795 174.875ZM384.438 227.739C384.438 230.427 380.372 230.427 380.372 227.739C380.372 225.051 384.438 225.051 384.438 227.739ZM435.041 187.528C435.041 190.216 430.976 190.216 430.976 187.528C430.976 184.84 435.041 184.84 435.041 187.528ZM399.799 229.545C399.799 232.233 395.733 232.233 395.733 229.545C395.733 226.857 399.799 226.857 399.799 229.545ZM382.18 73.2207C382.18 75.9087 378.114 75.9087 378.114 73.2207C378.114 70.5327 382.18 70.5327 382.18 73.2207ZM498.745 140.087C498.745 142.775 494.679 142.775 494.679 140.087C494.679 137.399 498.745 137.399 498.745 140.087ZM328.72 106.09C329.233 106.256 329.594 106.758 329.399 107.35C329.002 108.559 325.98 107.446 324.892 107.045C324.734 106.989 324.619 106.945 324.556 106.926C324.031 106.766 323.93 106.302 324 105.783C324.119 104.866 324.833 104.828 328.72 106.09ZM321.79 114.935C320.108 113.129 311.385 121.802 309.678 126.412C310.654 126.538 313.197 124.221 315.621 122.016C316.485 121.217 317.364 120.435 318.258 119.671C318.712 119.29 319.146 118.94 319.552 118.614C321.538 117.016 322.792 116.01 321.79 114.935ZM331.274 111.634C330.728 113.541 330.436 114.557 329.052 114.225C327.313 113.809 328.83 110.336 329.777 109.391C330.455 108.715 331.767 108.998 331.665 110.317C331.515 110.792 331.389 111.233 331.274 111.634ZM324.144 118.879C322.2 117.711 317.679 128.598 318.668 130.414C319.533 129.011 320.295 127.789 320.959 126.727C324.848 120.49 325.386 119.624 324.144 118.879ZM337.152 107.782C338.305 108.207 338.502 109.557 336.434 109.843C336.009 109.685 335.606 109.544 335.235 109.414C333.376 108.763 332.269 108.377 332.778 107.417C333.342 106.348 333.89 106.556 336.116 107.396L337.152 107.782ZM334.021 101.846C334.056 99.9348 332.011 99.7773 331.557 101.268C331.297 102.125 331.074 102.805 330.896 103.351C330.31 105.141 330.205 105.464 330.799 105.827C331.305 106.136 331.765 105.979 332.271 105.714C333.481 105.084 333.639 104.013 333.79 102.984C333.849 102.589 333.905 102.201 334.021 101.846ZM321.259 112.36C319.97 113.045 307 119.616 305.698 120.275V120.277C297.81 124.276 314.039 110.536 320.581 110.382C322.284 110.342 322.143 111.89 321.259 112.36ZM361.266 198.339C360.987 198.895 361.266 199.45 361.749 199.685C365.418 201.48 366.121 201.573 366.375 200.682C366.518 200.18 366.489 199.708 365.995 199.471C365.937 199.443 365.832 199.384 365.687 199.307C364.677 198.752 361.839 197.196 361.264 198.337L361.266 198.339ZM383.562 182.381C381.199 186.686 371.296 193.987 369.895 191.955C369.061 190.745 370.449 189.932 372.652 188.641C373.1 188.378 373.581 188.097 374.082 187.788C374.971 187.242 375.991 186.558 377.035 185.856C379.757 184.031 382.615 182.114 383.562 182.381ZM362.621 191.589C361.296 191.056 360.855 192.03 360.027 193.849C359.857 194.223 359.672 194.632 359.458 195.073C359.164 196.365 360.42 196.837 361.193 196.266C362.268 195.472 364.28 192.257 362.621 191.589ZM375.261 177.093C375.97 179.038 369.897 189.145 368.15 187.702C367.033 186.78 367.692 186.005 372.444 180.415L372.449 180.411C373.261 179.455 374.196 178.357 375.261 177.093ZM354.674 194.846C352.587 194.823 352.583 196.188 353.658 196.776C354.019 196.974 354.345 197.154 354.636 197.318C356.707 198.469 357.215 198.752 357.931 197.78C358.572 196.906 357.539 196.365 355.798 195.449C355.421 195.253 355.047 195.053 354.674 194.848V194.846ZM358.234 204.04C357.566 205.447 355.567 204.989 355.884 203.106C356.05 202.77 356.165 202.392 356.281 202.009C356.581 201.012 356.894 199.977 358.181 199.536C358.719 199.351 359.198 199.265 359.653 199.645C360.189 200.09 360.036 200.397 359.181 202.108C358.927 202.614 358.612 203.246 358.234 204.04ZM386.603 189.036L384.885 189.609L384.858 189.617H384.853C380.746 190.989 371.182 194.176 370.048 194.58C369.105 194.916 368.738 196.428 370.433 196.64C376.926 197.452 394.998 186.236 386.603 189.036ZM357.681 160.828C357.198 160.593 356.919 160.039 357.198 159.482L357.196 159.48C357.772 158.34 360.609 159.896 361.619 160.45C361.764 160.528 361.869 160.587 361.928 160.614C362.421 160.852 362.451 161.324 362.308 161.826C362.054 162.716 361.35 162.624 357.681 160.828ZM358.555 152.733C357.23 152.2 356.789 153.174 355.962 154.993C355.791 155.366 355.607 155.776 355.392 156.217C355.098 157.508 356.354 157.979 357.127 157.41C358.202 156.616 360.214 153.401 358.555 152.733ZM349.59 157.92C348.515 157.332 348.519 155.967 350.607 155.99C351.003 156.208 351.381 156.41 351.73 156.593C353.471 157.508 354.504 158.05 353.864 158.924C353.148 159.896 352.639 159.613 350.569 158.462C350.275 158.298 349.951 158.117 349.59 157.92ZM351.818 164.249C351.501 166.133 353.5 166.591 354.168 165.184C354.546 164.39 354.861 163.758 355.115 163.252C355.97 161.54 356.123 161.236 355.588 160.789C355.132 160.408 354.653 160.495 354.116 160.679C352.828 161.12 352.515 162.156 352.215 163.153C352.1 163.535 351.984 163.913 351.818 164.249ZM371.724 127.758C371.195 127.835 370.645 127.541 370.559 126.922C370.384 125.656 373.61 125.322 374.752 125.202C374.867 125.193 374.981 125.18 375.095 125.164C375.639 125.078 375.933 125.448 376.098 125.945C376.392 126.827 375.769 127.165 371.724 127.758ZM367.839 120.601C366.447 120.916 366.636 121.962 366.991 123.919C367.064 124.324 367.144 124.771 367.22 125.259C367.713 126.487 369.015 126.162 369.326 125.259C369.761 123.99 369.584 120.208 367.839 120.601ZM363.412 129.963C362.192 130.091 361.415 128.963 363.146 127.798C363.599 127.751 364.026 127.699 364.418 127.651C366.367 127.415 367.528 127.275 367.497 128.358C367.461 129.564 366.884 129.618 364.538 129.849C364.163 129.885 363.787 129.923 363.412 129.963ZM368.847 133.906C369.66 135.637 371.56 134.877 371.31 133.337C371.172 132.478 371.073 131.785 370.993 131.229C370.722 129.318 370.674 128.978 369.981 128.915C369.389 128.86 369.047 129.205 368.706 129.664C367.898 130.763 368.23 131.79 368.549 132.781C368.673 133.161 368.792 133.537 368.847 133.906ZM490.097 164.354C489.568 164.432 489.018 164.138 488.931 163.519C488.757 162.252 491.983 161.918 493.125 161.799H493.127H493.138H493.146L493.323 161.778C493.371 161.773 493.419 161.768 493.467 161.761C494.011 161.675 494.305 162.044 494.471 162.542C494.765 163.424 494.142 163.762 490.097 164.354ZM486.212 157.198C484.82 157.513 485.009 158.558 485.364 160.516C485.437 160.923 485.517 161.368 485.592 161.855C486.086 163.084 487.388 162.758 487.699 161.855C488.133 160.587 487.957 156.805 486.212 157.198ZM481.785 166.559C480.565 166.687 479.788 165.56 481.518 164.394C481.974 164.348 482.4 164.296 482.793 164.247C484.742 164.012 485.901 163.871 485.87 164.955C485.834 166.16 485.256 166.215 482.911 166.446C482.535 166.482 482.16 166.52 481.785 166.559ZM487.22 170.503C488.033 172.234 489.933 171.473 489.683 169.934C489.545 169.075 489.446 168.382 489.366 167.826C489.095 165.915 489.047 165.574 488.354 165.511C487.762 165.457 487.419 165.801 487.079 166.261C486.271 167.359 486.603 168.386 486.922 169.378C487.046 169.758 487.165 170.134 487.22 170.503ZM426.853 84.4872C430.197 95.5836 446.875 91.4907 444.836 80.1822L444.834 80.1801C443.687 73.815 481.124 83.3343 481.124 115.462C481.124 136.223 464.051 152.993 443.181 152.502C406.576 151.639 393.129 103.036 424.928 83.7417C425.656 83.3007 426.608 83.6745 426.853 84.4872ZM417.487 104.874C416.582 100.088 423.708 98.8428 424.581 103.461C425.486 108.247 418.361 109.492 417.487 104.874ZM427.784 137.999C422.702 138.835 421.53 131.242 426.482 130.427C431.564 129.591 432.735 137.185 427.784 137.999ZM441.14 145.734C437.255 145.734 437.255 139.86 441.14 139.86C445.025 139.86 445.025 145.734 441.14 145.734ZM458.801 134.394C446.558 135.605 444.762 117.165 456.913 115.964C469.156 114.752 470.951 133.192 458.801 134.394Z" fill="#163300"/>
<path d="M216.727 359.465C216.727 341.786 217.391 341.872 215.398 341.876C207.468 341.897 199.539 342.191 191.611 341.857C190.866 341.825 190.712 342.206 190.465 342.649C169.099 380.682 170.798 380.184 165.489 379.705C161.071 379.306 158.984 374.699 160.855 371.461C205.494 294.109 203.762 295.09 207.065 295.061C215.858 294.981 215.826 294.758 215.623 293.574C215.366 292.083 216.616 290.088 213.485 287.288C209.535 283.756 208.999 278.126 211.853 273.26C212.531 272.103 212.477 271.427 211.763 270.392C208.737 266.005 210.839 268.426 184.171 283.363C180.895 285.199 176.684 282.299 174.276 279.985C173.805 279.533 173.408 278.865 172.51 279.483C171.806 279.966 171.357 280.094 172.102 281.091C178.417 289.546 164.179 297.818 159.204 289.535C157.879 287.33 156.487 289.279 153.217 286.138C152.211 285.169 152.209 285.434 146.566 288.786C146.142 289.038 145.634 289.143 145.527 289.838C145.04 293.042 141.425 294.351 138.479 293.087C134.057 291.188 126.364 277.689 123.286 272.42C121.293 269.01 123.046 269.415 128.559 266.041C130.375 264.93 130.144 265.207 140.161 280.942C141.386 282.866 141.44 281.591 147.318 278.901C148.887 278.183 147.845 277.402 147.973 274.835C148.162 271.049 148.981 271.097 163.975 262.97C167.102 261.276 161.64 257.305 168.629 253.247C185.238 243.604 209.507 228.606 227.074 218.196C229.636 216.678 223.283 212.541 228.361 208.144C233.626 203.584 239.365 199.729 245.413 196.314C270.972 181.885 270.025 182.664 273.48 188.643C278.203 196.816 288.434 216.583 295.649 223.91C296.739 225.017 296.149 225.897 295.391 226.821C286.5 237.644 266.138 248.401 257.516 253.079C254.368 254.789 253.376 254.539 250.747 252.197C244.941 247.025 245.539 246.017 243.962 246.994C217.406 263.42 217.998 262.313 219.159 263.481C219.676 263.999 220.125 267.116 224.684 267.534C233.657 268.355 238.372 281.704 228.788 288.695C227.517 289.621 226.698 292.496 227.269 293.954C227.509 294.565 227.948 294.283 228.294 294.283C235.388 294.275 236.226 293.588 237.601 295.821C241.446 302.058 280.099 369.447 280.13 369.501C282.335 373.34 280.044 377.725 275.59 378.37C273.494 378.674 272.396 378.594 270.216 375.524C267.411 371.57 250.827 341.523 250.827 341.523L226.286 341.804C226.286 341.804 225.883 350.824 225.885 374.669C225.885 381.387 216.652 380.877 216.715 375.694C216.746 373.038 216.773 359.465 216.727 359.465ZM166.468 258.319C167.344 267.368 172.505 278.311 180.307 281.614C183.026 282.765 181.006 282.799 217.057 260.551C244.504 243.613 243.924 244.969 242.49 243.459C239.317 240.122 233.576 229.891 229.464 220.968C228.533 218.948 230.339 218.795 203.72 234.644C166.079 257.053 166.138 256.271 166.468 258.319ZM254.435 251.786C256.722 251.624 275.29 241.065 282.965 235.271C283.906 234.562 284.389 234.205 283.251 233.121C278.165 228.287 266.073 211.609 258.244 193.353C257.883 192.509 257.749 191.913 256.581 192.562C247.658 197.528 238.689 202.411 230.692 208.853C227.553 211.384 226.324 210.189 237.122 230.282C239.766 235.202 250.239 251.532 254.435 251.786ZM290.467 221.044C264.926 186.323 276.644 182.813 260.823 190.266C259.739 190.777 259.59 191.268 260.086 192.385C265.777 205.187 275.019 221.521 284.692 232.004C285.605 232.993 286.155 232.934 287.077 232.117C296.536 223.723 294.513 226.546 290.467 221.044ZM232.038 304.135C271.548 374.119 268.45 369.81 270.048 368.697C274.341 365.713 275.897 366.219 274.887 364.531C274.859 364.484 250.93 323.318 242.677 308.543C239.138 302.209 236.881 304.132 232.036 304.132L232.038 304.135ZM209.52 304.899C202.088 304.899 201.866 304.429 200.828 306.237L166.766 365.23C165.554 367.298 167.304 366.526 171.749 368.911C174.03 370.136 173.014 369.657 209.52 304.899ZM195.414 333.927L215.434 333.711C217.517 333.688 216.769 333.789 216.956 308.395C216.983 304.624 216.969 304.666 213.17 304.655C210.772 304.647 212.311 304.137 195.414 333.927ZM218.443 365.839C218.443 370.994 219.239 369.146 223.038 369.625C224.613 369.535 224.172 368.155 224.22 367.242C224.476 362.33 224.289 348.201 224.132 308.5C224.128 307.194 224.89 305.342 223.987 304.729C223.025 304.074 221.272 304.636 219.871 304.557C218.172 304.46 218.464 299.177 218.443 365.839ZM225.911 332.107C225.862 334.339 225.839 333.276 244.624 333.268C247.469 333.268 246.285 334.289 231.381 306.583C230.396 304.754 229.474 304.009 227.395 304.252C224.476 304.595 226.488 305.5 225.908 332.107H225.911ZM149.97 274.993C150.428 279.516 152.339 283.143 156.422 285.438C157.348 285.959 158.003 286.333 158.215 284.657C158.767 280.274 163.883 276.885 168.665 278.67C169.975 279.159 170.865 278.225 171.615 277.572C172.121 277.131 171.136 276.446 170.779 275.908C164.431 266.358 166.961 263.506 164.372 264.961C150.917 272.521 149.664 271.988 149.968 274.991L149.97 274.993ZM238.872 302.169C235.686 296.197 235.988 296.06 234.653 296.146C209.279 297.782 206.33 296.213 205.648 297.524C204.709 299.328 203.745 301.115 202.653 303.167L238.872 302.169ZM231.86 278.681C232.047 266.093 212.34 266.36 212.124 278.991C211.906 291.709 231.662 291.98 231.86 278.681ZM140.256 291.512C146.608 291.669 140.14 284.84 130.898 270.218C129.185 267.506 129.078 267.569 126.253 269.201C125.001 269.923 124.061 270.11 124.924 271.532C135.327 288.672 137.925 291.453 140.256 291.512ZM250.023 339.958C247.19 334.912 247.618 335.057 246.236 335.089C231.511 335.425 226.236 335.494 226.236 335.494V339.975L250.023 339.958ZM192.065 340.08C217.464 340.08 216.981 340.664 216.773 338.919C216.557 337.094 217.672 335.563 214.988 335.639C203.552 335.966 194.74 335.763 194.74 335.763L192.065 340.08ZM165.386 290.81C172.833 290.961 173.736 280.346 165.893 280.264C158.74 280.19 157.791 290.655 165.386 290.81ZM150.193 284.237C150.663 283.949 150.808 283.767 150.504 283.162C148.931 280.029 148.958 280.014 145.932 281.589C141.766 283.758 141.507 283.489 143.927 287.106C144.617 288.139 144.275 287.866 150.193 284.237ZM217.435 290.079C217.231 294.231 216.91 294.745 218.243 294.643C226.551 294 225.444 295.525 225.541 291.583C225.608 288.773 224.957 292.251 217.435 290.079ZM219.392 267.485C216.885 263.409 217.269 263.355 214.785 264.9C212.513 266.314 212.212 268.111 213.871 270.299C214.239 270.782 215.033 268.844 219.392 267.485Z" fill="#163300"/>
<path d="M180.954 276.194C177.497 275.818 181.991 273.664 210.656 256.698C237.24 240.965 236.511 240.868 237.177 242.113C237.538 242.787 237.091 243.18 236.526 243.51C220.856 252.672 187.609 272.84 180.954 276.194Z" fill="#163300"/>
<path d="M257.184 243.902C252.778 244.142 262.196 239.03 274.586 231.519C275.376 231.04 276.101 230.679 276.588 231.468C277.239 232.525 276.987 232.516 265.84 239.117C264.742 239.768 259.13 243.058 257.184 243.902Z" fill="#163300"/>
<path d="M222.462 284.827C214.293 284.836 214.474 272.456 222.49 272.498C230.505 272.54 230.356 284.819 222.462 284.827Z" fill="#163300"/>
<path d="M165.361 282.331C169.431 282.272 169.274 288.15 165.33 288.154C161.386 288.158 161.182 282.389 165.361 282.331Z" fill="#163300"/>
</svg>
