<svg width="400" height="400" viewBox="0 0 400 400" fill="none" xmlns="http://www.w3.org/2000/svg">
<path d="M203.282 222.081C201.673 222.79 200.234 223.771 199.045 224.968C198.081 225.865 196.4 227.294 197.218 228.626C197.292 228.74 197.399 228.834 197.527 228.9C197.655 228.966 197.8 229 197.948 229C199.445 228.981 200.128 227.317 200.978 226.433C202.085 225.394 203.302 224.452 204.612 223.621C205.676 222.86 204.324 221.68 203.282 222.081Z" fill="#163300"/>
<path d="M207.614 225.232C206.285 224.401 204.605 225.998 203.697 226.945C202.474 228.143 201.558 229.655 201.038 231.337C200.965 231.647 200.998 231.974 201.131 232.259C201.264 232.545 201.489 232.77 201.765 232.895C202.04 233.019 202.348 233.034 202.633 232.937C202.918 232.839 203.161 232.637 203.318 232.365C204.012 231.112 204.829 229.94 205.755 228.87C206.551 228.06 207.97 227.249 208 225.95C208.001 225.804 207.966 225.661 207.898 225.535C207.83 225.409 207.732 225.305 207.614 225.232Z" fill="#163300"/>
<path d="M206.673 229.955C205.683 231.214 204.833 232.566 204.137 233.989C203.43 235.518 205.64 236.849 206.585 235.33C207.696 233.548 208.551 231.266 210.424 230.078C212.196 228.957 209.578 226.091 206.673 229.955Z" fill="#163300"/>
<path d="M208.181 235.429C208.103 241.172 203.504 244.367 200.059 248.244C197.262 251.389 195.212 255.968 196.294 260.241C196.361 260.461 196.496 260.653 196.68 260.79C196.864 260.926 197.086 261 197.315 261C197.543 261 197.765 260.926 197.949 260.79C198.133 260.653 198.268 260.461 198.335 260.241C198.657 257.494 199.474 254.828 200.744 252.373C202.367 250.195 204.187 248.172 206.181 246.33C208.997 243.302 211.436 239.15 209.002 235.214C208.953 235.132 208.878 235.068 208.79 235.033C208.702 234.997 208.605 234.99 208.512 235.014C208.42 235.038 208.338 235.092 208.279 235.166C208.219 235.241 208.185 235.333 208.181 235.429Z" fill="#163300"/>
<path d="M216.198 188.957C218.887 187.981 221.389 185.972 220.95 182.799C220.639 180.582 217.296 177.484 215.285 179.848C215.163 179.976 215.076 180.133 215.032 180.304C214.988 180.475 214.989 180.655 215.035 180.825C215.08 180.996 215.168 181.152 215.291 181.279C215.414 181.406 215.567 181.499 215.736 181.55C217.184 181.991 218.666 181.88 218.487 183.956C218.357 184.753 218.026 185.503 217.526 186.137C217.025 186.77 216.37 187.264 215.625 187.574C214.869 187.964 215.376 189.251 216.198 188.957Z" fill="#163300"/>
<path d="M197.428 170.806C196.938 172.069 196.867 173.439 197.225 174.739C197.359 175.143 197.644 175.49 198.029 175.718C198.415 175.947 198.876 176.041 199.329 175.984C199.783 175.927 200.2 175.724 200.506 175.409C200.812 175.095 200.987 174.69 201 174.267C200.975 172.93 200.518 171.63 199.688 170.534C199.559 170.349 199.375 170.201 199.159 170.108C198.942 170.015 198.701 169.981 198.465 170.01C198.228 170.038 198.005 170.128 197.822 170.269C197.638 170.41 197.502 170.597 197.428 170.806Z" fill="#163300"/>
<path d="M221.796 170.327C221.498 170.639 221.277 171.002 221.144 171.394C221.011 171.785 220.969 172.196 221.022 172.602C220.964 173.483 221.117 174.365 221.471 175.191C221.665 175.47 221.946 175.694 222.28 175.835C222.615 175.976 222.988 176.028 223.355 175.986C223.723 175.943 224.068 175.807 224.35 175.595C224.632 175.382 224.838 175.102 224.944 174.788C225.069 173.906 224.984 173.012 224.697 172.161C224.644 171.76 224.498 171.373 224.268 171.025C224.038 170.677 223.729 170.374 223.36 170.137C223.11 170.021 222.824 169.977 222.544 170.011C222.264 170.045 222.002 170.155 221.796 170.327Z" fill="#163300"/>
<path d="M221.221 162.442C224.102 165.276 224.164 167.303 225.784 167.967C226.028 168.033 226.287 167.999 226.506 167.872C226.725 167.745 226.886 167.536 226.956 167.288C227.415 165.146 224.2 162.408 222.235 161.099C222.06 161.005 221.857 160.977 221.663 161.02C221.469 161.063 221.297 161.175 221.175 161.335C221.054 161.496 220.992 161.695 221.001 161.897C221.009 162.099 221.087 162.292 221.221 162.442Z" fill="#163300"/>
<path d="M194.528 169.614C195.277 168.335 196.219 167.157 197.327 166.116C198.304 165.116 199.622 164.406 199.974 163.031C200.006 162.912 200.009 162.789 199.981 162.669C199.954 162.549 199.898 162.437 199.817 162.34C199.736 162.242 199.632 162.163 199.513 162.107C199.394 162.051 199.262 162.02 199.128 162.016C197.302 161.828 196.013 163.294 195.026 164.495C194 165.857 193.315 167.408 193.02 169.038C192.825 169.826 194.106 170.424 194.528 169.614Z" fill="#163300"/>
<path d="M205.542 204.315C208.728 205.43 212.991 206.648 216.39 205.6C216.567 205.552 216.721 205.456 216.831 205.326C216.941 205.196 217 205.038 217 204.876C217 204.714 216.941 204.556 216.831 204.426C216.721 204.296 216.567 204.2 216.39 204.152C214.284 203.574 211.589 203.914 205.95 203.019C205.756 202.978 205.551 203.004 205.379 203.093C205.207 203.181 205.081 203.325 205.028 203.494C204.975 203.662 204.999 203.843 205.095 203.996C205.191 204.149 205.351 204.264 205.542 204.315Z" fill="#163300"/>
<path d="M180.906 233.918C179.32 231.519 177.639 228.404 174.806 227.247C174.261 227.05 173.681 226.969 173.103 227.01C172.525 227.051 171.962 227.213 171.45 227.485C170.938 227.757 170.489 228.134 170.132 228.59C169.775 229.046 169.517 229.573 169.376 230.135C167.577 235.653 172.565 241.02 177.359 242.929C178.415 243.352 179.221 241.784 178.446 241.06C175.868 238.66 172.116 237.297 171.702 233.27C171.6 232.27 171.768 230.421 172.957 229.982C173.866 229.645 174.713 230.574 175.336 231.059C176.883 232.258 178.552 233.347 180.059 234.577C180.492 234.929 181.269 234.469 180.906 233.918Z" fill="#163300"/>
<path d="M210.549 244.984C215.678 243.487 223.181 238.99 221.843 232.544C221.635 231.232 220.945 230.042 219.906 229.205C218.867 228.367 217.552 227.94 216.215 228.007C214.843 228.222 213.565 228.831 212.538 229.757C211.403 230.562 210.327 231.444 209.317 232.399C209.163 232.562 209.06 232.766 209.019 232.985C208.979 233.205 209.003 233.432 209.089 233.638C209.175 233.845 209.32 234.022 209.505 234.149C209.69 234.276 209.909 234.347 210.134 234.354C210.793 234.421 211.458 234.325 212.07 234.073C212.682 233.821 213.221 233.421 213.638 232.91C214.512 232.173 215.788 230.752 217.147 231.14C218.623 231.562 218.944 233.385 218.697 234.641C217.97 238.356 213.322 242.297 210.17 244.097C210.069 244.158 209.994 244.253 209.958 244.364C209.923 244.475 209.928 244.596 209.974 244.703C210.02 244.811 210.103 244.898 210.209 244.95C210.314 245.001 210.435 245.014 210.549 244.984Z" fill="#163300"/>
<path d="M309.407 292.937C306.999 286.791 302.442 281.835 297.845 277.223C276.222 255.526 251.647 231.569 220.577 228.004C219.913 227.923 219.77 229.028 220.423 229.169C248.437 235.358 269.98 254.349 289.764 273.953C298.937 283.045 310.652 293.195 307.128 307.547C304.416 318.594 293.335 331.952 285.239 340.043C270.319 354.952 259.809 359.257 250.152 365.092C255.189 342.675 256.568 319.595 254.234 296.741C257.67 300.56 261.598 303.908 265.916 306.7C263.166 308.494 256.821 317.65 256.877 323.485C256.882 323.733 256.968 323.973 257.121 324.168C257.273 324.364 257.486 324.505 257.726 324.571C257.966 324.636 258.221 324.623 258.453 324.532C258.684 324.441 258.88 324.279 259.012 324.068C259.932 322.598 260.446 320.872 261.271 319.334C266.924 308.803 267.403 310.43 268.581 308.18C272.889 310.368 278.358 312.506 283.152 311.384C283.295 311.344 283.424 311.264 283.522 311.152C283.62 311.041 283.683 310.903 283.704 310.756C283.725 310.609 283.702 310.46 283.638 310.326C283.575 310.191 283.473 310.079 283.347 310.001C278.889 307.799 273.785 307.207 269.228 305.096C263.72 302.093 258.595 298.443 253.961 294.222C253.04 286.354 251.554 278.562 249.513 270.907C249.318 270.149 248.234 270.481 248.355 271.225C260.493 345.391 241.296 381.687 241.109 391.09C241.115 391.291 241.185 391.485 241.311 391.644C241.436 391.802 241.609 391.916 241.804 391.968C242 392.02 242.207 392.008 242.395 391.934C242.583 391.86 242.742 391.727 242.848 391.556C243.907 390.033 245.883 382.831 249.405 368.326C256.072 365.524 262.417 362.018 268.333 357.869C279.641 350.176 289.661 340.756 298.025 329.955C306.547 318.969 314.483 305.885 309.407 292.937Z" fill="#163300"/>
<path d="M288.806 210.475C292.081 210.298 295.6 212.717 293.761 216.088C292.16 219.025 289.213 218.556 286.598 217.266C283.613 215.8 279.041 214.264 277.084 218.054C277.016 218.223 276.989 218.405 277.004 218.585C277.019 218.765 277.077 218.94 277.173 219.096C277.268 219.252 277.4 219.386 277.556 219.486C277.713 219.587 277.892 219.652 278.079 219.677C279.624 219.998 281.028 219.095 282.548 219.471C283.806 219.958 285.024 220.536 286.191 221.199C294.82 224.737 300.789 215.722 296.663 210.417C296.213 209.784 295.631 209.248 294.954 208.842C294.277 208.436 293.52 208.169 292.73 208.058C291.94 207.947 291.134 207.995 290.365 208.198C289.595 208.402 288.877 208.756 288.257 209.239C288.139 209.337 288.057 209.468 288.022 209.613C287.987 209.759 288.001 209.911 288.062 210.049C288.123 210.186 288.228 210.302 288.362 210.378C288.495 210.455 288.651 210.489 288.806 210.475Z" fill="#9FE870"/>
<path d="M272.099 221.887C272.463 221.725 272.75 221.428 272.895 221.059C273.041 220.69 273.034 220.279 272.877 219.915C272.72 219.55 272.425 219.262 272.055 219.112C271.685 218.962 271.271 218.963 270.901 219.113C270.537 219.275 270.25 219.572 270.105 219.941C269.959 220.31 269.966 220.721 270.123 221.085C270.28 221.45 270.575 221.738 270.945 221.888C271.315 222.038 271.729 222.037 272.099 221.887Z" fill="#9FE870"/>
<path d="M126.334 93.9201C126.251 93.2054 126.312 92.4806 126.513 91.7916C126.714 91.1025 127.05 90.464 127.5 89.9163C127.95 89.3686 128.505 88.9236 129.129 88.6092C129.753 88.2949 130.434 88.118 131.127 88.0898C134.833 88.3465 135.296 91.9416 134.956 95.0432C134.561 98.6624 133.818 107.046 139.347 107C139.638 106.995 139.923 106.913 140.174 106.76C140.425 106.606 140.633 106.388 140.777 106.126C140.922 105.865 140.999 105.568 141 105.266C141.001 104.965 140.926 104.668 140.783 104.405C139.796 102.617 138.724 101.738 138.669 99.4915C138.624 97.4757 139.193 95.5082 139.254 93.499C139.408 91.7439 139.053 89.9813 138.234 88.4372C137.416 86.893 136.171 85.6378 134.66 84.8325C133.35 84.1379 131.868 83.8687 130.408 84.0599C128.949 84.2511 127.578 84.8939 126.475 85.9046C125.373 86.9153 124.589 88.247 124.226 89.7264C123.863 91.2058 123.938 92.7642 124.441 94.1987C124.782 95.1726 126.446 95.1199 126.334 93.9201Z" fill="#9FE870"/>
<path d="M145 112C145.537 111.978 146.045 111.705 146.418 111.238C146.791 110.772 147 110.149 147 109.5C147 108.851 146.791 108.228 146.418 107.762C146.045 107.295 145.537 107.022 145 107C144.463 107.022 143.955 107.295 143.582 107.762C143.209 108.228 143 108.851 143 109.5C143 110.149 143.209 110.772 143.582 111.238C143.955 111.705 144.463 111.978 145 112Z" fill="#9FE870"/>
<path d="M90.4904 226.335C89.9687 225.829 89.644 225.166 89.5706 224.458C89.4972 223.75 89.6796 223.039 90.0873 222.444C90.4949 221.85 91.1032 221.407 91.8102 221.191C92.5173 220.975 93.2804 220.998 93.9719 221.256C99.5505 222.832 96.4072 230.715 101.864 234.038C107.007 237.182 109.862 231.677 106.633 230.923C104.502 230.425 103.46 230.255 102.8 227.961C102.265 226.06 101.968 218.711 93.1692 217.045C91.645 216.867 90.1052 217.223 88.8327 218.047C87.5602 218.871 86.6404 220.107 86.2422 221.529C85.8443 222.777 85.9391 224.123 86.5088 225.309C87.0784 226.495 88.083 227.439 89.3314 227.961C89.5551 228.063 89.8096 228.085 90.0488 228.023C90.288 227.961 90.4963 227.819 90.6362 227.623C90.776 227.427 90.8382 227.189 90.8114 226.953C90.7847 226.717 90.6708 226.498 90.4904 226.335Z" fill="#9FE870"/>
<path d="M111.335 233.244C111.004 233.403 110.35 233.702 110.222 233.908C110.06 234.123 109.985 234.36 110.003 234.598C110.02 234.836 110.131 235.067 110.324 235.272C110.518 235.476 110.788 235.647 111.111 235.769C111.434 235.891 111.8 235.961 112.175 235.972C112.556 236.019 112.95 236.006 113.321 235.935C113.693 235.863 114.031 235.735 114.305 235.561C114.58 235.387 114.783 235.173 114.897 234.938C115.01 234.703 115.031 234.454 114.956 234.213C114.882 233.972 114.715 233.746 114.47 233.555C114.226 233.364 113.911 233.214 113.553 233.118C113.195 233.023 112.806 232.984 112.419 233.006C112.032 233.028 111.66 233.11 111.335 233.244Z" fill="#9FE870"/>
<path d="M54.8505 186.058C54.823 184.443 55.2846 182.511 57.3776 182.409C59.6626 182.293 60.0968 184.611 60.748 186.18C63.3117 192.35 68.5443 189.632 66.561 187.753C65.4814 186.907 64.6212 185.833 64.0475 184.615C63.6907 183.558 63.2197 182.54 62.6422 181.576C62.062 180.752 61.2711 180.082 60.3445 179.632C59.418 179.182 58.3865 178.966 57.3479 179.004C56.4034 179.027 55.481 179.282 54.67 179.746C53.8591 180.209 53.1871 180.865 52.7194 181.65C52.2516 182.435 52.0038 183.323 52 184.226C51.9963 185.129 52.2367 186.019 52.698 186.807C52.8497 187.008 53.0658 187.156 53.3135 187.229C53.5612 187.302 53.827 187.295 54.0705 187.21C54.314 187.125 54.5219 186.967 54.6626 186.759C54.8034 186.551 54.8694 186.305 54.8505 186.058Z" fill="#9FE870"/>
<path d="M71.648 192.978C72.1767 193.056 72.7156 192.928 73.1494 192.621C73.5832 192.315 73.8775 191.854 73.9695 191.337C74.0614 190.821 73.9437 190.289 73.6414 189.857C73.3392 189.424 72.8764 189.125 72.352 189.022C71.8233 188.944 71.2844 189.072 70.8506 189.379C70.4168 189.685 70.1225 190.146 70.0305 190.663C69.9386 191.179 70.0563 191.711 70.3586 192.143C70.6608 192.576 71.1236 192.875 71.648 192.978Z" fill="#9FE870"/>
<path d="M262.291 74.9705C266.2 76.9816 266.806 81.4496 262.497 83.3931C259.991 84.5191 257.544 85.6766 257.04 88.6605C256.636 91.0679 259.412 91.2278 259.815 90.836C260.858 89.8361 260.703 88.5637 261.987 87.6832C262.948 87.0076 264.137 86.6968 265.137 86.1067C271.542 82.2941 269.437 73.0856 262.819 73C262.594 73.0069 262.377 73.0872 262.2 73.2288C262.023 73.3705 261.895 73.5661 261.836 73.7868C261.777 74.0075 261.789 74.2417 261.871 74.4548C261.953 74.6679 262.1 74.8487 262.291 74.9705Z" fill="#9FE870"/>
<path d="M258.5 97C258.898 97 259.279 96.8946 259.561 96.7071C259.842 96.5196 260 96.2652 260 96C260 95.7348 259.842 95.4804 259.561 95.2929C259.279 95.1054 258.898 95 258.5 95C258.102 95 257.721 95.1054 257.439 95.2929C257.158 95.4804 257 95.7348 257 96C257 96.2652 257.158 96.5196 257.439 96.7071C257.721 96.8946 258.102 97 258.5 97Z" fill="#9FE870"/>
<path d="M336.436 171.533C336.884 171.52 337.329 171.616 337.731 171.81C338.134 172.004 338.482 172.291 338.745 172.647C339.009 173.003 339.179 173.416 339.243 173.851C339.306 174.286 339.26 174.729 339.108 175.143C338.771 175.907 338.24 176.574 337.566 177.081C336.891 177.588 336.095 177.918 335.254 178.039C332.481 178.334 330.192 176.761 327.679 178.764C327.39 178.975 327.177 179.271 327.073 179.608C326.968 179.946 326.977 180.307 327.097 180.64C327.218 180.972 327.444 181.258 327.743 181.455C328.042 181.652 328.397 181.75 328.757 181.735C330.15 181.598 331.555 181.617 332.943 181.792C334.061 182.036 335.216 182.065 336.346 181.88C337.621 181.602 338.82 181.059 339.861 180.287C340.903 179.515 341.762 178.532 342.38 177.406C344.496 173.215 340.905 167.568 335.973 169.332C335.713 169.426 335.496 169.609 335.362 169.846C335.227 170.084 335.184 170.36 335.24 170.626C335.296 170.892 335.447 171.13 335.666 171.296C335.886 171.462 336.159 171.546 336.436 171.533Z" fill="#9FE870"/>
<path d="M324.685 184.903C325.184 184.714 325.589 184.341 325.812 183.863C326.036 183.386 326.061 182.841 325.882 182.346C325.704 181.851 325.336 181.443 324.856 181.21C324.377 180.977 323.824 180.936 323.315 181.097C322.816 181.286 322.411 181.659 322.188 182.137C321.964 182.614 321.939 183.159 322.118 183.654C322.296 184.149 322.664 184.557 323.144 184.79C323.623 185.023 324.176 185.064 324.685 184.903Z" fill="#9FE870"/>
<path d="M129.619 180.24C136.169 169.495 117.457 161.278 114.366 172.058C113.96 173.498 113.891 175.016 114.164 176.489C114.437 177.962 115.044 179.349 115.937 180.538C116.736 181.637 117.781 182.525 118.985 183.127C120.188 183.728 121.514 184.027 122.853 183.998C124.192 183.969 125.505 183.613 126.682 182.959C127.859 182.305 128.866 181.373 129.619 180.24Z" fill="#9FE870"/>
<path d="M94.517 162.286C87.5974 157.654 80.339 150.771 82.4065 141.479C84.1749 133.539 94.851 121.64 87.2469 113.275C84.9039 110.876 81.7527 109.461 78.4234 109.312C65.0234 108.366 60.8744 123.104 64.9813 133.39C65.1402 133.801 66.1494 135.844 65.7265 136.26C65.6471 136.343 49.9787 135.411 49.3736 135.099C48.2056 134.494 45.6358 124.066 47.9065 115.41C49.0886 110.884 51.2052 100.438 64.1029 94.907C74.2768 90.5444 86.6232 90.8069 95.3603 97.6475C99.6969 101.142 102.965 105.811 104.784 111.11C106.604 116.41 106.9 122.124 105.639 127.587C104.277 133.061 99.6751 141.483 103.6 147.794C106.356 152.225 115.9 158.61 116 158.907C113.991 162.733 111.276 166.132 108.001 168.921C106.873 169.699 97.8389 164.514 94.517 162.286Z" fill="#9FE870"/>
<path d="M82 152C82.2161 154.825 82.9317 157.598 84.1183 160.208C89.1817 164.099 94.5073 167.688 100.063 170.954C102.979 172.478 104.051 172.49 107 169.962C99.049 167.273 88.0009 161.157 82 152Z" fill="#9FE870"/>
<path d="M81.6094 114.954C84.9808 116.854 87.4645 119.701 88.6286 123C91.9482 122.445 89.3189 112.256 79.8927 111.157C74.3445 110.511 69.7788 112.005 71.2938 113.017C72.0824 113.541 75.9319 112.311 81.6094 114.954Z" fill="#9FE870"/>
<path d="M69 141.996C68.9151 142.062 53.8614 141.235 53.5841 141.155C51.6453 139.793 50.0768 138.043 49 136.041C49.2248 135.784 65.3477 136.805 65.9873 137.051C67.1447 138.618 68.1526 140.273 69 141.996Z" fill="#9FE870"/>
<path d="M111.47 179.806C111.988 181.009 112.8 182.086 113.842 182.953C114.885 183.82 116.13 184.453 117.48 184.803C122.127 185.533 124.765 183.993 123.803 184.066C121.507 184.237 119.212 183.716 117.265 182.58C111.958 179.71 113.2 172 113.2 172C112.437 172.92 111.779 173.91 111.237 174.955C110.856 176.563 110.936 178.235 111.47 179.806Z" fill="#9FE870"/>
<path d="M199.993 107.905C211.254 105.728 204.853 88.2227 195.747 92.7424C194.537 93.3507 193.488 94.2303 192.686 95.3106C191.883 96.3908 191.349 97.6415 191.127 98.9621C190.903 100.166 190.976 101.406 191.339 102.577C191.702 103.748 192.344 104.816 193.212 105.692C194.081 106.568 195.15 107.226 196.329 107.611C197.509 107.996 198.765 108.097 199.993 107.905Z" fill="#9FE870"/>
<path d="M190.162 73.7641C188.916 66.3284 188.921 57.2849 196.272 52.9532C198.915 51.5853 201.716 50.5484 204.611 49.8658C210.115 48.2438 217.173 45.7051 217.691 38.8584C217.811 35.8299 216.787 32.8678 214.825 30.5653C207.162 21.0825 194.964 27.3688 190.781 36.4075C190.611 36.7661 189.895 38.6897 189.363 38.666C189.256 38.666 180.182 27.6894 180.014 27.1004C179.697 25.9533 184.913 17.8384 191.971 14.0387C195.395 11.757 199.342 10.3918 203.439 10.0726C207.535 9.75337 211.645 10.4907 215.378 12.2148C224.515 16.2948 231.979 24.6567 232.916 34.6548C233.316 39.6795 232.288 44.7152 229.951 49.1761C227.614 53.6371 224.065 57.3401 219.715 59.8545C215.135 62.4004 206.947 64.4142 205.249 70.8976C204.067 75.4431 205.786 85.7049 205.661 85.9495C201.912 86.9645 198.003 87.2475 194.148 86.7831C192.957 86.5147 190.767 77.3359 190.162 73.7641Z" fill="#9FE870"/>
<path d="M188.824 59C187.245 60.9235 185.954 63.1248 185 65.5176C185.29 71.1458 185.897 76.7474 186.817 82.2884C187.411 85.0799 187.955 85.7574 191 86C187.743 77.4937 186.981 68.0318 188.824 59Z" fill="#9FE870"/>
<path d="M213.524 35.7078C214.089 38.8386 213.466 42.0562 211.763 44.801C214.077 46.3627 219.88 38.4084 215.27 32.3205C212.556 28.7264 208.87 27.0465 209.004 28.5514C209.074 29.3425 212.173 30.7906 213.524 35.7078Z" fill="#9FE870"/>
<path d="M186.379 44C186.287 43.9883 178.158 34.2445 178.059 34.029C177.866 31.9833 178.148 29.9209 178.883 28C179.187 27.9766 187.795 38.4934 188 39.0368C187.599 40.7327 187.056 42.3928 186.379 44Z" fill="#9FE870"/>
<path d="M189.633 95.7335C189.198 96.7874 188.982 97.9412 189.001 99.1056C189.02 100.27 189.275 101.414 189.744 102.448C191.636 105.71 193.837 106.37 193.316 105.832C192.075 104.545 191.235 102.834 190.923 100.955C189.936 95.9773 195 92 195 92C194.09 92.1016 193.191 92.3089 192.318 92.6188C191.198 93.3699 190.272 94.4443 189.633 95.7335Z" fill="#9FE870"/>
<path d="M265.731 177.731C276.02 184.005 283.301 165.116 273.061 162.3C271.691 161.932 270.256 161.902 268.873 162.213C267.49 162.524 266.197 163.166 265.097 164.089C264.081 164.914 263.27 165.98 262.733 167.196C262.195 168.412 261.947 169.744 262.009 171.08C262.071 172.416 262.442 173.717 263.089 174.874C263.737 176.031 264.643 177.011 265.731 177.731Z" fill="#9FE870"/>
<path d="M282.436 141.971C286.923 134.723 293.683 127.07 303.128 128.951C311.179 130.551 323.49 141.247 331.74 133.199C334.106 130.722 335.454 127.436 335.515 123.999C336.117 110.183 321.126 106.299 310.839 110.783C310.432 110.965 308.391 112.048 307.964 111.63C307.878 111.55 308.398 95.3976 308.7 94.7746C309.281 93.5662 319.745 90.6374 328.546 92.7378C333.146 93.8329 343.753 95.7398 349.679 108.871C354.365 119.23 354.416 131.946 347.743 141.126C344.332 145.686 339.706 149.177 334.402 151.192C329.098 153.207 323.335 153.662 317.784 152.506C312.219 151.251 303.595 146.734 297.327 150.937C292.929 153.889 286.731 163.889 286.443 164C282.517 162.029 279.002 159.318 276.089 156.014C275.274 154.883 280.276 145.459 282.436 141.971Z" fill="#9FE870"/>
<path d="M292 129C289.252 129.289 286.566 130.065 284.049 131.298C280.378 136.371 277.004 141.692 273.948 147.227C272.531 150.124 272.544 151.179 275.08 154C277.502 146.122 283.217 135.128 292 129Z" fill="#9FE870"/>
<path d="M330.408 127.542C328.235 130.93 324.905 133.468 321 134.712C321.76 137.988 333.813 135.022 334.877 125.732C335.503 120.225 333.588 115.782 332.434 117.301C331.843 118.082 333.413 121.862 330.408 127.542Z" fill="#9FE870"/>
<path d="M302.006 115C301.947 114.915 302.367 99.9648 302.436 99.6902C303.621 97.7302 305.164 96.1256 306.943 95C307.182 95.2187 306.603 111.228 306.396 111.87C305.007 113.059 303.538 114.106 302.006 115Z" fill="#9FE870"/>
<path d="M264.436 160.499C263.138 161 261.986 161.766 261.07 162.737C260.154 163.708 259.498 164.857 259.155 166.094C258.482 170.33 260.226 172.693 260.133 171.82C259.889 169.736 260.399 167.637 261.586 165.838C264.575 160.943 273 161.876 273 161.876C271.98 161.206 270.885 160.633 269.734 160.167C267.966 159.862 266.141 159.976 264.436 160.499Z" fill="#9FE870"/>
<path d="M214.292 283.719C212.668 274.56 210.753 265.53 208.433 256.523C208.197 255.605 206.83 255.998 207.018 256.91C213.631 288.669 216.385 321.11 215.22 353.529C214.878 362.615 213.495 371.78 213.745 380.862C213.754 381.14 213.861 381.406 214.048 381.612C214.234 381.818 214.488 381.952 214.764 381.989C215.039 382.027 215.319 381.965 215.554 381.816C215.789 381.666 215.963 381.439 216.046 381.173C219.269 368.658 221.284 323.199 214.292 283.719Z" fill="#163300"/>
<path d="M227.533 292.868C227.939 292.097 228.087 291.2 227.951 290.326C227.813 289.77 227.539 289.265 227.156 288.862C226.773 288.46 226.296 288.175 225.776 288.039C224.11 287.714 222.993 289.478 223.008 291.113C222.965 291.698 223.102 292.281 223.398 292.774C223.694 293.267 224.133 293.641 224.647 293.841C225.161 294.04 225.722 294.053 226.243 293.877C226.765 293.701 227.218 293.346 227.533 292.868Z" fill="#163300"/>
<path d="M228.898 323.03C228.112 322.916 227.316 323.126 226.665 323.619C226.397 323.999 226.204 324.435 226.097 324.899C225.99 325.364 225.971 325.848 226.043 326.32C226.114 326.793 226.273 327.245 226.511 327.648C226.749 328.051 227.06 328.396 227.425 328.663C231.764 330.592 232.027 323.637 228.898 323.03Z" fill="#163300"/>
<path d="M229.72 352.874C229.61 352.493 229.416 352.142 229.154 351.849C228.891 351.556 228.566 351.327 228.204 351.182C227.842 351.036 227.453 350.977 227.065 351.008C226.677 351.04 226.301 351.161 225.967 351.363C225.43 351.826 225.085 352.479 225.002 353.192C224.94 355.3 226.53 358.152 228.861 356.513C229.389 356.098 229.762 355.51 229.919 354.848C230.075 354.186 230.005 353.49 229.72 352.874Z" fill="#163300"/>
<path d="M223.564 117.242C219.095 118.142 215.687 121.297 206.296 122.924C192.417 125.339 179.048 118.275 169.601 126.624C167.991 128.006 166.781 129.795 166.098 131.806C165.414 133.816 165.282 135.974 165.715 138.053C160.169 138.877 153.104 151.17 159.596 162.125C160.903 164.532 162.834 166.539 165.186 167.935C157.83 171.468 156.054 184.49 164.203 190.975C166.242 192.629 168.666 193.734 171.249 194.189C171.274 195.747 174.766 216.441 175.024 217.927C175.408 221.19 176.019 224.424 176.851 227.602C176.945 227.891 177.138 228.137 177.394 228.298C177.651 228.46 177.957 228.525 178.257 228.484C178.557 228.443 178.834 228.298 179.038 228.074C179.243 227.85 179.363 227.561 179.377 227.258C179.131 224.325 178.683 221.414 178.034 218.544C177.857 217.535 173.874 195.173 173.565 194.214C174.258 194.138 174.935 193.952 175.57 193.663C175.829 193.507 176.037 193.278 176.169 193.005C176.3 192.732 176.349 192.426 176.309 192.125C176.27 191.825 176.144 191.542 175.947 191.312C175.75 191.083 175.49 190.915 175.199 190.831C172.183 189.896 169.395 190.085 166.752 187.968C160.523 182.965 162.283 172.604 168.307 170.804C169.436 172.234 170.969 173.57 171.841 174.839C173.107 177.007 174.249 179.245 175.263 181.541C176.462 183.804 179.965 184.169 182.243 184.073C182.429 184.07 182.612 184.025 182.779 183.94C182.945 183.856 183.09 183.734 183.202 183.585C183.315 183.436 183.392 183.263 183.427 183.08C183.463 182.896 183.457 182.707 183.408 182.527C181.325 176.289 179.918 169.845 179.213 163.306C181.842 162.678 184.292 161.454 186.375 159.727C188.457 158.001 190.116 155.818 191.224 153.347C204.769 160.933 219.692 159.455 229.426 152.822C228.739 165.758 229.259 178.776 229.049 191.718C228.875 202.885 229.621 208.292 226.469 212.121C221.755 217.851 214.395 216.587 208.047 215.171C211.671 211.86 212.45 210.946 212.658 209.823C212.717 209.385 212.675 208.94 212.534 208.522C212.394 208.103 212.158 207.723 211.847 207.411C211.536 207.098 211.157 206.862 210.74 206.721C210.323 206.579 209.878 206.536 209.442 206.595C207.561 206.646 205.75 207.855 199.206 211.279C197.651 209.797 195.168 209.733 190.748 205.437C190.404 205.107 189.815 205.534 190.075 205.951C191.121 207.691 192.437 209.253 193.973 210.578C194.824 211.336 195.749 212.006 196.734 212.578C185.573 218.597 186.412 222.418 183.846 235.726C182.9 239.665 182.289 243.677 182.019 247.719C182.019 247.98 182.419 248.125 182.542 247.858C186.214 239.872 187.234 226.576 189.937 221.717C191.96 218.092 196.025 216.427 203.968 212.062C204.961 211.515 209.308 208.812 209.992 209.252C211.099 209.98 209.749 210.958 209.294 211.425C204.796 216.041 199.468 219.845 195.123 224.611C194.975 224.774 194.895 224.988 194.9 225.209C194.905 225.43 194.995 225.641 195.151 225.797C195.307 225.953 195.516 226.043 195.737 226.048C195.957 226.053 196.171 225.973 196.334 225.824C199.418 223.168 202.367 220.326 205.383 217.592C208.424 218.736 211.62 219.415 214.863 219.604C214.811 220.51 214.866 221.419 215.026 222.313C215.008 223.12 215.181 223.921 215.529 224.649C215.878 225.377 216.394 226.013 217.033 226.504C217.328 226.668 217.675 226.711 218.001 226.625C218.327 226.538 218.607 226.329 218.782 226.04C219.304 224.623 219.289 223.062 218.74 221.654C218.611 220.955 218.576 220.242 218.462 219.559C221.257 219.328 223.949 218.389 226.284 216.832C232.223 212.742 232.502 205.886 232.362 199.304C231.634 167.168 231.717 159.268 231.164 151.528C248.113 137.99 237.943 114.352 223.564 117.242ZM227.308 122.904C225.795 126.574 221.949 128.213 218.337 129.292C214.359 130.381 210.208 130.695 206.111 130.217C205.76 130.199 205.429 130.045 205.186 129.789C204.944 129.533 204.809 129.194 204.809 128.841C204.809 128.488 204.944 128.148 205.186 127.892C205.429 127.636 205.76 127.482 206.111 127.464C209.716 127.345 213.26 126.508 216.538 125.002C219.488 123.695 222.134 121.403 225.36 120.945C226.387 120.801 227.837 121.638 227.308 122.904Z" fill="#163300"/>
<path d="M195.378 264.96C188.601 261.679 179.752 255.788 177.837 248.446C177.747 248.144 177.572 247.875 177.332 247.67C177.093 247.466 176.8 247.336 176.488 247.295C176.177 247.254 175.86 247.304 175.576 247.439C175.292 247.574 175.054 247.789 174.889 248.058C157.617 276.266 148.374 294.418 142.747 304.696C137.744 300.632 136.939 297.83 134.954 295.615C134.146 294.717 132.89 295.687 133.083 296.707C133.891 300.942 138.118 304.511 141.797 306.435C140.017 309.611 138.585 312.971 137.525 316.456C137.198 317.635 138.7 318.076 139.355 317.233C143.187 312.227 150.022 295.99 168.333 265.095C171.026 273.569 180.411 278.904 188.57 280.709C190.893 281.222 191.881 277.644 189.556 277.131C185.319 276.229 181.36 274.321 178.01 271.566C174.664 268.759 172.817 265.139 170.366 261.681C172.093 258.799 173.917 255.797 175.839 252.674C178.393 258.664 186.98 265.409 193.959 266.68C192.731 286.382 187.779 305.669 179.365 323.513C171.903 339.056 158.454 355.867 139.237 353.852C109.169 350.674 94.6493 296.662 121.094 265.471C135.093 248.957 154.454 242.487 167.392 234.442C167.551 234.345 167.67 234.194 167.727 234.016C167.785 233.838 167.776 233.646 167.704 233.474C167.631 233.302 167.499 233.162 167.332 233.079C167.164 232.997 166.973 232.978 166.793 233.026C152.802 237.416 132.539 248.429 121.172 260.436C114.896 267.25 110.149 275.336 107.253 284.148C104.357 292.96 103.378 302.293 104.383 311.517C107.026 339.568 122.583 356.009 140.009 357.478C139.775 361.875 140.232 366.282 141.365 370.536C142.039 373.11 146.06 380.653 147.154 383.08C147.898 385.228 149.138 387.17 150.773 388.745C151.683 389.439 153.373 388.627 153.027 387.385C151.3 381.12 146.684 385.072 142.633 357.589C155.126 357.557 168.292 349.891 178.186 333.382C190.084 313.53 196.193 289.444 196.996 266.414C197.011 266.204 196.978 265.993 196.9 265.798C196.821 265.603 196.699 265.429 196.543 265.288C196.386 265.148 196.2 265.046 195.998 264.989C195.796 264.932 195.584 264.922 195.378 264.96Z" fill="#163300"/>
</svg>
