<svg width="400" height="400" viewBox="0 0 400 400" fill="none" xmlns="http://www.w3.org/2000/svg">
<path fill-rule="evenodd" clip-rule="evenodd" d="M186.82 76.76C197.758 76.292 211.42 62.59 213.82 53.964C216.21 45.37 209.992 38.982 203.4 37.81L203.242 37.782C199.3 37.082 195.306 36.37 191.498 37.908C169.708 46.702 165.778 77.662 186.82 76.76ZM192.322 53.382C192.322 57.65 185.868 57.65 185.868 53.382C185.868 49.114 192.322 49.114 192.322 53.382Z" fill="#163300"/>
<path fill-rule="evenodd" clip-rule="evenodd" d="M354.71 230.672C350.808 234.26 347.052 234.768 342.912 235.328C338.3 235.952 333.214 236.64 326.918 241.722C316.544 250.096 301.058 245.52 306.032 237.338C307.85 234.348 310.224 231.822 312.676 229.374C315.398 226.654 317.574 223.794 319.616 221.11C325.088 213.916 329.594 207.994 341.062 209.46C354.728 211.208 364.852 221.346 354.71 230.672ZM327.864 229.802C327.864 234.07 321.41 234.07 321.41 229.802C321.41 225.534 327.864 225.534 327.864 229.802ZM343.354 225.93C343.354 228.49 339.482 228.49 339.482 225.93C339.482 223.37 343.354 223.37 343.354 225.93Z" fill="#163300"/>
<path fill-rule="evenodd" clip-rule="evenodd" d="M341.16 194.22C348.236 194.52 355.514 194.83 365.18 189.47L365.182 189.472C381.726 180.296 387.272 165.354 386.976 146.748C386.706 129.89 380.626 117.498 376.996 110.098L376.994 110.096C376.204 108.482 375.528 107.106 375.056 105.974C370.664 95.4561 369.216 88.9981 368.134 84.1701C366.862 78.5041 366.096 75.0861 361.67 69.9941C354.094 61.2781 343.956 58.2701 332.996 57.4461C327.892 57.0621 322.622 58.0821 317.018 59.1661C305.918 61.3101 293.518 63.7061 278.542 55.9581L278.456 55.9121C268.462 50.7421 257.84 45.2441 247.294 48.3421C244.442 49.1801 231.648 55.2481 224.39 64.4001C214 77.5001 204.328 83.8721 196.084 89.3001C184.05 97.2281 175.062 103.148 171.326 125.066C169.958 133.092 170.77 137.614 172.798 148.892C173 150.012 173.214 151.2 173.438 152.462C175.514 164.15 174.258 170.122 173.336 174.502C172.836 176.874 172.434 178.782 172.716 180.874C173.592 187.38 180.362 198.314 185.646 198.224C188.404 198.178 191.058 197.958 193.632 197.746C205.568 196.764 215.766 195.924 226.33 213.008C242.218 238.706 252.376 241.538 270.688 237.254C276.902 235.8 289.524 230.142 298.756 220.658C301.712 217.622 304.056 214.502 306.31 211.504C311.31 204.852 315.856 198.804 325.606 195.624C331.212 193.794 336.134 194.006 341.16 194.22ZM274.508 89.5261C274.508 93.7941 268.054 93.7941 268.054 89.5261C268.054 85.2581 274.508 85.2581 274.508 89.5261ZM304.628 166.548C304.628 170.816 298.174 170.816 298.174 166.548C298.174 162.28 304.628 162.28 304.628 166.548ZM193.614 166.548C193.614 170.816 187.16 170.816 187.16 166.548C187.16 162.28 193.614 162.28 193.614 166.548ZM263.75 216.894C263.75 219.454 259.878 219.454 259.878 216.894C259.878 214.334 263.75 214.334 263.75 216.894ZM311.944 178.598C311.944 181.158 308.072 181.158 308.072 178.598C308.072 176.038 311.944 176.038 311.944 178.598ZM278.38 218.614C278.38 221.174 274.508 221.174 274.508 218.614C274.508 216.054 278.38 216.054 278.38 218.614ZM261.6 69.7341C261.6 72.2941 257.728 72.2941 257.728 69.7341C257.728 67.1741 261.6 67.1741 261.6 69.7341ZM372.614 133.416C372.614 135.976 368.742 135.976 368.742 133.416C368.742 130.856 372.614 130.856 372.614 133.416ZM210.686 101.038C211.174 101.196 211.518 101.674 211.332 102.238C210.954 103.39 208.076 102.33 207.04 101.948C206.89 101.894 206.78 101.852 206.72 101.834C206.22 101.682 206.124 101.24 206.19 100.746C206.304 99.8721 206.984 99.8361 210.686 101.038ZM204.086 109.462C202.484 107.742 194.176 116.002 192.55 120.392C193.48 120.512 195.902 118.306 198.21 116.206C199.033 115.445 199.871 114.701 200.722 113.972C201.154 113.61 201.568 113.276 201.954 112.966C203.846 111.444 205.04 110.486 204.086 109.462ZM213.118 106.318C212.598 108.134 212.32 109.102 211.002 108.786C209.346 108.39 210.79 105.082 211.692 104.182C212.338 103.538 213.588 103.808 213.49 105.064C213.348 105.516 213.228 105.936 213.118 106.318ZM206.328 113.218C204.476 112.106 200.17 122.474 201.112 124.204C201.936 122.868 202.662 121.704 203.294 120.692C206.998 114.752 207.51 113.928 206.328 113.218ZM218.716 102.65C219.814 103.054 220.002 104.34 218.032 104.612C217.628 104.462 217.244 104.328 216.89 104.204C215.12 103.584 214.066 103.216 214.55 102.302C215.088 101.284 215.61 101.482 217.73 102.282L218.716 102.65ZM215.734 96.9961C215.768 95.1761 213.82 95.0261 213.388 96.4461C213.14 97.2621 212.928 97.9101 212.758 98.4301C212.2 100.134 212.1 100.442 212.666 100.788C213.148 101.082 213.586 100.932 214.068 100.68C215.22 100.08 215.37 99.0601 215.514 98.0801C215.57 97.7041 215.624 97.3341 215.734 96.9961ZM203.58 107.01C202.352 107.662 190 113.92 188.76 114.548V114.55C181.248 118.358 196.704 105.272 202.934 105.126C204.556 105.088 204.422 106.562 203.58 107.01ZM241.682 188.894C241.416 189.424 241.682 189.952 242.142 190.176C245.636 191.886 246.306 191.974 246.548 191.126C246.684 190.648 246.656 190.198 246.186 189.972C246.13 189.946 246.03 189.89 245.892 189.816C244.93 189.288 242.228 187.806 241.68 188.892L241.682 188.894ZM262.916 173.696C260.666 177.796 251.234 184.75 249.9 182.814C249.106 181.662 250.428 180.888 252.526 179.658C252.952 179.408 253.41 179.14 253.888 178.846C254.734 178.326 255.706 177.674 256.7 177.006C259.292 175.268 262.014 173.442 262.916 173.696ZM242.972 182.466C241.71 181.958 241.29 182.886 240.502 184.618C240.34 184.974 240.164 185.364 239.96 185.784C239.68 187.014 240.876 187.464 241.612 186.92C242.636 186.164 244.552 183.102 242.972 182.466ZM255.01 168.66C255.686 170.512 249.902 180.138 248.238 178.764C247.174 177.886 247.802 177.148 252.328 171.824L252.332 171.82C253.106 170.91 253.996 169.864 255.01 168.66ZM235.404 185.568C233.416 185.546 233.412 186.846 234.436 187.406C234.78 187.594 235.09 187.766 235.368 187.922C237.34 189.018 237.824 189.288 238.506 188.362C239.116 187.53 238.132 187.014 236.474 186.142C236.116 185.955 235.759 185.764 235.404 185.57V185.568ZM238.794 194.324C238.158 195.664 236.254 195.228 236.556 193.434C236.714 193.114 236.824 192.754 236.934 192.39C237.22 191.44 237.518 190.454 238.744 190.034C239.256 189.858 239.712 189.776 240.146 190.138C240.656 190.562 240.51 190.854 239.696 192.484C239.454 192.966 239.154 193.568 238.794 194.324ZM265.812 180.034L264.176 180.58L264.15 180.588H264.146C260.234 181.894 251.126 184.93 250.046 185.314C249.148 185.634 248.798 187.074 250.412 187.276C256.596 188.05 273.808 177.368 265.812 180.034ZM238.268 153.17C237.808 152.946 237.542 152.418 237.808 151.888L237.806 151.886C238.354 150.8 241.056 152.282 242.018 152.81C242.156 152.884 242.256 152.94 242.312 152.966C242.782 153.192 242.81 153.642 242.674 154.12C242.432 154.968 241.762 154.88 238.268 153.17ZM239.1 145.46C237.838 144.952 237.418 145.88 236.63 147.612C236.468 147.968 236.292 148.358 236.088 148.778C235.808 150.008 237.004 150.456 237.74 149.914C238.764 149.158 240.68 146.096 239.1 145.46ZM230.562 150.4C229.538 149.84 229.542 148.54 231.53 148.562C231.908 148.77 232.268 148.962 232.6 149.136C234.258 150.008 235.242 150.524 234.632 151.356C233.95 152.282 233.466 152.012 231.494 150.916C231.214 150.76 230.906 150.588 230.562 150.4ZM232.684 156.428C232.382 158.222 234.286 158.658 234.922 157.318C235.282 156.562 235.582 155.96 235.824 155.478C236.638 153.848 236.784 153.558 236.274 153.132C235.84 152.77 235.384 152.852 234.872 153.028C233.646 153.448 233.348 154.434 233.062 155.384C232.952 155.748 232.842 156.108 232.684 156.428ZM251.642 121.674C251.138 121.748 250.614 121.468 250.532 120.878C250.366 119.672 253.438 119.354 254.526 119.24C254.635 119.231 254.744 119.219 254.852 119.204C255.37 119.122 255.65 119.474 255.808 119.948C256.088 120.788 255.494 121.11 251.642 121.674ZM247.942 114.858C246.616 115.158 246.796 116.154 247.134 118.018C247.204 118.404 247.28 118.83 247.352 119.294C247.822 120.464 249.062 120.154 249.358 119.294C249.772 118.086 249.604 114.484 247.942 114.858ZM243.726 123.774C242.564 123.896 241.824 122.822 243.472 121.712C243.904 121.668 244.31 121.618 244.684 121.572C246.54 121.348 247.646 121.214 247.616 122.246C247.582 123.394 247.032 123.446 244.798 123.666C244.441 123.7 244.083 123.736 243.726 123.774ZM248.902 127.53C249.676 129.178 251.486 128.454 251.248 126.988C251.116 126.17 251.022 125.51 250.946 124.98C250.688 123.16 250.642 122.836 249.982 122.776C249.418 122.724 249.092 123.052 248.768 123.49C247.998 124.536 248.314 125.514 248.618 126.458C248.736 126.82 248.85 127.178 248.902 127.53ZM364.378 156.528C363.874 156.602 363.35 156.322 363.268 155.732C363.102 154.526 366.174 154.208 367.262 154.094H367.264H367.274H367.282L367.45 154.074C367.496 154.07 367.542 154.064 367.588 154.058C368.106 153.976 368.386 154.328 368.544 154.802C368.824 155.642 368.23 155.964 364.378 156.528ZM360.678 149.712C359.352 150.012 359.532 151.008 359.87 152.872C359.94 153.26 360.016 153.684 360.088 154.148C360.558 155.318 361.798 155.008 362.094 154.148C362.508 152.94 362.34 149.338 360.678 149.712ZM356.462 158.628C355.3 158.75 354.56 157.676 356.208 156.566C356.642 156.522 357.048 156.472 357.422 156.426C359.278 156.202 360.382 156.068 360.352 157.1C360.318 158.248 359.768 158.3 357.534 158.52C357.177 158.554 356.819 158.59 356.462 158.628ZM361.638 162.384C362.412 164.032 364.222 163.308 363.984 161.842C363.852 161.024 363.758 160.364 363.682 159.834C363.424 158.014 363.378 157.69 362.718 157.63C362.154 157.578 361.828 157.906 361.504 158.344C360.734 159.39 361.05 160.368 361.354 161.312C361.472 161.674 361.586 162.032 361.638 162.384ZM304.146 80.4641C307.33 91.0321 323.214 87.1341 321.272 76.3641L321.27 76.3621C320.178 70.3001 355.832 79.3661 355.832 109.964C355.832 129.736 339.572 145.708 319.696 145.24C284.834 144.418 272.028 98.1301 302.312 79.7541C303.006 79.3341 303.912 79.6901 304.146 80.4641ZM295.226 99.8801C294.364 95.3221 301.15 94.1361 301.982 98.5341C302.844 103.092 296.058 104.278 295.226 99.8801ZM305.032 131.428C300.192 132.224 299.076 124.992 303.792 124.216C308.632 123.42 309.748 130.652 305.032 131.428ZM317.752 138.794C314.052 138.794 314.052 133.2 317.752 133.2C321.452 133.2 321.452 138.794 317.752 138.794ZM334.572 127.994C322.912 129.148 321.202 111.586 332.774 110.442C344.434 109.288 346.144 126.85 334.572 127.994Z" fill="#163300"/>
<path d="M104.026 342.348C104.026 325.51 104.658 325.592 102.76 325.596C95.2081 325.616 87.6561 325.896 80.1061 325.578C79.3961 325.548 79.2501 325.91 79.0141 326.332C58.6661 362.554 60.2841 362.08 55.2281 361.624C51.0201 361.244 49.0321 356.856 50.8141 353.772C93.3281 280.104 91.6781 281.038 94.8241 281.01C103.198 280.934 103.168 280.722 102.974 279.594C102.73 278.174 103.92 276.274 100.938 273.608C97.1761 270.244 96.6661 264.882 99.3841 260.248C100.03 259.146 99.9781 258.502 99.2981 257.516C96.4161 253.338 98.4181 255.644 73.0201 269.87C69.9001 271.618 65.8901 268.856 63.5961 266.652C63.1481 266.222 62.7701 265.586 61.9141 266.174C61.2441 266.634 60.8161 266.756 61.5261 267.706C67.5401 275.758 53.9801 283.636 49.2421 275.748C47.9801 273.648 46.6541 275.504 43.5401 272.512C42.5821 271.59 42.5801 271.842 37.2061 275.034C36.8021 275.274 36.3181 275.374 36.2161 276.036C35.7521 279.088 32.3101 280.334 29.5041 279.13C25.2921 277.322 17.9661 264.466 15.0341 259.448C13.1361 256.2 14.8061 256.586 20.0561 253.372C21.7861 252.314 21.5661 252.578 31.1061 267.564C32.2721 269.396 32.3241 268.182 37.9221 265.62C39.4161 264.936 38.4241 264.192 38.5461 261.748C38.7261 258.142 39.5061 258.188 53.7861 250.448C56.7641 248.834 51.5621 245.052 58.2181 241.188C74.0361 232.004 97.1501 217.72 113.88 207.806C116.32 206.36 110.27 202.42 115.106 198.232C120.12 193.89 125.586 190.218 131.346 186.966C155.688 173.224 154.786 173.966 158.076 179.66C162.574 187.444 172.318 206.27 179.19 213.248C180.228 214.302 179.666 215.14 178.944 216.02C170.476 226.328 151.084 236.572 142.872 241.028C139.874 242.656 138.93 242.418 136.426 240.188C130.896 235.262 131.466 234.302 129.964 235.232C104.672 250.876 105.236 249.822 106.342 250.934C106.834 251.428 107.262 254.396 111.604 254.794C120.15 255.576 124.64 268.29 115.512 274.948C114.302 275.83 113.522 278.568 114.066 279.956C114.294 280.538 114.712 280.27 115.042 280.27C121.798 280.262 122.596 279.608 123.906 281.734C127.568 287.674 164.38 351.854 164.41 351.906C166.51 355.562 164.328 359.738 160.086 360.352C158.09 360.642 157.044 360.566 154.968 357.642C152.296 353.876 136.502 325.26 136.502 325.26L113.13 325.528C113.13 325.528 112.746 334.118 112.748 356.828C112.748 363.226 103.954 362.74 104.014 357.804C104.044 355.274 104.07 342.348 104.026 342.348ZM56.1601 246.018C56.9941 254.636 61.9101 265.058 69.3401 268.204C71.9301 269.3 70.0061 269.332 104.34 248.144C130.48 232.012 129.928 233.304 128.562 231.866C125.54 228.688 120.072 218.944 116.156 210.446C115.27 208.522 116.99 208.376 91.6381 223.47C55.7901 244.812 55.8461 244.068 56.1601 246.018ZM139.938 239.796C142.116 239.642 159.8 229.586 167.11 224.068C168.006 223.392 168.466 223.052 167.382 222.02C162.538 217.416 151.022 201.532 143.566 184.146C143.222 183.342 143.094 182.774 141.982 183.392C133.484 188.122 124.942 192.772 117.326 198.908C114.336 201.318 113.166 200.18 123.45 219.316C125.968 224.002 135.942 239.554 139.938 239.796ZM174.254 210.518C149.93 177.45 161.09 174.108 146.022 181.206C144.99 181.692 144.848 182.16 145.32 183.224C150.74 195.416 159.542 210.972 168.754 220.956C169.624 221.898 170.148 221.842 171.026 221.064C180.034 213.07 178.108 215.758 174.254 210.518ZM118.608 289.652C156.236 356.304 153.286 352.2 154.808 351.14C158.896 348.298 160.378 348.78 159.416 347.172C159.39 347.128 136.6 307.922 128.74 293.85C125.37 287.818 123.22 289.65 118.606 289.65L118.608 289.652ZM97.1621 290.38C90.0841 290.38 89.8721 289.932 88.8841 291.654L56.4441 347.838C55.2901 349.808 56.9561 349.072 61.1901 351.344C63.3621 352.51 62.3941 352.054 97.1621 290.38ZM83.7281 318.026L102.794 317.82C104.778 317.798 104.066 317.894 104.244 293.71C104.27 290.118 104.256 290.158 100.638 290.148C98.3541 290.14 99.8201 289.654 83.7281 318.026ZM105.66 348.418C105.66 353.328 106.418 351.568 110.036 352.024C111.536 351.938 111.116 350.624 111.162 349.754C111.406 345.076 111.228 331.62 111.078 293.81C111.074 292.566 111.8 290.802 110.94 290.218C110.024 289.594 108.354 290.13 107.02 290.054C105.402 289.962 105.68 284.93 105.66 348.418ZM112.772 316.292C112.726 318.418 112.704 317.406 130.594 317.398C133.304 317.398 132.176 318.37 117.982 291.984C117.044 290.242 116.166 289.532 114.186 289.764C111.406 290.09 113.322 290.952 112.77 316.292H112.772ZM40.4481 261.898C40.8841 266.206 42.7041 269.66 46.5921 271.846C47.4741 272.342 48.0981 272.698 48.3001 271.102C48.8261 266.928 53.6981 263.7 58.2521 265.4C59.5001 265.866 60.3481 264.976 61.0621 264.354C61.5441 263.934 60.6061 263.282 60.2661 262.77C54.2201 253.674 56.6301 250.958 54.1641 252.344C41.3501 259.544 40.1561 259.036 40.4461 261.896L40.4481 261.898ZM125.116 287.78C122.082 282.092 122.37 281.962 121.098 282.044C96.9321 283.602 94.1241 282.108 93.4741 283.356C92.5801 285.074 91.6621 286.776 90.6221 288.73L125.116 287.78ZM118.438 265.41C118.616 253.422 99.8481 253.676 99.6421 265.706C99.4341 277.818 118.25 278.076 118.438 265.41ZM31.1961 277.63C37.2461 277.78 31.0861 271.276 22.2841 257.35C20.6521 254.768 20.5501 254.828 17.8601 256.382C16.6681 257.07 15.7721 257.248 16.5941 258.602C26.5021 274.926 28.9761 277.574 31.1961 277.63ZM135.736 323.77C133.038 318.964 133.446 319.102 132.13 319.132C118.106 319.452 113.082 319.518 113.082 319.518V323.786L135.736 323.77ZM80.5381 323.886C104.728 323.886 104.268 324.442 104.07 322.78C103.864 321.042 104.926 319.584 102.37 319.656C91.4781 319.968 83.0861 319.774 83.0861 319.774L80.5381 323.886ZM55.1301 276.962C62.2221 277.106 63.0821 266.996 55.6121 266.918C48.8001 266.848 47.8961 276.814 55.1301 276.962ZM40.6601 270.702C41.1081 270.428 41.2461 270.254 40.9561 269.678C39.4581 266.694 39.4841 266.68 36.6021 268.18C32.6341 270.246 32.3881 269.99 34.6921 273.434C35.3501 274.418 35.0241 274.158 40.6601 270.702ZM104.7 276.266C104.506 280.22 104.2 280.71 105.47 280.612C113.382 280 112.328 281.452 112.42 277.698C112.484 275.022 111.864 278.334 104.7 276.266ZM106.564 254.748C104.176 250.866 104.542 250.814 102.176 252.286C100.012 253.632 99.7261 255.344 101.306 257.428C101.656 257.888 102.412 256.042 106.564 254.748Z" fill="#163300"/>
<path d="M69.9562 263.042C66.6642 262.684 70.9442 260.632 98.2442 244.474C123.562 229.49 122.868 229.398 123.502 230.584C123.846 231.226 123.42 231.6 122.882 231.914C107.958 240.64 76.2942 259.848 69.9562 263.042Z" fill="#163300"/>
<path d="M142.556 232.288C138.36 232.516 147.33 227.648 159.13 220.494C159.882 220.038 160.572 219.694 161.036 220.446C161.656 221.452 161.416 221.444 150.8 227.73C149.754 228.35 144.41 231.484 142.556 232.288Z" fill="#163300"/>
<path d="M109.488 271.264C101.708 271.272 101.88 259.482 109.514 259.522C117.148 259.562 117.006 271.256 109.488 271.264Z" fill="#163300"/>
<path d="M55.1061 268.886C58.9821 268.83 58.8321 274.428 55.0761 274.432C51.3201 274.436 51.1261 268.942 55.1061 268.886Z" fill="#163300"/>
</svg>
