<svg width="89" height="88" viewBox="0 0 89 88" fill="none" xmlns="http://www.w3.org/2000/svg">
<rect x="0.375" width="88" height="88" rx="44" fill="#9FE870"/>
<path d="M44.875 44.3666C45.7643 43.5968 46.4775 42.6447 46.9664 41.575C47.4553 40.5052 47.7083 39.3428 47.7083 38.1666C47.7083 35.9564 46.8303 33.8368 45.2675 32.274C43.7047 30.7112 41.5851 29.8333 39.375 29.8333C37.1648 29.8333 35.0452 30.7112 33.4824 32.274C31.9196 33.8368 31.0416 35.9564 31.0416 38.1666C31.0416 39.3428 31.2946 40.5052 31.7835 41.575C32.2724 42.6447 32.9857 43.5968 33.875 44.3666C31.5419 45.4231 29.5624 47.1291 28.1733 49.2808C26.7841 51.4325 26.0441 53.9388 26.0416 56.4999C26.0416 56.9419 26.2172 57.3659 26.5298 57.6784C26.8423 57.991 27.2663 58.1666 27.7083 58.1666C28.1503 58.1666 28.5742 57.991 28.8868 57.6784C29.1994 57.3659 29.375 56.9419 29.375 56.4999C29.375 53.8478 30.4285 51.3042 32.3039 49.4289C34.1793 47.5535 36.7228 46.4999 39.375 46.4999C42.0271 46.4999 44.5707 47.5535 46.446 49.4289C48.3214 51.3042 49.375 53.8478 49.375 56.4999C49.375 56.9419 49.5506 57.3659 49.8631 57.6784C50.1757 57.991 50.5996 58.1666 51.0416 58.1666C51.4837 58.1666 51.9076 57.991 52.2201 57.6784C52.5327 57.3659 52.7083 56.9419 52.7083 56.4999C52.7058 53.9388 51.9658 51.4325 50.5767 49.2808C49.1875 47.1291 47.2081 45.4231 44.875 44.3666ZM39.375 43.1666C38.3861 43.1666 37.4194 42.8733 36.5971 42.3239C35.7749 41.7745 35.134 40.9936 34.7556 40.08C34.3771 39.1664 34.2781 38.161 34.471 37.1911C34.664 36.2212 35.1402 35.3303 35.8394 34.6311C36.5387 33.9318 37.4296 33.4556 38.3995 33.2627C39.3694 33.0697 40.3747 33.1688 41.2884 33.5472C42.202 33.9256 42.9829 34.5665 43.5323 35.3887C44.0817 36.211 44.375 37.1777 44.375 38.1666C44.375 39.4927 43.8482 40.7644 42.9105 41.7021C41.9728 42.6398 40.701 43.1666 39.375 43.1666ZM55.6083 43.6999C56.6749 42.4988 57.3716 41.015 57.6146 39.4272C57.8576 37.8393 57.6365 36.215 56.9779 34.7499C56.3193 33.2848 55.2513 32.0412 53.9024 31.169C52.5535 30.2967 50.9813 29.8328 49.375 29.8333C48.9329 29.8333 48.509 30.0088 48.1964 30.3214C47.8839 30.634 47.7083 31.0579 47.7083 31.4999C47.7083 31.9419 47.8839 32.3659 48.1964 32.6784C48.509 32.991 48.9329 33.1666 49.375 33.1666C50.701 33.1666 51.9728 33.6934 52.9105 34.6311C53.8482 35.5687 54.375 36.8405 54.375 38.1666C54.3726 39.042 54.1405 39.9014 53.7017 40.659C53.263 41.4165 52.6331 42.0456 51.875 42.4833C51.6279 42.6258 51.4215 42.8294 51.2756 43.0745C51.1297 43.3196 51.0491 43.5981 51.0416 43.8833C51.0347 44.1662 51.0998 44.4462 51.2311 44.697C51.3623 44.9478 51.5552 45.161 51.7916 45.3166L52.4416 45.7499L52.6583 45.8666C54.6673 46.8195 56.3621 48.3266 57.5433 50.2104C58.7244 52.0943 59.3425 54.2765 59.325 56.4999C59.325 56.9419 59.5006 57.3659 59.8131 57.6784C60.1257 57.991 60.5496 58.1666 60.9916 58.1666C61.4337 58.1666 61.8576 57.991 62.1701 57.6784C62.4827 57.3659 62.6583 56.9419 62.6583 56.4999C62.6719 53.9423 62.0313 51.4237 60.7974 49.1834C59.5635 46.943 57.7772 45.0554 55.6083 43.6999Z" fill="#163300"/>
</svg>
