<svg width="400" height="400" viewBox="0 0 400 400" fill="none" xmlns="http://www.w3.org/2000/svg">
<path d="M220.84 232.164C206.65 223.947 193.301 214.358 180.984 203.534C171.02 194.87 159.8 179.434 152.302 159.844C151.602 158.355 151.113 156.775 150.852 155.15C150.79 154.518 151.672 154.362 151.986 154.834C152.734 156.457 153.397 158.119 153.972 159.812C158.618 171.904 165.125 183.195 173.258 193.278C173.824 194.002 174.424 194.696 174.99 195.42C178.648 192.392 183.29 190.812 188.036 190.978C187.122 188.74 186.366 186.472 185.636 184.204C184.378 180.463 183.532 176.595 183.114 172.67C183.052 172.134 183.84 171.85 183.966 172.45C184.406 174.372 184.966 176.23 185.478 178.122C186.621 182.55 188.085 186.889 189.858 191.104C195.714 191.846 199.444 194.84 204.416 198.006C204.601 198.11 204.819 198.139 205.025 198.086C205.231 198.033 205.408 197.902 205.52 197.722C206.223 195.673 207.693 193.977 209.62 192.99C211.548 192.003 213.783 191.801 215.856 192.428C216.054 192.463 216.258 192.422 216.427 192.313C216.597 192.204 216.719 192.035 216.769 191.841C216.82 191.646 216.795 191.439 216.7 191.262C216.605 191.085 216.446 190.95 216.256 190.884C216.224 190.884 216.16 190.852 216.13 190.852C209.33 176.44 199.778 165.72 184.302 146.83C183.955 146.305 183.553 145.819 183.102 145.38C182.662 145.034 182 145.222 181.464 145.286C178.07 145.651 174.741 146.478 171.57 147.744C171.446 147.712 171.316 147.712 171.192 147.744C166.635 148.63 161.922 148.24 157.574 146.617C153.225 144.993 149.409 142.199 146.548 138.544C143.422 134.584 143.478 132.356 142.294 130.32C140.494 127.136 135.614 127.736 132.714 128.65C129.142 129.941 125.825 131.85 122.914 134.29C105.914 147.378 95.06 166.74 87.652 186.79C76.596 216.738 71.372 250.49 79.492 281.23C79.996 283.184 80.594 285.106 81.192 287.03C81.2359 287.178 81.3219 287.311 81.4396 287.411C81.5573 287.512 81.7017 287.576 81.8552 287.596C82.0087 287.616 82.1647 287.592 82.3044 287.525C82.444 287.458 82.5613 287.352 82.642 287.22C84.0212 285.542 85.6853 284.12 87.558 283.02C93.444 279.276 101.382 277.272 107.662 273.788C112.34 271.328 116.147 267.487 118.566 262.788C124.752 251.749 132.453 241.63 141.444 232.726C131.124 223.169 122.652 211.792 116.454 199.166C112.68 191.508 113.538 192.508 113.114 192.296C109.141 188.974 105.763 184.999 103.126 180.542C102.778 179.786 103.788 178.84 104.354 179.596C105.142 180.596 105.772 181.708 106.528 182.778C108.217 185.183 110.07 187.468 112.074 189.618C109.802 184.018 108.984 181.464 107.474 176.792C107.003 175.697 106.757 174.518 106.75 173.326C106.812 172.852 107.442 172.412 107.788 172.884C109.188 174.684 108.062 174.382 113.052 187.284C125.472 218.626 143.114 231.864 143.114 233.038C144.06 233.858 145.098 234.582 146.076 235.338C151.958 239.628 158.392 243.104 165.204 245.674C181.078 251.742 197.974 253.184 214.834 253.274C215.009 253.274 215.18 253.215 215.317 253.106C215.455 252.997 215.552 252.845 215.592 252.674C216.693 246.156 218.358 239.745 220.57 233.516C220.72 233.495 220.86 233.428 220.97 233.324C221.08 233.22 221.156 233.084 221.185 232.936C221.215 232.787 221.198 232.633 221.136 232.495C221.074 232.356 220.971 232.241 220.84 232.164Z" fill="#163300"/>
<path d="M232.752 338.296C232.72 338.296 232.658 338.264 232.626 338.296H232.6C232.568 338.296 232.568 338.296 232.538 338.264C231.982 337.99 227.878 337.778 11.324 318.948C11.324 318.902 62.152 80.106 62.152 80.056C63.508 80.056 64.894 80.214 66.218 80.308C217.776 88.65 226.996 89.694 228.692 89.132H228.818C229.45 89.164 229.45 88.186 228.818 88.154H228.788C228.162 88.0125 227.531 87.8971 226.896 87.808C221.59 87.292 61.566 78.79 61.364 78.89C61.2171 78.9363 61.0937 79.0373 61.0193 79.1721C60.9448 79.3069 60.925 79.4651 60.964 79.614C60.24 81.978 59.764 84.436 59.2 86.83C57.83 92.756 10.026 319.012 10.026 319.012C9.99862 319.102 9.99288 319.197 10.0092 319.29C10.0255 319.383 10.0635 319.471 10.12 319.546C10.1257 319.656 10.1698 319.761 10.2448 319.841C10.3197 319.922 10.4207 319.974 10.53 319.988C11.068 320.108 230.252 339.536 232.374 339.4H232.752C233.508 339.4 233.508 338.2 232.752 338.296ZM232.846 338.36C232.779 338.353 232.715 338.331 232.658 338.296C232.784 338.328 233.2 338.422 232.846 338.36Z" fill="#9FE870" stroke="#9FE870"/>
<path d="M280.712 156.85C279.324 167.388 260.576 308.12 260.576 310.156V310.556C260.514 311.156 261.428 311.186 261.554 310.618C261.554 310.972 281.858 157.042 281.878 156.84C281.91 156.126 280.8 156.156 280.712 156.85Z" fill="#9FE870" stroke="#9FE870"/>
<path d="M21.4641 322.13C20.5888 326.277 19.4736 330.37 18.1241 334.388C17.4869 335.683 17.0409 337.063 16.8 338.486C16.8037 338.623 16.8469 338.757 16.9244 338.87C17.002 338.984 17.1106 339.072 17.2373 339.126C17.364 339.179 17.5034 339.194 17.6387 339.17C17.7739 339.146 17.8994 339.084 18 338.99C19.504 337.664 22.942 328.07 22.758 322.32C22.7564 322.162 22.6985 322.01 22.5948 321.892C22.491 321.773 22.3483 321.695 22.1923 321.672C22.0362 321.649 21.8771 321.683 21.7436 321.767C21.6101 321.851 21.511 321.98 21.4641 322.13Z" fill="#9FE870" stroke="#9FE870"/>
<path d="M37.82 325.156C38.19 336.956 35.728 338.296 35.582 341.51C35.5888 341.623 35.6273 341.731 35.693 341.823C35.7587 341.915 35.8489 341.986 35.9533 342.029C36.0578 342.072 36.1721 342.084 36.2834 342.065C36.3946 342.046 36.4981 341.995 36.582 341.92C37.4793 340.8 38.0963 339.482 38.382 338.076C39.66 333.827 39.9298 329.338 39.17 324.966C39.048 324.178 37.8 324.368 37.82 325.156Z" fill="#9FE870" stroke="#9FE870"/>
<path d="M59.626 328C60.0254 332.576 59.4452 337.184 57.924 341.518C57.42 342.936 56.758 344.318 56.324 345.772C56.29 345.908 56.3008 346.051 56.355 346.18C56.4091 346.309 56.5036 346.417 56.6242 346.488C56.7449 346.559 56.8853 346.589 57.0245 346.573C57.1636 346.558 57.2939 346.498 57.396 346.402C60.346 343.02 62.514 333.924 60.926 327.802C60.8754 327.654 60.7743 327.528 60.6403 327.447C60.5064 327.365 60.3481 327.334 60.1932 327.357C60.0383 327.381 59.8966 327.458 59.7929 327.576C59.6892 327.693 59.6301 327.843 59.626 328Z" fill="#9FE870" stroke="#9FE870"/>
<path d="M81.6 330.04C81.092 342.44 79.716 343.166 79.866 346.394C79.8655 346.51 79.9036 346.622 79.9742 346.714C80.0449 346.805 80.144 346.871 80.256 346.9C80.3679 346.928 80.4863 346.919 80.5925 346.873C80.6986 346.827 80.7864 346.747 80.842 346.646C82.012 344.075 82.6858 341.307 82.828 338.486C83.167 335.669 83.2059 332.825 82.944 330C82.9178 329.837 82.8334 329.69 82.7066 329.585C82.5797 329.48 82.419 329.425 82.2544 329.43C82.0899 329.435 81.9327 329.499 81.8123 329.612C81.6919 329.724 81.6164 329.876 81.6 330.04Z" fill="#9FE870" stroke="#9FE870"/>
<path d="M103.332 332.718C101.752 342.87 100.21 344.454 100.024 346.804C99.992 347.372 100.842 347.75 101.19 347.308C102.444 345.726 104.572 339.584 104.656 332.94C104.688 332.182 103.45 331.96 103.332 332.718Z" fill="#9FE870" stroke="#9FE870"/>
<path d="M127.47 334.388C126.237 338.585 125.6 342.934 125.58 347.308C125.484 348.76 125.677 350.217 126.146 351.594C126.336 352.068 127.092 351.91 127.218 351.468C127.834 348.886 126.618 344.194 128.794 334.766C128.819 334.679 128.826 334.588 128.816 334.498C128.806 334.409 128.778 334.322 128.734 334.243C128.69 334.164 128.631 334.094 128.56 334.038C128.489 333.982 128.408 333.94 128.321 333.915C128.234 333.89 128.143 333.883 128.053 333.893C127.963 333.904 127.877 333.931 127.797 333.975C127.718 334.019 127.649 334.078 127.593 334.149C127.536 334.22 127.495 334.301 127.47 334.388Z" fill="#9FE870" stroke="#9FE870"/>
<path d="M148.488 337.382C147.858 342.399 147.731 347.466 148.11 352.508C148.11 352.725 148.196 352.934 148.35 353.088C148.504 353.241 148.713 353.328 148.93 353.328C149.147 353.328 149.356 353.241 149.51 353.088C149.664 352.934 149.75 352.725 149.75 352.508C149.812 349.988 149.718 347.466 149.718 344.946L149.812 337.382C149.844 336.5 148.588 336.564 148.488 337.382Z" fill="#9FE870" stroke="#9FE870"/>
<path d="M175.18 337.414C174.971 342.282 173.859 347.07 171.902 351.532L170.862 353.706C170.411 354.414 170.051 355.176 169.79 355.974C169.758 356.117 169.773 356.266 169.831 356.4C169.89 356.534 169.99 356.646 170.116 356.72C170.243 356.794 170.389 356.825 170.535 356.81C170.68 356.795 170.817 356.734 170.926 356.636C171.523 356.054 172.013 355.371 172.374 354.62C173.649 352.387 174.644 350.006 175.338 347.53C176.283 344.257 176.656 340.846 176.44 337.446C176.444 337.279 176.382 337.117 176.267 336.996C176.152 336.875 175.993 336.804 175.826 336.8C175.659 336.796 175.497 336.858 175.376 336.973C175.255 337.088 175.184 337.247 175.18 337.414Z" fill="#9FE870" stroke="#9FE870"/>
<path d="M199.2 339.652C198.58 343.749 198.379 347.898 198.6 352.036C198.634 353.415 198.856 354.782 199.262 356.1C199.328 356.205 199.423 356.289 199.535 356.342C199.648 356.394 199.773 356.413 199.896 356.397C200.019 356.38 200.134 356.328 200.229 356.248C200.323 356.167 200.392 356.061 200.428 355.942C200.884 354.426 199.948 348.988 200.586 339.84C200.642 339.052 199.31 338.862 199.2 339.652Z" fill="#9FE870" stroke="#9FE870"/>
<path d="M224.306 343.148C224.402 342.362 223.046 342.172 222.92 342.96C222.096 347.47 222.085 352.09 222.888 356.604C223.02 358.16 223.471 359.673 224.212 361.048C224.285 361.161 224.392 361.248 224.518 361.296C224.643 361.344 224.781 361.351 224.91 361.316C225.04 361.281 225.156 361.205 225.24 361.1C225.324 360.995 225.372 360.866 225.378 360.732C225.562 358.6 223.168 353.738 224.306 343.148Z" fill="#9FE870" stroke="#9FE870"/>
<path d="M238.518 352.32C238.362 352.366 238.23 352.47 238.148 352.611C238.066 352.751 238.041 352.918 238.078 353.076C238.29 354.352 238.649 355.6 239.148 356.794C239.189 356.875 239.256 356.939 239.339 356.976C239.421 357.013 239.514 357.022 239.602 357C239.689 356.978 239.767 356.927 239.822 356.855C239.877 356.783 239.906 356.694 239.904 356.604C239.835 355.303 239.624 354.014 239.274 352.76C239.232 352.602 239.128 352.466 238.987 352.384C238.845 352.301 238.677 352.279 238.518 352.32Z" fill="#9FE870" stroke="#9FE870"/>
<path d="M70.97 75.708C72.4521 71.2504 73.3627 66.6228 73.68 61.936C73.91 59.044 73.99 58.022 73.48 57.272C73.4252 57.1895 73.3509 57.1218 73.2637 57.075C73.1764 57.0282 73.079 57.0037 72.98 57.0037C72.881 57.0037 72.7835 57.0282 72.6962 57.075C72.609 57.1218 72.5347 57.1895 72.48 57.272C71.422 58.784 72.812 61.596 69.77 75.36C69.7471 75.4388 69.74 75.5213 69.749 75.6029C69.7581 75.6844 69.7831 75.7634 69.8227 75.8352C69.8622 75.9071 69.9155 75.9705 69.9796 76.0217C70.0436 76.073 70.1172 76.1112 70.196 76.134C70.2748 76.1569 70.3573 76.164 70.4388 76.1549C70.5204 76.1459 70.5993 76.1209 70.6712 76.0813C70.7431 76.0417 70.8064 75.9884 70.8577 75.9244C70.909 75.8603 70.9471 75.7868 70.97 75.708Z" fill="#9FE870" stroke="#9FE870"/>
<path d="M91.8619 76.558C93.4759 71.721 94.3057 66.6571 94.3199 61.558C94.4852 59.8561 94.2917 58.1385 93.7519 56.516C93.7017 56.4363 93.632 56.3706 93.5495 56.325C93.4669 56.2795 93.3742 56.2556 93.2799 56.2556C93.1857 56.2556 93.093 56.2795 93.0104 56.325C92.9279 56.3706 92.8582 56.4363 92.8079 56.516C91.9819 58.332 93.7339 63.6 90.6639 76.244C90.6313 76.3997 90.6598 76.562 90.7435 76.6973C90.8272 76.8326 90.9597 76.9306 91.1136 76.9709C91.2675 77.0113 91.431 76.9909 91.5703 76.914C91.7096 76.8372 91.814 76.7097 91.8619 76.558Z" fill="#9FE870" stroke="#9FE870"/>
<path d="M111.652 75.9899C112.679 73.7207 113.359 71.3096 113.668 68.8379C114.172 66.3571 114.457 63.8367 114.52 61.3059C114.52 60.6139 113.416 60.4239 113.29 61.1479C112.132 67.4299 112.808 64.7019 111.274 71.9879C110.917 73.1458 110.695 74.3411 110.612 75.5499C110.674 76.0219 111.296 76.4559 111.652 75.9899Z" fill="#9FE870" stroke="#9FE870"/>
<path d="M127.312 77.944C129.73 75.79 130.312 72.114 130.432 69.026C130.449 65.6794 130.1 62.3409 129.392 59.07C129.266 58.408 128.1 58.534 128.164 59.226C129.664 70.766 128.398 72.514 126.526 77.472C126.336 77.944 127 78.226 127.312 77.944Z" fill="#9FE870" stroke="#9FE870"/>
<path d="M147.292 79.71C148.926 77.0817 150.098 74.1934 150.758 71.17C151.12 69.6839 151.404 68.1798 151.608 66.664C151.949 65.1184 151.96 63.5181 151.64 61.968C151.608 61.8373 151.533 61.7211 151.428 61.638C151.322 61.5549 151.191 61.5098 151.057 61.5098C150.923 61.5098 150.792 61.5549 150.686 61.638C150.581 61.7211 150.506 61.8373 150.474 61.968C150.264 62.6532 150.148 63.3636 150.128 64.08C149.983 66.3096 149.648 68.5229 149.128 70.696C148.315 73.5376 147.358 76.3359 146.26 79.08C146.062 79.646 146.864 80.224 147.292 79.71Z" fill="#9FE870" stroke="#9FE870"/>
<path d="M166.324 73.124C167.769 70.9094 168.289 68.2174 167.774 65.624C167.616 65.15 166.798 65.056 166.702 65.624C166.61 67.958 166.087 70.2548 165.158 72.398C165.062 72.5526 165.031 72.7391 165.072 72.9165C165.113 73.0939 165.223 73.2477 165.378 73.344C165.533 73.4402 165.719 73.4711 165.897 73.4299C166.074 73.3886 166.228 73.2786 166.324 73.124Z" fill="#9FE870" stroke="#9FE870"/>
<path d="M184.6 74.9519C185.922 69.3179 186.668 66.3839 186.554 64.1739C186.551 64.0789 186.517 63.9876 186.458 63.9132C186.399 63.8388 186.317 63.7854 186.225 63.7608C186.134 63.7361 186.036 63.7416 185.948 63.7764C185.859 63.8112 185.784 63.8734 185.734 63.9539C184.702 65.9779 184.334 68.6039 183.182 74.5719C183.026 75.4559 184.386 75.8659 184.6 74.9519Z" fill="#9FE870" stroke="#9FE870"/>
<path d="M204.864 82.1361C206.362 80.8121 208.142 72.6821 207.542 69.2781C207.501 69.1476 207.419 69.0337 207.309 68.9528C207.198 68.872 207.065 68.8284 206.928 68.8284C206.791 68.8284 206.658 68.872 206.547 68.9528C206.437 69.0337 206.355 69.1476 206.314 69.2781C206.092 70.1341 205.864 73.2061 205.314 75.5821C204.682 77.6073 204.177 79.67 203.802 81.7581C203.818 81.8735 203.865 81.9824 203.938 82.0729C204.011 82.1633 204.108 82.2318 204.218 82.2709C204.327 82.3099 204.446 82.318 204.56 82.2943C204.674 82.2705 204.779 82.2158 204.864 82.1361Z" fill="#9FE870" stroke="#9FE870"/>
<path d="M222.1 81.5681C222.825 80.0056 223.335 78.3518 223.614 76.6521C224.001 74.9539 224.232 73.2241 224.306 71.4841C224.3 71.3361 224.241 71.1952 224.141 71.0862C224.04 70.9772 223.905 70.9072 223.758 70.8886C223.611 70.8699 223.462 70.9038 223.338 70.9842C223.213 71.0646 223.121 71.1864 223.078 71.3281C222.636 72.9661 222.352 74.6361 222.006 76.3061C221.611 77.9552 221.327 79.6289 221.156 81.3161C221.159 81.4257 221.198 81.5314 221.266 81.6174C221.334 81.7033 221.428 81.7651 221.534 81.7933C221.64 81.8216 221.753 81.815 221.854 81.7744C221.956 81.7338 222.042 81.6615 222.1 81.5681Z" fill="#9FE870" stroke="#9FE870"/>
<path d="M238.108 71.484C238.108 71.3249 238.045 71.1723 237.932 71.0598C237.82 70.9472 237.667 70.884 237.508 70.884C237.349 70.884 237.196 70.9472 237.084 71.0598C236.971 71.1723 236.908 71.3249 236.908 71.484C236.908 72.052 236.938 72.588 236.938 73.154C236.902 73.7338 236.934 74.3158 237.034 74.888C237.096 75.33 237.884 75.33 237.948 74.888C237.978 74.572 238.042 74.288 238.042 73.974C238.046 72.24 238.108 73.4 238.108 71.484Z" fill="#9FE870"/>
<path d="M206.754 108.826C204.83 104.826 204.936 98.6961 200.2 96.1581C202.046 93.7895 202.985 90.8397 202.848 87.8401C202.843 87.6911 202.799 87.5459 202.722 87.4186C202.644 87.2912 202.535 87.186 202.405 87.1131C202.275 87.0401 202.129 87.0019 201.98 87.0021C201.83 87.0023 201.684 87.0408 201.554 87.1141C200.383 87.8971 199.065 88.4333 197.68 88.6901C198.596 86.7241 198.892 84.5264 198.53 82.3881C198.524 82.2231 198.47 82.0635 198.375 81.9281C198.281 81.7927 198.15 81.6871 197.997 81.624C197.845 81.5609 197.677 81.5428 197.515 81.5719C197.352 81.601 197.201 81.676 197.08 81.7881C195.759 82.8223 194.126 83.3779 192.448 83.3641C192.956 82.5506 193.296 81.6435 193.448 80.6964C193.599 79.7493 193.559 78.7815 193.33 77.8501C193.287 77.7096 193.209 77.5823 193.104 77.4803C192.998 77.3783 192.868 77.3049 192.726 77.267C192.584 77.2292 192.435 77.2282 192.293 77.2641C192.15 77.2999 192.019 77.3715 191.912 77.4721C188.054 80.6501 182.424 76.9041 177.04 77.3781C173.977 77.6486 171.083 78.8967 168.784 80.9381C168.379 79.7277 168.083 78.4834 167.9 77.2201C167.806 76.5581 166.918 76.4881 166.514 76.8421C164.963 78.2267 163.975 80.134 163.74 82.2001C161.066 81.1576 158.128 81.0034 155.36 81.7601C155.222 81.7962 155.096 81.8686 154.996 81.9696C154.895 82.0707 154.824 82.1967 154.788 82.3348C154.753 82.4729 154.755 82.6179 154.794 82.7549C154.833 82.8919 154.909 83.0159 155.012 83.1141C155.769 84.0137 156.308 85.0765 156.586 86.2192C156.863 87.3619 156.872 88.5533 156.612 89.7001C154.506 88.9718 152.226 88.9165 150.088 89.5421C149.97 89.5737 149.861 89.6321 149.77 89.7129C149.679 89.7937 149.607 89.8945 149.562 90.0075C149.516 90.1206 149.497 90.2427 149.506 90.3642C149.516 90.4858 149.553 90.6035 149.616 90.7081C151.096 93.6721 149.932 97.1381 149.552 100.226C149.272 101.534 149.256 102.886 149.505 104.2C149.754 105.515 150.263 106.767 151.002 107.882C150.171 108.268 149.397 108.767 148.702 109.364C144.016 113.27 145.244 119.744 149.836 121.276C148.6 125.116 146.666 128.694 144.132 131.832C143.981 132.129 143.847 132.434 143.732 132.746C143.512 133.146 143.984 133.722 144.426 133.44C145.489 132.845 146.371 131.974 146.978 130.918C149.177 127.897 150.81 124.502 151.798 120.898C151.829 120.764 151.83 120.625 151.8 120.491C151.771 120.357 151.712 120.231 151.627 120.122C151.543 120.014 151.436 119.925 151.313 119.863C151.19 119.801 151.055 119.767 150.918 119.764C150.188 119.581 149.513 119.224 148.951 118.724C148.388 118.224 147.955 117.596 147.688 116.892C147.421 116.188 147.328 115.43 147.417 114.683C147.507 113.936 147.775 113.221 148.2 112.6C149.554 110.174 154.44 106.834 156.172 110.678C156.45 111.266 157.5 110.656 157.684 110.456C160.602 107.21 162.889 103.448 164.428 99.3641C171.594 104.326 181.672 101.05 188.598 104.722C191.222 106.122 193.032 108.56 195.798 109.754C193.78 118.29 192.236 125 186.776 134.6C185.676 136.567 184.466 138.471 183.152 140.302C180.428 144.102 177.5 145.234 171.964 143.358C169.906 142.663 167.914 141.789 166.01 140.744C161.688 138.455 157.77 135.474 154.41 131.92C154.254 131.772 154.047 131.69 153.831 131.693C153.616 131.695 153.41 131.782 153.258 131.934C153.106 132.087 153.02 132.293 153.018 132.508C153.015 132.723 153.097 132.931 153.246 133.086C157.923 138.115 163.69 142.007 170.104 144.462C174.878 146.288 179.268 146.896 182.904 143.262C184.453 141.567 185.796 139.695 186.904 137.684C192.102 129.3 195.537 119.944 197 110.188C200.058 110.833 203.216 110.833 206.274 110.188C206.514 110.067 206.698 109.857 206.788 109.603C206.877 109.35 206.865 109.071 206.754 108.826Z" fill="#163300" stroke="#163300" stroke-width="0.5"/>
<path d="M173.572 117.8C174.185 118.44 174.986 118.868 175.86 119.021C176.733 119.174 177.632 119.044 178.426 118.65C179.283 118.306 180.025 117.727 180.568 116.98C180.645 116.844 180.676 116.686 180.655 116.531C180.634 116.375 180.562 116.231 180.451 116.121C180.341 116.01 180.197 115.938 180.041 115.917C179.886 115.896 179.728 115.927 179.592 116.004C179.305 116.206 179.031 116.427 178.772 116.664C178.423 117.031 177.984 117.3 177.499 117.445C177.014 117.591 176.499 117.607 176.006 117.492C175.513 117.378 175.058 117.137 174.686 116.792C174.315 116.448 174.04 116.013 173.888 115.53C173.792 115.09 173.036 115.058 172.974 115.53C172.869 115.928 172.869 116.346 172.974 116.744C173.079 117.142 173.285 117.506 173.572 117.8Z" fill="#163300" stroke="#163300"/>
<path d="M187.878 122.754C188.312 123.257 188.892 123.612 189.537 123.77C190.182 123.929 190.86 123.882 191.478 123.638C191.6 123.562 191.695 123.449 191.751 123.317C191.807 123.184 191.82 123.037 191.789 122.897C191.758 122.756 191.685 122.628 191.579 122.531C191.472 122.434 191.339 122.372 191.196 122.354C190.438 122.432 189.679 122.223 189.068 121.768C188.643 121.107 188.427 120.333 188.448 119.548C188.428 118.784 187.838 118.736 187.378 119.36C187.127 119.914 187.041 120.529 187.129 121.13C187.218 121.732 187.478 122.296 187.878 122.754Z" fill="#163300" stroke="#163300"/>
<path d="M174.738 111.568C179.07 112.368 183.798 109.968 182.584 108.768C182.052 108.236 181.636 108.882 180.184 109.524C178.403 110.052 176.578 110.421 174.732 110.626C174.629 110.655 174.538 110.716 174.473 110.802C174.409 110.888 174.374 110.992 174.375 111.099C174.375 111.206 174.411 111.31 174.477 111.395C174.543 111.48 174.634 111.541 174.738 111.568Z" fill="#163300" stroke="#163300"/>
<path d="M190.684 113.962C190.968 114.914 191.452 115.795 192.102 116.546C192.202 116.643 192.331 116.704 192.469 116.72C192.607 116.736 192.747 116.706 192.866 116.634C192.985 116.561 193.077 116.452 193.127 116.322C193.177 116.192 193.182 116.049 193.142 115.916C192.928 115.418 192.232 114.292 191.976 113.584C191.554 112.488 191.376 111.34 191.156 111.064C190.968 110.812 190.494 110.718 190.336 111.064C190.121 112.042 190.243 113.063 190.684 113.962Z" fill="#163300" stroke="#163300"/>
<path d="M181.01 129C179.562 129.414 179.276 127.298 178.236 126.952C178.078 126.915 177.911 126.94 177.771 127.022C177.63 127.104 177.526 127.236 177.48 127.392C177.228 128.15 177.952 128.992 178.426 129.536C178.767 129.978 179.231 130.311 179.76 130.491C180.289 130.672 180.859 130.693 181.4 130.552C181.941 130.41 182.428 130.113 182.801 129.697C183.174 129.281 183.416 128.765 183.498 128.212C183.972 126.528 184.319 124.811 184.538 123.076C185.08 119.154 185.16 118.216 184.916 117.404C184.886 117.304 184.828 117.215 184.749 117.147C184.67 117.08 184.572 117.037 184.469 117.023C184.366 117.01 184.261 117.027 184.167 117.072C184.073 117.117 183.994 117.189 183.94 117.278C183.376 118.352 183.62 119.994 182.302 126.196C182.112 127 181.988 128.714 181.01 129Z" fill="#163300" stroke="#163300"/>
<path d="M169.854 135.8C170.582 134.885 171.579 134.222 172.704 133.906C173.829 133.589 175.026 133.635 176.124 134.036C176.484 134.334 176.76 134.72 176.926 135.156C177.091 135.593 177.141 136.065 177.07 136.526C176.91 137.013 176.856 137.529 176.912 138.038C176.929 138.103 176.959 138.164 177.001 138.217C177.042 138.27 177.094 138.314 177.153 138.346C177.212 138.379 177.277 138.399 177.343 138.405C177.41 138.412 177.478 138.404 177.542 138.384C178.718 138.092 178.894 135.946 178.456 134.698C178.246 133.98 177.818 133.346 177.23 132.883C176.643 132.42 175.927 132.151 175.18 132.114C173.952 131.941 172.7 132.146 171.592 132.704C170.484 133.262 169.572 134.144 168.98 135.234C168.933 135.291 168.899 135.357 168.879 135.429C168.86 135.5 168.856 135.574 168.867 135.647C168.878 135.72 168.905 135.79 168.945 135.852C168.985 135.914 169.038 135.967 169.1 136.007C169.162 136.047 169.232 136.073 169.305 136.085C169.377 136.096 169.452 136.092 169.523 136.072C169.594 136.053 169.661 136.018 169.718 135.971C169.775 135.925 169.821 135.866 169.854 135.8Z" fill="#163300" stroke="#163300"/>
<path d="M248.35 254.852C248.636 254.065 248.847 253.253 248.98 252.426C248.991 251.583 248.874 250.744 248.634 249.936C248.256 248.204 248.318 246.44 248.004 244.706C247.438 241.872 245.816 239.36 243.466 237.678C239.144 234.45 233.666 234.262 228.75 234.18C226.889 234.26 225.032 233.949 223.298 233.268C223.198 233.217 223.083 233.206 222.975 233.238C222.868 233.269 222.776 233.341 222.72 233.438C222.664 233.535 222.646 233.649 222.672 233.758C222.698 233.867 222.764 233.963 222.858 234.024C224.12 234.899 225.607 235.392 227.142 235.442C230.502 235.854 236.21 235.156 241.142 237.842C243.545 239.05 245.402 241.122 246.342 243.642C246.731 245.18 246.963 246.753 247.034 248.338C247.48 249.914 247.616 251.562 247.434 253.19C247.104 254.037 246.913 254.931 246.868 255.838C246.942 257.9 248.536 259.926 246.174 263.148C245.732 263.748 246.678 264.408 247.174 263.904C248.262 262.788 248.891 261.304 248.938 259.746C248.886 258.162 247.902 256.552 248.35 254.852Z" fill="#163300" stroke="#163300"/>
<path d="M235.272 258.6C229.69 258.136 227.38 255.056 224.526 252.488C222.926 251.038 220.526 249.526 218.326 250.408C217.726 250.66 217.726 251.73 218.482 251.668C222.726 251.342 224.342 255.04 227.968 257.53C232.47 260.68 235.714 259.78 239.658 260.428C240.624 260.528 241.559 260.826 242.405 261.303C243.25 261.781 243.989 262.427 244.574 263.202C244.858 263.58 245.614 263.36 245.426 262.854C243.876 258.918 238.8 258.896 235.272 258.6Z" fill="#163300" stroke="#163300"/>
<path d="M251.658 280.126C250.514 273.954 247.64 269.504 245.858 263.614C245.825 263.51 245.753 263.423 245.657 263.371C245.561 263.319 245.449 263.305 245.344 263.334C245.239 263.362 245.148 263.43 245.092 263.523C245.035 263.616 245.017 263.727 245.04 263.834C245.984 269.158 248.758 273.918 249.986 279.148C251.347 285.651 250.823 292.407 248.474 298.622C246.79 303.052 247.474 300.882 247.024 302.782C247.001 302.885 247.014 302.994 247.063 303.088C247.111 303.183 247.191 303.257 247.289 303.298C247.387 303.34 247.496 303.345 247.598 303.314C247.699 303.283 247.786 303.217 247.844 303.128C248.295 302.688 248.638 302.149 248.844 301.554C251.924 294.859 252.905 287.389 251.658 280.126Z" fill="#163300" stroke="#163300"/>
<path d="M247.626 292.2C247.592 292.091 247.521 291.997 247.424 291.936C247.328 291.874 247.213 291.849 247.1 291.864C246.986 291.879 246.882 291.933 246.805 292.018C246.728 292.103 246.684 292.212 246.68 292.326C246.254 295.625 245.285 298.83 243.812 301.812C243.291 302.744 242.839 303.713 242.458 304.71C242.423 304.846 242.433 304.989 242.487 305.119C242.541 305.248 242.635 305.357 242.756 305.428C242.877 305.499 243.017 305.529 243.157 305.513C243.296 305.497 243.426 305.437 243.528 305.34C245.384 302.379 246.706 299.116 247.436 295.698C247.76 294.561 247.824 293.366 247.626 292.2Z" fill="#163300" stroke="#163300"/>
<path d="M243.088 293.172C242.056 296.426 240.772 300.854 238.582 303.444C238.193 303.827 237.844 304.249 237.542 304.704C237.476 304.818 237.45 304.951 237.467 305.082C237.484 305.212 237.544 305.334 237.637 305.427C237.73 305.52 237.852 305.58 237.982 305.598C238.113 305.615 238.246 305.589 238.36 305.524C238.839 305.252 239.249 304.875 239.56 304.42C241.946 301.19 243.465 297.403 243.972 293.42C243.988 293.362 243.993 293.301 243.986 293.241C243.979 293.182 243.96 293.124 243.93 293.071C243.901 293.019 243.861 292.972 243.814 292.935C243.766 292.898 243.712 292.87 243.654 292.854C243.596 292.838 243.535 292.833 243.475 292.84C243.416 292.847 243.358 292.866 243.305 292.896C243.253 292.925 243.206 292.965 243.169 293.012C243.132 293.06 243.104 293.114 243.088 293.172Z" fill="#163300" stroke="#163300"/>
<path d="M239.874 291.942C239.842 291.69 239.526 291.626 239.338 291.722C238.914 291.971 238.591 292.361 238.424 292.824C236.196 297.282 233.982 300.978 232.972 302.824C232.688 303.328 233.372 303.706 233.728 303.264C235.649 300.582 237.367 297.759 238.866 294.82C239.306 293.928 240.062 292.92 239.874 291.942Z" fill="#163300" stroke="#163300"/>
<path d="M235.904 286.2C235.746 285.034 233.006 286.352 231.964 286.892C231.03 287.359 230.187 287.989 229.474 288.752C229.41 288.819 229.372 288.908 229.367 289.001C229.363 289.094 229.392 289.185 229.45 289.258C229.508 289.331 229.59 289.381 229.681 289.398C229.773 289.416 229.868 289.399 229.948 289.352C231.498 288.425 233.147 287.675 234.864 287.114C235.24 287 235.98 286.772 235.904 286.2Z" fill="#163300" stroke="#163300"/>
<path d="M255.6 340.692C255.348 340.03 254.276 340.06 254.308 340.88C254.308 342.236 254.708 343.59 254.78 344.946C255.028 349.51 252.756 351.82 250.054 352.098C245.39 352.602 242.396 348.286 241.042 344.41C240.026 341.699 239.85 338.744 240.538 335.932C240.664 335.428 239.908 335.05 239.654 335.554C238.534 338.238 238.411 341.234 239.308 344C242.95 357.242 256.388 356.128 256.388 345.858C256.428 344.103 256.161 342.355 255.6 340.692Z" fill="#163300" stroke="#163300"/>
<path d="M251.722 309.2C253.01 314.472 252.442 314.528 253.108 315.25C253.158 315.299 253.219 315.336 253.286 315.359C253.353 315.381 253.424 315.388 253.494 315.379C253.564 315.37 253.631 315.345 253.69 315.307C253.749 315.268 253.798 315.216 253.834 315.156C254.306 314.306 253.864 313.014 253.676 312.1C253.122 308.837 252.092 305.674 250.62 302.71C250.398 302.3 249.674 302.584 249.832 303.024C250.524 305.082 251.2 307.102 251.722 309.2Z" fill="#163300" stroke="#163300"/>
<path d="M110.234 285.672C111.516 284.028 110.586 282.492 115.118 270.104C115.306 269.6 114.456 269.254 114.236 269.726C112.467 273.459 111.061 277.353 110.036 281.354C109.516 282.653 109.332 284.061 109.5 285.45C109.572 285.766 110.044 285.954 110.234 285.672Z" fill="#163300" stroke="#163300"/>
<path d="M199.538 258.32C199.762 257.532 198.562 256.964 198.184 257.752C190.002 274.932 178.616 296.028 163.552 307.51C142.578 323.542 113.736 322.13 96.966 302.688C93.3875 298.331 90.5362 293.426 88.522 288.16C88.302 287.626 87.544 288.034 87.64 288.538C88.6996 293.093 90.7193 297.368 93.564 301.08C109.002 322.554 138.844 326.148 161.094 311.448C169.389 305.68 176.511 298.386 182.08 289.956C186.71 283.336 197.786 264.478 199.538 258.32Z" fill="#163300" stroke="#163300"/>
<path d="M223.928 230.274C224.021 230.362 224.137 230.421 224.263 230.443C224.389 230.466 224.519 230.451 224.636 230.4C224.753 230.35 224.854 230.266 224.924 230.16C224.994 230.053 225.032 229.928 225.032 229.8C224.854 228.706 224.514 227.644 224.022 226.65C223.446 225.25 221.022 219.906 219.622 217.07C216.553 210.345 212.413 204.162 207.364 198.762C206.828 198.226 206.072 199.014 206.544 199.58C217.014 212.246 222.12 228.4 223.928 230.274Z" fill="#163300" stroke="#163300"/>
<path d="M223.078 199.424C227.762 205.684 231.534 215.5 233.76 222.962C235.16 227.49 235.606 230.534 236.408 233.078C236.628 233.74 237.73 233.646 237.668 232.92C237.285 229.763 236.599 226.65 235.62 223.624C232.938 214.332 226.85 197.332 218.194 193.152C217.752 192.964 217.248 193.498 217.658 193.846C219.643 195.523 221.459 197.391 223.078 199.424Z" fill="#163300" stroke="#163300"/>
<path d="M384.8 129.466C382.646 128.213 380.322 127.279 377.9 126.694C375.02 107.884 364.4 91.694 351.682 77.566C347.349 72.6421 342.685 68.02 337.722 63.732C332.547 59.4907 326.581 56.3205 320.17 54.406C321.22 49.6695 320.723 44.7209 318.752 40.288C318.586 39.7981 318.304 39.3551 317.932 38.996C316.542 37.914 314.772 39.714 313.394 40.982C310.068 44.1513 307.932 48.3674 307.344 52.924C297.198 51.91 288.896 54.124 279.33 57.872C268.432 62.1163 258.242 67.992 249.11 75.298C247.271 76.5773 245.856 78.3769 245.046 80.466C242.699 80.3833 240.36 80.7791 238.171 81.6294C235.982 82.4797 233.99 83.7667 232.314 85.412C231.066 86.662 230.972 87.048 231.874 88.848C233.047 91.0605 234.826 92.8935 237.002 94.1329C239.179 95.3724 241.662 95.9673 244.164 95.848C244.51 95.848 244.888 95.816 245.234 95.816C244.892 99.4662 245.489 103.143 246.968 106.498C248.402 109.991 250.01 113.409 251.788 116.74C263.604 139.378 280.246 159.54 304.604 167.19C308.406 168.496 312.373 169.26 316.388 169.46C315.756 174.472 319.09 181.41 325.212 184.68C325.375 184.778 325.565 184.819 325.754 184.796C325.942 184.773 326.117 184.688 326.252 184.554C328.122 182.547 329.499 180.133 330.275 177.502C331.052 174.872 331.206 172.096 330.726 169.396C344.632 165.762 356.956 157.656 365.8 146.326C368.001 143.561 369.921 140.584 371.534 137.44C372.886 139.397 374.92 140.78 377.238 141.316C381.047 141.778 384.898 140.91 388.14 138.858C388.649 138.645 389.091 138.298 389.419 137.854C389.746 137.41 389.947 136.885 390 136.336C390.116 133.58 387.142 130.908 384.8 129.466ZM387.038 137.666C384.95 138.623 382.73 139.261 380.452 139.556C376.72 140.09 374.852 138.716 372.132 136.09C372.038 135.996 371.25 135.144 371.094 135.366C367.659 141.543 363.348 147.189 358.294 152.13C350.267 159.802 340.369 165.235 329.586 167.886C329.37 167.947 329.187 168.09 329.074 168.284C328.962 168.478 328.931 168.709 328.986 168.926C329.534 171.342 329.506 173.854 328.903 176.257C328.301 178.66 327.141 180.888 325.518 182.76C322.028 180.658 319.462 177.315 318.334 173.4C317.972 172.046 317.719 170.666 317.578 169.272C317.693 169.235 317.793 169.162 317.863 169.063C317.933 168.964 317.969 168.845 317.966 168.724C317.962 168.603 317.919 168.486 317.843 168.392C317.768 168.297 317.663 168.23 317.546 168.2C314.324 167.21 298.83 166.934 280.746 151.878C267.146 140.512 257.518 124.942 249.834 108.958C247.56 104.887 246.316 100.322 246.21 95.66C247.188 95.6555 248.139 95.3349 248.92 94.746C248.977 94.6836 249.017 94.6077 249.037 94.5256C249.057 94.4434 249.056 94.3576 249.034 94.276C249.012 94.1944 248.969 94.1197 248.911 94.0589C248.852 93.998 248.779 93.953 248.698 93.928C247.66 93.6 246.736 94.026 244.76 94.116C242.416 94.3549 240.055 93.8934 237.973 92.7898C235.892 91.6862 234.185 89.99 233.068 87.916C232.929 87.6949 232.833 87.4491 232.786 87.192C232.786 86.866 234.316 85.568 234.518 85.392C236.401 83.9395 238.572 82.9038 240.886 82.3535C243.2 81.8032 245.604 81.7509 247.94 82.2C248.079 82.2106 248.216 82.1728 248.33 82.0931C248.444 82.0134 248.527 81.8966 248.564 81.7628C248.601 81.629 248.591 81.4863 248.535 81.3593C248.479 81.2322 248.38 81.1285 248.256 81.066C247.587 80.8475 246.898 80.6915 246.2 80.6C247.112 79.0332 248.338 77.6714 249.8 76.6C258.464 69.6733 268.092 64.0468 278.38 59.898C288.53 55.824 297.3 53.348 307.98 54.636C308.454 54.698 308.768 54.236 308.8 53.816C309.56 45.392 316.534 39.966 316.93 40.36C319.174 44.8509 319.69 50.0096 318.38 54.856C318.338 55.0309 318.354 55.2146 318.426 55.3795C318.497 55.5445 318.621 55.6817 318.777 55.7706C318.933 55.8595 319.114 55.8952 319.293 55.8723C319.471 55.8495 319.637 55.7694 319.766 55.644C322.318 56.778 324.966 57.788 327.454 59.08C336.474 63.804 341.956 69.558 348.884 77.04C362.284 91.598 373.484 108.186 376.33 127.618C376.367 127.771 376.445 127.91 376.557 128.021C376.668 128.133 376.807 128.211 376.96 128.248C380.646 129.162 384.744 130.58 387.106 133.73C387.651 134.323 388.07 135.02 388.336 135.78C388.438 136.694 387.864 137.246 387.034 137.66L387.038 137.666Z" fill="#163300" stroke="#163300"/>
<path d="M305.386 123.448C303.372 113.986 310.332 95.3481 301.386 82.2621C301.305 82.1436 301.183 82.06 301.043 82.0282C300.904 81.9965 300.757 82.0189 300.633 82.091C300.509 82.163 300.417 82.2794 300.376 82.4166C300.335 82.5537 300.347 82.7015 300.41 82.8301C305.448 92.1561 304.474 102.744 303.498 112.418C302.935 116.18 302.957 120.007 303.562 123.762C303.805 125.501 304.424 127.166 305.377 128.641C306.329 130.115 307.591 131.365 309.076 132.302C309.172 132.356 309.285 132.373 309.393 132.35C309.501 132.327 309.597 132.265 309.663 132.176C309.729 132.087 309.76 131.978 309.751 131.868C309.741 131.757 309.692 131.654 309.612 131.578C307.485 129.306 306.023 126.494 305.386 123.448Z" fill="#163300" stroke="#163300"/>
<path d="M311.942 208.4C310.808 207.829 309.58 207.466 308.318 207.328C305.715 206.742 303.098 206.217 300.47 205.754C294.786 204.782 293.756 204.318 292.372 204.712C291.658 204.937 291.045 205.406 290.64 206.036C289.786 207.194 289.174 208.512 288.84 209.912C286.084 218.611 283.977 227.502 282.536 236.512C282.365 237.172 282.27 237.849 282.252 238.53C282.32 241.086 285.396 241.458 287.924 242.028C291.758 242.984 296.712 243.892 300.562 244.454C301.762 244.642 303.176 244.99 304.186 244.106C304.777 243.464 305.171 242.666 305.32 241.806C305.604 240.736 312.346 213.856 312.92 211.43C313.109 210.887 313.116 210.298 312.939 209.751C312.763 209.204 312.413 208.73 311.942 208.4ZM292.908 240.574C292.526 240.568 292.156 240.437 291.855 240.2C291.555 239.964 291.34 239.635 291.245 239.265C291.149 238.895 291.178 238.503 291.326 238.151C291.474 237.798 291.734 237.504 292.066 237.314C292.293 237.187 292.546 237.115 292.806 237.105C293.065 237.094 293.324 237.146 293.56 237.255C293.796 237.364 294.003 237.527 294.163 237.731C294.324 237.936 294.434 238.175 294.484 238.43C294.55 238.677 294.56 238.936 294.513 239.187C294.465 239.438 294.362 239.676 294.211 239.882C294.06 240.088 293.864 240.258 293.639 240.378C293.413 240.499 293.163 240.567 292.908 240.578V240.574ZM308.602 212.308C307.602 215.942 304.032 231.278 302.928 235.154C302.568 236.31 302.252 236.754 300.976 236.54C296.825 235.972 292.711 235.162 288.654 234.114C287.072 233.714 286.692 233.084 286.984 231.714C288.124 224.244 289.895 216.885 292.278 209.714C292.944 207.83 293.678 208.114 293.916 207.886C294.604 207.54 305.874 209.79 307.214 210.086C308.768 210.45 308.96 211.01 308.6 212.312L308.602 212.308Z" fill="#163300"/>
<path d="M274.758 323.548C271.002 319.36 264.904 318.774 260.104 317.876C256.887 317.352 253.807 316.193 251.042 314.467C248.278 312.742 245.884 310.483 244 307.824C243.321 308.064 242.575 308.03 241.92 307.73C244.686 311.818 248.464 315.118 252.886 317.31C256.428 318.758 260.149 319.722 263.948 320.178C261.891 321.95 260.372 324.265 259.566 326.858C258.317 329.944 257.77 333.27 257.966 336.594C250.566 335.734 246.448 333.18 241.516 332.214C237.188 331.368 233.06 332.084 229.354 331.994C229.569 330.745 229.663 329.479 229.634 328.212C229.464 319.58 223.288 313.868 219.05 313.718C219.142 312.866 219.236 312.016 219.3 311.132C219.822 304.553 218.158 297.987 214.564 292.452C221.575 288.364 229.229 285.496 237.2 283.97C237.37 283.919 237.52 283.815 237.628 283.673C237.735 283.532 237.796 283.36 237.8 283.182C237.211 276.743 236.126 270.358 234.554 264.086C234.302 263.392 233.072 263.424 233.168 264.276C234.452 270.292 235.419 276.371 236.066 282.488C226.651 284.395 217.694 288.109 209.692 293.424C205.102 285.892 201.047 278.047 197.558 269.946C197.338 269.41 196.436 269.786 196.644 270.324C199.87 278.94 203.9 287.233 208.682 295.094C208.74 295.194 208.817 295.281 208.908 295.351C209 295.421 209.105 295.472 209.216 295.501C209.328 295.531 209.444 295.537 209.559 295.521C209.673 295.505 209.783 295.467 209.882 295.408C211.117 294.564 212.367 293.764 213.634 293.008C217.579 300.312 218.773 308.79 217 316.9C216.266 319.73 216.255 322.699 216.968 325.534C217.752 327.861 219.238 329.887 221.222 331.334C225.876 334.724 232.342 333.39 237.388 333.446C240.319 333.563 243.213 334.148 245.96 335.178C251.662 337.132 257.492 338.928 263.574 338.33C273.17 337.368 281.246 330.788 274.758 323.548ZM228 329.82C227.964 330.53 227.869 331.236 227.716 331.93C226.876 331.845 226.044 331.697 225.226 331.49C222.859 330.838 220.816 329.334 219.49 327.268C217.062 323.412 218.178 319.378 218.89 314.82C224.54 316.258 228.44 323.712 228 329.82ZM273.944 332.246C270.656 335.892 264.476 337.09 259.384 336.784C259.173 333.628 259.703 330.466 260.93 327.55C262.954 321.882 265.33 321.228 265.94 320.618C269.325 321.123 272.372 322.947 274.416 325.692C275.163 326.649 275.528 327.85 275.44 329.061C275.352 330.272 274.816 331.407 273.938 332.246H273.944Z" fill="#163300" stroke="#163300"/>
</svg>
