<svg width="560" height="560" viewBox="0 0 560 560" fill="none" xmlns="http://www.w3.org/2000/svg">
<path d="M174.821 390.958C173.849 386.252 167.955 383.202 163.512 383.765C162.772 383.86 162.414 385.02 163.304 385.216C166.967 386.028 173.183 387.671 172.894 392.588C172.614 397.264 166.916 399.521 162.949 399.809C148.403 400.865 145.911 387.131 159.219 384.625C159.348 384.587 159.459 384.505 159.532 384.392C159.605 384.28 159.636 384.145 159.618 384.012C159.6 383.879 159.535 383.757 159.434 383.668C159.334 383.579 159.205 383.529 159.071 383.527C154.725 383.869 149.738 386.078 148.742 390.751C146.868 399.526 159.362 404.799 168.84 400.403C172.396 398.754 175.686 395.161 174.821 390.958Z" fill="#163300"/>
<path d="M232.366 285.6C232.355 285.408 232.27 285.227 232.13 285.095C231.99 284.963 231.804 284.89 231.612 284.89C231.419 284.89 231.234 284.963 231.094 285.095C230.953 285.227 230.869 285.408 230.857 285.6C230.314 291.987 231.557 301.683 229.821 330.154C229.541 330.201 217.568 332.242 216.56 332.64C212.601 316.302 196.316 281.081 212.36 267.011C217.33 262.654 224.703 262.987 230.891 262.422C231.574 262.36 231.809 261.324 231.07 261.15C225.16 260.22 219.107 261.012 213.634 263.43C209.181 266.167 205.967 270.53 204.674 275.596C201.314 286.692 204.742 300.902 208.051 312.39C209.944 319.591 212.358 326.645 215.272 333.497C215.858 334.788 220.119 333.516 231.081 331.817C231.278 331.757 231.45 331.635 231.573 331.47C231.695 331.305 231.762 331.104 231.762 330.898C232.383 321.748 233.447 294.28 232.366 285.6Z" fill="#163300"/>
<path d="M234.763 295.876C236.845 296.33 238.99 296.41 241.1 296.114C244.244 296.04 247.374 295.683 250.454 295.047C252.372 294.973 254.234 294.38 255.842 293.331C255.927 293.243 255.991 293.136 256.028 293.019C256.065 292.902 256.073 292.778 256.053 292.657C256.033 292.536 255.985 292.421 255.912 292.322C255.839 292.223 255.744 292.143 255.634 292.088C253.866 291.914 252.081 292.157 250.424 292.799C240.682 294.759 237.614 293.608 234.744 294.722C234.643 294.783 234.561 294.868 234.504 294.97C234.447 295.073 234.419 295.188 234.421 295.305C234.423 295.422 234.455 295.536 234.515 295.636C234.576 295.737 234.661 295.819 234.763 295.876Z" fill="#163300"/>
<path d="M263.567 226.103C270.396 224.319 275.008 224.983 312.472 224.423C314.28 224.102 316.142 224.483 317.68 225.487C317.795 225.595 317.942 225.663 318.099 225.681C318.256 225.699 318.415 225.666 318.552 225.586C318.688 225.506 318.795 225.385 318.857 225.239C318.919 225.094 318.932 224.932 318.895 224.778C317.884 221.382 313.342 222.194 308.946 222.258C269.889 222.846 268.377 222.583 263.124 224.921C262.41 225.238 262.92 226.274 263.567 226.103Z" fill="#9FE870"/>
<path d="M267.148 228.175C269.357 228.606 270.852 228.295 278.961 227.998C296.677 227.349 289.257 227.265 302.938 227.111C311.573 227.013 312.92 227.248 315.224 226.932C315.393 226.932 315.554 226.865 315.673 226.745C315.793 226.626 315.86 226.465 315.86 226.296C315.86 226.127 315.793 225.966 315.673 225.847C315.554 225.727 315.393 225.66 315.224 225.66C312.36 225.266 297.8 225.974 290.92 225.896C286.745 225.851 280.112 226.206 273.098 226.576C271.093 226.568 269.095 226.807 267.148 227.287C266.764 227.436 266.706 228.088 267.148 228.175Z" fill="#9FE870"/>
<path d="M541.296 135.699C536.511 129.64 530.656 128.498 523.594 131.88C515.81 135.612 509.944 142.556 501.984 145.88C501.066 146.266 501.424 147.753 502.398 147.42C511.358 144.371 519.996 134.19 528.626 132.471C537.941 130.617 545.426 143.282 543.161 151.329C541.251 158.102 534.22 161.179 527.649 160.742C523.594 160.462 520.072 158.432 516.104 157.87C514.392 157.541 512.627 157.602 510.942 158.048C509.256 158.494 507.692 159.314 506.366 160.446C505.744 161.067 506.366 162.316 507.254 161.986C511.21 160.504 513.338 159.384 518.473 160.978C521.895 162.285 525.5 163.054 529.158 163.257C532.52 163.387 535.842 162.499 538.69 160.708C541.539 158.918 543.779 156.308 545.118 153.222C547.383 147.445 544.967 140.344 541.296 135.699Z" fill="#163300"/>
<path d="M506.663 157.486C510.047 155.446 513.855 154.21 517.793 153.874C523.362 153.616 525.61 155.669 528.951 155.058C530.785 154.722 535.57 151.9 533.711 149.492C533.111 148.881 532.321 148.495 531.471 148.397C533.07 145.656 532.367 144.371 530.351 143.78C531.392 141.54 529.088 138.972 525.823 139.429C521.483 140.034 515.838 144.284 510.636 147.095C507.924 148.54 505.079 149.72 502.141 150.618C501.609 150.856 501.934 151.57 502.407 151.626C508.948 152.368 519.411 142.537 525.792 141.352C527.386 141.056 529.396 141.929 528.399 143.424C526.33 143.217 522.119 143.856 522.211 146.059C522.323 148.725 526.534 147.627 528.931 145.527L529.701 145.704C530.382 145.852 530.323 145.734 530.233 146.264C530.027 147.023 529.643 147.723 529.113 148.305C527.56 148.393 526.058 148.894 524.762 149.755C524.613 149.838 524.491 149.96 524.407 150.109C524.324 150.257 524.283 150.425 524.289 150.595C524.608 153.216 527.99 152.225 529.973 150.242C530.387 150.27 531.838 150.419 531.955 150.685C532.104 151.012 530.625 152.107 530.446 152.225C526.473 154.846 522.794 150.027 513.276 152.432C510.439 152.994 507.815 154.337 505.7 156.31C505.072 156.962 505.859 157.833 506.663 157.486Z" fill="#163300"/>
<path d="M498.728 148.1C497.888 143.696 493.408 143.315 492.038 146.532C491.637 146.065 491.108 145.725 490.515 145.557C489.923 145.388 489.294 145.397 488.707 145.584C488.119 145.77 487.6 146.125 487.213 146.604C486.826 147.084 486.589 147.666 486.531 148.28C484.333 147.07 481.846 148.26 481.491 151.505C481.438 154.214 482.07 156.892 483.328 159.292C484.28 161.568 485.366 163.792 486.494 165.981C487.231 168.107 488.494 170.011 490.165 171.517C490.604 171.813 491.109 171.997 491.636 172.05C492.163 172.104 492.695 172.026 493.185 171.824C493.674 171.622 494.106 171.301 494.441 170.892C494.777 170.482 495.006 169.995 495.107 169.476C495.702 169.619 496.321 169.627 496.919 169.497C497.516 169.367 498.077 169.104 498.558 168.727C499.039 168.35 499.429 167.868 499.698 167.319C499.967 166.77 500.108 166.167 500.111 165.556C500.002 163.276 497.834 161.498 496.826 159.575C494.824 155.761 495.662 154.179 494.25 153.39C494.146 153.334 494.027 153.312 493.91 153.328C493.793 153.344 493.683 153.397 493.598 153.479C492.612 154.417 493.198 155.999 493.539 157.119C495.233 162.719 497.809 163.47 498.019 165.673C498.053 166.021 497.99 166.371 497.838 166.685C497.687 166.999 497.451 167.266 497.158 167.455C496.865 167.645 496.526 167.75 496.177 167.76C495.828 167.769 495.483 167.683 495.18 167.51C494.426 165.254 493.403 163.097 492.131 161.087C491.621 159.873 491.047 158.687 490.412 157.534C490.303 157.359 490.141 157.224 489.95 157.148C489.758 157.072 489.548 157.06 489.349 157.113C489.15 157.166 488.974 157.281 488.845 157.442C488.717 157.603 488.644 157.801 488.636 158.007C488.432 161.479 492.276 165.116 492.811 167.952C492.982 168.874 492.576 170.078 491.411 169.434C490.246 168.79 489.451 166.418 488.835 165.259C487.259 162.299 483.235 154.672 483.893 151.404C484.072 150.52 484.63 149.988 485.551 150.368C486.2 150.648 486.648 151.612 487.001 152.205C487.149 152.439 487.374 152.614 487.638 152.698C487.902 152.781 488.187 152.769 488.442 152.662C488.697 152.556 488.907 152.362 489.033 152.116C489.16 151.87 489.195 151.587 489.132 151.318C488.894 150.458 488.158 148.238 489.429 147.823C490.468 147.476 491.439 149.481 491.767 150.133C491.899 150.348 492.098 150.515 492.333 150.607C492.568 150.7 492.827 150.714 493.07 150.647C493.314 150.58 493.529 150.436 493.684 150.236C493.839 150.037 493.924 149.792 493.928 149.54C493.856 148.7 493.808 146.698 495.141 146.74C496.261 146.768 496.493 148.487 496.591 149.285C496.718 151.972 497.374 154.608 498.522 157.041C499.67 159.474 501.287 161.657 503.28 163.464C503.877 163.934 504.944 163.344 504.437 162.576C499.43 155.011 500.08 155.221 498.728 148.1Z" fill="#163300"/>
<path d="M483.809 168.112C480.373 175.245 474.551 180.952 467.351 184.246C468.446 182.752 469.398 181.158 470.193 179.486C470.313 179.268 470.351 179.015 470.3 178.772C470.249 178.528 470.112 178.312 469.914 178.161C469.717 178.01 469.472 177.936 469.224 177.95C468.976 177.965 468.741 178.069 468.563 178.242C463.669 182.222 457.859 184.917 451.66 186.082C453.645 184.218 455.636 182.389 457.61 180.516C458.324 179.838 457.579 178.38 456.604 178.769C451.651 180.754 446.394 181.875 441.062 182.084C445.45 178.522 450.101 175.297 454.975 172.435C455.156 172.322 455.296 172.153 455.374 171.954C455.452 171.755 455.464 171.537 455.407 171.33C455.351 171.124 455.23 170.942 455.062 170.81C454.893 170.678 454.687 170.604 454.474 170.598C452.234 170.372 449.943 170.215 447.664 170.125C452.134 167.452 456.942 165.392 461.961 163.999C462.162 163.942 462.343 163.827 462.481 163.669C462.619 163.511 462.708 163.317 462.737 163.11C462.767 162.902 462.736 162.691 462.648 162.501C462.56 162.311 462.418 162.15 462.241 162.039C461.023 161.423 459.782 160.796 458.57 160.174C465.286 157.504 472.541 156.469 479.735 157.156C479.881 157.155 480.022 157.101 480.131 157.004C480.24 156.907 480.311 156.773 480.329 156.628C480.347 156.484 480.312 156.337 480.23 156.216C480.148 156.095 480.025 156.008 479.884 155.971C471.618 154.191 462.992 155.32 455.462 159.166C455.302 159.267 455.17 159.407 455.078 159.572C454.987 159.738 454.939 159.924 454.939 160.114C454.939 160.303 454.987 160.489 455.078 160.655C455.17 160.821 455.302 160.961 455.462 161.062C456.56 161.622 457.68 162.156 458.777 162.719C453.417 164.466 448.334 166.969 443.68 170.15C443.483 170.269 443.33 170.448 443.244 170.661C443.159 170.874 443.145 171.11 443.205 171.331C443.265 171.553 443.396 171.749 443.578 171.89C443.759 172.03 443.982 172.108 444.212 172.11C446.58 172.11 448.972 172.2 451.346 172.348C446.485 175.389 441.836 178.756 437.433 182.428C436.724 183.019 437.343 184.15 438.144 184.173C443.037 184.313 447.922 183.684 452.62 182.308C451.021 183.82 449.408 185.346 447.793 186.838C447.653 186.986 447.559 187.172 447.523 187.372C447.486 187.573 447.509 187.779 447.587 187.967C447.666 188.155 447.797 188.316 447.965 188.431C448.133 188.546 448.331 188.609 448.535 188.614C454.755 187.961 460.741 185.885 466.029 182.546C465.221 183.703 464.33 184.801 463.364 185.83C463.21 185.996 463.114 186.206 463.089 186.43C463.063 186.654 463.111 186.88 463.223 187.076C463.336 187.271 463.508 187.425 463.715 187.516C463.922 187.606 464.152 187.628 464.372 187.578C469.022 186.203 473.325 183.852 476.994 180.682C480.664 177.512 483.615 173.596 485.652 169.196C486.172 167.964 484.434 166.88 483.809 168.112Z" fill="#9FE870"/>
<path d="M468 174.507C473.385 172.827 476.745 168.347 479.872 163.94C480.432 163.142 479.514 162.212 478.688 162.4C478.064 162.54 477.445 162.697 476.851 162.873C473.085 162.942 469.367 163.736 465.9 165.211C465.161 165.511 464.864 166.855 465.9 167.017C466.581 167.126 467.261 167.224 467.942 167.342C466.064 168.315 464.271 169.445 462.582 170.719C461.877 171.256 462.022 172.558 463.086 172.522C468.44 172.354 468.756 171.122 467.054 172.819C466.901 172.974 466.803 173.175 466.774 173.392C466.745 173.608 466.787 173.828 466.894 174.018C467.001 174.208 467.166 174.359 467.366 174.447C467.565 174.535 467.788 174.556 468 174.507Z" fill="#9FE870"/>
<path d="M161.232 150.707C160.561 146.462 159.285 142.335 157.444 138.452C158.459 138.192 159.372 137.632 160.064 136.845C160.756 136.059 161.194 135.081 161.322 134.042C161.602 131.522 159.844 129.147 157.472 129.601C157.153 127.081 155.512 124.74 153.031 125.219C151.774 122.346 147.507 121.327 144.477 125.188C143.958 124.858 143.37 124.655 142.758 124.593C142.146 124.532 141.529 124.615 140.955 124.835C140.183 125.184 139.512 125.722 139.005 126.4C138.497 127.079 138.17 127.874 138.054 128.713C137.178 128.654 136.303 128.839 135.526 129.246C134.749 129.653 134.099 130.267 133.648 131.02C133.198 131.774 132.965 132.637 132.975 133.514C132.984 134.392 133.236 135.25 133.703 135.993C133.11 136.533 132.663 137.214 132.403 137.973C132.142 138.731 132.077 139.543 132.212 140.333C132.348 141.123 132.68 141.867 133.178 142.495C133.676 143.124 134.325 143.616 135.064 143.928C134.757 144.459 134.59 145.058 134.577 145.671C134.564 146.283 134.706 146.889 134.989 147.432C135.273 147.975 135.689 148.437 136.198 148.777C136.708 149.117 137.295 149.322 137.906 149.374C137.936 149.374 137.936 149.374 137.964 149.405C137.535 149.718 137.175 150.115 136.905 150.573C136.634 151.03 136.461 151.537 136.394 152.064C136.327 152.591 136.369 153.126 136.516 153.636C136.663 154.147 136.914 154.621 137.251 155.031C137.588 155.441 138.006 155.778 138.478 156.021C138.951 156.264 139.468 156.408 139.998 156.443C140.527 156.479 141.059 156.406 141.56 156.229C142.06 156.052 142.52 155.775 142.909 155.414C142.145 156.43 144.805 162.31 150.576 164.59C150.395 165.942 150.722 167.314 151.494 168.44C151.605 168.625 151.786 168.759 151.996 168.812C152.206 168.864 152.428 168.831 152.614 168.72C152.8 168.608 152.933 168.428 152.986 168.218C153.038 168.008 153.005 167.785 152.894 167.6C152.45 166.819 152.187 165.948 152.124 165.052C153.612 165.516 155.21 165.485 156.679 164.962C158.147 164.438 159.405 163.452 160.264 162.151C162.448 158.917 161.818 154.409 161.232 150.707ZM159.552 159.202C159.333 160.009 158.94 160.759 158.401 161.398C157.862 162.038 157.19 162.552 156.431 162.904C155.673 163.257 154.847 163.439 154.01 163.439C153.174 163.439 152.348 163.257 151.589 162.904C148.324 161.307 145.651 158.715 143.954 155.501C143.889 155.391 143.79 155.305 143.672 155.257C143.555 155.209 143.424 155.201 143.301 155.235C144.5 154.319 144.273 153.331 143.774 153.194C142.792 152.914 142.299 153.672 141.585 154.171C141.215 154.478 140.746 154.638 140.266 154.621C139.786 154.605 139.328 154.413 138.981 154.081C137.021 152.334 139.101 149.587 141.347 149.937C141.705 149.993 141.999 149.492 141.627 149.285C141.596 149.257 141.537 149.257 141.506 149.226C142.584 148.364 142.733 146.882 141.123 145.466C141.447 144.798 141.62 144.068 141.63 143.326C141.64 142.584 141.487 141.849 141.182 141.173C141.73 140.807 142.197 140.331 142.553 139.776C142.91 139.221 143.148 138.599 143.254 137.948C144.465 137.714 145.584 137.139 146.479 136.29C147.054 136.643 147.697 136.867 148.367 136.949C149.036 137.031 149.715 136.967 150.357 136.763C150.604 137.212 150.939 137.607 151.34 137.925C151.742 138.243 152.203 138.478 152.697 138.616C153.19 138.754 153.706 138.792 154.215 138.728C154.723 138.665 155.214 138.5 155.658 138.244C155.716 138.272 155.747 138.303 155.806 138.303C157.153 141.546 158.27 144.88 159.149 148.28C160.089 151.846 160.224 155.577 159.544 159.202H159.552Z" fill="#163300"/>
<path d="M146.787 145.379C146.615 145.464 146.463 145.585 146.341 145.734C146.22 145.883 146.132 146.057 146.084 146.243C146.037 146.429 146.03 146.623 146.064 146.813C146.098 147.002 146.173 147.181 146.283 147.339C146.373 147.579 146.532 147.787 146.74 147.937C146.949 148.087 147.196 148.172 147.453 148.181C147.709 148.19 147.962 148.123 148.181 147.989C148.399 147.855 148.573 147.659 148.68 147.426C149.318 145.838 147.725 144.438 146.787 145.379Z" fill="#163300"/>
<path d="M154.423 143.64C154.25 143.725 154.098 143.846 153.977 143.995C153.855 144.144 153.768 144.318 153.72 144.504C153.673 144.691 153.666 144.885 153.701 145.074C153.735 145.263 153.811 145.443 153.922 145.6C154.689 146.978 156.722 146.72 156.408 144.505C156.223 143.564 155.137 142.92 154.423 143.64Z" fill="#163300"/>
<path d="M147.496 140.406C146.574 140.336 145.656 140.57 144.88 141.072C144.105 141.574 143.516 142.317 143.203 143.186C143.139 143.542 143.626 143.934 143.914 143.601C144.295 143.05 144.769 142.57 145.314 142.181C145.949 141.912 146.64 141.8 147.328 141.856C148.058 141.795 148.355 140.56 147.496 140.406Z" fill="#163300"/>
<path d="M152.264 141.028C153.698 141.123 153.636 140.98 154.837 141.826C155.604 142.363 156.321 141.232 155.786 140.582C155.303 140.048 154.638 139.713 153.921 139.642C153.205 139.572 152.487 139.77 151.908 140.199C151.843 140.269 151.8 140.356 151.783 140.45C151.767 140.544 151.778 140.641 151.816 140.729C151.854 140.817 151.916 140.892 151.996 140.945C152.075 140.998 152.168 141.027 152.264 141.028Z" fill="#163300"/>
<path d="M153.594 153.49C153.833 153.481 154.068 153.425 154.286 153.324C154.503 153.224 154.699 153.081 154.861 152.905C155.023 152.729 155.149 152.523 155.232 152.298C155.314 152.073 155.351 151.834 155.341 151.595C155.309 150.086 154.87 148.613 154.07 147.333C153.459 145.878 152.563 144.559 151.435 143.455C151.08 143.175 150.73 143.632 150.783 143.956C151.091 145.874 152.779 147.596 153.418 149.464C153.637 149.948 153.758 150.47 153.773 151.001C153.546 152.863 151.497 150.881 149.895 151.595C149.201 151.906 150.262 153.742 153.594 153.49Z" fill="#163300"/>
<path d="M154.692 155.856C153.835 156.276 154.132 158.418 152.886 158.077C152.264 157.909 151.953 157.172 150.783 155.117C150.578 154.759 149.943 154.91 149.985 155.324C150.116 156.954 151.049 159.631 153.065 159.648C153.493 159.628 153.91 159.497 154.273 159.268C154.636 159.04 154.934 158.721 155.137 158.343C156.178 156.52 155.299 155.557 154.692 155.856Z" fill="#163300"/>
<path d="M141.12 157.248C141.038 157.176 140.934 157.134 140.825 157.13C140.716 157.126 140.609 157.16 140.522 157.226C140.435 157.292 140.373 157.386 140.348 157.492C140.322 157.598 140.334 157.71 140.381 157.808C140.768 159.115 140.923 160.48 140.84 161.84C140.932 163.169 140.698 164.5 140.16 165.718C139.583 166.894 141.257 167.611 141.728 166.636C142.438 165.057 142.727 163.321 142.568 161.596C142.649 160.81 142.562 160.016 142.312 159.266C142.063 158.517 141.656 157.829 141.12 157.248Z" fill="#163300"/>
<path d="M194.802 380.094C193.808 377.664 185.413 343.916 179.942 324.234C161.815 259.036 153.093 253.96 150.9 236.04C150.891 235.84 150.831 235.645 150.727 235.474C150.622 235.303 150.477 235.161 150.303 235.06C150.129 234.96 149.933 234.905 149.733 234.9C149.533 234.895 149.334 234.94 149.156 235.032C148.918 235.124 148.68 235.239 148.473 235.329C139.233 228.536 127.546 227.674 116.208 228.194C112.524 228.316 108.857 228.772 105.255 229.555C105.099 229.462 104.925 229.406 104.745 229.391C104.565 229.376 104.383 229.402 104.215 229.468C104.046 229.534 103.895 229.637 103.772 229.77C103.65 229.903 103.559 230.062 103.508 230.236C96.3311 269.156 97.6107 290.007 101.198 310.489C101.544 311.858 101.773 313.254 101.881 314.661C101.881 315.552 100.761 315.552 100.458 314.84C99.9827 313.385 99.6654 311.883 99.512 310.36C98.1934 302.954 97.3331 295.473 96.9359 287.96C96.9023 286.541 87.5588 269.349 85.6884 266.025C85.6383 265.823 85.5389 265.635 85.399 265.48C85.2591 265.326 85.083 265.208 84.8865 265.137C84.69 265.067 84.4791 265.046 84.2726 265.077C84.0661 265.108 83.8705 265.189 83.7031 265.314C78.5504 266.923 73.4824 268.792 68.5188 270.914C68.2907 271.013 68.1041 271.188 67.9907 271.409C67.8773 271.63 67.8442 271.884 67.8972 272.126C72.03 292.34 76.3195 322.378 91.8148 337.873C102.211 348.27 114.425 348.575 123.668 333.936C130.81 322.624 134.646 305.066 135.626 292.463C135.716 285.536 135.755 278.609 135.744 271.684C135.758 271.415 135.875 271.161 136.07 270.975C136.266 270.789 136.526 270.685 136.795 270.685C137.065 270.685 137.325 270.789 137.52 270.975C137.716 271.161 137.833 271.415 137.847 271.684C137.847 279.409 137.581 287.048 136.987 294.714C139.742 302.056 142.904 309.221 145.928 316.442C151.984 330.907 153.062 336.882 165.494 362.533C169.571 370.933 173.748 379.333 177.601 387.842C177.758 388.093 178.004 388.275 178.29 388.352C178.575 388.429 178.88 388.395 179.141 388.256C184.262 386.072 189.4 383.883 194.356 381.301C194.546 381.17 194.69 380.984 194.769 380.768C194.849 380.552 194.86 380.317 194.802 380.094Z" fill="#163300"/>
<path d="M224.02 105.297C222.569 104.857 221.036 104.755 219.54 105C218.912 105.218 219.307 104.936 217.3 108.494C212.084 117.948 206.03 126.914 199.212 135.285C185.212 152.242 156.629 176.616 137.136 166.426C135.987 165.922 134.75 165.65 133.496 165.626C125.975 164.786 118.191 167.227 111.264 169.949C79.7188 182.333 58.0328 205.089 37.0496 231.49C35.6496 233.24 34.3476 235.06 32.9364 236.79C32.7908 236.97 33.054 237.233 33.2164 237.056C36.6088 239.894 39.8035 242.959 42.7784 246.232C42.797 246.253 42.8199 246.27 42.8455 246.281C42.871 246.293 42.8988 246.299 42.9268 246.299C42.9548 246.299 42.9825 246.293 43.0081 246.281C43.0337 246.27 43.0565 246.253 43.0752 246.232C67.564 220.814 104.236 207.827 111.426 203.252C112.846 202.451 114.708 200.931 116.399 201.208C116.485 201.232 116.565 201.276 116.632 201.335C116.699 201.394 116.752 201.468 116.786 201.551C116.82 201.634 116.835 201.724 116.83 201.813C116.824 201.903 116.798 201.99 116.754 202.068C115.948 203.426 113.649 203.997 112.274 204.73L109.474 206.24C103.604 216.536 99.8409 227.896 98.4032 239.66C98.4009 239.708 98.4103 239.756 98.4304 239.799C98.4506 239.843 98.4809 239.881 98.5189 239.91C98.5568 239.939 98.6012 239.958 98.6484 239.967C98.6955 239.975 98.744 239.972 98.7896 239.957C115.87 235.284 124.874 235.827 139.67 237.826C144.57 238.418 149.412 239.419 154.146 240.817C155.201 241.228 153.104 238.857 163.646 218.137C175.54 194.771 176.526 200.959 200.917 170.923C216.103 152.276 226.702 130.325 231.862 106.837C231.764 106.238 232.156 106.49 224.02 105.297Z" fill="#9FE870"/>
<path d="M221.502 102.81C223.521 98.672 221.371 95.0068 223.692 88.424C224.424 87.0417 225.001 85.5824 225.411 84.0728C225.408 83.9456 225.373 83.8213 225.308 83.712C225.242 83.6028 225.15 83.5124 225.039 83.4497C224.929 83.387 224.803 83.3542 224.676 83.3544C224.549 83.3547 224.424 83.388 224.314 83.4512C222.466 84.7504 221.105 89.8156 220.791 92.064C220.301 95.5892 220.97 99.1088 220.732 102.603C220.731 102.695 220.761 102.784 220.816 102.857C220.871 102.929 220.949 102.982 221.037 103.006C221.125 103.029 221.219 103.023 221.303 102.988C221.387 102.952 221.457 102.89 221.502 102.81Z" fill="#163300"/>
<path d="M227.542 93.5452C229.793 89.9381 231.315 85.9247 232.022 81.732C232.416 80.6216 232.416 79.4096 232.022 78.2992C231.979 78.2235 231.92 78.1588 231.848 78.1101C231.776 78.0615 231.694 78.0302 231.608 78.0188C231.521 78.0074 231.434 78.0161 231.352 78.0444C231.27 78.0727 231.195 78.1196 231.134 78.1816C229.944 79.534 231.053 81.6088 226.607 93.1308C226.366 93.7244 227.226 94.024 227.542 93.5452Z" fill="#163300"/>
<path d="M232.812 92.0052C235.15 87.9453 236.857 83.5531 237.874 78.9796C238.395 77.7716 238.468 76.4176 238.081 75.1604C238.039 75.0842 237.979 75.019 237.907 74.97C237.835 74.921 237.752 74.8895 237.666 74.8781C237.579 74.8667 237.491 74.8756 237.409 74.9042C237.326 74.9328 237.252 74.9803 237.191 75.0428C235.813 76.3756 236.911 77.476 232.131 91.7084C232.108 91.7953 232.116 91.8877 232.155 91.9688C232.194 92.05 232.261 92.1144 232.343 92.1504C232.426 92.1863 232.519 92.1915 232.604 92.1648C232.69 92.1382 232.764 92.0815 232.812 92.0052Z" fill="#163300"/>
<path d="M241.514 79.2764C240.027 82.7008 238.994 85.9964 236.925 90.1096C236.267 90.9849 235.941 92.0656 236.006 93.1588C236.034 93.2467 236.08 93.3273 236.142 93.3949C236.205 93.4625 236.281 93.5153 236.367 93.5494C236.452 93.5835 236.544 93.5981 236.636 93.592C236.727 93.5859 236.817 93.5594 236.897 93.5144C238.017 93.0076 238.412 91.6832 238.91 90.6444C240.628 87.2007 241.958 83.5767 242.875 79.8392C243.04 79.0664 241.872 78.4476 241.514 79.2764Z" fill="#163300"/>
<path d="M243.911 86.4696C240.503 97.342 236.166 97.874 231.893 103.995C231.417 104.675 232.406 105.28 232.96 104.835C234.438 103.436 235.813 101.932 237.073 100.335C240.433 96.6056 244.006 93.0804 244.74 86.5984C244.798 86.0832 244.051 86.0216 243.911 86.4696Z" fill="#163300"/>
<path d="M39.774 246.145C38.4272 247.545 38.2424 249.01 35.3332 251.087C33.4634 252.439 31.287 253.305 28.9996 253.607C27.7872 253.758 27.7872 255.665 28.9996 255.531C35.2464 254.839 40.3144 250.079 40.81 246.77C40.8996 246.173 40.25 245.644 39.774 246.145Z" fill="#163300"/>
<path d="M29.8872 249.726C26.4342 249.853 23.0219 248.946 20.0872 247.122C15.792 244.647 16.7272 241.85 14.8456 240.372C14.224 239.887 12.9948 241.254 15.4392 245.286C16.4069 246.81 17.7666 248.047 19.376 248.867C22.5988 250.65 26.628 252.33 30.2092 250.645C30.5984 250.438 30.3604 249.698 29.8872 249.726Z" fill="#163300"/>
<path d="M26.04 243.894C23.5536 244.076 21.7168 241.674 20.2664 239.957C18.0684 237.356 18.2504 235.396 17.1864 234.245C17.1217 234.183 17.0421 234.139 16.9554 234.117C16.8686 234.096 16.7777 234.096 16.6914 234.12C16.6051 234.144 16.5264 234.189 16.463 234.253C16.3996 234.316 16.3536 234.394 16.3296 234.48C16.3723 235.835 16.688 237.168 17.2576 238.398C17.8272 239.628 18.6391 240.731 19.6448 241.64C21.3948 243.53 23.422 245.795 26.2164 245.073C26.8436 244.916 26.7204 243.844 26.04 243.894Z" fill="#163300"/>
<path d="M25.6536 239.425C24.3959 238.213 23.3901 236.763 22.694 235.161C22.092 233.806 22.1704 231.958 21.3612 230.782C21.3133 230.703 21.2458 230.638 21.1654 230.592C21.085 230.547 20.9943 230.524 20.902 230.524C20.8098 230.524 20.7191 230.547 20.6387 230.592C20.5582 230.638 20.4908 230.703 20.4428 230.782C19.6644 232.254 20.6472 234.483 21.3024 235.872C22.1684 237.617 23.4621 239.114 25.0628 240.223C25.5024 240.554 26.0652 239.812 25.6536 239.425Z" fill="#163300"/>
<path d="M24.2032 229.715C24.5003 231.386 25.1787 232.966 26.1856 234.332C29.3552 238.596 30.842 237.16 30.3324 236.345C29.1508 234.466 27.37 234.385 25.2924 229.449C25.2571 229.304 25.1659 229.18 25.0388 229.103C24.9118 229.025 24.7592 229.002 24.6148 229.037C24.4704 229.072 24.3459 229.164 24.2687 229.291C24.1915 229.418 24.1679 229.57 24.2032 229.715Z" fill="#163300"/>
<path d="M221.858 392.409C218.778 388.004 210.218 387.929 204.865 388.531C201.072 388.814 197.319 389.489 193.665 390.544C190.646 391.555 187.981 394.349 184.705 394.332C184.418 394.332 184.143 394.446 183.941 394.649C183.738 394.852 183.624 395.127 183.624 395.413C183.624 395.7 183.738 395.975 183.941 396.177C184.143 396.38 184.418 396.494 184.705 396.494C188.734 396.525 191.229 393.215 196.011 392.112C202.082 390.712 212.593 388.996 218.095 391.994C218.747 392.35 220.615 393.394 220.226 394.332C219.901 395.133 218.061 395.732 217.325 396.08C207.5 400.56 199.562 404.505 188.376 406.767C185.995 403.756 184.443 400.173 183.876 396.376C183.832 396.235 183.739 396.114 183.614 396.035C183.489 395.956 183.34 395.924 183.193 395.946C183.047 395.967 182.912 396.04 182.815 396.151C182.717 396.262 182.663 396.405 182.661 396.553C182.614 400.832 184.155 404.976 186.984 408.187C187.958 409.284 189.378 408.621 190.683 408.335C200.404 405.815 209.823 402.247 218.775 397.695C220.92 396.696 223.664 394.985 221.858 392.409Z" fill="#163300"/>
<path d="M78.6128 252.893C76.2916 247.573 75.7848 248.452 72.6628 248.867C65.9946 249.91 59.4556 251.657 53.1552 254.078C50.0416 255.198 46.8748 256.292 43.8284 257.572C41.7256 258.454 39.0684 259.991 40.7204 262.573C42.3234 264.64 44.6036 266.077 47.1604 266.63C54.1274 267.963 61.2885 267.912 68.236 266.482C71.5232 265.745 74.5136 262.945 77.9464 263.225C79.3464 263.337 79.3464 261.162 77.9464 261.064C73.7464 260.784 71.4028 263.981 65.6908 264.734C59.6372 265.532 50.05 266.484 44.6908 263.374C44.0384 262.993 41.8908 261.657 42.4704 260.649C42.9184 259.882 44.9288 259.347 45.6988 259.05C55.1143 255.026 64.9881 252.173 75.0988 250.555C77.249 253.757 78.5427 257.457 78.8564 261.302C78.8949 261.429 78.9733 261.54 79.0799 261.619C79.1866 261.698 79.3158 261.741 79.4486 261.741C79.5814 261.741 79.7107 261.698 79.8173 261.619C79.9239 261.54 80.0023 261.429 80.0408 261.302C80.4054 258.419 79.9085 255.494 78.6128 252.893Z" fill="#163300"/>
<path d="M198.058 93.24C169.728 63.1372 171.007 65.4304 170.142 65.6796C169.809 65.782 169.525 66.0032 169.344 66.3012C169.19 66.3238 169.044 66.3845 168.92 66.478C168.796 66.5714 168.697 66.6945 168.633 66.836C165.525 74.6032 159.804 98.4536 157.828 107.184C157.795 107.331 157.795 107.483 157.827 107.63C157.859 107.776 157.921 107.915 158.011 108.035C158.101 108.156 158.215 108.256 158.347 108.328C158.479 108.4 158.624 108.444 158.774 108.455C159.723 108.455 170.618 103.216 197.554 95.0152C197.732 94.9649 197.894 94.8699 198.025 94.7391C198.156 94.6084 198.251 94.4463 198.302 94.2684C198.352 94.0904 198.356 93.9025 198.314 93.7224C198.271 93.5424 198.183 93.3763 198.058 93.24ZM160.227 105.84C165.052 84.0756 169.148 72.0748 170.027 68.1268C176.716 74.8468 195.247 93.5256 195.247 93.5256C183.419 97.1845 171.737 101.299 160.227 105.86V105.84Z" fill="#163300"/>
<path d="M260.49 52.1612C260.489 52.0265 260.458 51.8936 260.399 51.7722C260.341 51.6508 260.256 51.5439 260.152 51.459C260.047 51.3742 259.925 51.3135 259.794 51.2815C259.663 51.2494 259.527 51.2467 259.395 51.2736C259.294 51.2218 259.182 51.1947 259.069 51.1947C258.955 51.1947 258.843 51.2218 258.742 51.2736C251.747 54.9407 244.949 58.9717 238.375 63.35C238.245 63.4295 238.139 63.543 238.068 63.6782C237.998 63.8134 237.965 63.9653 237.975 64.1175C237.984 64.2698 238.034 64.4167 238.121 64.5424C238.207 64.6681 238.326 64.768 238.465 64.8312C254.145 71.568 258.843 74.6872 259.689 74.6872C259.806 74.6921 259.923 74.6724 260.032 74.6293C260.141 74.5862 260.24 74.5208 260.322 74.4372C260.405 74.3535 260.469 74.2536 260.51 74.1438C260.551 74.034 260.569 73.9167 260.562 73.7996C260.562 61.2724 260.49 62.1908 260.49 52.1612ZM240.61 63.882C250.53 57.4028 256.332 54.4432 258.608 53.0488C258.667 58.2596 258.756 72.3184 258.756 72.3184C252.805 69.2912 246.748 66.4773 240.596 63.882H240.61Z" fill="#9FE870"/>
<path d="M245.896 175.809C226.817 162.042 227.836 163.136 227.186 163.405C226.975 163.498 226.806 163.667 226.713 163.878C226.614 163.935 226.529 164.012 226.462 164.104C226.395 164.196 226.349 164.302 226.327 164.413C225.884 166.373 225.333 174.213 225.207 176.224C224.412 188.415 224.532 188.527 225.086 188.824C225.208 188.899 225.349 188.937 225.492 188.931C225.634 188.926 225.772 188.877 225.887 188.793C244.006 177.279 246.282 177.873 246.282 176.568C246.28 176.42 246.244 176.275 246.177 176.144C246.11 176.013 246.014 175.898 245.896 175.809ZM226.358 186.525C226.836 172.483 227.615 168.487 227.777 165.567C233.079 169.195 238.379 172.826 243.676 176.462C237.772 179.585 231.994 182.942 226.358 186.525Z" fill="#9FE870"/>
<path d="M62.3751 423.723C31.5196 401.189 33.1679 402.981 32.1173 403.421C31.7751 403.573 31.5018 403.849 31.352 404.196C31.1921 404.288 31.0535 404.414 30.9457 404.565C30.8379 404.716 30.7633 404.888 30.7271 405.071C30.0117 408.279 29.1196 421.111 28.9158 424.401C27.6298 444.354 27.8245 444.537 28.7211 445.023C28.9172 445.147 29.1454 445.208 29.3763 445.199C29.6072 445.19 29.8301 445.111 30.0162 444.973C59.3185 426.129 63 427.1 63 424.965C62.9958 424.723 62.9374 424.486 62.8292 424.271C62.7209 424.055 62.5656 423.868 62.3751 423.723ZM30.777 441.261C31.5513 418.278 32.8101 411.739 33.0728 406.959C41.6471 412.897 50.2176 418.841 58.7842 424.79C49.2362 429.902 39.893 435.397 30.777 441.261Z" fill="#9FE870"/>
<path d="M353.469 130.458C353.314 130.39 353.146 130.358 352.977 130.364C352.808 130.369 352.643 130.412 352.492 130.488C352.38 130.4 352.244 130.347 352.102 130.337C351.96 130.326 351.818 130.359 351.694 130.43C343.96 134.84 325.819 148.35 317.71 154.672C317.579 154.782 317.479 154.925 317.422 155.087C317.364 155.248 317.352 155.422 317.386 155.59C317.61 156.946 321.723 156.257 356.076 170.332C356.225 170.392 356.387 170.412 356.547 170.392C356.706 170.372 356.858 170.312 356.988 170.218C357.118 170.123 357.222 169.998 357.29 169.852C357.358 169.707 357.388 169.546 357.378 169.386C353.741 128.013 354.136 130.777 353.469 130.458ZM320.04 155.028C341.337 138.508 346.976 135.722 352.041 131.821C352.957 141.38 355.384 167.964 355.384 167.964C343.774 163.197 331.984 158.882 320.04 155.028Z" fill="#163300"/>
<path d="M410.396 140.28C410.097 137.172 407.036 132.16 403.262 133.739C403.11 133.783 402.976 133.874 402.88 134.001C402.785 134.127 402.734 134.281 402.734 134.439C402.734 134.597 402.785 134.751 402.88 134.878C402.976 135.004 403.11 135.096 403.262 135.139C404.851 135.419 406.277 136.286 407.257 137.567C407.87 138.566 408.224 139.702 408.286 140.872C408.349 142.042 408.118 143.209 407.615 144.268C407.112 145.326 406.353 146.242 405.407 146.933C404.46 147.624 403.356 148.067 402.195 148.224C400.733 148.348 399.273 147.962 398.064 147.13C396.855 146.299 395.972 145.075 395.564 143.665C395.315 142.179 395.581 140.653 396.319 139.339C397.056 138.025 398.22 137.002 399.619 136.441C399.765 136.388 399.885 136.283 399.956 136.145C400.028 136.008 400.044 135.848 400.004 135.699C399.963 135.55 399.867 135.421 399.735 135.339C399.604 135.257 399.446 135.228 399.294 135.257C397.802 135.582 396.446 136.356 395.407 137.475C394.369 138.594 393.698 140.004 393.484 141.516C393.271 143.028 393.525 144.569 394.213 145.931C394.902 147.294 395.991 148.414 397.334 149.139C398.762 149.949 400.388 150.343 402.029 150.277C403.669 150.211 405.258 149.688 406.617 148.766C407.975 147.845 409.049 146.562 409.717 145.062C410.385 143.563 410.62 141.906 410.396 140.28Z" fill="#163300"/>
<path d="M65.9855 491.241C65.6859 488.133 62.6255 483.121 58.8511 484.7C58.6989 484.744 58.5651 484.836 58.4698 484.962C58.3746 485.088 58.323 485.242 58.323 485.4C58.323 485.559 58.3746 485.713 58.4698 485.839C58.5651 485.965 58.6989 486.057 58.8511 486.1C60.44 486.381 61.8659 487.247 62.8467 488.528C63.4593 489.527 63.8129 490.663 63.8754 491.833C63.9379 493.003 63.7073 494.17 63.2045 495.229C62.7017 496.287 61.9426 497.203 60.9961 497.894C60.0496 498.585 58.9456 499.029 57.7843 499.185C56.3224 499.309 54.8626 498.923 53.6536 498.092C52.4446 497.261 51.5612 496.036 51.1539 494.626C50.9043 493.14 51.1704 491.614 51.9079 490.3C52.6453 488.986 53.8098 487.964 55.2082 487.402C55.3539 487.35 55.4744 487.244 55.5457 487.107C55.617 486.969 55.6338 486.81 55.5929 486.66C55.5519 486.511 55.4561 486.382 55.3247 486.3C55.1932 486.218 55.0356 486.189 54.8835 486.218C53.3917 486.543 52.0354 487.317 50.9967 488.436C49.958 489.555 49.2869 490.966 49.0734 492.477C48.86 493.989 49.1145 495.53 49.8028 496.893C50.4911 498.256 51.5801 499.375 52.9235 500.1C54.3516 500.91 55.9776 501.304 57.6179 501.238C59.2581 501.172 60.8473 500.649 62.2059 499.728C63.5645 498.806 64.6384 497.523 65.3062 496.024C65.9741 494.524 66.2094 492.867 65.9855 491.241Z" fill="#163300"/>
<path d="M374.814 192.623C391.426 188.513 392.112 188.684 396.374 187.236C396.995 187.026 396.967 185.928 396.197 185.993C383.116 187.113 310.607 207.964 298.39 212.517C298.257 212.557 298.145 212.647 298.078 212.769C298.012 212.891 297.997 213.035 298.036 213.168C298.076 213.302 298.166 213.414 298.288 213.48C298.41 213.547 298.554 213.562 298.687 213.522C315.697 209.3 338.708 201.555 374.814 192.623Z" fill="#163300"/>
<path d="M397.6 187.947C397.362 187.267 396.2 187.295 396.239 188.124C396.366 189.875 396.704 191.605 397.247 193.276C397.625 194.55 397.779 196.26 399.14 196.767C399.263 196.801 399.394 196.793 399.512 196.745C399.63 196.697 399.728 196.611 399.792 196.501C400.453 195.322 399.49 193.956 399.112 192.772C398.605 191.176 398.16 189.546 397.6 187.947Z" fill="#163300"/>
<path d="M398.703 198.397C393.93 200.847 389.006 202.992 383.961 204.82C369.827 210.776 349.241 221.236 330.884 228.71C327.959 229.722 325.101 230.918 322.328 232.291C322.153 232.398 322.022 232.564 321.959 232.759C321.896 232.954 321.905 233.165 321.984 233.354C322.062 233.543 322.206 233.698 322.389 233.79C322.571 233.883 322.781 233.907 322.98 233.859C330.599 232.336 369.821 213.312 382.864 207.514C388.584 205.382 394.046 202.611 399.146 199.254C399.708 198.898 399.263 198.069 398.703 198.397Z" fill="#163300"/>
<path d="M419.572 190.817C417.505 190.772 417.15 192.889 410.892 193.245C407.901 193.416 404.334 192.497 401.652 194.104C401.15 194.404 401.324 195.314 401.976 195.258C406.829 194.832 411.942 196.134 417.096 194.046C418.256 193.575 419.88 192.926 420.146 191.556C420.16 191.47 420.156 191.381 420.134 191.296C420.113 191.211 420.074 191.131 420.02 191.062C419.966 190.992 419.898 190.935 419.821 190.893C419.744 190.851 419.659 190.825 419.572 190.817Z" fill="#163300"/>
<path d="M412.793 181.966C421.537 179.094 423.041 180.099 425.432 178.651C425.557 178.577 425.658 178.467 425.722 178.336C425.786 178.204 425.81 178.058 425.791 177.913C425.772 177.768 425.711 177.632 425.616 177.522C425.521 177.411 425.396 177.331 425.256 177.29C423.127 177.132 420.989 177.424 418.981 178.147C413.661 179.404 404.356 182.232 399.798 185.903C399.356 186.262 399.829 186.973 400.33 186.822C402.92 186.046 406.93 183.893 412.793 181.966Z" fill="#163300"/>
<path d="M413.473 184.542C412.88 184.862 413.297 185.875 413.946 185.637C426.656 181.009 426.826 182.207 428.305 180.754C428.362 180.694 428.403 180.621 428.424 180.54C428.444 180.46 428.444 180.376 428.424 180.296C428.403 180.216 428.362 180.142 428.305 180.082C428.248 180.022 428.177 179.978 428.098 179.953C426.89 179.678 425.625 179.792 424.486 180.278C420.653 181.241 416.955 182.673 413.473 184.542Z" fill="#163300"/>
<path d="M429.192 183.151C428.326 182.824 427.372 182.813 426.499 183.12C422.613 183.826 418.839 185.05 415.279 186.76C414.686 187.04 415.103 187.95 415.724 187.796C419.395 186.883 421.758 186.029 426.44 185.013C427.47 184.96 428.46 184.599 429.282 183.977C429.339 183.921 429.382 183.852 429.408 183.777C429.435 183.702 429.444 183.622 429.436 183.542C429.427 183.463 429.401 183.387 429.359 183.319C429.317 183.251 429.26 183.194 429.192 183.151Z" fill="#163300"/>
<path d="M407.554 181.02C409.898 180.611 409.996 179.9 417.074 177.083C418.06 176.808 418.971 176.312 419.737 175.633C419.803 175.561 419.847 175.472 419.865 175.376C419.882 175.28 419.872 175.181 419.834 175.09C419.797 175 419.735 174.922 419.656 174.866C419.576 174.81 419.482 174.778 419.384 174.773C417.171 175.012 415.049 175.78 413.196 177.013C411.018 177.807 408.988 178.958 407.187 180.418C407.131 180.476 407.096 180.551 407.087 180.631C407.077 180.711 407.095 180.792 407.137 180.861C407.179 180.93 407.243 180.983 407.319 181.012C407.394 181.041 407.477 181.043 407.554 181.02Z" fill="#163300"/>
<path d="M321.972 267.68C320.032 270.158 313.275 271.144 310.103 271.144C307.35 271.144 304.298 269.984 301.636 270.995C297.875 272.42 300.72 272.25 285.888 274.873C281.302 275.682 275.386 276.648 264.958 278.071C265.224 284.936 265.58 291.81 266.174 298.642C266.183 298.961 266.314 299.264 266.539 299.49C266.765 299.716 267.067 299.847 267.386 299.858C284.379 299.102 301.381 297.898 318.273 296.038C319.547 295.898 321.373 296.064 321.944 294.616C322.56 293.065 322.028 269.774 321.972 267.68Z" fill="#9FE870"/>
<path d="M292.015 249.164C309.173 250.748 312.063 245.465 315.283 245.879C315.767 245.946 316.225 246.139 316.61 246.441C316.995 246.743 317.292 247.141 317.472 247.596C317.985 247.185 318.61 246.939 319.265 246.889C319.919 246.84 320.574 246.988 321.143 247.316L320.256 228.575C320.249 228.263 320.122 227.966 319.902 227.745C319.681 227.524 319.383 227.397 319.071 227.391C304.993 228.626 277.833 229.208 267.476 230.53C267.357 230.336 267.18 230.186 266.97 230.101C266.76 230.016 266.529 230.001 266.309 230.057C266.09 230.114 265.894 230.239 265.752 230.415C265.609 230.59 265.526 230.807 265.516 231.034C265.026 235.301 264.835 239.618 264.746 243.914C273.656 246.491 282.784 248.249 292.015 249.164Z" fill="#9FE870"/>
<path d="M259.868 278.648C259.227 278.678 258.585 278.678 257.944 278.648C257.944 278.972 258.166 290.786 258.21 292.146C258.156 293.585 258.265 295.025 258.535 296.439C258.737 297.181 259.958 297.279 260.103 296.439C260.68 293.224 259.868 294.112 259.868 278.648Z" fill="#9FE870"/>
<path d="M261.052 242.917C261.198 241.052 261.332 239.159 261.495 237.294C261.996 234.552 262.165 231.759 261.999 228.976C261.884 228.264 260.932 228.441 260.725 228.976C260.321 230.353 260.092 231.775 260.044 233.209C259.896 234.57 259.364 240.668 259.246 242.354C259.84 242.561 260.431 242.74 261.052 242.917Z" fill="#9FE870"/>
<path d="M290.181 201.771C289.766 201.919 288.966 201.415 288.641 201.239C287.664 200.704 286.807 202.21 287.781 202.717C289.769 203.748 292.715 203.753 292.667 200.824C292.521 199.488 292.097 198.197 291.424 197.033C290.741 195.436 289.823 193.949 288.7 192.623C288.341 192.242 287.58 192.623 287.781 193.155C289.072 196.498 292.27 201.02 290.181 201.771Z" fill="#163300"/>
<path d="M283.755 194.104C283.51 194.611 283.445 195.185 283.569 195.733C283.693 196.281 283.999 196.771 284.438 197.123C284.561 197.193 284.699 197.234 284.84 197.242C284.982 197.251 285.124 197.228 285.255 197.174C285.386 197.12 285.503 197.037 285.597 196.931C285.691 196.825 285.76 196.699 285.799 196.563C285.827 196.535 285.827 196.504 285.858 196.473C286.72 194.524 284.393 192.833 283.755 194.104Z" fill="#163300"/>
<path d="M291.127 193.984C291.129 194.219 291.2 194.449 291.331 194.644C291.463 194.84 291.649 194.992 291.866 195.082C292.069 195.307 292.324 195.479 292.608 195.583C293.544 195.877 294.134 194.41 293.555 193.452C293.425 193.2 293.216 192.997 292.959 192.876C292.703 192.755 292.413 192.722 292.136 192.783C291.859 192.844 291.61 192.995 291.427 193.212C291.245 193.429 291.139 193.701 291.127 193.984Z" fill="#163300"/>
<path d="M281.714 191.884C281.691 191.974 281.702 192.07 281.744 192.153C281.786 192.236 281.857 192.301 281.943 192.337C282.029 192.372 282.125 192.376 282.213 192.347C282.302 192.318 282.377 192.258 282.425 192.178C283.436 190.543 285.524 191.058 285.356 189.781C284.998 188.35 282.24 189.28 281.714 191.884Z" fill="#163300"/>
<path d="M292.281 189.249C291.837 188.873 291.311 188.607 290.745 188.474C290.179 188.34 289.589 188.342 289.024 188.479C288.907 188.519 288.805 188.594 288.733 188.694C288.661 188.795 288.622 188.915 288.622 189.039C288.622 189.163 288.661 189.284 288.733 189.384C288.805 189.485 288.907 189.56 289.024 189.599C289.442 189.77 289.887 189.801 290.329 189.955C290.772 190.109 291.169 190.308 291.572 190.487C292.222 190.728 292.821 189.686 292.281 189.249Z" fill="#163300"/>
<path d="M286.16 204.347C286.661 205.467 287.224 206.665 288.529 207.01C289.444 207.253 290.858 206.979 291.102 205.915C291.13 205.792 291.122 205.664 291.08 205.545C291.038 205.427 290.963 205.322 290.863 205.245C290.764 205.167 290.645 205.12 290.52 205.107C290.394 205.095 290.268 205.119 290.156 205.176C289.621 205.498 289.243 205.876 288.588 205.59C287.892 205.174 287.32 204.581 286.93 203.871C286.863 203.777 286.763 203.712 286.65 203.689C286.537 203.667 286.42 203.688 286.322 203.748C286.224 203.809 286.153 203.904 286.123 204.015C286.093 204.127 286.106 204.245 286.16 204.347Z" fill="#163300"/>
<path d="M273.958 195.11C274.464 195.49 275.142 194.757 274.817 194.25C273.778 193.121 273.125 191.69 272.952 190.165C272.995 189.47 273.294 188.817 273.792 188.331C274.24 187.922 274.677 187.855 275.005 187.354C275.044 187.288 275.07 187.215 275.081 187.139C275.091 187.063 275.087 186.986 275.068 186.911C275.049 186.837 275.015 186.767 274.968 186.706C274.922 186.645 274.864 186.594 274.798 186.556C273.118 185.612 271.561 188.157 271.334 189.543C271.239 190.62 271.432 191.703 271.893 192.681C272.354 193.659 273.067 194.497 273.958 195.11Z" fill="#163300"/>
<path d="M274.876 184.069C275.318 184.425 276.15 183.949 275.764 183.389C275.424 182.98 275.217 182.478 275.169 181.949C275.122 181.42 275.236 180.889 275.498 180.426C276.217 179.396 277.22 179.724 278.132 179.124C278.786 178.558 279.285 177.836 279.583 177.024C280.107 176.205 280.422 175.269 280.501 174.3C280.498 174.15 280.45 174.005 280.366 173.882C280.281 173.759 280.162 173.663 280.023 173.606C279.885 173.55 279.733 173.535 279.586 173.563C279.439 173.591 279.304 173.661 279.196 173.765C278.289 174.84 278.225 176.641 277.155 177.526C276.315 178.209 275.232 178.147 274.431 179.096C274.129 179.45 273.901 179.86 273.76 180.303C273.618 180.746 273.567 181.213 273.608 181.676C273.65 182.139 273.783 182.59 274.001 183.001C274.219 183.411 274.516 183.775 274.876 184.069Z" fill="#163300"/>
<path d="M287.93 174.863C287.991 174.752 288.027 174.63 288.034 174.503C288.041 174.377 288.02 174.251 287.972 174.134C287.924 174.018 287.85 173.913 287.756 173.829C287.662 173.745 287.55 173.683 287.428 173.648C286.574 173.53 286.381 174.174 285.236 176.106C284.886 176.7 284.528 177.285 283.755 177.226C283.654 177.229 283.555 177.262 283.472 177.319C283.388 177.376 283.322 177.455 283.282 177.548C283.242 177.641 283.229 177.744 283.245 177.844C283.26 177.944 283.304 178.038 283.371 178.114C285.418 179.858 287.244 176.252 287.93 174.863Z" fill="#163300"/>
<path d="M278.782 186.88C278.18 187.846 278.961 189.566 277.48 192.889C277.443 192.953 277.42 193.024 277.41 193.097C277.401 193.171 277.406 193.245 277.425 193.317C277.445 193.388 277.478 193.455 277.523 193.513C277.568 193.572 277.625 193.621 277.689 193.658C277.753 193.695 277.824 193.718 277.897 193.728C277.97 193.737 278.045 193.732 278.116 193.713C278.188 193.693 278.254 193.66 278.313 193.615C278.371 193.57 278.42 193.513 278.457 193.449C280.582 189.921 279.6 189.529 280.115 187.914C281.043 187.884 281.927 187.511 282.595 186.865C283.263 186.22 283.666 185.349 283.727 184.422C285.709 184.142 287.958 182.347 287.84 180.337C287.835 180.245 287.808 180.156 287.76 180.078C287.713 179.999 287.647 179.933 287.568 179.886C287.489 179.839 287.4 179.812 287.308 179.808C287.216 179.804 287.125 179.822 287.042 179.861C285.362 180.678 285.211 182.941 282.867 182.675C282.248 182.605 281.954 183.296 282.027 183.77C282.098 184.283 281.986 184.805 281.709 185.243C281.433 185.681 281.011 186.008 280.518 186.166C279.784 186.424 279.25 186.136 278.782 186.88Z" fill="#163300"/>
<path d="M287.605 185.548C288.588 185.212 289.479 184.652 290.208 183.913C290.937 183.173 291.484 182.274 291.805 181.286C292.923 181.419 294.054 181.192 295.034 180.639C296.014 180.085 296.791 179.232 297.254 178.206C297.28 178.1 297.279 177.988 297.25 177.883C297.22 177.777 297.164 177.681 297.086 177.604C297.009 177.526 296.912 177.471 296.807 177.442C296.701 177.413 296.59 177.412 296.484 177.439C294.952 177.66 293.852 179.959 291.421 179.362C291.187 179.301 290.937 179.335 290.727 179.456C290.517 179.578 290.364 179.778 290.301 180.012C289.868 181.858 288.759 183.474 287.193 184.542C286.72 184.876 286.955 185.763 287.605 185.548Z" fill="#163300"/>
<path d="M296.279 182.44C295.172 183.411 293.8 184.029 292.34 184.215C292.182 184.225 292.033 184.296 291.925 184.411C291.817 184.527 291.757 184.679 291.757 184.838C291.757 184.996 291.817 185.149 291.925 185.264C292.033 185.38 292.182 185.45 292.34 185.461C294.103 185.574 295.851 185.072 297.284 184.038C300.516 181.625 299.698 179.768 298.707 179.984C297.581 180.228 297.08 181.756 296.279 182.44Z" fill="#163300"/>
<path d="M297.402 186.85C298.949 186.812 300.418 186.164 301.487 185.046C304.366 182.087 303.8 179.782 302.887 180.368C301.129 181.488 300.625 184.934 297.203 185.408C296.366 185.514 296.604 186.872 297.402 186.85Z" fill="#163300"/>
<path d="M285.295 211.896C288.848 214.203 293.524 214.766 296.279 211.45C298.614 208.65 298.323 204.45 298.024 201.032C297.857 196.458 296.854 191.953 295.064 187.74C294.829 187.264 294.182 187.62 294.266 188.093C295.142 193.091 298.054 206.114 294.767 210C294.622 209.614 294.442 209.261 294.325 208.88C294.245 208.668 294.087 208.495 293.883 208.396C293.68 208.297 293.446 208.28 293.23 208.348C293.086 208.266 292.921 208.231 292.757 208.247C292.592 208.263 292.437 208.33 292.312 208.438C292.159 208.337 291.975 208.296 291.794 208.324C291.614 208.351 291.45 208.444 291.334 208.586C291.176 208.548 291.011 208.553 290.855 208.6C290.699 208.646 290.558 208.733 290.447 208.852C290.349 208.738 290.216 208.661 290.07 208.632C289.923 208.603 289.77 208.624 289.637 208.693C289.504 208.761 289.397 208.872 289.335 209.008C289.273 209.144 289.258 209.297 289.293 209.443C289.441 210.201 289.732 210.924 290.15 211.574C287.85 211.164 285.778 209.933 284.318 208.11C283.456 206.879 282.675 205.594 281.98 204.263C281.939 204.197 281.889 204.137 281.831 204.086C282.341 203.064 281.674 202.322 280.991 202.546C280.218 202.801 279.63 203.442 278.771 203.493C278.243 203.463 277.734 203.286 277.302 202.981C276.87 202.676 276.533 202.255 276.329 201.768C276.124 201.28 276.061 200.745 276.146 200.223C276.232 199.701 276.462 199.214 276.811 198.817C277.578 197.926 278.589 198.176 279.611 198.016C279.695 197.993 279.773 197.95 279.838 197.891C279.903 197.833 279.953 197.76 279.985 197.678C280.017 197.596 280.029 197.508 280.02 197.421C280.011 197.334 279.982 197.25 279.936 197.176C278.992 195.605 276.682 196.143 275.526 197.176C274.68 197.907 274.119 198.913 273.941 200.017C273.762 201.12 273.978 202.251 274.55 203.212C275.122 204.172 276.014 204.901 277.069 205.27C278.125 205.638 279.276 205.624 280.322 205.229C280.816 207.49 282.095 209.504 283.931 210.913C283.583 212.873 282.737 214.712 281.476 216.252C281.019 215.9 280.739 215.544 280.885 215.264C281.084 214.875 280.65 214.259 280.232 214.584C277.55 216.67 283.786 219.464 285.236 219.733C287.109 220.06 289.033 219.959 290.861 219.436C293.046 219.057 295.096 218.119 296.811 216.714C296.906 216.613 296.969 216.486 296.994 216.35C297.019 216.213 297.004 216.073 296.951 215.944C296.897 215.816 296.808 215.706 296.694 215.627C296.58 215.548 296.446 215.504 296.307 215.499C294.921 215.738 293.589 216.219 292.37 216.922C290.91 217.655 289.305 218.055 287.672 218.093C286.038 218.131 284.416 217.807 282.923 217.143C283.7 216.514 284.319 215.711 284.731 214.8C285.143 213.889 285.336 212.895 285.295 211.896Z" fill="#163300"/>
<path d="M302.022 266.512C295.778 267.702 292.303 270.348 277.662 271.603C268.277 272.603 258.791 272.023 249.598 269.886C246.326 268.805 243.277 267.14 240.598 264.972C227.693 255.623 231.129 238.932 243.118 229.093C252.638 221.273 264.911 219.103 276.36 215.477C276.48 215.428 276.578 215.337 276.635 215.221C276.692 215.105 276.705 214.972 276.67 214.848C276.636 214.723 276.556 214.615 276.447 214.546C276.339 214.476 276.208 214.448 276.08 214.469C265.009 216.709 253.352 219.394 244.02 226.075C235.945 231.854 229.858 240.817 230.58 251.118C231.106 258.6 234.5 264.958 246.12 270.626C252.58 273.776 266.09 274.193 273.266 273.851C278.747 273.603 284.201 272.93 289.579 271.838C294.171 271.314 298.589 269.778 302.515 267.338C302.91 266.955 302.436 266.431 302.022 266.512Z" fill="#163300"/>
<path d="M302.702 253.072C302.697 252.886 302.62 252.708 302.488 252.576C302.356 252.444 302.178 252.367 301.991 252.361C300.244 252.235 298.438 252.081 296.671 251.947C276.427 250.454 261.419 244.574 258.129 244.457C257.964 244.461 257.805 244.518 257.675 244.621C257.545 244.723 257.451 244.864 257.408 245.024C257.365 245.183 257.375 245.352 257.436 245.506C257.496 245.66 257.605 245.79 257.746 245.876C260.952 247.836 289.584 254.78 301.288 253.812C301.128 257.893 301.414 261.98 302.14 266C302.179 266.118 302.259 266.218 302.365 266.284C302.471 266.349 302.596 266.375 302.719 266.357C302.843 266.34 302.956 266.28 303.039 266.187C303.122 266.095 303.171 265.976 303.176 265.852C302.803 261.603 302.645 257.337 302.702 253.072Z" fill="#163300"/>
<path d="M263.715 243.746C263.805 239.691 263.953 235.626 263.953 231.61C263.953 231.504 263.911 231.402 263.836 231.327C263.761 231.252 263.659 231.21 263.553 231.21C263.447 231.21 263.345 231.252 263.27 231.327C263.195 231.402 263.152 231.504 263.152 231.61C262.847 235.494 262.503 239.394 262.296 243.331C262.769 243.452 263.242 243.6 263.715 243.746Z" fill="#9FE870"/>
<path d="M264.071 289.335C263.967 286.583 263.774 279.238 263.774 278.323C263.183 278.382 262.562 278.471 261.968 278.499C262.623 297.508 262.578 296.22 262.917 297.119C262.96 297.254 263.044 297.372 263.159 297.456C263.273 297.54 263.411 297.585 263.553 297.585C263.695 297.585 263.833 297.54 263.947 297.456C264.061 297.372 264.146 297.254 264.188 297.119C264.533 295.817 264.32 295.551 264.071 289.335Z" fill="#9FE870"/>
<path d="M305.455 253.12C307.334 253.346 309.236 252.984 310.901 252.084C312.32 251.524 314.334 250.908 314.838 249.329C314.855 249.264 314.858 249.196 314.846 249.13C314.834 249.064 314.807 249.002 314.767 248.948C314.727 248.894 314.675 248.85 314.616 248.819C314.556 248.788 314.49 248.771 314.423 248.769C312.827 248.606 311.195 250.065 309.747 250.603C308.178 250.916 306.663 251.455 305.248 252.202C305.174 252.265 305.119 252.346 305.088 252.438C305.058 252.53 305.053 252.629 305.074 252.723C305.095 252.818 305.142 252.905 305.209 252.975C305.276 253.045 305.361 253.095 305.455 253.12Z" fill="#163300"/>
<path d="M308.059 256.95C314.499 257.701 319.651 253.498 319.9 250.172C319.964 249.312 318.8 249.158 318.391 249.754C317.939 250.604 317.435 251.426 316.882 252.213C314.485 254.974 310.803 255.293 307.972 255.973C307.852 255.996 307.744 256.062 307.67 256.16C307.596 256.257 307.561 256.379 307.572 256.501C307.582 256.623 307.638 256.737 307.728 256.82C307.818 256.903 307.936 256.949 308.059 256.95Z" fill="#163300"/>
<path d="M311.108 260.68C313.68 260.781 316.219 260.065 318.36 258.636C319.64 257.874 322.417 256.116 321.588 254.344C321.544 254.258 321.475 254.188 321.391 254.141C321.307 254.093 321.211 254.071 321.115 254.078C320.345 254.136 320.141 254.495 319.665 255.055C317.283 257.398 314.249 258.966 310.96 259.554C310.24 259.708 310.486 260.616 311.108 260.68Z" fill="#163300"/>
<path d="M311.937 264.438C313.865 264.779 315.853 264.51 317.621 263.668C319.04 263.068 321.314 262.268 321.944 260.739C322.09 260.383 321.737 260.084 321.44 260.058C320.04 259.93 318.66 261.276 317.444 261.892C315.778 262.747 313.954 263.252 312.085 263.374C311.494 263.407 311.287 264.32 311.937 264.438Z" fill="#163300"/>
<path d="M306.401 267.873C308.566 268.536 310.844 268.748 313.093 268.495C314.773 268.318 317.43 268.092 318.413 266.571C318.46 266.491 318.488 266.402 318.495 266.31C318.502 266.218 318.487 266.125 318.453 266.039C318.419 265.953 318.365 265.876 318.297 265.814C318.228 265.752 318.146 265.707 318.058 265.681C316.179 265.244 314.314 267.501 306.578 266.599C305.81 266.51 305.721 267.663 306.401 267.873Z" fill="#163300"/>
<path d="M334.614 243.303C330.818 243.595 327.248 245.22 324.534 247.89C324.173 248.332 324.503 249.11 325.125 248.926C326.438 248.435 327.714 247.852 328.944 247.181C331.049 245.989 333.445 245.41 335.862 245.508C338.278 245.607 340.619 246.381 342.619 247.741C352.481 255.142 348.219 273.031 344.898 285.186C340.186 302.45 333.62 315.188 329.269 325.889C327.911 324.534 318.968 325.032 317.044 325.181C316.977 321.875 317.016 318.567 317.162 315.263C317.548 307.068 318.03 306.51 317.517 304.458C317.474 304.32 317.392 304.198 317.282 304.105C317.171 304.013 317.036 303.954 316.893 303.935C316.75 303.916 316.605 303.939 316.474 304.001C316.344 304.062 316.233 304.16 316.156 304.282C314.496 307.513 314.53 322.826 314.675 326.452C314.679 326.765 314.805 327.064 315.026 327.285C315.247 327.507 315.547 327.633 315.86 327.636C318.1 327.415 320.34 327.281 322.58 327.281C324.692 327.573 326.835 327.563 328.944 327.253C329.031 327.233 329.112 327.191 329.179 327.132C329.274 327.239 329.392 327.323 329.524 327.377C329.656 327.432 329.798 327.456 329.941 327.447C330.083 327.439 330.222 327.398 330.347 327.329C330.471 327.259 330.578 327.162 330.66 327.046C334.183 320.303 337.315 313.365 340.043 306.264C345.033 294.092 351.243 275.744 351.176 262.542C351.1 248.942 342.633 242.365 334.614 243.303Z" fill="#163300"/>
<path d="M330.291 351.705C308.846 368.225 238.823 423.158 228.34 428.672C217.927 434.148 207.917 430.73 194.978 427.96C73.6848 402.016 77.938 403.645 75.0316 401.764C73.9255 401.17 73.0777 400.189 72.6513 399.009C72.2249 397.828 72.2499 396.532 72.7216 395.368C72.8162 395.192 72.8384 394.986 72.7837 394.794C72.7289 394.601 72.6015 394.438 72.4283 394.338C72.2551 394.238 72.0497 394.209 71.8557 394.257C71.6617 394.306 71.4943 394.428 71.3888 394.598C69.1712 398.518 72.2568 402.604 75.8296 404.191C78.1116 405.205 70.3388 403.592 199.833 431.337C205.461 432.84 211.24 433.703 217.062 433.91C228.628 433.728 236.6 426.07 249.626 416.475C262.506 406.983 275.173 397.236 287.781 387.377C303.296 375.245 319.278 363.664 334.541 351.232C332.64 351.506 331.873 351.532 330.291 351.705Z" fill="#163300"/>
<path d="M542.422 274.977C540.462 282.8 534.265 311.937 532.711 318.612C529.949 330.806 526.56 342.85 522.558 354.696C521.847 357.07 521.48 357.216 518.829 356.936C518.501 356.902 493.881 355.44 481.292 355.485C481.132 355.505 480.984 355.582 480.875 355.702C480.767 355.822 480.705 355.976 480.702 356.138C480.698 356.3 480.753 356.457 480.857 356.581C480.96 356.706 481.105 356.789 481.264 356.815C495.653 358.128 519.994 359.008 520.279 359.008C520.931 359.078 521.59 358.969 522.185 358.692C522.779 358.415 523.287 357.981 523.653 357.437C524.426 356.07 524.985 354.593 525.311 353.058C525.921 350.708 527.066 347.346 527.856 344.739C535.212 320.466 537.981 302.59 544.494 275.204C544.88 274.039 542.746 273.672 542.422 274.977Z" fill="#163300"/>
<path d="M519.064 325.27C519.042 325.447 519.084 325.626 519.182 325.775C519.28 325.924 519.428 326.033 519.599 326.083C519.77 326.133 519.953 326.12 520.116 326.047C520.279 325.974 520.41 325.846 520.486 325.685C522.858 318.489 523.438 313.975 530.286 282.674C530.329 282.377 530.254 282.074 530.077 281.831C529.9 281.588 529.636 281.424 529.34 281.372C473.385 275.363 476.249 275.674 472.326 275.657C472.118 275.645 471.913 275.712 471.752 275.845C471.591 275.979 471.487 276.168 471.461 276.375C471.434 276.582 471.488 276.792 471.61 276.961C471.732 277.13 471.914 277.247 472.119 277.287C476.193 278.023 471.971 277.458 527.89 283.472C521.374 312.707 520.072 317.078 519.064 325.27Z" fill="#163300"/>
<path d="M369.72 308.398C369.906 308.239 370.022 308.014 370.045 307.771C370.067 307.528 369.994 307.286 369.841 307.096C364.994 301.277 357.58 295.056 355.513 288.714C353.483 282.481 358.156 276.475 363.891 273.703C366.507 272.286 369.479 271.659 372.445 271.9C379.285 272.91 383.309 279.387 383.692 285.872C383.476 289.723 383.021 293.557 382.332 297.352C382.145 299.166 382.38 300.999 383.016 302.708C383.653 304.417 384.675 305.957 386.002 307.208C386.161 307.358 386.367 307.447 386.584 307.459C386.802 307.471 387.017 307.406 387.191 307.274C387.365 307.143 387.487 306.954 387.535 306.742C387.583 306.529 387.554 306.306 387.453 306.113C386.519 304.541 385.755 302.874 385.174 301.14C383.754 295.82 387.052 291.39 385.944 283.881C385.589 280.521 384.212 277.351 382 274.797C379.788 272.244 376.846 270.43 373.57 269.601C370.417 269.231 367.222 269.645 364.268 270.807C361.313 271.969 358.692 273.843 356.636 276.262C351.316 282.178 351.641 288.131 356.014 294.44C359.791 299.348 363.917 303.977 368.36 308.291C368.527 308.484 368.764 308.603 369.018 308.622C369.273 308.642 369.525 308.562 369.72 308.398Z" fill="#9FE870"/>
<path d="M381.413 316.68C384.747 315.29 387.585 312.928 389.556 309.901C389.642 309.747 389.671 309.566 389.635 309.393C389.599 309.219 389.502 309.064 389.362 308.956C389.221 308.849 389.047 308.795 388.87 308.806C388.693 308.816 388.526 308.89 388.399 309.014C386.512 310.732 384.482 312.287 382.332 313.662C381.874 314.615 381.564 315.633 381.413 316.68Z" fill="#9FE870"/>
<path d="M396.984 317.428C396.802 317.373 396.614 317.343 396.424 317.338C396.547 316.672 396.49 315.985 396.259 315.348C396.027 314.711 395.63 314.148 395.108 313.716C394.586 313.284 393.957 313 393.288 312.893C392.62 312.785 391.934 312.858 391.303 313.104C389.262 313.844 387.895 316 386.095 317.19C384.627 318.109 383.056 318.854 381.416 319.41C381.507 320.057 381.667 320.692 381.892 321.306C384.202 320.769 386.365 319.728 388.226 318.256C389.293 317.175 390.441 316.175 391.658 315.266C392.001 315.036 392.41 314.922 392.822 314.942C393.235 314.962 393.63 315.115 393.95 315.377C394.269 315.64 394.495 315.998 394.594 316.399C394.693 316.801 394.66 317.223 394.5 317.604C392.278 318.714 390.184 320.064 388.256 321.63C387.179 322.248 386.141 322.929 385.146 323.672C385.013 323.806 384.923 323.977 384.888 324.162C384.852 324.348 384.872 324.54 384.945 324.714C385.018 324.888 385.141 325.037 385.298 325.141C385.455 325.246 385.64 325.301 385.829 325.301C388.612 325.097 390.919 322.608 393.14 321.101C393.792 320.656 397.306 318.494 397.06 320.774C396.906 322.106 394.218 323.38 393.24 324.061C391.14 325.517 389.04 326.931 386.817 328.205C386.75 329.378 385.417 330.165 385.899 331.43C388.754 329.867 391.521 328.148 394.187 326.281C395.903 325.097 398.359 323.912 399.19 321.868C399.388 321.436 399.487 320.965 399.48 320.49C399.472 320.015 399.358 319.547 399.147 319.121C398.935 318.696 398.631 318.323 398.257 318.03C397.883 317.737 397.448 317.531 396.984 317.428Z" fill="#9FE870"/>
<path d="M373.125 283.178C373.846 283.482 374.478 283.963 374.962 284.578C377.04 287.098 375.6 290.618 375.642 293.577C375.712 298.701 377.658 305.444 382.066 308.498C382.746 308.972 383.524 308.05 383.16 307.404C380.759 304.36 379.06 300.822 378.188 297.044C377.101 291.39 378.927 288.571 377.891 285.44C377.303 283.662 373.652 279.129 371.647 281.652C371.206 282.296 370.978 283.061 370.994 283.842C370.182 283.424 369.272 283.23 368.36 283.282C367.206 283.385 366.702 284.402 366.526 285.592C364.084 284.894 361.673 287.622 362.972 291.217C364.51 295.473 368.785 299.998 372.445 304.982C372.621 305.22 374.514 304.626 373.125 302.761C369.949 299.056 367.171 295.027 364.837 290.741C364.423 289.646 364.244 287.339 366.022 287.515C366.624 287.636 366.411 287.47 366.554 288.635C366.73 290.088 367.83 293.916 369.958 293.342C372.42 292.676 370.818 288.694 368.39 286.681C368.374 286.305 368.445 285.93 368.598 285.586C368.852 285.107 368.631 285.158 369.278 285.438C369.918 285.682 370.541 285.969 371.143 286.297C371.46 287.838 372.162 289.273 373.184 290.469C373.305 290.592 373.458 290.68 373.625 290.722C373.793 290.764 373.968 290.759 374.133 290.707C376.261 290.147 375.2 287.655 374.279 286.507C373.874 286.016 373.429 285.56 372.949 285.144C372.887 284.483 372.947 283.817 373.125 283.178Z" fill="#9FE870"/>
<path d="M368.684 310.587C361.83 323.448 363.852 328.619 369.337 335.07C375.239 342.012 374.814 343.532 377.656 352.178C380.122 359.694 385.185 370.569 392.19 374.382C398.07 377.583 404.592 375.337 406.073 371.776C406.353 371.126 405.72 370.18 405.068 370.681C403.533 372.137 401.645 373.167 399.591 373.671C391.656 374.959 386.243 366.671 382.718 359.52C378.658 351.31 377.997 342.84 373.036 336.49C371.296 334.532 369.656 332.487 368.122 330.364C364.274 324.265 366.976 317.134 369.522 311.122C369.768 310.52 369.015 309.96 368.684 310.587Z" fill="#163300"/>
<path d="M427 291.88C427.65 291.81 428.299 291.659 428.96 291.525C429.621 291.473 430.27 291.323 430.886 291.08C431.017 291.002 431.121 290.888 431.188 290.751C431.254 290.615 431.28 290.462 431.261 290.311C431.242 290.161 431.179 290.019 431.081 289.903C430.983 289.788 430.853 289.703 430.707 289.66C429.307 289.532 427.9 289.809 426.653 290.458C426.023 290.839 426.261 291.959 427 291.88Z" fill="#163300"/>
<path d="M424.782 296.884C424.35 296.484 423.872 296.136 423.36 295.845C424.395 294.341 424.837 292.507 424.603 290.696C424.578 290.102 423.657 290.102 423.688 290.696C423.709 292.523 423.055 294.294 421.851 295.669C421.794 295.757 421.763 295.859 421.763 295.964C421.763 296.069 421.794 296.172 421.851 296.26C422.416 297.067 423.226 297.669 424.161 297.979C424.299 298.014 424.446 298.003 424.578 297.947C424.709 297.891 424.819 297.793 424.89 297.669C424.961 297.544 424.988 297.4 424.969 297.258C424.949 297.116 424.884 296.985 424.782 296.884Z" fill="#163300"/>
<path d="M430.08 298.542C430.074 298.367 430.012 298.199 429.903 298.063C429.795 297.926 429.646 297.827 429.477 297.781C429.309 297.735 429.13 297.743 428.967 297.806C428.804 297.868 428.665 297.981 428.571 298.127C426.611 301.028 424.586 300.087 422.918 300.317C422.827 300.32 422.738 300.349 422.664 300.401C422.589 300.453 422.531 300.526 422.496 300.61C422.462 300.694 422.452 300.787 422.469 300.876C422.485 300.966 422.527 301.049 422.59 301.115C423.499 301.753 424.607 302.042 425.712 301.928C426.817 301.814 427.843 301.304 428.602 300.493C428.626 302.113 428.136 303.7 427.202 305.024C425.802 306.561 425.272 304.73 424.892 303.722C424.717 303.065 424.307 302.495 423.738 302.123C422.954 301.627 422.464 303.948 424.063 306.298C425.93 309.028 431.2 307.44 430.08 298.542Z" fill="#163300"/>
<path d="M423.954 316.716C417.48 315.876 411.02 320.863 407.081 325.567C402.619 331.545 399.26 338.272 397.163 345.43C397.121 345.589 397.137 345.758 397.209 345.905C397.281 346.053 397.404 346.17 397.555 346.234C397.706 346.299 397.875 346.307 398.031 346.257C398.188 346.207 398.321 346.103 398.406 345.962C400.627 342.261 403.726 327.743 414.954 320.891C417.792 319.334 420.844 318.206 424.012 317.545C424.111 317.523 424.198 317.467 424.258 317.386C424.318 317.306 424.347 317.206 424.34 317.105C424.333 317.005 424.29 316.91 424.219 316.839C424.148 316.768 424.054 316.724 423.954 316.716Z" fill="#163300"/>
<path d="M414.865 333.441C403.564 344.098 409.968 351.179 411.639 357.834C413.174 363.952 411.701 365.554 412.171 368.253C412.215 368.403 412.301 368.536 412.419 368.637C412.538 368.738 412.683 368.802 412.837 368.821C412.992 368.84 413.148 368.813 413.288 368.744C413.427 368.675 413.543 368.567 413.622 368.432C414.22 367.125 414.494 365.693 414.42 364.258C414.66 358.417 412.866 355.16 411.253 350.538C408.632 343.045 411.572 340.161 415.842 334.169C416.262 333.592 415.369 332.968 414.865 333.441Z" fill="#163300"/>
<path d="M414.333 500.044C414.153 496.987 413.886 493.937 413.532 490.896C413.565 488.311 413.019 485.752 411.933 483.406C409.802 480.122 403.113 479.027 401.248 482.992C397.328 488.872 404.527 502.155 409.212 507.444C410.365 508.746 412.476 509.608 413.532 507.679C414.425 505.239 414.7 502.616 414.333 500.044Z" fill="#163300"/>
<path d="M363.622 481.779C361.284 479.388 357.613 480.298 353.735 479.234C349.304 477.927 344.796 476.898 340.236 476.154C337.812 475.836 335.358 475.806 332.926 476.064C331.71 476.207 330.156 476.221 329.372 477.308C328.558 478.442 329.403 479.5 330.232 480.298C332.673 482.554 335.474 484.385 338.52 485.716C350.56 491.35 354.404 493.424 358.355 494.094C361.55 494.634 363.283 492.61 364.216 489.801C365.061 487.25 365.747 483.946 363.622 481.779Z" fill="#163300"/>
<path d="M401.335 357.686C400.316 349.521 393.596 342.653 387.187 337.526C385.787 336.406 383.233 334.558 382.805 332.17C382.784 331.515 382.634 330.87 382.362 330.274C382.318 330.2 382.257 330.138 382.185 330.091C382.113 330.044 382.031 330.014 381.945 330.002C381.86 329.991 381.773 329.999 381.691 330.026C381.609 330.052 381.534 330.097 381.472 330.156C379.54 331.892 382.032 335.395 383.368 336.728C386.705 340.066 396.376 345.573 400.627 357.893C400.744 358.4 401.4 358.187 401.335 357.686Z" fill="#163300"/>
<path d="M370.224 322.076C370.106 318.342 370.92 314.638 372.593 311.298C373.01 310.531 373.629 309.966 373.332 309.058C373.299 308.972 373.242 308.896 373.17 308.839C373.097 308.781 373.01 308.744 372.918 308.731C371.823 308.851 371.56 309.77 371.112 310.716C369.283 314.238 368.691 318.272 369.432 322.171C369.457 322.264 369.515 322.346 369.596 322.4C369.676 322.454 369.773 322.478 369.869 322.466C369.966 322.455 370.054 322.409 370.12 322.337C370.185 322.265 370.222 322.173 370.224 322.076Z" fill="#163300"/>
<path d="M374.576 322.193C377.21 314.896 380.176 313.827 380.615 311.802C380.64 311.712 380.64 311.617 380.616 311.526C380.592 311.436 380.544 311.354 380.478 311.287C380.412 311.221 380.329 311.174 380.239 311.15C380.148 311.125 380.053 311.126 379.963 311.15C378.098 311.595 376.754 314.045 375.85 315.591C374.707 317.548 373.924 319.694 373.54 321.927C373.504 322.065 373.525 322.21 373.597 322.332C373.67 322.455 373.787 322.543 373.925 322.578C374.062 322.613 374.208 322.593 374.33 322.521C374.452 322.448 374.54 322.331 374.576 322.193Z" fill="#163300"/>
<path d="M470.814 362.127C465.172 359.495 458.352 361.119 452.519 362.687C452.645 358.177 451.829 353.69 450.122 349.513C449.915 348.978 448.938 348.981 449.025 349.661C449.772 353.174 450.316 356.726 450.654 360.301C449.072 360.077 446.695 367.447 446.331 369.242C446.125 370.418 445.977 371.604 445.889 372.795C445.586 374.615 445.418 376.455 445.385 378.3C445.39 378.512 445.471 378.715 445.612 378.873C445.754 379.031 445.947 379.133 446.157 379.162C446.367 379.19 446.581 379.143 446.759 379.029C446.938 378.915 447.07 378.74 447.132 378.538C447.65 375.629 448.005 372.694 448.196 369.746C448.71 367.484 449.506 365.296 450.565 363.233C450.537 363.499 450.534 363.737 450.506 364.003C450.508 364.153 450.544 364.302 450.612 364.436C450.679 364.571 450.777 364.688 450.897 364.779C451.017 364.87 451.156 364.933 451.303 364.963C451.451 364.992 451.604 364.988 451.749 364.949C458.926 363.065 463.358 362.001 470.044 363.972C471.111 364.28 471.881 362.625 470.814 362.127Z" fill="#163300"/>
<path d="M468.266 364.938C465.329 377.126 476.266 388.62 479.814 401.142C482.462 410.497 482.723 417.53 488.989 425.06C490.966 427.096 492.525 429.5 493.578 432.135C494.724 436.842 494.975 441.722 494.318 446.522C494.319 446.62 494.35 446.717 494.405 446.798C494.461 446.88 494.539 446.944 494.631 446.982C494.722 447.02 494.822 447.03 494.92 447.011C495.017 446.993 495.106 446.946 495.177 446.877C497.381 444.774 496.922 438.259 496.479 435.243C495.3 427.26 491.859 425.897 488.723 421.182C483.916 413.96 483.736 404.382 480.287 395.844C475.636 384.331 469.188 378.277 469.392 365.044C469.375 364.914 469.315 364.793 469.22 364.702C469.125 364.61 469.003 364.554 468.872 364.542C468.741 364.529 468.61 364.562 468.5 364.634C468.39 364.706 468.307 364.813 468.266 364.938Z" fill="#163300"/>
<path d="M452.43 365.086C450.036 373.447 456.876 387.453 460.83 394.836C469.904 411.754 473.561 414.697 475.364 419.376C477.63 425.256 474.485 436.716 476.902 442.495C476.971 442.702 477.117 442.875 477.31 442.978C477.502 443.081 477.727 443.107 477.938 443.051C478.149 442.995 478.33 442.86 478.446 442.675C478.561 442.489 478.602 442.267 478.559 442.053C477.254 435.168 478.901 426.759 478.058 421.45C477.492 418.753 476.373 416.203 474.771 413.96C465.774 399.98 453.012 380.92 453.695 365.204C453.734 364.496 452.634 364.375 452.43 365.086Z" fill="#163300"/>
<path d="M482.566 433.852C483.387 437.905 483.305 442.089 482.328 446.107C481.872 447.318 481.641 448.602 481.648 449.896C481.651 449.983 481.679 450.068 481.729 450.141C481.778 450.213 481.848 450.27 481.928 450.304C482.009 450.339 482.098 450.349 482.185 450.335C482.271 450.321 482.352 450.282 482.418 450.223C484.394 448.56 484.571 444.833 484.756 442.408C484.971 439.415 484.651 436.407 483.809 433.527C483.757 433.372 483.648 433.243 483.505 433.166C483.361 433.088 483.194 433.068 483.036 433.109C482.878 433.15 482.742 433.25 482.655 433.388C482.567 433.525 482.536 433.691 482.566 433.852Z" fill="#163300"/>
<path d="M487.539 435.924C488.407 439.638 488.366 443.507 487.421 447.202C487.034 448.207 486.804 449.266 486.738 450.341C486.746 450.443 486.783 450.541 486.843 450.625C486.903 450.708 486.986 450.773 487.08 450.812C487.175 450.852 487.279 450.865 487.381 450.849C487.482 450.834 487.578 450.791 487.656 450.724C489.189 448.693 489.974 446.195 489.877 443.652C490.098 440.925 489.704 438.183 488.723 435.63C488.681 435.476 488.58 435.346 488.443 435.266C488.305 435.185 488.142 435.162 487.988 435.2C487.834 435.239 487.7 435.336 487.616 435.471C487.533 435.606 487.505 435.768 487.539 435.924Z" fill="#163300"/>
<path d="M491.03 435.184C491.42 438.089 491.48 441.028 491.21 443.946C490.879 445.99 489.647 448.563 490.65 450.548C490.689 450.615 490.745 450.671 490.813 450.71C490.88 450.749 490.957 450.77 491.035 450.77C491.113 450.77 491.189 450.749 491.257 450.71C491.324 450.671 491.38 450.615 491.42 450.548C491.846 449.382 492.134 448.169 492.276 446.936C493.322 443.028 493.25 438.905 492.069 435.036C492.031 434.916 491.952 434.814 491.845 434.747C491.738 434.68 491.612 434.653 491.487 434.671C491.362 434.688 491.248 434.75 491.165 434.844C491.081 434.938 491.033 435.059 491.03 435.184Z" fill="#163300"/>
<path d="M399.028 349.16C399.896 350.28 402.018 350.403 403.29 350.876C404.712 351.408 406.4 352.691 407.968 352.596C408.069 352.596 408.167 352.569 408.253 352.518C408.34 352.467 408.411 352.393 408.459 352.306C408.507 352.218 408.531 352.119 408.528 352.018C408.525 351.918 408.495 351.821 408.442 351.736C407.702 350.255 405.485 349.628 404.032 349.101C402.702 348.62 400.448 347.651 399.087 348.449C399.033 348.49 398.989 348.541 398.957 348.6C398.925 348.659 398.905 348.724 398.9 348.791C398.894 348.858 398.903 348.926 398.925 348.989C398.947 349.053 398.982 349.111 399.028 349.16Z" fill="#163300"/>
<path d="M401.898 396.052C400.537 392.241 397.874 389.032 394.38 386.991C392.388 385.833 390.091 385.312 387.795 385.497C385.498 385.683 383.314 386.565 381.534 388.027C377.614 391.759 377.132 397.323 377.054 402.416C377.07 407.956 377.406 413.491 378.062 418.992C378.062 419.401 379.66 427.143 380.341 429.912C383.972 446.063 389.075 461.849 395.584 477.07C400.121 474.759 405.149 473.581 410.239 473.634C410.2 454.471 407.361 412.208 401.898 396.052Z" fill="#9FE870"/>
<path d="M450.537 370.356C445.111 365.671 438.767 362.172 431.911 360.082C425.054 357.991 417.837 357.357 410.721 358.218L409.744 358.515C408.204 361.771 406.664 365.056 405.126 368.315C413.898 369.291 422.321 372.301 429.724 377.107C430.665 377.712 431.816 378.283 432.27 379.327C432.426 379.68 432.242 380.19 431.796 380.167C429.584 380.008 428.173 377.174 418.356 373.388C408.64 369.642 403.175 370.076 402.993 368.978C390.552 368.463 386.781 368.088 382.567 368.623C370.224 370.194 359.979 379.725 354.62 390.944C349.261 402.164 348.085 414.893 347.754 427.344C347.351 442.706 348.133 458.076 350.092 473.318L350.804 473.939C355.866 472.989 361.03 472.701 366.167 473.082C366.344 453.958 371.524 438.082 376.793 417.133C376.16 414.232 375.804 411.278 375.729 408.31C375.281 399.722 374.853 389.304 382.388 384.896C384.535 383.826 386.924 383.329 389.32 383.454C391.717 383.578 394.04 384.32 396.066 385.608C402.786 389.928 404.939 396.668 405.714 404.67C414.553 407.359 423.969 407.513 432.891 405.115C448.224 399.479 450.772 381.041 450.537 370.356Z" fill="#9FE870"/>
<path d="M472.797 353.57C471.663 339.385 467.334 326.102 454.798 319.351C454.712 310.905 453.74 302.492 451.898 294.249C450.428 287.675 448.818 279.832 444.024 274.739C444.915 274.056 445.599 273.139 446.002 272.091C446.404 271.043 446.508 269.904 446.303 268.8C445.968 267.306 445.238 265.93 444.188 264.816C443.139 263.701 441.809 262.89 440.338 262.466C438.867 262.042 437.309 262.022 435.827 262.407C434.346 262.792 432.995 263.569 431.917 264.656C431.069 265.359 430.442 266.292 430.112 267.342C429.781 268.393 429.76 269.516 430.052 270.578C427.048 271.064 424.259 272.441 422.048 274.531C419.836 276.621 418.303 279.327 417.648 282.299C417.186 284.754 417.558 284.446 418.802 286.219C415.976 290.419 412.698 311.058 413.031 315.171C413.035 315.317 413.09 315.458 413.187 315.567C413.285 315.677 413.418 315.749 413.563 315.77C413.708 315.791 413.856 315.76 413.98 315.683C414.105 315.605 414.198 315.487 414.243 315.347C415.184 311.808 414.84 309.879 416.819 299.421C417.223 297.264 417.677 295.117 418.18 292.981C418.056 294.477 418.016 295.98 418.062 297.48C418.286 303.988 420.946 312.388 427.417 311.956C427.789 313.919 427.829 315.93 427.535 317.906C427.133 317.623 426.748 317.316 426.381 316.988C426.282 316.905 426.158 316.858 426.028 316.856C425.899 316.854 425.773 316.897 425.672 316.978C425.57 317.058 425.5 317.171 425.473 317.298C425.445 317.424 425.463 317.556 425.522 317.671C426.619 319.475 428.356 320.799 430.385 321.38C432.415 321.961 434.589 321.757 436.475 320.807C436.503 320.779 436.534 320.779 436.562 320.748C436.562 323.708 436.481 326.698 436.416 329.63C436.423 329.878 436.517 330.116 436.684 330.301C436.85 330.486 437.077 330.605 437.323 330.637C437.569 330.669 437.819 330.612 438.027 330.476C438.235 330.34 438.388 330.135 438.458 329.896C439.656 325.774 439.11 326.816 439.11 317.64C441.885 317.897 444.63 318.413 447.308 319.18C449.3 319.513 451.227 320.151 453.023 321.073C453.166 321.17 453.332 321.227 453.503 321.237C453.675 321.248 453.847 321.213 454 321.135C455.907 322.381 457.688 323.808 459.32 325.396C471.64 337.518 469.787 355.916 470.982 360.002C471.03 360.152 471.125 360.284 471.252 360.377C471.38 360.47 471.534 360.521 471.692 360.521C471.85 360.521 472.004 360.47 472.132 360.377C472.259 360.284 472.354 360.152 472.402 360.002C473.026 357.916 473.161 355.716 472.797 353.57ZM431.077 277.581C432.471 278.901 433.58 280.493 434.333 282.26C435.242 283.748 435.598 285.508 435.338 287.232C435.224 287.56 434.745 287.792 434.479 287.47C433.681 286.061 433.064 284.555 432.645 282.99C431.876 281.417 430.975 279.912 429.951 278.491C429.453 277.735 430.494 277.049 431.088 277.581H431.077ZM425.225 309.4C423.829 308.543 422.725 307.284 422.058 305.788C420.069 301.011 419.486 295.765 420.378 290.668C420.463 290.696 420.543 290.736 420.616 290.788C420.941 290.965 421.296 291.113 421.621 291.29C422.54 291.794 423.338 290.377 422.422 289.89C421.856 289.547 421.234 289.307 420.585 289.181C420.795 288.138 420.905 287.078 420.913 286.014C422.469 283.826 424.491 282.009 426.832 280.694C431.057 287.031 433.948 294.162 435.327 301.652C434.678 302.599 434.375 303.78 433.759 304.76C431.847 307.787 428.352 311.024 425.225 309.4ZM436.296 318.458C435.226 319.131 433.998 319.51 432.735 319.556C431.472 319.603 430.219 319.316 429.103 318.724C429.99 318.044 429.901 316.484 429.873 315.437C429.824 314.132 429.534 312.847 429.016 311.648C431.96 310.457 434.397 308.279 435.912 305.488C436.431 309.712 436.697 313.962 436.71 318.217C436.562 318.281 436.423 318.364 436.296 318.464V318.458ZM439.286 299.303C437.948 299.062 438.497 301.171 438.192 297.5C438.054 296.762 437.995 296.011 438.015 295.26C438.024 295.121 438.043 294.982 438.074 294.846C438.434 294.51 438.888 294.293 439.376 294.224C439.856 294.139 440.351 294.188 440.805 294.366C441.259 294.543 441.656 294.842 441.952 295.229C442.265 295.657 442.441 296.17 442.455 296.7C442.47 297.23 442.323 297.752 442.033 298.196C441.744 298.64 441.326 298.986 440.835 299.186C440.344 299.387 439.804 299.434 439.286 299.32V299.303Z" fill="#163300"/>
<path d="M391.093 283.886C392.616 277.673 394.794 270.477 396.393 263.788C398.432 263.872 426.115 264.972 428.126 264.972C428.267 264.761 428.349 264.516 428.365 264.262C428.381 264.008 428.33 263.755 428.216 263.527C428.102 263.3 427.93 263.107 427.718 262.967C427.505 262.827 427.26 262.746 427.006 262.732C424.668 262.626 403.766 261.822 395.646 261.461C395.353 261.431 395.06 261.511 394.824 261.686C394.588 261.862 394.427 262.119 394.372 262.408C393.173 267.383 388.954 284.609 388.038 288.28C388.962 289.957 389.92 288.68 391.093 283.886Z" fill="#163300"/>
<path d="M543.278 271.81C519.845 267.826 475.74 264.706 448.848 263.609C448.658 263.603 448.469 263.648 448.3 263.737C448.132 263.827 447.99 263.959 447.888 264.121C447.786 264.282 447.728 264.467 447.72 264.658C447.712 264.848 447.753 265.038 447.84 265.208V265.238C447.932 265.397 448.06 265.532 448.216 265.629C448.371 265.727 448.548 265.785 448.731 265.798C450.484 265.913 478.131 266.868 508.735 269.735C514.506 270.276 537.396 272.776 543.043 273.375C543.245 273.395 543.448 273.337 543.608 273.212C543.768 273.087 543.875 272.905 543.905 272.704C543.935 272.503 543.887 272.299 543.77 272.132C543.654 271.966 543.478 271.85 543.278 271.81Z" fill="#163300"/>
<path d="M483.157 385.067C486.184 385.753 490.241 386.151 494.97 387.17C495.941 387.575 497.03 387.596 498.016 387.229C498.149 387.15 498.246 387.022 498.284 386.872C498.323 386.723 498.301 386.564 498.224 386.431C497.521 385.44 496.418 385.336 495.264 385.098C491.365 384.183 487.368 383.755 483.364 383.824C483.21 383.819 483.059 383.87 482.94 383.967C482.82 384.065 482.741 384.203 482.715 384.355C482.69 384.507 482.721 384.663 482.802 384.794C482.883 384.925 483.009 385.022 483.157 385.067Z" fill="#163300"/>
<path d="M505.831 371.689C505.03 370.952 504.54 370.882 499.349 370.009C497.602 369.712 495.855 369.446 494.108 369.211C495.561 366.957 496.938 364.798 497.692 363.586C498.078 362.964 497.067 362.13 496.572 362.746C494.968 364.759 493.423 366.817 491.938 368.92C487.284 368.291 482.585 368.067 477.893 368.25C477.126 368.292 476.829 369.524 477.686 369.65C481.922 370.241 486.209 370.538 490.473 371.025C485.153 378.792 484.856 379.162 484.495 380.425C484.445 380.623 484.461 380.833 484.54 381.022C484.62 381.211 484.758 381.369 484.935 381.472C485.111 381.576 485.317 381.619 485.52 381.596C485.724 381.573 485.914 381.484 486.063 381.343C487.208 380.085 488.183 378.682 488.964 377.171C489.434 376.446 491.025 373.999 492.761 371.305C503.524 372.705 503.843 373.587 505.484 373.055C505.617 373.01 505.736 372.933 505.831 372.83C505.926 372.727 505.994 372.602 506.029 372.466C506.063 372.331 506.063 372.188 506.029 372.052C505.994 371.917 505.926 371.792 505.831 371.689Z" fill="#163300"/>
<path d="M373.066 361.446C371.743 361.915 370.496 362.575 369.365 363.406C368.066 364.179 364.764 366.184 364.403 366.405C360.532 365.552 356.541 365.389 352.612 365.921C352.458 365.953 352.321 366.042 352.227 366.169C352.133 366.296 352.089 366.453 352.104 366.61C352.118 366.767 352.19 366.914 352.306 367.022C352.421 367.129 352.572 367.191 352.73 367.195C355.852 367.562 358.308 367.629 361.567 368.197C357.574 370.762 353.872 373.198 350.087 375.973C346.447 375.707 341.093 374.371 337.274 375.393C337.119 375.426 336.982 375.514 336.888 375.641C336.795 375.768 336.751 375.925 336.765 376.083C336.78 376.24 336.852 376.386 336.967 376.494C337.083 376.602 337.234 376.663 337.392 376.667C342.152 377.227 341.454 376.863 347.528 377.899C346.486 378.702 345.459 379.524 344.448 380.366C344.008 380.73 344.596 381.464 345.097 381.167C346.694 380.21 348.273 379.224 349.832 378.207C350.731 378.295 351.637 378.264 352.528 378.118C352.715 378.064 352.881 377.955 353.004 377.804C353.127 377.654 353.201 377.47 353.217 377.277C353.233 377.083 353.19 376.89 353.094 376.721C352.997 376.553 352.852 376.418 352.677 376.334C357.381 373.204 359.299 371.868 364.487 368.665C365.607 368.824 366.744 368.817 367.861 368.645C368.059 368.587 368.233 368.466 368.357 368.3C368.481 368.135 368.548 367.933 368.548 367.727C368.548 367.52 368.481 367.319 368.357 367.153C368.233 366.988 368.059 366.867 367.861 366.808L367.609 366.752C372.4 363.843 372.929 363.86 373.87 362.813C373.997 362.684 374.078 362.517 374.1 362.338C374.122 362.158 374.084 361.977 373.993 361.821C373.901 361.665 373.761 361.544 373.593 361.476C373.426 361.409 373.241 361.398 373.066 361.446Z" fill="#163300"/>
<path d="M493.814 402.03C492.1 400.946 490.128 400.343 488.102 400.282C486.858 400.218 486.562 402.273 487.805 402.475C488.751 402.626 489.667 402.718 490.588 402.917C491.439 403.206 492.326 403.376 493.223 403.421C493.38 403.413 493.533 403.361 493.662 403.271C493.791 403.181 493.893 403.056 493.954 402.91C494.016 402.765 494.035 402.606 494.011 402.45C493.986 402.294 493.917 402.148 493.814 402.03Z" fill="#163300"/>
<path d="M472.738 422.425C470.618 418.393 468.994 414.011 466.609 410.141C465.934 409.044 465.072 409.074 463.887 408.988C450.377 407.996 444.497 405 439.967 405.731C436.484 406.291 435.128 408.461 427.445 409.195C421.633 409.529 415.805 409.42 410.01 408.867C409.212 408.811 408.531 414.492 409.536 414.641C419.247 416.066 429.817 418.037 439.496 419.681C449.949 421.448 460.522 422.481 470.817 424.981C471.147 425.057 471.492 425.035 471.809 424.919C472.127 424.803 472.405 424.597 472.608 424.327C472.811 424.056 472.931 423.733 472.955 423.395C472.978 423.058 472.902 422.72 472.738 422.425Z" fill="#163300"/>
<path d="M371.972 349.72C367.002 351.915 348.202 360.797 343.692 362.863C333.583 367.237 323.73 372.179 314.18 377.664C312.357 378.764 310.26 379.658 309.501 381.78C308.926 383.814 308.474 385.882 308.148 387.971C307.989 389.316 308.16 390.68 308.648 391.943C309.136 393.207 309.926 394.332 310.948 395.22C313.68 397.131 316.867 398.29 320.188 398.58C320.692 398.67 338.069 401.954 346.268 403.463C346.416 402.693 346.564 401.954 346.741 401.223H346.713C347.532 399.19 348.243 397.115 348.844 395.007C348.885 395.006 348.925 395.016 348.961 395.035C349.227 394.195 349.493 393.408 349.801 392.608C348.365 392.375 314.684 386.372 313.421 385.918C313.091 385.788 312.791 385.591 312.54 385.34C312.289 385.089 312.091 384.789 311.96 384.459C311.829 384.13 311.767 383.776 311.777 383.421C311.788 383.067 311.871 382.718 312.021 382.396C312.463 381.472 313.524 381.03 314.418 380.5C336.297 367.534 357.798 360.433 372.764 351.075C373.534 350.608 372.795 349.359 371.972 349.72Z" fill="#163300"/>
<path d="M496.804 426.482C500.325 425.262 503.295 422.827 505.182 419.614C514.68 403.728 522.092 386.685 527.234 368.906C529.318 364.218 527.024 359.775 524.689 359.996C523.734 360.385 522.897 361.017 522.262 361.83C496.185 415.201 504.946 396.55 500.03 406.204C497.613 410.964 495.62 413.546 490.47 413.546C491.07 415.612 496.174 424.799 496.804 426.482Z" fill="#163300"/>
<path d="M232.308 344.453C232.134 341.933 231.806 337.249 228.133 337.764C226.596 337.98 225.204 339.598 223.633 339.363C221.806 338.544 219.774 338.296 217.804 338.652C215.713 339.08 213.663 339.684 211.674 340.458C212.157 340.796 212.587 341.204 212.948 341.67C214.967 344.33 213.788 345.61 213.242 345.282C212.475 344.722 212.433 343.496 211.912 342.706C211.404 342.009 210.745 341.435 209.986 341.026C209.513 341.174 209.04 341.351 208.566 341.499L206.436 342.031C206.964 342.405 207.394 342.903 207.687 343.48C207.98 344.058 208.127 344.699 208.116 345.346C207.995 345.999 207.088 345.993 206.786 345.526C206.626 344.909 206.345 344.329 205.961 343.821C205.577 343.313 205.096 342.885 204.546 342.563C201.068 343.561 197.674 344.829 194.393 346.354C192.139 347.648 190.224 351.114 192.794 353.133C194.301 353.902 195.991 354.24 197.677 354.11C206.529 354.858 215.424 354.966 224.291 354.435C226.302 354.591 228.322 354.304 230.21 353.595C232.915 352.008 232.49 347.088 232.308 344.453Z" fill="#163300"/>
<path d="M351.784 341.404C350.416 340.054 348.706 339.103 346.839 338.652C343.926 337.602 340.962 336.703 337.957 335.958C335.796 338.12 336.759 339.318 335.885 340.634C335.853 340.685 335.811 340.728 335.761 340.76C335.711 340.793 335.654 340.814 335.595 340.823C335.536 340.831 335.476 340.827 335.418 340.81C335.361 340.793 335.308 340.763 335.264 340.724C334.16 339.472 335.42 336.837 336.596 335.661C336.389 335.602 336.151 335.574 335.944 335.513C334.995 335.233 334.051 334.922 333.102 334.625C332.784 334.888 332.488 335.176 332.214 335.485C331.715 336.171 331.409 336.978 331.327 337.823C331.324 337.937 331.295 338.048 331.243 338.149C331.191 338.25 331.116 338.338 331.025 338.407C330.934 338.475 330.829 338.522 330.717 338.544C330.606 338.566 330.49 338.563 330.38 338.534C330.225 338.488 330.088 338.394 329.988 338.267C329.888 338.14 329.829 337.985 329.82 337.823C329.87 336.436 330.453 335.121 331.447 334.152C330.204 333.796 328.964 333.435 327.69 333.147C322.003 331.848 321.476 333.768 319.85 333.768C318.332 333.768 316.554 331.484 314.196 332.464C313.564 332.801 313.032 333.299 312.653 333.906C312.273 334.514 312.06 335.211 312.035 335.927C311.735 337.895 311.646 339.89 311.769 341.877C312.001 346.018 312.444 348.519 316.565 348.776C327.477 349.252 338.41 348.796 349.244 347.413C349.92 347.398 350.578 347.193 351.144 346.821C351.709 346.45 352.159 345.927 352.442 345.313C352.679 344.66 352.743 343.957 352.628 343.272C352.513 342.587 352.222 341.943 351.784 341.404Z" fill="#163300"/>
<path d="M187.757 341.197C189.77 340.357 204.896 334.152 210.462 331.873C210.314 331.279 210.134 330.658 209.986 330.067C206.287 331.607 191.226 337.764 187.401 339.332C187.491 339.954 187.609 340.575 187.757 341.197Z" fill="#163300"/>
<path d="M167.124 374.469C155.22 372.428 143.32 370.366 131.424 368.284C130.743 368.164 129.828 368.192 129.464 367.573C129.1 366.954 129.55 366.503 130.054 365.974C131.681 364.274 133.316 363.698 157.732 353.632C157.466 353.01 157.2 352.416 156.934 351.795C129.671 363.076 130.847 362.715 129.405 363.874C128.005 364.994 126.484 366.887 127.54 368.726C128.327 370.101 129.78 370.062 134.347 370.888C137.371 371.448 159.925 375.368 168.182 376.69C167.803 375.95 167.45 375.21 167.124 374.469Z" fill="#163300"/>
<path d="M185.122 334.418C192.976 331.215 200.86 328.088 208.774 325.035C208.625 324.475 208.449 323.915 208.3 323.355C202.202 325.665 186.514 331.881 184.736 332.595C184.856 333.2 184.974 333.827 185.122 334.418Z" fill="#163300"/>
<path d="M309.481 345.489C292.121 357.661 275.248 368.816 257.202 379.621C248.542 384.807 249.273 385.036 242.581 384.381C195.972 379.854 196.42 378.025 196.963 379.378C197.112 379.938 197.198 380.534 197.378 381.097C202.765 381.836 237.518 386.036 240.568 386.364C243.333 386.919 246.171 387.013 248.968 386.644C251.31 385.81 253.516 384.633 255.511 383.149C274.47 371.904 293.429 359.425 310.038 347.833C309.763 347.076 309.576 346.289 309.481 345.489Z" fill="#163300"/>
<path d="M332.452 331.666C334.169 330.333 335.846 328.958 337.543 327.58C338.279 326.984 337.308 325.716 336.538 326.248C334.261 327.821 331.979 329.386 329.728 330.985C330.12 331.069 332.231 331.554 332.452 331.666Z" fill="#163300"/>
<path d="M316.053 351.47C310.576 355.614 242.032 405.84 231.034 413.753C228.815 415.312 226.461 416.669 224 417.808C216.625 421.308 213.968 419.849 202.44 417.78C142.87 407.07 77.2072 392.669 75.8296 391.818C75.5058 391.588 75.2344 391.292 75.0337 390.95C74.833 390.607 74.7074 390.226 74.6653 389.831C74.6232 389.436 74.6655 389.037 74.7895 388.66C74.9135 388.283 75.1163 387.936 75.3844 387.643C77.5098 384.977 80.2395 382.856 83.3476 381.455C97.1992 374.083 129.626 358.215 155.4 346.998C155.134 346.408 154.899 345.845 154.63 345.254C136.314 353.244 118.202 361.693 100.31 370.591C97.356 372.061 81.9224 379.767 79.0552 381.662C76.2921 383.152 74.0893 385.501 72.7804 388.354C72.6146 388.949 72.5691 389.571 72.6466 390.184C72.7241 390.796 72.923 391.387 73.2317 391.922C73.5404 392.457 73.9527 392.925 74.4445 393.298C74.9363 393.672 75.4976 393.943 76.0956 394.097C81.7824 395.797 194.922 419.504 213.539 421.817C216.71 422.268 219.943 421.849 222.894 420.605C228.261 418.114 233.302 414.972 237.902 411.25C265.28 391.104 292.636 372.33 319.382 351.868C318.332 351.736 317.178 351.646 316.053 351.47Z" fill="#163300"/>
<path d="M55.02 314.88C53.8132 307.541 52.556 300.191 51.5564 292.799C51.5519 292.703 51.5266 292.608 51.4822 292.523C51.4378 292.437 51.3754 292.362 51.2993 292.303C51.2232 292.244 51.1352 292.202 51.0413 292.181C50.9474 292.159 50.8499 292.158 50.7556 292.177C49.6356 292.356 48.5156 292.592 47.3956 292.799C41.5262 292.73 35.6995 293.804 30.24 295.96C30.1033 296.005 29.9842 296.093 29.8993 296.209C29.8145 296.325 29.7682 296.466 29.7668 296.61C29.7602 303.885 30.3219 311.15 31.4468 318.338C31.4952 318.512 31.6108 318.66 31.7683 318.749C31.9258 318.839 32.1123 318.862 32.2868 318.814C53.0796 314.74 55.3028 316.607 55.02 314.88Z" fill="#9FE870"/>
<path d="M119.05 93.0412C118.364 92.82 117.65 92.568 116.976 92.33C113.671 90.4804 110.045 89.2756 106.291 88.7796C106.152 88.7461 106.007 88.7564 105.874 88.8091C105.742 88.8617 105.629 88.9542 105.552 89.0736C103.251 93.1927 101.31 97.5019 99.7472 101.954C99.2824 103.298 102.287 102.62 113.66 107.876C114.94 108.466 114.344 107.094 119.54 93.814C119.556 93.6491 119.516 93.4837 119.427 93.3439C119.339 93.204 119.206 93.0975 119.05 93.0412Z" fill="#163300"/>
<path d="M292.28 436.874C286.916 439.606 271.023 448.13 265.756 451.882L265.725 451.851C265.104 451.319 264.182 452.24 264.81 452.769C273.054 459.592 282.125 465.35 291.807 469.908C291.902 469.962 292.01 469.991 292.119 469.991C292.228 469.992 292.336 469.964 292.431 469.91C292.526 469.857 292.606 469.779 292.663 469.686C292.719 469.592 292.751 469.485 292.754 469.376C292.826 458.719 293.123 448.062 293.199 437.436C293.201 437.328 293.174 437.22 293.122 437.125C293.07 437.029 292.994 436.949 292.901 436.892C292.808 436.835 292.702 436.803 292.593 436.8C292.484 436.797 292.376 436.822 292.28 436.874Z" fill="#163300"/>
<path d="M198.027 201.06C197.056 201.521 196.208 202.207 195.553 203.061C194.899 203.915 194.456 204.912 194.263 205.97C194.069 207.028 194.13 208.118 194.44 209.148C194.749 210.178 195.3 211.12 196.045 211.896C196.757 213.019 197.823 213.872 199.075 214.321C200.327 214.77 201.693 214.789 202.956 214.374C204.22 213.96 205.309 213.136 206.052 212.033C206.795 210.93 207.148 209.61 207.057 208.284C206.954 203.577 202.969 199.013 198.027 201.06Z" fill="#9FE870"/>
<path d="M61.0685 154.717C61.0685 143.284 60.4343 134.963 60.4343 131.843C60.1997 131.685 59.923 131.6 59.6398 131.6C59.3566 131.6 59.0799 131.685 58.8453 131.843C55.6687 134.702 46.4553 138.197 44.8677 138.832C43.1005 139.386 41.2953 139.811 39.4665 140.103C38.8309 140.421 38.1953 141.057 38.5131 141.691C40.0537 147.818 40.8013 154.118 40.7377 160.436C39.5132 159.951 38.15 159.951 36.9255 160.436C33.1119 161.705 30.2531 164.566 30.8887 167.107C31.5243 169.648 35.0229 170.607 38.5131 169.012C42.6487 167.119 43.2731 164.566 42.6431 162.977C42.6431 162.341 42.3253 162.023 42.0075 161.388C42.3253 157.264 42.3253 153.122 42.0075 148.999C47.9199 147.781 53.6026 145.637 58.8453 142.644C58.8453 142.962 59.4809 152.176 59.4809 152.176C58.8343 151.733 58.0816 151.471 57.3 151.415C56.5185 151.359 55.7361 151.512 55.0331 151.858C51.2209 153.129 48.3621 155.988 48.9963 158.529C49.6305 161.07 53.1263 162.029 56.6221 160.436C57.2936 160.362 57.9435 160.154 58.5332 159.824C59.1229 159.495 59.6404 159.05 60.055 158.517C60.4697 157.983 60.7731 157.372 60.9471 156.719C61.1212 156.067 61.1625 155.386 61.0685 154.717ZM42.0075 146.457C42.0075 145.187 41.6897 143.916 41.6897 142.644C47.7265 142.009 55.9865 137.245 58.8453 134.702C58.8023 136.403 58.9086 138.104 59.1631 139.786C54.3975 142.644 42.6431 146.457 42.0075 146.457Z" fill="#163300"/>
<path d="M118.21 444.676C116.078 443.928 113.809 443.654 111.56 443.873C109.311 444.093 107.137 444.801 105.19 445.947C107.9 450.847 110.236 455.945 112.179 461.196C115.034 452.936 115.669 451.031 118.21 444.676Z" fill="#9FE870"/>
<path d="M120.12 448.17C117.579 454.207 116.943 456.43 113.767 464.69C119.486 465.644 123.616 466.597 131.558 467.867C132.395 463.753 131.692 459.475 129.584 455.844C127.475 452.213 124.108 449.483 120.12 448.17Z" fill="#9FE870"/>
<path d="M110.904 466.279C109.033 460.999 106.694 455.895 103.915 451.031C101.986 452.039 100.286 453.434 98.9198 455.128C97.5534 456.823 96.5503 458.78 95.9727 460.878C95.3088 462.99 95.0691 465.212 95.2675 467.416C95.4659 469.621 96.0984 471.764 97.1287 473.723C98.159 475.682 99.5666 477.418 101.271 478.831C102.975 480.244 104.941 481.305 107.057 481.955C109.173 482.605 111.397 482.829 113.6 482.616C115.803 482.402 117.942 481.755 119.894 480.711C121.846 479.668 123.572 478.248 124.973 476.535C126.375 474.821 127.423 472.847 128.058 470.727C128.317 470.239 128.428 469.686 128.38 469.135C121.069 468.185 116.62 467.231 110.904 466.279Z" fill="#9FE870"/>
<path d="M160.859 515.512L154.68 518.734L147.74 505.983L153.563 501.674L160.859 515.512Z" fill="#163300"/>
<path d="M171.091 510.228L164.716 513.698L154.252 494.127L161.126 491.05L171.091 510.228Z" fill="#163300"/>
<path d="M181.715 504.444L175.341 507.915L162.419 484.79L168.636 479.979L181.715 504.444Z" fill="#163300"/>
<path d="M151.158 525.26C153.873 523.355 156.784 521.199 159.749 519.491C162.463 517.586 165.397 515.826 168.593 513.922C171.456 512.043 174.425 510.331 177.486 508.796C180.732 507.354 186.682 504.312 187.234 505.152C187.537 505.795 181.66 509.659 178.945 511.563C175.981 513.273 172.795 514.844 169.999 516.243C156.255 523.09 168.987 517.436 151.158 525.26Z" fill="#163300"/>
<path d="M48.3379 65.035C48.0201 64.7172 47.3845 64.7172 47.3845 65.035C41.1573 83.7166 35.4187 90.0264 38.8081 89.1794L48.3379 88.5438C48.9735 88.5438 49.2913 87.9096 49.2913 87.274C48.8535 84.112 48.8535 80.9048 49.2913 77.7428C49.2913 76.473 51.1967 76.473 51.5145 77.425C52.768 80.6993 53.6217 84.1129 54.0569 87.5918C54.0569 87.9096 54.3747 88.2274 54.6925 87.9096L67.0811 87.274C67.7167 87.274 67.7167 86.6384 67.3989 86.3206C65.1785 85.951 49.7925 69.3988 48.3379 65.035Z" fill="#9FE870"/>
<path d="M88.6844 70.754C88.9102 70.5569 89.0787 70.3026 89.1723 70.0179C89.2658 69.7331 89.2808 69.4284 89.2157 69.1358C89.1507 68.8432 89.008 68.5736 88.8026 68.3553C88.5972 68.137 88.3368 67.978 88.0488 67.8952C77.2478 63.7652 69.6234 55.5052 66.7688 52.3286C66.4754 52.0542 66.1049 51.8766 65.7072 51.8197C65.3096 51.7629 64.9041 51.8296 64.5456 52.0108C64.5456 52.0108 48.6612 60.905 48.3434 61.5406C48.3434 61.8584 60.4156 78.6962 70.8988 87.274C71.3468 87.274 69.6094 89.3012 88.6844 70.754Z" fill="#9FE870"/>
<path d="M471.789 494.183C472.425 492.277 474.331 484.971 474.649 483.064C470.313 485.358 467.018 489.221 465.436 493.865C467.558 493.812 469.682 493.918 471.789 494.183Z" fill="#9FE870"/>
<path d="M506.1 506.888C501.34 504.347 490.85 500.851 486.403 499.581C485.132 503.081 484.814 510.064 487.673 514.194C488.584 515.678 489.773 516.972 491.173 518.006C494.369 517.48 497.391 516.196 499.989 514.262C502.586 512.327 504.681 509.799 506.1 506.888Z" fill="#9FE870"/>
<path d="M494.34 488.78C490.995 490.719 488.416 493.746 487.032 497.356C495.927 499.899 502.282 502.758 506.411 505.934C507.82 502.444 508.088 498.597 507.177 494.945C506.266 491.292 504.223 488.022 501.34 485.602C498.925 486.471 496.584 487.534 494.34 488.78Z" fill="#9FE870"/>
<path d="M482.591 484.65C480.543 488.071 479.143 491.84 478.461 495.769C480.685 496.087 482.591 496.722 484.815 497.039C485.274 495.458 486.152 494.032 487.356 492.91C489.064 490.885 491.106 489.166 493.392 487.827C495.701 486.65 498.159 485.795 500.699 485.284C496.697 481.932 491.624 480.128 486.404 480.202C484.894 481.462 483.606 482.966 482.591 484.65Z" fill="#9FE870"/>
<path d="M471.471 495.769C469.515 495.166 467.483 494.845 465.436 494.815C465.069 496.272 464.856 497.762 464.8 499.263C464.836 501.678 465.378 504.059 466.389 506.252C468.612 504.029 471.471 497.356 471.471 495.769Z" fill="#9FE870"/>
<path d="M473.378 494.498C474.331 494.815 475.601 494.815 476.554 495.133C477.702 491.144 479.529 487.383 481.955 484.014C482.888 482.445 484.198 481.134 485.768 480.202C482.076 480.169 478.447 481.158 475.283 483.061C475.242 485.192 475.03 487.317 474.649 489.414C474.386 491.145 473.96 492.847 473.378 494.498Z" fill="#9FE870"/>
<path d="M484.497 511.653C484.031 510.424 483.711 509.145 483.543 507.841C483.426 504.967 483.64 502.089 484.179 499.263C481.956 498.627 477.826 497.674 477.826 497.674C475.96 504.428 476.522 511.623 479.413 518.006C482.706 519.009 486.188 519.227 489.58 518.642C488.627 517.371 485.768 514.83 484.497 511.653Z" fill="#9FE870"/>
<path d="M475.919 497.039C474.966 496.722 473.696 496.404 472.742 496.087C471.538 500.273 469.483 504.166 466.707 507.523C469.275 512.146 473.465 515.654 478.467 517.371C474.331 510.382 474.966 501.804 475.919 497.039Z" fill="#9FE870"/>
<path d="M337.461 75.8615C336.518 72.6821 334.299 69.2507 330.155 70.1439C328.525 70.487 327.066 71.3851 326.025 72.6849C323.802 75.2259 321.577 78.7203 321.577 82.2161C321.577 83.1681 321.259 83.8037 320.624 82.8503C318.792 81.1383 316.766 79.646 314.588 78.4039C312.016 76.8639 308.84 75.7971 306.01 77.1327C302.167 78.9527 301.516 84.3455 303.469 88.2515C307.77 98.2895 322.089 104.211 332.062 108.901C332.672 97.9059 340.673 86.6737 337.461 75.8615ZM308.869 91.7459C305.369 91.1103 301.563 81.8983 311.094 79.0381C311.412 79.6737 303.469 80.9449 308.869 91.7459Z" fill="#163300"/>
<path d="M242.2 318.5L305.9 322" stroke="#163300" stroke-width="1.2"/>
</svg>
