<svg width="166" height="187" viewBox="0 0 166 187" fill="none" xmlns="http://www.w3.org/2000/svg">
<path d="M90.0261 167.348C90.0261 150.51 90.6581 150.592 88.7601 150.596C81.2081 150.616 73.6561 150.896 66.1061 150.578C65.3961 150.548 65.2501 150.91 65.0141 151.332C44.6661 187.554 46.2841 187.08 41.2281 186.624C37.0201 186.244 35.0321 181.856 36.8141 178.772C79.3281 105.104 77.6781 106.038 80.8241 106.01C89.1981 105.934 89.1681 105.722 88.9741 104.594C88.7301 103.174 89.9201 101.274 86.9381 98.608C83.1761 95.244 82.6661 89.882 85.3841 85.248C86.0301 84.146 85.9781 83.502 85.2981 82.516C82.4161 78.338 84.4181 80.644 59.0201 94.87C55.9001 96.618 51.8901 93.856 49.5961 91.652C49.1481 91.222 48.7701 90.586 47.9141 91.174C47.2441 91.634 46.8161 91.756 47.5261 92.706C53.5401 100.758 39.9801 108.636 35.2421 100.748C33.9801 98.648 32.6541 100.504 29.5401 97.512C28.5821 96.59 28.5801 96.842 23.2061 100.034C22.8021 100.274 22.3181 100.374 22.2161 101.036C21.7521 104.088 18.3101 105.334 15.5041 104.13C11.2921 102.322 3.96611 89.466 1.03411 84.448C-0.863894 81.2 0.806105 81.586 6.0561 78.372C7.7861 77.314 7.5661 77.578 17.1061 92.564C18.2721 94.396 18.3241 93.182 23.9221 90.62C25.4161 89.936 24.4241 89.192 24.5461 86.748C24.7261 83.142 25.5061 83.188 39.7861 75.448C42.7641 73.834 37.5621 70.052 44.2181 66.188C60.0361 57.004 83.1501 42.72 99.8801 32.806C102.32 31.36 96.2701 27.42 101.106 23.232C106.12 18.89 111.586 15.218 117.346 11.966C141.688 -1.776 140.786 -1.034 144.076 4.66C148.574 12.444 158.318 31.27 165.19 38.248C166.228 39.302 165.666 40.14 164.944 41.02C156.476 51.328 137.084 61.572 128.872 66.028C125.874 67.656 124.93 67.418 122.426 65.188C116.896 60.262 117.466 59.302 115.964 60.232C90.6721 75.876 91.2361 74.822 92.3421 75.934C92.8341 76.428 93.2621 79.396 97.6041 79.794C106.15 80.576 110.64 93.29 101.512 99.948C100.302 100.83 99.5221 103.568 100.066 104.956C100.294 105.538 100.712 105.27 101.042 105.27C107.798 105.262 108.596 104.608 109.906 106.734C113.568 112.674 150.38 176.854 150.41 176.906C152.51 180.562 150.328 184.738 146.086 185.352C144.09 185.642 143.044 185.566 140.968 182.642C138.296 178.876 122.502 150.26 122.502 150.26L99.1301 150.528C99.1301 150.528 98.7461 159.118 98.7481 181.828C98.7481 188.226 89.9541 187.74 90.0141 182.804C90.0441 180.274 90.0701 167.348 90.0261 167.348ZM42.1601 71.018C42.9941 79.636 47.9101 90.058 55.3401 93.204C57.9301 94.3 56.0061 94.332 90.3401 73.144C116.48 57.012 115.928 58.304 114.562 56.866C111.54 53.688 106.072 43.944 102.156 35.446C101.27 33.522 102.99 33.376 77.6381 48.47C41.7901 69.812 41.8461 69.068 42.1601 71.018ZM125.938 64.796C128.116 64.642 145.8 54.586 153.11 49.068C154.006 48.392 154.466 48.052 153.382 47.02C148.538 42.416 137.022 26.532 129.566 9.14599C129.222 8.34199 129.094 7.77399 127.982 8.39199C119.484 13.122 110.942 17.772 103.326 23.908C100.336 26.318 99.1661 25.18 109.45 44.316C111.968 49.002 121.942 64.554 125.938 64.796ZM160.254 35.518C135.93 2.45 147.09 -0.89201 132.022 6.20599C130.99 6.69199 130.848 7.16 131.32 8.224C136.74 20.416 145.542 35.972 154.754 45.956C155.624 46.898 156.148 46.842 157.026 46.064C166.034 38.07 164.108 40.758 160.254 35.518ZM104.608 114.652C142.236 181.304 139.286 177.2 140.808 176.14C144.896 173.298 146.378 173.78 145.416 172.172C145.39 172.128 122.6 132.922 114.74 118.85C111.37 112.818 109.22 114.65 104.606 114.65L104.608 114.652ZM83.1621 115.38C76.0841 115.38 75.8721 114.932 74.8841 116.654L42.4441 172.838C41.2901 174.808 42.9561 174.072 47.1901 176.344C49.3621 177.51 48.3941 177.054 83.1621 115.38ZM69.7281 143.026L88.7941 142.82C90.7781 142.798 90.0661 142.894 90.2441 118.71C90.2701 115.118 90.2561 115.158 86.6381 115.148C84.3541 115.14 85.8201 114.654 69.7281 143.026ZM91.6601 173.418C91.6601 178.328 92.4181 176.568 96.0361 177.024C97.5361 176.938 97.1161 175.624 97.1621 174.754C97.4061 170.076 97.2281 156.62 97.0781 118.81C97.0741 117.566 97.8001 115.802 96.9401 115.218C96.0241 114.594 94.3541 115.13 93.0201 115.054C91.4021 114.962 91.6801 109.93 91.6601 173.418ZM98.7721 141.292C98.7261 143.418 98.7041 142.406 116.594 142.398C119.304 142.398 118.176 143.37 103.982 116.984C103.044 115.242 102.166 114.532 100.186 114.764C97.4061 115.09 99.3221 115.952 98.7701 141.292H98.7721ZM26.4481 86.898C26.8841 91.206 28.7041 94.66 32.5921 96.846C33.4741 97.342 34.0981 97.698 34.3001 96.102C34.8261 91.928 39.6981 88.7 44.2521 90.4C45.5001 90.866 46.3481 89.976 47.0621 89.354C47.5441 88.934 46.6061 88.282 46.2661 87.77C40.2201 78.674 42.6301 75.958 40.1641 77.344C27.3501 84.544 26.1561 84.036 26.4461 86.896L26.4481 86.898ZM111.116 112.78C108.082 107.092 108.37 106.962 107.098 107.044C82.9321 108.602 80.1241 107.108 79.4741 108.356C78.5801 110.074 77.6621 111.776 76.6221 113.73L111.116 112.78ZM104.438 90.41C104.616 78.422 85.8481 78.676 85.6421 90.706C85.4341 102.818 104.25 103.076 104.438 90.41ZM17.1961 102.63C23.2461 102.78 17.0861 96.276 8.28411 82.35C6.65211 79.768 6.55011 79.828 3.86011 81.382C2.66811 82.07 1.77211 82.248 2.59411 83.602C12.5021 99.926 14.9761 102.574 17.1961 102.63ZM121.736 148.77C119.038 143.964 119.446 144.102 118.13 144.132C104.106 144.452 99.0821 144.518 99.0821 144.518V148.786L121.736 148.77ZM66.5381 148.886C90.7281 148.886 90.2681 149.442 90.0701 147.78C89.8641 146.042 90.9261 144.584 88.3701 144.656C77.4781 144.968 69.0861 144.774 69.0861 144.774L66.5381 148.886ZM41.1301 101.962C48.2221 102.106 49.0821 91.996 41.6121 91.918C34.8001 91.848 33.8961 101.814 41.1301 101.962ZM26.6601 95.702C27.1081 95.428 27.2461 95.254 26.9561 94.678C25.4581 91.694 25.4841 91.68 22.6021 93.18C18.6341 95.246 18.3881 94.99 20.6921 98.434C21.3501 99.418 21.0241 99.158 26.6601 95.702ZM90.7001 101.266C90.5061 105.22 90.2001 105.71 91.4701 105.612C99.3821 105 98.3281 106.452 98.4201 102.698C98.4841 100.022 97.8641 103.334 90.7001 101.266ZM92.5641 79.748C90.1761 75.866 90.5421 75.814 88.1761 77.286C86.0121 78.632 85.7261 80.344 87.3061 82.428C87.6561 82.888 88.4121 81.042 92.5641 79.748Z" fill="#163300"/>
<path d="M55.9562 88.042C52.6642 87.684 56.9442 85.632 84.2442 69.474C109.562 54.49 108.868 54.398 109.502 55.584C109.846 56.226 109.42 56.6 108.882 56.914C93.9582 65.64 62.2942 84.848 55.9562 88.042Z" fill="#163300"/>
<path d="M128.556 57.2881C124.36 57.5161 133.33 52.6481 145.13 45.4941C145.882 45.0381 146.572 44.6941 147.036 45.4461C147.656 46.4521 147.416 46.4441 136.8 52.7301C135.754 53.3501 130.41 56.4841 128.556 57.2881Z" fill="#163300"/>
<path d="M95.4881 96.2641C87.7081 96.2721 87.8801 84.4821 95.5141 84.5221C103.148 84.5621 103.006 96.2561 95.4881 96.2641Z" fill="#163300"/>
<path d="M41.1061 93.8859C44.9821 93.8299 44.8321 99.4279 41.0761 99.4319C37.3201 99.4359 37.1261 93.9419 41.1061 93.8859Z" fill="#163300"/>
</svg>
