<svg width="89" height="88" viewBox="0 0 89 88" fill="none" xmlns="http://www.w3.org/2000/svg">
<rect x="0.625" width="88" height="88" rx="44" fill="#9FE870"/>
<path d="M60.8084 57.8168L54.625 51.6834C57.0252 48.6908 58.1875 44.8923 57.873 41.0689C57.5586 37.2456 55.7911 33.6881 52.9342 31.1278C50.0773 28.5676 46.348 27.1993 42.5132 27.3042C38.6784 27.4091 35.0296 28.9794 32.3169 31.692C29.6043 34.4046 28.0341 38.0535 27.9291 41.8883C27.8242 45.7231 29.1925 49.4524 31.7528 52.3093C34.313 55.1662 37.8705 56.9336 41.6939 57.2481C45.5172 57.5626 49.3157 56.4003 52.3084 54.0001L58.4417 60.1334C58.5966 60.2896 58.781 60.4136 58.9841 60.4982C59.1872 60.5829 59.405 60.6264 59.625 60.6264C59.845 60.6264 60.0629 60.5829 60.266 60.4982C60.4691 60.4136 60.6534 60.2896 60.8084 60.1334C61.1088 59.8226 61.2767 59.4073 61.2767 58.9751C61.2767 58.5429 61.1088 58.1275 60.8084 57.8168ZM42.9584 54.0001C40.6509 54.0001 38.3953 53.3158 36.4767 52.0339C34.5581 50.7519 33.0628 48.9299 32.1798 46.7981C31.2967 44.6663 31.0657 42.3205 31.5159 40.0574C31.966 37.7943 33.0772 35.7155 34.7088 34.0838C36.3404 32.4522 38.4192 31.3411 40.6823 30.8909C42.9454 30.4408 45.2912 30.6718 47.423 31.5548C49.5548 32.4378 51.3769 33.9332 52.6588 35.8518C53.9408 37.7703 54.625 40.026 54.625 42.3334C54.625 45.4276 53.3959 48.3951 51.2079 50.583C49.02 52.7709 46.0525 54.0001 42.9584 54.0001Z" fill="#163300"/>
</svg>
