<?xml version="1.0" encoding="utf-8" ?>
<svg xmlns="http://www.w3.org/2000/svg" xmlns:xlink="http://www.w3.org/1999/xlink" width="388" height="291">
	<path fill="#A3EB70" fill-opacity="0.98039216" transform="scale(0.378906 0.378906)" d="M475.667 511.75C477.244 511.75 477.267 511.585 478.46 512.75L478.315 514.824L476.75 516.062C475.943 516.462 475.43 516.358 474.554 516.25C473.948 514.769 473.985 514.357 474.169 512.75L475.667 511.75Z"/>
	<path fill="#A3EB70" fill-opacity="0.98039216" transform="scale(0.378906 0.378906)" d="M573.047 193.75C574.196 193.27 574.798 193.367 575.961 193.611C576.911 195.089 576.856 195.466 576.864 197.25L575.75 198.035C573.686 197.971 573.044 198.218 571.478 196.75L571.499 195.25L573.047 193.75Z"/>
	<path fill="#A3EB70" fill-opacity="0.98039216" transform="scale(0.378906 0.378906)" d="M951.303 92.75C952.472 92.495 952.875 92.6624 953.93 93.1079C955.016 94.7194 954.935 95.592 955.05 97.4838L953.75 98.2111C953.091 98.1921 952.47 98.1909 951.83 98.0193C950.559 97.6787 950.601 97.3211 950.001 96.25C950.077 94.2734 949.944 94.148 951.303 92.75Z"/>
	<path fill="#A3EB70" fill-opacity="0.98823529" transform="scale(0.378906 0.378906)" d="M689.697 273.25L689.919 274.25C684.488 280.043 678.467 284.99 672.505 290.214L641.77 316.122L588.795 359.772L570.198 374.625C541.531 398.461 516.077 425.772 486.346 448.408L487.285 446.575C489.646 442.423 493.709 438.879 497.006 435.47C512.366 419.592 529.231 405.477 545.451 390.514L578.261 359.838C589.826 349.936 602.874 342.024 614.855 332.684L656.462 298.416L672.509 284.982C677.283 280.963 683.621 274.891 689.697 273.25Z"/>
	<path fill="#A3EB70" transform="scale(0.378906 0.378906)" d="M754.627 213.886C763.228 221.765 767.819 233.611 773.976 243.313C777.788 249.321 782.49 254.999 785.808 261.275C786.705 262.972 787.914 264.834 787.315 266.75C783.134 267.574 778.335 266.602 774.102 266.46L756.625 266.426C745.389 266.515 732.938 268.325 721.944 265.963C725.634 255.031 732.492 245.783 738.835 236.254C743.892 228.656 748.812 220.931 754.627 213.886Z"/>
	<path fill="#A3EB70" transform="scale(0.378906 0.378906)" d="M486.498 564.162C493.488 563.522 499.81 566.083 505.389 570.144C511.895 574.881 517.167 581.355 522.731 587.123C541.608 606.689 560.995 624.118 588.797 628.707L588.595 628.95C585.309 632.244 579.147 632.971 574.779 633.238C566.482 633.744 558.057 632.211 549.829 631.322C543.876 630.679 537.912 630.568 531.935 630.833L496 633.545C490.689 634.076 485.347 635.059 480.024 635.346L410.495 636.831L352 638.691L319.398 639.535C299.862 639.378 280.453 634.704 261.012 635.019L229.585 636.851L190.531 638.128L116.162 641.319L68.8324 642.45C70.1596 641.668 72.8382 641.539 74.4053 641.113C78.4821 640.004 82.4946 637.991 86.7128 637.615C90.8506 637.246 95.0993 637.737 99.2415 637.895L113.15 637.877L192.928 634.959L227.316 633.105C231.539 632.735 236.107 632.648 240.25 631.79C240.258 627.66 242.202 624.629 244.185 621.173C247.568 615.279 250.967 609.66 255.091 604.227C263.942 592.568 275.572 582.847 287.861 574.99C293.781 571.205 299.839 567.578 306.961 566.674C323.091 564.627 347.912 586.997 358.371 598.643C365.416 606.488 371.678 616.022 380.071 622.507C385.772 626.911 393.26 629.816 400.541 628.712C415.301 626.475 423.113 612.487 431.105 601.534C439.503 590.024 450.146 581.506 462.196 574.13C469.783 569.486 477.629 565.533 486.498 564.162ZM258.126 608.482C259.772 609.122 260.575 610.126 261.707 611.412C267.123 603.721 273.298 596.614 280.374 590.406C284.782 586.539 290.297 582.827 293.936 578.25L293 577.42C292.535 577.401 292.087 577.403 291.624 577.473C289.281 577.831 286.759 579.823 284.833 581.173C274.643 588.309 265.111 598.245 258.126 608.482ZM258.126 608.482L251.689 617.476C249.29 621.083 247.866 625.383 243.493 627.185C242.641 627.536 241.916 628.09 241.175 628.63C241.109 630.278 241.426 630.267 242.5 631.436C244.203 631.926 245.871 632.122 247.624 632.313L261.707 611.412C260.575 610.126 259.772 609.122 258.126 608.482Z"/>
	<defs>
		<linearGradient id="gradient_0" gradientUnits="userSpaceOnUse" x1="256.63199" y1="609.88202" x2="258.86801" y2="614.61798">
			<stop offset="0" stop-color="white" stop-opacity="0.9137255"/>
			<stop offset="1" stop-color="white" stop-opacity="0.97647059"/>
		</linearGradient>
	</defs>
	<path fill="url(#gradient_0)" transform="scale(0.378906 0.378906)" d="M258.126 608.482C259.772 609.122 260.575 610.126 261.707 611.412L247.624 632.313C245.871 632.122 244.203 631.926 242.5 631.436C241.426 630.267 241.109 630.278 241.175 628.63C241.916 628.09 242.641 627.536 243.493 627.185C247.866 625.383 249.29 621.083 251.689 617.476L258.126 608.482Z"/>
	<defs>
		<linearGradient id="gradient_1" gradientUnits="userSpaceOnUse" x1="263.28299" y1="601.83899" x2="266.30301" y2="605.12201">
			<stop offset="0" stop-color="white" stop-opacity="0.94509804"/>
			<stop offset="1" stop-color="white"/>
		</linearGradient>
	</defs>
	<path fill="url(#gradient_1)" transform="scale(0.378906 0.378906)" d="M258.126 608.482C265.111 598.245 274.643 588.309 284.833 581.173C286.759 579.823 289.281 577.831 291.624 577.473C292.087 577.403 292.535 577.401 293 577.42L293.936 578.25C290.297 582.827 284.782 586.539 280.374 590.406C273.298 596.614 267.123 603.721 261.707 611.412C260.575 610.126 259.772 609.122 258.126 608.482Z"/>
</svg>
