<?xml version="1.0" encoding="utf-8" ?>
<svg xmlns="http://www.w3.org/2000/svg" xmlns:xlink="http://www.w3.org/1999/xlink" width="512" height="512">
	<path fill="#191816" transform="scale(0.666667 0.666667)" d="M-0 -0L768 0L768 768L-0 768L0 -0Z"/>
	<defs>
		<linearGradient id="gradient_0" gradientUnits="userSpaceOnUse" x1="532.104" y1="208.62199" x2="404.138" y2="322.32901">
			<stop offset="0" stop-color="#9EEE5D"/>
			<stop offset="1" stop-color="#23B97E"/>
		</linearGradient>
	</defs>
	<path fill="url(#gradient_0)" transform="scale(0.666667 0.666667)" d="M416.091 245.222C421.739 235.239 429.656 223.842 439.238 217.38C444.835 213.605 451.367 211.137 457.841 209.339L519.202 193.601L524.671 219.403C527.861 237.26 528.74 255.755 523.88 273.434C520.95 284.088 515.042 295.685 508.631 304.7L508.433 304.975C499.657 316.465 489.886 326.461 476.2 331.82L475.317 331.522C474.076 328.53 471.383 326.556 468.944 324.538C459.957 317.101 449.435 312.253 440.043 305.419C436.83 303.08 433.853 300.324 431.018 297.547L465.215 265.632C474.269 257.751 482.948 249.444 490.129 239.776C493.69 234.981 496.513 229.264 500.421 224.812L499.916 224.669L449.333 271.923C445.705 275.735 441.577 279.056 437.658 282.562L412.811 304.317L402.797 312.948C401.503 314.085 400.253 315.629 398.812 316.532L398.175 315.057C398.33 309.32 399.279 303.686 400.013 298.005C402.403 279.52 405.803 261.195 416.091 245.222Z"/>
	<path fill="#3FC67C" transform="scale(0.666667 0.666667)" d="M465.215 265.632C471.645 272.568 478.836 279.01 486.17 284.984L499.481 295.63C502.763 298.53 505.336 301.945 508.433 304.975C499.657 316.465 489.886 326.461 476.2 331.82L475.317 331.522C474.076 328.53 471.383 326.556 468.944 324.538C459.957 317.101 449.435 312.253 440.043 305.419C436.83 303.08 433.853 300.324 431.018 297.547L465.215 265.632Z"/>
	<path fill="#AFE67F" transform="scale(0.666667 0.666667)" d="M295.492 308.91L291.823 303.801C287.196 296.805 284.132 288.733 281.959 280.662C279.501 271.539 278.099 261.907 278.417 252.442C279.029 234.236 284.834 216.984 288.453 199.311L314.625 205.491C325.537 208.134 337.038 210.513 347.401 214.877C352.068 216.842 356.551 219.415 360.562 222.506C379.251 236.906 388.606 262.042 391.71 284.719C393.686 294.243 394.149 304.717 393.736 314.412C393.807 316.335 393.695 318.488 394.147 320.35C394.68 322.547 394.001 324.756 394.682 327C395.2 328.704 394.545 331.533 395.438 332.816C396.318 332.952 397.005 332.845 397.877 332.719C398.49 330.594 398.075 327.387 398.062 325.125L397.691 324.562C397.662 322.434 397.579 320.621 398.07 318.562L398.175 315.057L398.812 316.532C400.253 315.629 401.503 314.085 402.797 312.948L412.811 304.317L437.658 282.562C441.577 279.056 445.705 275.735 449.333 271.923L499.916 224.669L500.421 224.812C496.513 229.264 493.69 234.981 490.129 239.776C482.948 249.444 474.269 257.751 465.215 265.632L431.018 297.547L399.032 325.215L398.992 333.822L396.439 333.793L394.525 333.693C386.874 334.366 378.771 333.709 371.062 333.817C365.701 333.891 360.423 334.691 355.083 334.885C346.579 335.195 337.505 334.404 329.25 332.274C326.549 331.577 323.625 330.801 321.13 329.541C319.084 328.068 316.738 326.955 314.609 325.594C307.376 320.972 300.749 315.747 295.492 308.91Z"/>
	<path fill="#237468" transform="scale(0.666667 0.666667)" d="M449.333 271.923L499.916 224.669L500.421 224.812C496.513 229.264 493.69 234.981 490.129 239.776C482.948 249.444 474.269 257.751 465.215 265.632L431.018 297.547L399.032 325.215L398.992 333.822L396.439 333.793L394.525 333.693C392.824 333.345 390.783 333.502 389.028 333.47C388.599 333.462 388.109 333.666 387.739 333.447C386.514 332.724 384.216 328.821 383.278 327.573C381.803 325.612 380.148 323.759 378.539 321.906L366.124 307.954C360.72 301.704 355.516 295.398 349.643 289.565C343.307 283.137 337.585 276.338 331.878 269.355C327.85 264.427 323.717 259.661 320.115 254.399C316.535 249.169 313.805 243.581 311.065 237.891C309.967 235.612 308.677 233.425 307.687 231.097L374.224 307.82C376.209 306.351 377.655 303.942 379.041 301.929L385.52 292.875C387.461 290.279 390.259 287.573 391.71 284.719C393.686 294.243 394.149 304.717 393.736 314.412C393.807 316.335 393.695 318.488 394.147 320.35C394.68 322.547 394.001 324.756 394.682 327C395.2 328.704 394.545 331.533 395.438 332.816C396.318 332.952 397.005 332.845 397.877 332.719C398.49 330.594 398.075 327.387 398.062 325.125L397.691 324.562C397.662 322.434 397.579 320.621 398.07 318.562L398.175 315.057L398.812 316.532C400.253 315.629 401.503 314.085 402.797 312.948L412.811 304.317L437.658 282.562C441.577 279.056 445.705 275.735 449.333 271.923Z"/>
	<path fill="#3FC67C" transform="scale(0.666667 0.666667)" d="M391.71 284.719C393.686 294.243 394.149 304.717 393.736 314.412L393.164 318.537C392.958 320.781 392.179 322.719 391.471 324.845C387.249 322.48 384.323 319.26 381.044 315.779C378.65 313.239 376.161 310.738 374.224 307.82C376.209 306.351 377.655 303.942 379.041 301.929L385.52 292.875C387.461 290.279 390.259 287.573 391.71 284.719Z"/>
	<path fill="#3FC67C" transform="scale(0.666667 0.666667)" d="M349.643 289.565C355.516 295.398 360.72 301.704 366.124 307.954L378.539 321.906C380.148 323.759 381.803 325.612 383.278 327.573C384.216 328.821 386.514 332.724 387.739 333.447C388.109 333.666 388.599 333.462 389.028 333.47C390.783 333.502 392.824 333.345 394.525 333.693C386.874 334.366 378.771 333.709 371.062 333.817C365.701 333.891 360.423 334.691 355.083 334.885C346.579 335.195 337.505 334.404 329.25 332.274C326.549 331.577 323.625 330.801 321.13 329.541C319.084 328.068 316.738 326.955 314.609 325.594C307.376 320.972 300.749 315.747 295.492 308.91L306.585 309.451C310.437 309.768 314.071 310.46 317.958 309.837L318.562 309.734C325.007 308.691 332.873 304.919 338.092 301.021L338.576 300.652C342.676 297.561 346.271 293.425 349.643 289.565Z"/>
	<path fill="#AFE67F" transform="scale(0.666667 0.666667)" d="M431.018 297.547C433.853 300.324 436.83 303.08 440.043 305.419C449.435 312.253 459.957 317.101 468.944 324.538C471.383 326.556 474.076 328.53 475.317 331.522L476.2 331.82C473.796 332.644 471.395 333.392 468.919 333.976C467.388 334.338 464.667 334.449 463.44 335.385C467.833 337.66 472.217 340.67 476.232 343.566C482.176 347.852 487.999 352.568 492.966 357.978C501.803 367.603 508.268 379.203 512.814 391.398C522.389 417.08 521.502 447.483 510.027 472.41C501.348 491.263 484.482 508.703 466.95 519.708C457.113 525.882 446.072 530.798 435.157 534.744C404.372 545.874 370.16 545.103 338.964 536.134C331.564 534.007 324.248 531.687 317.272 528.394C295.702 518.213 276.569 502.702 264.469 481.949C261.036 476.063 258.416 469.657 256.139 463.247C247.061 437.691 249.334 408.963 260.986 384.605C271.074 363.519 287.623 346.976 308.097 335.839C312.297 333.554 316.604 331.121 321.13 329.541C323.625 330.801 326.549 331.577 329.25 332.274C337.505 334.404 346.579 335.195 355.083 334.885C360.423 334.691 365.701 333.891 371.062 333.817C378.771 333.709 386.874 334.366 394.525 333.693L396.439 333.793L398.992 333.822L399.032 325.215L431.018 297.547Z"/>
	<path fill="#191816" transform="scale(0.666667 0.666667)" d="M365.359 450.188C366.969 450.002 368.196 451.349 369.6 452.14C371.445 453.179 373.36 454.03 375.388 454.642C385.357 457.653 393.537 454.855 402.321 450.186L403.292 451.154C403.917 451.777 404.239 452.047 404.515 452.941L403.172 454.06C398.786 456.338 394.049 458.879 389.128 459.715L388.5 459.815C387.02 460.072 385.63 460.202 384.129 460.209C378.898 460.234 374 458.587 369.277 456.473C367.354 455.612 365.445 454.758 363.938 453.25C363.952 452.04 364.717 451.159 365.359 450.188Z"/>
	<path fill="#191816" transform="scale(0.666667 0.666667)" d="M452.234 429.081C455.081 428.953 457.8 429.098 460.459 430.239C464.538 431.99 467.18 435.02 468.759 439.132C470.177 442.824 470.02 446.793 468.375 450.375C466.332 454.825 462.668 457.214 458.216 458.805C454.601 459.444 450.604 458.824 447.521 456.795C444.203 454.611 441.291 450.809 440.522 446.893C439.69 442.661 440.707 438.082 443.126 434.537C445.342 431.288 448.49 429.808 452.234 429.081Z"/>
	<path fill="#191816" transform="scale(0.666667 0.666667)" d="M312.833 428.708C315.531 428.545 318.197 428.858 320.674 429.997C324.58 431.792 327.93 435.572 329.22 439.688C330.363 443.336 330.325 448.28 328.293 451.627C325.737 455.835 321.765 457.613 317.192 458.753C313.521 458.752 310.561 458.358 307.343 456.372C303.295 453.875 300.528 450.576 299.54 445.822C298.809 442.304 300.327 438.044 302.255 435.095C304.705 431.346 308.611 429.581 312.833 428.708Z"/>
	<path fill="#23A76D" transform="scale(0.666667 0.666667)" d="M431.018 297.547C433.853 300.324 436.83 303.08 440.043 305.419C449.435 312.253 459.957 317.101 468.944 324.538C471.383 326.556 474.076 328.53 475.317 331.522L476.2 331.82C473.796 332.644 471.395 333.392 468.919 333.976C467.388 334.338 464.667 334.449 463.44 335.385C461.721 334.772 459.817 334.978 458.009 334.983L448.16 334.911L432.673 333.853L398.992 333.822L399.032 325.215L431.018 297.547Z"/>
</svg>
