<svg width="91" height="91" xmlns="http://www.w3.org/2000/svg" xml:space="preserve" version="1.1">

 <g>
  <title>Layer 1</title>
  <g stroke="null" id="svg_1">
   <g stroke="null" id="svg_2">
    <path stroke="null" id="svg_3" fill="#9fe870" d="m23.22939,34.81512c3.49254,-4.00995 7.76119,-7.63184 12.02984,-10.99502c5.17413,-4.1393 -2.58706,-12.28855 -7.37313,-7.37313c-2.71642,2.84577 -5.17413,5.82089 -7.76119,8.79602c-2.84577,-2.71642 -5.82089,-5.17413 -9.18407,-7.37313c-4.78607,-2.97512 -8.92537,4.39801 -4.39801,7.50248c3.88059,2.71642 7.11442,6.0796 10.47761,9.44278c1.55224,1.55224 4.65671,1.81094 6.20895,0z" class="st0"/>
    <path stroke="null" id="svg_4" fill="#9fe870" d="m77.68707,16.44697c-2.71642,2.84577 -5.17413,5.82089 -7.76119,8.79602c-2.84577,-2.71642 -5.82089,-5.17413 -9.18407,-7.37313c-4.78607,-2.97512 -8.92537,4.39801 -4.39801,7.50248c3.88059,2.71642 7.11442,6.0796 10.47761,9.44278c1.55224,1.55224 4.65671,1.81094 6.20895,0c3.49254,-4.00995 7.76119,-7.63184 12.02984,-10.99502c5.17413,-4.1393 -2.58706,-12.28855 -7.37313,-7.37313z" class="st0"/>
    <path stroke="null" id="svg_5" fill="#9fe870" d="m70.31394,49.69073c-5.95025,2.71642 -11.64178,7.37313 -16.68656,11.51243c-2.84577,2.32836 -5.43283,4.78607 -7.89054,7.50248c-0.51741,0.51741 -1.03483,1.03483 -1.68159,1.68159c-6.59701,-8.66666 -15.26367,-20.4378 -26.64675,-22.24874c-1.68159,-0.25871 -3.10448,1.55224 -1.81094,2.97512c4.39801,4.78607 8.66666,9.70149 12.54726,14.87561c1.9403,2.71642 4.00995,5.43283 6.0796,8.0199c1.9403,2.32836 4.1393,5.56219 6.85572,6.85572c3.10448,1.42288 5.69154,0 7.76119,-2.32836c2.45771,-2.71642 4.78607,-5.43283 7.50248,-8.0199c2.71642,-2.58706 5.56219,-4.91542 8.53731,-6.98507c3.23383,-2.32836 6.72636,-3.75124 10.08955,-5.82089c5.43283,-2.97512 0.77612,-10.47761 -4.65671,-8.0199z" class="st0"/>
   </g>
  </g>
 </g>
</svg>