<svg width="450" height="190" xmlns="http://www.w3.org/2000/svg" stroke="null" style="vector-effect: non-scaling-stroke;">

 <g stroke="null">
  <title stroke="null">Layer 1</title>
  <path stroke="null" id="svg_1" d="m0,0.50507c2.59425,-0.79371 5.54214,-0.51744 8.34404,-0.51852l15.8398,-0.00166l54.68349,-0.00747l201.84685,-0.02261l964.86268,0.00013l212.14522,0.02437l49.16906,0.00585c4.15425,0.00087 13.40081,-0.74585 17.00414,0.26828l0.81894,0.25163l0,772.49498l-1524.71421,0l0,-772.49498z" transform="translate(0 0.278898) scale(0.295892 0.272422)" fill="#A0E1E1"/>
  <path stroke="null" id="svg_3" d="m0,0.5c1.7423,-0.78858 3.72211,-0.51409 5.60387,-0.51517l10.63803,-0.00165l36.7255,-0.00742l135.5606,-0.02246l648.003,0.00013l142.477,0.02421l33.022,0.00581c2.79,0.00086 9,-0.74103 11.42,0.26655l0.55,0.25l-1024,0z" transform="translate(0 0.278898) scale(0.295892 0.272422)" fill="#507093"/>
  <g stroke="null" id="svg_9">
   <path stroke="null" id="svg_2" d="m609.05368,363.3122l0.59935,0.0082c-2.73037,4.58886 -23.09695,13.42439 -28.05054,15.06158c-15.17121,5.01609 -31.45197,6.09389 -47.1836,3.45368c-6.12258,-1.02658 -12.04537,-2.36051 -17.60343,-5.2046c-0.57271,-0.37293 -0.94871,-0.74073 -1.42409,-1.22431c1.66588,-0.62906 9.60085,2.56952 11.91423,3.0951c4.40137,1.00096 8.91646,1.68535 13.40287,2.18327c11.0649,1.22943 21.96792,0.38112 32.83918,-1.97734c13.02175,-2.82565 23.66044,-9.8621 35.50603,-15.39558z" transform="translate(47.5 -0.625) scale(0.295892 0.272422)" fill="#F4FBEE"/>
   <path stroke="null" id="svg_4" d="m928.36206,209.97934c16.24184,-12.75434 38.93308,-16.13016 58.98513,-15.40377l-52.2171,38.6708c-0.8688,-2.33695 -0.83704,-5.39414 -1.27144,-7.87759c-0.98867,-5.64925 -2.882,-10.33748 -5.49659,-15.38943z" transform="translate(47.5 -0.625) scale(0.295892 0.272422)" fill="#FFC19E"/>
   <path stroke="null" id="svg_5" d="m364.34729,272.20096c8.51382,8.92773 12.53714,25.15215 25.49127,28.61506c3.60224,0.96306 7.39094,0.85036 11.09461,0.77864c16.01542,-0.31043 30.82906,-5.77116 45.14069,-12.59042c-1.8964,4.23232 -6.11233,8.79455 -9.11625,12.40088c-8.90622,10.69402 -21.89108,22.42691 -35.6761,25.77199c-5.87772,1.42717 -11.99517,1.52655 -17.99275,2.08594c-2.02037,0.18851 -3.48852,0.39342 -4.84602,2.03266l0.34834,1.14235c4.24257,4.39215 9.45844,7.04158 15.01855,9.3898l-8.12246,2.85843c-18.64743,5.31525 -37.15347,4.63496 -55.54989,-1.49581c4.85421,-2.09823 7.94111,-3.88296 11.71547,-7.61839c-12.17958,-8.20544 -21.47922,-21.49664 -30.50019,-32.9191c0.66902,-0.18646 6.44633,2.67914 7.49135,3.10637c5.60417,2.29289 11.33537,4.07967 16.64243,7.06822c4.64009,2.61152 9.54143,7.50057 14.50321,9.09883c1.7837,0.57476 3.80714,-0.1004 5.37877,-0.9815c2.26216,-1.26734 3.75694,-3.56126 4.79479,-5.87362c2.82975,-6.30699 1.91792,-12.41625 0.43952,-18.87385c-0.58193,-2.54185 -1.53064,-5.87259 -1.26427,-8.48719c0.50919,-4.9874 3.49569,-10.66533 5.00892,-15.5093z" transform="translate(47.5 -0.625) scale(0.295892 0.272422)" fill="white"/>
   <path stroke="null" id="svg_6" d="m902.56138,288.36595c3.58687,-0.78069 6.9381,-2.17405 10.5219,-2.95884c15.60765,-3.41373 32.36585,-3.34611 46.91927,3.83276c-1.50503,6.95757 -2.51112,13.95509 -4.51714,20.80611c-9.99734,34.14443 -31.86486,64.12928 -61.88147,83.52257c-35.03065,22.63284 -76.01483,31.48271 -116.9109,22.61235c-28.3159,-6.14102 -56.63486,-22.86848 -78.07311,-42.11014l16.51436,0.58091c13.31784,0.47845 26.28016,0.55939 39.29883,-2.68016c5.34701,-1.33086 10.75549,-3.08588 15.87301,-5.13493c4.40444,-1.76424 43.3324,-19.69347 43.96248,-20.73849c-4.38908,-0.92822 -8.83758,-2.0091 -12.9695,-3.7887l0.50714,-0.50714l4.61345,1.43639c2.49677,0.75098 6.6625,2.41789 9.18284,2.40764c3.89013,-0.01434 10.84872,-4.93822 14.11799,-6.96269c8.32429,-5.1544 16.61784,-10.36924 24.50055,-16.18754l32.57588,-23.77109c5.18411,-3.5838 10.2002,-7.36635 15.76441,-10.359z" transform="translate(47.5 -0.625) scale(0.295892 0.272422)" fill="#FFC19E"/>
   <path stroke="null" id="svg_7" d="m698.61993,374.07076c-17.33193,-13.76965 -32.2716,-32.77566 -40.75981,-53.17196c-11.32718,-27.21863 -12.82606,-63.78299 -1.51118,-91.14608c1.70276,1.17308 3.15452,3.44651 4.52944,5.0417l8.74537,9.78117l25.77404,26.36007c13.75633,13.2912 28.85172,25.38267 44.6233,36.20373l28.74415,18.44355l0.74278,-0.17827l-8.13987,-5.67793c-4.4024,-3.64937 -8.44621,-8.58042 -11.94087,-13.116c-13.16723,-17.09015 -20.53153,-36.88197 -22.6769,-58.31099c-1.53987,-15.38021 -0.16085,-34.07886 7.20243,-47.88745c1.86464,-3.49671 4.43723,-6.53649 6.93093,-9.5947l22.49965,26.21152c9.85288,11.74621 19.72421,23.55492 30.60674,34.36983c8.54456,8.49129 17.5768,17.18133 29.54943,20.2836c8.58759,-8.46772 9.5363,-23.25678 12.65701,-34.41081c3.72416,-13.31374 10.85282,-26.31807 21.54172,-35.296c9.86415,-8.28433 24.11226,-13.03199 37.02131,-11.71957c14.32802,1.45688 24.73824,8.77815 33.60246,19.72318c2.61459,5.05195 4.50792,9.74018 5.49659,15.38943c0.4344,2.48346 0.40264,5.54065 1.27144,7.87759c0.89544,2.22732 -0.37395,4.91466 -1.04604,7.12047c-1.32574,4.35014 -2.42813,8.67775 -4.20056,12.88344c-6.14409,14.57493 -15.94575,24.54154 -27.3221,35.11569c-5.56421,2.99265 -10.5803,6.7752 -15.76441,10.359l-32.57588,23.77109c-7.88272,5.81829 -16.17627,11.03314 -24.50055,16.18754c-3.26927,2.02447 -10.22786,6.94835 -14.11799,6.96269c-2.52034,0.01025 -6.68607,-1.65666 -9.18284,-2.40764l-4.61345,-1.43639l-0.50714,0.50714c4.13192,1.7796 8.58042,2.86048 12.9695,3.7887c-0.63008,1.04502 -39.55804,18.97425 -43.96248,20.73849c-5.11752,2.04906 -10.526,3.80407 -15.87301,5.13493c-13.01867,3.23956 -25.981,3.15862 -39.29883,2.68016l-16.51436,-0.58091z" transform="translate(47.5 -0.625) scale(0.295892 0.272422)" fill="white"/>
   <path stroke="null" id="svg_8" d="m888.97922,225.87591c1.98246,0.17827 3.66781,0.61881 5.41258,1.61261c3.23238,1.84005 5.80907,4.80196 6.725,8.4626c0.88417,3.53155 0.24794,7.2598 -1.71199,10.32007c-2.48141,3.87579 -5.18001,5.19743 -9.52503,6.1738c-2.24884,-0.39957 -4.38293,-0.79196 -6.36232,-1.98349c-2.92093,-1.75911 -5.76604,-4.99047 -6.47501,-8.38473c-0.73561,-3.52642 0.09016,-7.08154 2.04086,-10.07213c2.4476,-3.7508 5.67486,-5.20153 9.89591,-6.12872z" transform="translate(47.5 -0.625) scale(0.295892 0.272422)" fill="#A0E1E1"/>
  </g>
 </g>
</svg>