<svg width="400" height="400" viewBox="0 0 400 400" fill="none" xmlns="http://www.w3.org/2000/svg">
<path d="M373.95 220.446C371.755 214.424 368.371 208.904 364 204.216C360.319 199.707 355.893 195.861 350.914 192.846C352.492 178.56 342.154 168.646 338.03 155.896C335.248 147.146 335.85 137.92 335.63 131.594C335.352 122.794 333.03 108.194 326.604 99.1481C322.066 92.7321 315.494 88.9901 306.282 91.5041C304.024 90.4536 301.645 89.6864 299.198 89.2201C279.288 84.8001 258.798 102.798 259.248 122.708C259.244 122.901 259.281 123.092 259.355 123.269C259.429 123.447 259.539 123.607 259.678 123.74C259.818 123.873 259.983 123.975 260.164 124.041C260.345 124.106 260.538 124.133 260.73 124.12L266.296 123.968C267.242 133.88 267.296 139.868 263.136 146.86C259.838 152.398 256.168 156.034 253.924 162.498C248.614 177.718 256.38 181.642 257.304 186.898C257.383 187.693 257.295 188.496 257.047 189.255C256.798 190.015 256.394 190.714 255.86 191.308C246.79 196.305 239.12 203.501 233.556 212.234C232.505 214.089 231.592 216.02 230.826 218.01C230.739 218.217 230.734 218.449 230.813 218.659C230.892 218.869 231.049 219.041 231.25 219.139C231.452 219.237 231.684 219.254 231.898 219.186C232.112 219.118 232.292 218.971 232.4 218.774C233.412 217.014 235.162 214.684 235.824 213.692C238.47 209.748 241.544 206.109 244.99 202.842C258.006 190.406 268.152 188.006 275.774 186.746C278.753 186.237 281.773 186.008 284.794 186.06V186.26C284.805 186.504 284.91 186.735 285.087 186.904C285.264 187.072 285.499 187.167 285.743 187.167C285.987 187.167 286.222 187.072 286.399 186.904C286.576 186.735 286.681 186.504 286.692 186.26C286.904 178.942 287.186 178.088 286.914 168.33C290.055 168.393 293.171 167.766 296.042 166.492C297.564 165.592 298.364 165.17 298.042 164.312C297.728 163.5 296.954 163.698 295.172 164.024C294.938 164.066 294.707 164.119 294.478 164.182C287.972 165.94 282.21 166.676 277.004 160.838C272.638 155.942 271.482 147.274 271.1 140.766C270.961 137.658 271.037 134.544 271.326 131.446C273.126 133.682 276.796 133.986 277.772 132.012C279.072 129.386 274.54 126.088 271.714 127.59C271.846 126.486 272.004 125.548 272.324 123.79L283.968 123.474C284.249 123.461 284.52 123.368 284.75 123.205C284.979 123.043 285.158 122.819 285.264 122.558C288.324 114.977 293.458 108.412 300.078 103.616C300.038 107.148 300.06 110.674 300.078 114.196C298.526 113.538 296.816 113.345 295.156 113.64C293.496 113.936 291.958 114.707 290.728 115.86C290.128 116.66 289.186 118.572 290.172 119.084C290.892 119.458 290.906 118.934 292.626 117.812C293.54 117.1 294.625 116.64 295.772 116.478C297.235 116.333 298.711 116.522 300.09 117.03C300.294 126.357 299.764 135.685 298.504 144.928C298.445 145.284 298.522 145.648 298.719 145.95C298.916 146.252 299.219 146.469 299.568 146.558C299.924 146.641 300.299 146.586 300.616 146.404C300.934 146.223 301.172 145.929 301.282 145.58C303.388 138.888 306.27 132.802 307.762 125.918C308.009 126.223 308.272 126.515 308.55 126.792C308.256 132.527 307.932 138.261 307.578 143.992C306.154 164.884 297.616 199.64 322.808 209.14C323.093 209.238 323.402 209.237 323.687 209.138C323.971 209.038 324.213 208.845 324.374 208.59C324.534 208.335 324.604 208.034 324.572 207.734C324.54 207.435 324.407 207.155 324.196 206.94C318.22 201.366 316.518 191.6 316.28 183.446C325.038 183.774 333.626 185.963 341.472 189.867C349.319 193.772 356.243 199.303 361.786 206.092C365.66 210.858 369.158 215.918 372.248 221.226C372.367 221.425 372.556 221.572 372.777 221.64C372.998 221.709 373.237 221.693 373.448 221.597C373.658 221.5 373.826 221.33 373.919 221.117C374.011 220.905 374.022 220.666 373.95 220.446Z" fill="#163300"/>
<path d="M389.968 274.91C389.788 271.612 388.82 271.738 387.236 260.6C385.436 247.6 383.958 230.866 378.116 220.854C377.942 220.55 377.661 220.322 377.328 220.215C376.995 220.108 376.634 220.13 376.316 220.276C343.948 235.332 309.65 231.41 274.428 226.516C257.526 224.164 243.856 224.134 227.628 218.832C227.352 218.741 227.056 218.733 226.776 218.81C226.496 218.886 226.245 219.044 226.054 219.262C216.362 230.692 209.178 241.568 204.9 255.926C204.849 256.12 204.84 256.323 204.871 256.521C204.903 256.72 204.975 256.909 205.084 257.078C205.938 258.66 209.37 257.124 213.51 258.878C215.148 259.516 216.609 260.54 217.768 261.862C219.768 264.24 222.018 268.662 227.168 269.144C229.341 269.292 231.498 268.687 233.278 267.432C233.557 267.255 233.765 266.986 233.866 266.671C233.968 266.357 233.956 266.017 233.834 265.71C232.216 261.69 228.598 252.444 228.326 251.67C228.048 250.692 227.984 250.112 228.974 249.67C230.934 248.832 235.728 249.368 239.158 249.236C243.118 249.237 247.075 249.472 251.008 249.938C260.156 250.666 262.752 251.984 265.59 263.182C265.64 263.45 265.775 263.694 265.976 263.879C266.176 264.063 266.431 264.178 266.702 264.206C272.884 264.894 276.87 270.722 279.57 276.316C281.058 279.059 281.958 282.083 282.21 285.194C282.209 285.443 282.29 285.685 282.44 285.884C282.591 286.082 282.802 286.226 283.042 286.292C294.861 290.107 307.09 292.511 319.474 293.454C319.615 293.553 319.781 293.61 319.953 293.619C320.125 293.628 320.296 293.588 320.446 293.504L320.864 293.522C320.988 293.529 321.113 293.51 321.229 293.466C321.345 293.421 321.45 293.353 321.538 293.264C321.626 293.176 321.693 293.07 321.737 292.953C321.78 292.837 321.798 292.712 321.79 292.588C324.576 291.17 329.42 292.532 332.854 291.49C338.764 289.69 342.598 284.938 349.148 285.764C353.788 286.352 358.194 289.028 363.36 288.728C368.526 288.428 370.796 284.42 374.886 282.696C377.804 281.528 380.788 282.546 384.006 282.186C388.176 281.716 390.286 279.382 389.968 274.91ZM327.704 290.344C326.632 290.44 326.536 289.032 326.084 286.838C325.22 281.738 324.725 276.582 324.602 271.41C324.602 270.81 324.696 270.238 324.742 269.65C325.022 267.834 325.094 267.036 325.942 267.05C326.696 267.064 326.796 267.75 327.098 269.624C327.146 270.194 327.284 270.744 327.33 271.314C327.562 273.576 327.654 275.846 327.886 278.114C328.138 280.604 328.674 285.09 328.674 286.714C328.678 288.73 328.824 290.242 327.704 290.344Z" fill="#163300"/>
<path d="M359.136 317.716C336.11 333.916 305.032 320.78 279.608 308.716C278.642 308.218 276.954 309.17 277.386 310.54C278.386 313.646 281.416 319.302 279.328 322.118C278.026 323.882 274.328 323.77 272.152 323.636C265.006 323.218 256.482 322.81 250.582 318.636C248.038 316.766 247.49 313.314 246.646 309.998C245.446 304.576 243.918 302.798 241.368 301.064C238.916 299.406 235.644 298.264 233.5 296.776C233.279 296.631 233.021 296.551 232.757 296.543C232.493 296.535 232.232 296.6 232.002 296.732C231.772 296.863 231.583 297.054 231.455 297.286C231.328 297.517 231.266 297.78 231.278 298.044C231.278 298.044 233.078 324.844 233.5 330.972C233.523 331.286 233.649 331.584 233.859 331.82C234.068 332.056 234.349 332.217 234.658 332.278C261.132 337.918 294.952 338.84 322.102 338.204C333.816 337.894 345.972 338.452 357.656 335.916C357.778 335.998 357.919 336.048 358.065 336.061C358.212 336.073 358.359 336.048 358.494 335.988C358.628 335.928 358.745 335.835 358.833 335.717C358.921 335.6 358.978 335.462 358.998 335.316C359.598 330.516 360.43 326.178 360.798 318.618C360.804 318.422 360.756 318.228 360.658 318.058C360.561 317.888 360.418 317.748 360.245 317.654C360.073 317.561 359.878 317.517 359.682 317.528C359.486 317.539 359.297 317.604 359.136 317.716Z" fill="#163300"/>
<path d="M279.978 131.322C279.978 134.004 280.356 134.582 278.82 135.496C278.036 135.896 277.304 136.393 276.644 136.976C276.142 137.457 275.787 138.072 275.622 138.748C275.457 139.424 275.488 140.133 275.712 140.792C275.936 141.451 276.342 142.032 276.885 142.468C277.427 142.903 278.083 143.175 278.774 143.252C280.036 143.452 281.056 143.52 281.228 142.576C281.314 141.61 280.524 141.63 279.654 141.142C279.345 141.009 279.068 140.81 278.844 140.559C278.62 140.308 278.453 140.01 278.356 139.688C278.286 138.712 279.588 138.652 281.32 137.274C281.961 136.696 282.436 135.958 282.697 135.135C282.957 134.312 282.993 133.435 282.8 132.594C282.772 132.062 282.679 131.536 282.524 131.026C282.006 128.88 281.62 128.09 280.902 128.144C279.912 128.216 279.978 129.578 279.978 131.322Z" fill="#163300"/>
<path d="M293.508 145.254L293.184 145.202C288.996 147.108 284.307 147.622 279.806 146.668C279.744 148.792 280.09 150.908 280.826 152.902C282.722 157.816 288.046 159.252 291.38 155.43C292.473 154.001 293.232 152.345 293.6 150.584C293.968 148.823 293.937 147.001 293.508 145.254Z" fill="#9FE870"/>
<path d="M294.342 145.066C296.884 153.508 291.182 160.524 284.992 158.786C283.715 158.384 282.549 157.691 281.585 156.762C280.621 155.833 279.885 154.693 279.436 153.432C278.69 151.252 278.33 148.959 278.372 146.656C278.376 146.434 278.432 146.216 278.536 146.021C278.641 145.825 278.79 145.657 278.972 145.53C279.972 144.686 280.52 145.982 285.128 145.76C287.754 145.607 290.35 145.129 292.858 144.336C293.33 144.142 294.26 144.468 294.342 145.066ZM292.768 146.438C289.224 148.228 285.228 148.924 281.288 148.438C281.376 149.789 281.673 151.119 282.166 152.38C284.352 157.816 290.576 157.642 292.304 150.364C292.634 149.082 292.79 147.762 292.768 146.438Z" fill="#163300"/>
<path d="M288.59 131.104C288.748 131.439 289.024 131.712 289.402 131.908C289.781 132.104 290.254 132.218 290.794 132.245C291.334 132.271 291.931 132.209 292.55 132.062C293.169 131.915 293.798 131.686 294.4 131.388C295.002 131.09 295.565 130.73 296.058 130.327C296.55 129.924 296.962 129.488 297.269 129.042C297.576 128.597 297.772 128.151 297.846 127.732C297.92 127.312 297.87 126.927 297.7 126.598C297.542 126.263 297.266 125.99 296.887 125.794C296.509 125.598 296.036 125.484 295.496 125.457C294.956 125.431 294.359 125.493 293.74 125.64C293.121 125.787 292.492 126.016 291.89 126.314C291.288 126.611 290.725 126.972 290.232 127.375C289.74 127.778 289.328 128.214 289.021 128.66C288.714 129.105 288.518 129.551 288.444 129.97C288.37 130.39 288.42 130.775 288.59 131.104Z" fill="#163300"/>
<path d="M231 271.09C232.073 273.043 233.767 274.582 235.814 275.464C240.56 277.498 245.534 278.953 250.628 279.798C254.177 280.555 257.787 280.985 261.414 281.084C261.538 281.107 261.665 281.105 261.787 281.078C261.91 281.051 262.026 281 262.129 280.927C262.231 280.854 262.318 280.761 262.384 280.654C262.45 280.547 262.493 280.427 262.512 280.303C262.531 280.179 262.524 280.052 262.493 279.93C262.461 279.808 262.406 279.694 262.329 279.594C262.253 279.494 262.157 279.411 262.047 279.349C261.938 279.287 261.817 279.248 261.692 279.234C252.996 276.972 253.746 277.712 246.972 276.076C243.468 275.23 234.75 272.922 232.436 270.142C232.374 270.048 232.294 269.967 232.2 269.903C232.106 269.84 232.001 269.796 231.891 269.773C231.78 269.75 231.666 269.75 231.555 269.771C231.444 269.793 231.338 269.836 231.244 269.898C231.15 269.96 231.069 270.04 231.005 270.134C230.942 270.228 230.898 270.333 230.875 270.443C230.852 270.554 230.852 270.668 230.873 270.779C230.895 270.89 230.938 270.996 231 271.09Z" fill="#163300"/>
<path d="M231.834 281.658C234.003 284 236.678 285.815 239.656 286.964C240.414 287.202 242.488 287.742 242.856 286.788C243.42 285.32 239.738 284.176 237.068 282.372C234.242 280.462 232.068 277.796 231.05 278.586C230.274 279.2 231.124 280.562 231.834 281.658Z" fill="#163300"/>
<path d="M232.11 289.848C232.319 290.547 232.649 291.205 233.084 291.792C235.13 293.782 237.646 295.221 240.398 295.978C241.109 296.163 241.839 296.267 242.574 296.288C242.808 296.368 243.065 296.353 243.288 296.248C243.512 296.142 243.686 295.953 243.774 295.722C243.858 295.489 243.846 295.232 243.742 295.008C243.638 294.783 243.45 294.609 243.218 294.522C242.625 294.077 241.99 293.69 241.322 293.368C238.48 292.318 235.835 290.798 233.498 288.87C233.436 288.773 233.355 288.69 233.261 288.626C233.166 288.561 233.059 288.516 232.946 288.494C232.834 288.472 232.718 288.473 232.606 288.496C232.494 288.52 232.387 288.566 232.294 288.632C232.2 288.698 232.12 288.783 232.06 288.88C231.999 288.977 231.959 289.086 231.942 289.2C231.924 289.313 231.93 289.429 231.959 289.54C231.987 289.651 232.038 289.755 232.108 289.846L232.11 289.848Z" fill="#163300"/>
<path d="M278.682 310.772C273.658 312.772 268.868 311.358 263.636 310.054C253.836 307.614 242.658 305.744 234.75 299.292C234.571 299.151 234.456 298.944 234.429 298.718C234.403 298.492 234.467 298.265 234.608 298.086C234.749 297.907 234.955 297.792 235.182 297.765C235.408 297.738 235.635 297.803 235.814 297.944C242.896 303.45 255.002 305.186 264.284 307.344C268.974 308.438 273.634 309.966 278.034 307.944C278.353 307.793 278.719 307.774 279.052 307.89C309.882 318.838 344.694 338.214 366.868 307.912C371.533 301.485 374.481 293.974 375.432 286.09C375.457 285.845 375.579 285.62 375.769 285.464C375.96 285.308 376.205 285.234 376.45 285.258C376.574 285.268 376.695 285.304 376.804 285.362C376.914 285.42 377.011 285.5 377.089 285.597C377.167 285.694 377.225 285.806 377.258 285.925C377.292 286.045 377.3 286.171 377.284 286.294C376.653 294.616 373.808 302.619 369.044 309.472C345.918 342.936 305.16 319.888 278.682 310.772Z" fill="#163300"/>
<path d="M144.526 222.984C162.104 224.814 169.696 228.658 177.996 237.034C179.579 238.569 181.078 240.188 182.486 241.884C182.558 241.986 182.649 242.072 182.755 242.138C182.86 242.204 182.977 242.248 183.1 242.269C183.223 242.289 183.348 242.285 183.469 242.257C183.591 242.229 183.705 242.176 183.806 242.104C183.907 242.031 183.992 241.939 184.057 241.833C184.122 241.727 184.166 241.609 184.185 241.486C184.205 241.363 184.199 241.238 184.17 241.117C184.141 240.996 184.088 240.882 184.014 240.782C179.98 234.1 174.067 228.754 167.014 225.41C162.107 223.085 156.824 221.657 151.414 221.196C149.116 221.049 146.81 221.073 144.516 221.266C144.4 221.26 144.283 221.279 144.174 221.319C144.065 221.36 143.966 221.422 143.881 221.502C143.797 221.583 143.73 221.679 143.684 221.786C143.638 221.893 143.615 222.009 143.615 222.125C143.615 222.241 143.638 222.357 143.684 222.464C143.73 222.571 143.797 222.667 143.881 222.748C143.966 222.828 144.065 222.89 144.174 222.931C144.283 222.972 144.4 222.99 144.516 222.984H144.526Z" fill="#163300"/>
<path d="M170.08 243.708C169.78 241.69 169.039 239.763 167.911 238.063C166.783 236.364 165.295 234.933 163.552 233.872C163.44 233.822 163.338 233.749 163.254 233.659C163.17 233.569 163.104 233.463 163.061 233.348C163.018 233.232 162.998 233.109 163.003 232.986C163.008 232.863 163.038 232.742 163.09 232.63C163.196 232.404 163.387 232.23 163.62 232.143C163.854 232.057 164.113 232.066 164.34 232.168C166.802 233.13 168.934 234.783 170.478 236.928C172.022 239.074 172.912 241.62 173.042 244.26C173.073 244.527 173.028 244.797 172.914 245.039C172.799 245.282 172.619 245.488 172.394 245.634C168.922 247.782 168.17 250.338 169.194 252.74C170.88 256.668 176.976 260.228 180.768 261.004C180.986 261.038 181.183 261.155 181.318 261.331C181.452 261.506 181.514 261.727 181.49 261.947C181.466 262.167 181.358 262.369 181.189 262.511C181.02 262.654 180.803 262.726 180.582 262.712C170.116 262.494 159.918 250.812 170.08 243.708Z" fill="#163300"/>
<path d="M176.7 268C170.148 267.782 166.056 263.328 163.366 257.238C163.241 257.049 163.196 256.818 163.239 256.596C163.282 256.373 163.411 256.176 163.598 256.048C163.791 255.924 164.025 255.881 164.249 255.928C164.473 255.975 164.67 256.108 164.798 256.298C169.172 260.728 170.908 265.272 177.53 265.158C177.812 265.146 178.09 265.22 178.33 265.37C178.569 265.519 178.757 265.738 178.87 265.996C179.982 268.636 179.608 267.098 181.556 271.986C181.663 272.2 181.683 272.446 181.613 272.675C181.542 272.903 181.386 273.096 181.178 273.212C180.969 273.328 180.723 273.359 180.492 273.299C180.26 273.239 180.061 273.091 179.936 272.888C178.683 271.381 177.598 269.742 176.7 268Z" fill="#163300"/>
<path d="M185.032 284.4C185.32 285.152 187.908 289.818 188.596 290.9C189.276 291.736 190.33 293.35 191.236 292.808C192.782 291.958 190.138 287.864 189.338 286.392C188.538 284.92 186.396 280.682 185.032 281.41C184.18 281.8 184.636 283.124 185.032 284.4Z" fill="#163300"/>
<path d="M202.16 313.254C203.022 314.82 204.08 316.269 205.308 317.568C208.373 320.544 212.319 322.449 216.556 322.998C219.535 323.407 222.566 323.185 225.453 322.347C228.341 321.509 231.02 320.073 233.316 318.132C233.515 317.987 233.65 317.771 233.693 317.528C233.736 317.286 233.683 317.036 233.546 316.832C233.408 316.626 233.195 316.483 232.952 316.434C232.71 316.384 232.457 316.432 232.25 316.568C230.817 317.329 229.332 317.987 227.806 318.536C219.492 321.678 213.044 320.476 207.114 315.578C205.857 314.563 204.681 313.453 203.594 312.258C203.457 312.08 203.257 311.962 203.035 311.927C202.813 311.893 202.587 311.945 202.403 312.073C202.218 312.201 202.09 312.395 202.045 312.615C202 312.835 202.041 313.064 202.16 313.254Z" fill="#163300"/>
<path d="M215.624 275.54C215.102 274.764 209.702 268.25 208.68 267.05C208.204 266.512 208.28 267.134 209.66 264.428C210.26 263.318 210.724 262.188 211.28 261.068C211.414 260.859 211.461 260.606 211.408 260.363C211.356 260.12 211.209 259.908 211 259.774C210.791 259.639 210.538 259.593 210.295 259.646C210.052 259.698 209.84 259.845 209.706 260.054C208.473 261.511 207.344 263.052 206.326 264.666C204.239 262.557 202.186 260.413 200.17 258.236C198.35 256.236 196.74 254.452 195.726 253.522C194.338 252.254 193.848 251.468 193.088 252.068C192.244 252.742 193.214 253.992 194.8 256.268C196.744 259.068 212.544 276.298 213.864 277.558C215.264 278.886 216.064 279.728 216.828 279.122C217.592 278.516 216.918 277.464 215.624 275.54Z" fill="#163300"/>
<path d="M329.6 228.622C330.048 226.871 330.032 225.033 329.554 223.29C329.424 222.788 329.138 222.354 328.628 222.358C327.028 222.374 327.428 227.002 327.842 228.57C328.17 229.8 329.272 229.706 329.6 228.622Z" fill="#163300"/>
<path d="M279.328 224.358C279.999 222.602 280.836 220.914 281.828 219.318C282.448 218.318 283.89 216.358 282.986 215.604C282.27 214.932 280.572 216.404 280.302 216.684C278.593 218.661 277.386 221.02 276.782 223.562C276.654 224.376 276.582 226.114 277.478 226.312C278.246 226.482 279.27 224.558 279.328 224.358Z" fill="#163300"/>
<path d="M245.352 221.84C246.015 219.748 246.449 217.591 246.646 215.406C246.704 215.173 246.67 214.926 246.553 214.716C246.435 214.507 246.242 214.35 246.013 214.277C245.784 214.204 245.536 214.222 245.319 214.326C245.102 214.43 244.933 214.612 244.846 214.836C243.931 216.95 243.52 219.248 243.646 221.548C243.8 222.862 244.948 222.816 245.352 221.84Z" fill="#163300"/>
<path d="M330.158 293.518C329.324 293.408 307.958 289.918 300.392 288.334C294.05 287.014 287.754 285.514 281.592 283.826C278.782 274.784 274.048 269.294 268.768 266.414C268.602 266.315 268.41 266.27 268.217 266.284C268.024 266.299 267.841 266.373 267.692 266.496C266.618 261.696 264.802 255.204 260.992 252.06C257.11 248.86 234.368 247.36 231.178 247.486C230.413 247.433 229.647 247.573 228.951 247.895C228.256 248.218 227.652 248.71 227.198 249.328C226.03 251.328 227.218 253.58 227.938 255.666C229.31 259.626 231.562 264.386 233.262 268.692C233.34 268.908 233.5 269.085 233.707 269.184C233.914 269.284 234.152 269.299 234.369 269.226C234.587 269.153 234.768 268.998 234.873 268.793C234.977 268.589 234.998 268.351 234.93 268.132C229.902 251.732 228.426 250.912 230.3 250.462C232.666 249.886 256.182 251.92 259.14 254.262C261.916 256.53 263.09 260.562 264.14 263.762C265.426 267.684 266.507 271.67 267.38 275.704C267.431 275.944 267.574 276.155 267.778 276.291C267.982 276.427 268.231 276.479 268.472 276.434C268.714 276.39 268.928 276.253 269.07 276.052C269.212 275.852 269.27 275.604 269.232 275.362C268.876 272.972 268.52 270.562 268.042 268.188C273.394 271.82 277.372 279.304 279.092 285.408C279.16 285.638 279.284 285.848 279.454 286.018C279.624 286.188 279.834 286.312 280.064 286.38C293.116 290.064 306.423 292.776 319.876 294.494C324.302 295 327.968 295.094 329.966 295.236C330.194 295.261 330.422 295.195 330.602 295.052C330.781 294.909 330.896 294.701 330.921 294.473C330.946 294.245 330.88 294.016 330.737 293.837C330.594 293.658 330.386 293.543 330.158 293.518Z" fill="#163300"/>
<path d="M248.22 257.088C250.24 257.372 252.598 257.116 253.916 258.18C255.09 259.428 255.977 260.917 256.516 262.544C260.04 270.812 260.418 275.626 262.116 275.1C263.306 274.752 262.694 273.4 261.838 269.5C261.189 266.721 260.291 264.007 259.154 261.39C258.509 259.3 257.328 257.416 255.728 255.924C253.596 254.218 250.978 254.548 248.6 254.238C245.368 253.728 242.104 253.447 238.832 253.396C236.686 253.376 234.664 253.132 234.664 254.248C234.546 255.4 235.4 255.28 248.22 257.088Z" fill="#163300"/>
<path d="M245.632 267.174C245.396 265.558 244.944 263.981 244.286 262.486C244.067 261.697 243.63 260.986 243.025 260.435C242.42 259.883 241.672 259.514 240.866 259.368C239.399 258.963 237.847 258.982 236.39 259.422C235.995 259.554 235.654 259.811 235.417 260.153C235.181 260.496 235.062 260.906 235.078 261.322C236.018 263.454 235.396 268.758 239.192 269.796C240.033 270.074 240.897 270.275 241.774 270.396C244.158 270.632 245.898 269.526 245.632 267.174Z" fill="#163300"/>
<path d="M270.164 313.336C270.132 316.784 271.764 317.724 269.516 320.392C268.736 321.318 269.628 322.494 270.716 321.822C273.606 320.042 273.024 316.048 271.828 313.058C271.368 311.904 270.174 312.232 270.164 313.336Z" fill="#163300"/>
<path d="M244.702 306.62C244.168 310.686 245.105 314.808 247.342 318.244C249.942 321.628 254.142 322.582 258.266 323.558C263.743 325.279 269.472 326.062 275.21 325.872C276.06 325.9 276.906 325.75 277.695 325.433C278.484 325.116 279.198 324.638 279.792 324.03C281.816 321.702 280.316 317.23 279.514 313.156C279.466 312.915 279.326 312.703 279.124 312.564C278.922 312.425 278.674 312.371 278.432 312.412C278.19 312.454 277.974 312.589 277.83 312.788C277.687 312.986 277.626 313.233 277.662 313.476C277.935 315.625 278.09 317.787 278.126 319.952C278.261 320.745 278.095 321.56 277.662 322.238C276.344 323.712 269.062 322.894 267.108 322.614C264.452 322.244 261.508 321.35 258.908 320.744C255.508 319.944 251.708 319.184 249.558 316.508C247.655 313.552 246.569 310.146 246.41 306.634C246.391 306.422 246.294 306.224 246.137 306.079C245.981 305.934 245.776 305.853 245.562 305.852C245.349 305.85 245.143 305.928 244.984 306.07C244.825 306.212 244.724 306.408 244.702 306.62Z" fill="#163300"/>
<path d="M179.246 305.44C178.34 304.159 177.317 302.966 176.19 301.874C172.816 298.604 167.55 297.474 164.432 301.244C163.358 302.788 162.618 304.539 162.259 306.385C161.901 308.232 161.931 310.132 162.348 311.966C163.796 318.942 173.148 327.6 178.828 331.826V331.89C178.975 332.016 179.16 332.089 179.354 332.097C179.547 332.105 179.738 332.046 179.894 331.932C180.124 331.932 193.006 323.91 197.622 314.156C203.458 302.232 190.876 288.828 179.246 305.44Z" fill="#9FE870"/>
<path d="M190.634 82.3179C190.726 81.3179 191.374 72.9759 187.434 67.1279C186.41 65.5776 185.068 64.2631 183.496 63.272C181.925 62.2809 180.16 61.6359 178.32 61.3799C165.564 59.2219 53.72 65.7199 22.5 67.2279C20.6608 67.3762 18.882 67.9537 17.3064 68.9141C15.7309 69.8745 14.4025 71.191 13.428 72.7579C10.6 77.0119 10.16 82.7759 10.51 87.8639C10.51 83.9079 10.002 268.746 10.002 268.948C10.002 275.864 13.03 280.798 19.768 280.876C22.87 280.914 173.736 280.876 175.264 280.904C183.414 281.05 190.148 276.866 190.634 268.438C190.914 264.312 190.634 82.9719 190.634 82.3179ZM187.764 268.252C187.749 269.707 187.394 271.138 186.726 272.43C186.059 273.723 185.098 274.841 183.92 275.696C181.381 277.311 178.411 278.118 175.404 278.01C150.77 278.01 22.218 278.062 19.768 278.034C18.7257 278.095 17.685 277.888 16.7453 277.433C15.8056 276.978 14.9982 276.29 14.4 275.434C13.2524 273.52 12.7042 271.306 12.826 269.078C13.1 268.878 12.336 91.7299 12.334 91.4579C16.596 91.3499 178.548 86.1359 187.778 85.8059C187.842 101.354 188 264.188 187.764 268.252Z" fill="#9FE870"/>
<path d="M35.242 234.514C35.2551 234.348 35.2193 234.181 35.1391 234.034C35.0589 233.888 34.9376 233.768 34.7903 233.69C34.6429 233.611 34.4759 233.577 34.3095 233.592C34.1432 233.607 33.9849 233.67 33.854 233.774C33.612 233.774 28.358 237.574 27.928 237.888C25.058 240.02 22.328 242.288 22.328 242.288C22.1552 242.422 22.0153 242.595 21.9191 242.791C21.823 242.988 21.7729 243.204 21.7729 243.423C21.7729 243.642 21.823 243.858 21.9191 244.055C22.0153 244.251 22.1552 244.424 22.328 244.558L33.438 252.878C33.6527 253.037 33.9074 253.134 34.1738 253.158C34.4402 253.182 34.7079 253.131 34.9474 253.012C35.1869 252.893 35.3888 252.71 35.5308 252.483C35.6728 252.257 35.7493 251.995 35.752 251.728C35.8898 245.985 35.7196 240.239 35.242 234.514ZM33.298 236.772C30.762 239.138 28.238 241.242 25.566 243.372L32.882 248.83C32.8122 244.806 32.951 240.781 33.298 236.772Z" fill="#163300"/>
<path d="M152.674 230.656C152.541 230.553 152.383 230.489 152.216 230.469C152.049 230.45 151.881 230.477 151.728 230.547C151.575 230.617 151.445 230.727 151.35 230.866C151.256 231.004 151.201 231.166 151.192 231.334C151.548 231.334 150.576 233.334 150.73 248.546C150.733 248.813 150.809 249.075 150.951 249.302C151.093 249.528 151.295 249.711 151.535 249.83C151.774 249.949 152.042 250 152.308 249.976C152.575 249.952 152.829 249.855 153.044 249.696L164.154 241.378C164.325 241.242 164.463 241.07 164.558 240.873C164.654 240.676 164.703 240.46 164.703 240.242C164.703 240.024 164.654 239.808 164.558 239.611C164.463 239.414 164.325 239.242 164.154 239.106C160.446 236.182 156.602 233.18 152.674 230.594V230.656ZM153.182 233.592C153.531 237.604 153.67 241.631 153.6 245.658L160.914 240.2C158.236 238.058 155.716 235.956 153.182 233.6V233.592Z" fill="#163300"/>
<path d="M72.178 227.616C72.1971 226.913 72.0765 226.213 71.8232 225.557C71.5698 224.901 71.1888 224.302 70.7021 223.794C70.2154 223.286 69.6328 222.88 68.9881 222.599C68.3433 222.319 67.6492 222.168 66.946 222.158C63.984 222.074 50.746 221.852 48.66 221.838C47.5209 221.841 46.4082 222.181 45.4614 222.814C44.5147 223.448 43.776 224.346 43.338 225.398C42.704 226.982 42.874 224.97 42.874 253.646C42.8649 254.409 43.0082 255.166 43.2956 255.873C43.583 256.58 44.0086 257.222 44.5475 257.762C45.0865 258.303 45.7278 258.73 46.434 259.019C47.1402 259.308 47.897 259.453 48.66 259.446C69.038 259.446 67.692 259.604 69.168 258.992C70.2168 258.542 71.1121 257.796 71.7449 256.846C72.3776 255.897 72.7206 254.783 72.732 253.642C72.71 250.9 72.362 231.55 72.27 227.612L72.178 227.616ZM70.378 227.616C69.732 254.922 70.136 253.616 69.684 254.774C69.5342 255.135 69.3137 255.463 69.0355 255.737C68.7573 256.012 68.427 256.229 68.064 256.374C67.394 256.678 68.376 256.586 48.664 256.586C47.8943 256.565 47.1622 256.248 46.6194 255.702C46.0766 255.156 45.7646 254.422 45.748 253.652C45.748 225.154 45.648 227.132 45.98 226.492C46.1135 226.129 46.323 225.798 46.5944 225.522C46.8658 225.246 47.193 225.031 47.554 224.892C48.62 224.466 47.638 224.798 66.954 224.346C67.4009 224.327 67.8471 224.397 68.2667 224.553C68.6863 224.708 69.0709 224.945 69.3982 225.25C69.7255 225.554 69.9889 225.921 70.1733 226.329C70.3576 226.737 70.4591 227.177 70.472 227.624L70.378 227.616Z" fill="#163300"/>
<path d="M107.708 227C107.727 226.297 107.607 225.597 107.353 224.941C107.1 224.285 106.719 223.686 106.232 223.178C105.745 222.671 105.163 222.264 104.518 221.984C103.873 221.703 103.179 221.553 102.476 221.542C99.514 221.46 86.276 221.238 84.192 221.224C83.0527 221.228 81.9398 221.567 80.9928 222.201C80.0457 222.834 79.3066 223.733 78.868 224.784C78.234 226.368 78.404 224.356 78.404 253.03C78.3952 253.793 78.5388 254.55 78.8264 255.257C79.114 255.964 79.5398 256.607 80.0789 257.147C80.618 257.687 81.2594 258.114 81.9657 258.403C82.672 258.692 83.4289 258.837 84.192 258.83C104.568 258.83 103.222 258.986 104.698 258.376C105.747 257.925 106.643 257.18 107.276 256.23C107.909 255.279 108.252 254.166 108.264 253.024C108.24 250.284 107.892 230.934 107.8 226.994L107.708 227ZM105.994 227C105.794 227 105.44 252.58 105.44 253.03C105.438 253.418 105.361 253.801 105.211 254.158C105.061 254.516 104.842 254.84 104.567 255.113C104.291 255.385 103.965 255.601 103.606 255.747C103.248 255.894 102.863 255.968 102.476 255.966C82.536 255.966 83.924 256.068 83.076 255.73C82.3717 255.418 81.8101 254.852 81.502 254.146C81.172 253.316 81.27 255.518 81.27 227C81.2661 226.614 81.3385 226.23 81.4832 225.872C81.6279 225.514 81.842 225.188 82.1132 224.912C82.3843 224.637 82.7073 224.418 83.0633 224.268C83.4194 224.118 83.8016 224.04 84.188 224.038C101.848 223.92 102.524 223.462 103.77 223.918C104.405 224.154 104.955 224.573 105.352 225.121C105.749 225.67 105.974 226.324 106 227H105.994Z" fill="#163300"/>
<path d="M142.648 227.438C142.667 226.735 142.547 226.035 142.293 225.379C142.04 224.723 141.659 224.124 141.172 223.616C140.685 223.109 140.103 222.702 139.458 222.422C138.813 222.141 138.119 221.991 137.416 221.98C134.454 221.898 121.216 221.676 119.132 221.662C117.993 221.666 116.88 222.005 115.933 222.639C114.986 223.272 114.247 224.171 113.808 225.222C113.174 226.806 113.344 224.794 113.344 253.468C113.335 254.231 113.479 254.988 113.766 255.695C114.054 256.402 114.48 257.045 115.019 257.585C115.558 258.125 116.199 258.552 116.906 258.841C117.612 259.13 118.369 259.275 119.132 259.268C139.508 259.268 138.162 259.424 139.64 258.814C140.688 258.363 141.583 257.617 142.216 256.667C142.848 255.717 143.192 254.603 143.204 253.462C143.18 250.722 142.832 231.372 142.74 227.432L142.648 227.438ZM140.848 227.438C140.204 254.744 140.608 253.438 140.154 254.598C140.004 254.959 139.784 255.287 139.506 255.562C139.228 255.837 138.897 256.053 138.534 256.198C137.866 256.504 138.846 256.412 119.134 256.412C118.364 256.391 117.631 256.075 117.088 255.528C116.544 254.981 116.232 254.247 116.216 253.476C116.216 224.978 116.118 226.956 116.448 226.318C116.581 225.955 116.791 225.624 117.062 225.348C117.334 225.072 117.661 224.857 118.022 224.718C119.088 224.292 118.108 224.624 137.422 224.172C137.869 224.153 138.315 224.224 138.734 224.379C139.154 224.534 139.538 224.77 139.866 225.075C140.193 225.38 140.456 225.746 140.641 226.154C140.825 226.561 140.927 227.001 140.94 227.448L140.848 227.438Z" fill="#163300"/>
<path d="M87.586 324.878C87.586 323.614 87.278 321.978 87.586 306.662C87.8518 303.419 87.0558 300.177 85.318 297.426C84.3135 296.055 82.9825 294.956 81.4458 294.229C79.9091 293.502 78.2153 293.17 76.518 293.264C64.534 293.014 34.07 292.464 22.118 292.982C20.5719 292.971 19.0474 293.345 17.6816 294.07C16.3159 294.795 15.1517 295.847 14.294 297.134C12.8087 299.701 12.1163 302.65 12.304 305.61C12.104 305.442 12.276 303.748 11.47 328.742C11.236 335.998 16.87 339.39 24.108 339.028C30.772 338.694 65.908 337.864 75.724 338.75C80.77 339.204 83.686 337.334 85.4 334.89C87.1873 331.875 87.9539 328.363 87.586 324.878ZM70 318.706C66.5093 321.577 62.5464 323.821 58.288 325.336C52.0262 327.598 45.484 328.991 38.844 329.478C38.562 329.495 38.2816 329.424 38.0415 329.275C37.8015 329.126 37.6137 328.906 37.504 328.646C31.87 315.74 30.304 310.446 30.004 310.446C29.9525 310.312 29.9347 310.167 29.952 310.024C29.9692 309.881 30.0211 309.744 30.1031 309.626C30.1851 309.508 30.2947 309.411 30.4224 309.345C30.5501 309.279 30.6921 309.245 30.836 309.246V309.168C41.3662 308.185 51.5709 304.993 60.784 299.8C60.9582 299.7 61.1511 299.638 61.3505 299.617C61.5499 299.596 61.7516 299.616 61.9428 299.677C62.1341 299.737 62.3107 299.836 62.4616 299.968C62.6126 300.101 62.7346 300.262 62.82 300.444L70.366 317.008C70.5051 317.291 70.5446 317.612 70.4782 317.92C70.4117 318.229 70.2433 318.505 70 318.706Z" fill="#9FE870"/>
<path d="M55.024 311.42C53.7644 310.718 52.3462 310.349 50.904 310.349C49.4618 310.349 48.0436 310.718 46.784 311.42C46.1325 311.892 45.6006 312.51 45.2309 313.224C44.8612 313.939 44.6639 314.73 44.655 315.534C44.646 316.338 44.8256 317.134 45.1794 317.856C45.5331 318.578 46.0512 319.208 46.692 319.694C47.8839 320.639 49.3601 321.153 50.881 321.153C52.4019 321.153 53.8781 320.639 55.07 319.694C55.7202 319.216 56.248 318.591 56.6103 317.87C56.9726 317.149 57.1592 316.352 57.1547 315.545C57.1502 314.738 56.9548 313.944 56.5845 313.227C56.2142 312.51 55.6794 311.891 55.024 311.42Z" fill="#9FE870"/>
<path d="M157.948 324.838C157.948 323.638 157.642 321.79 157.948 306.62C158.191 303.379 157.396 300.146 155.68 297.386C154.676 296.015 153.345 294.916 151.808 294.19C150.271 293.464 148.577 293.133 146.88 293.228C136.68 292.904 116.254 292.404 106.05 292.854C104.503 292.848 102.978 293.225 101.612 293.953C100.247 294.681 99.0834 295.736 98.226 297.024C96.7398 299.596 96.0475 302.55 96.236 305.514C96.036 305.346 96.188 303.652 95.356 328.646C95.1949 330.255 95.4762 331.877 96.1695 333.338C96.8628 334.798 97.9418 336.042 99.29 336.934C101.942 338.46 104.989 339.156 108.04 338.934C117.218 338.474 136.826 337.874 146.092 338.702C151.138 339.156 154.054 337.286 155.768 334.842C157.552 331.829 158.316 328.32 157.948 324.838ZM124.304 327.386C123.995 327.723 123.619 327.992 123.201 328.176C122.782 328.36 122.33 328.454 121.873 328.454C121.416 328.454 120.964 328.36 120.545 328.176C120.127 327.992 119.751 327.723 119.442 327.386C117.242 324.918 118.966 320.8 123.562 322.294C124.003 322.531 124.383 322.867 124.67 323.277C124.957 323.686 125.145 324.158 125.217 324.653C125.289 325.148 125.244 325.653 125.085 326.128C124.927 326.603 124.659 327.034 124.304 327.386ZM135.216 327.286C134.907 327.623 134.532 327.892 134.113 328.076C133.695 328.26 133.243 328.355 132.786 328.355C132.329 328.355 131.877 328.26 131.459 328.076C131.04 327.892 130.665 327.623 130.356 327.286C128.156 324.822 129.88 320.7 134.476 322.194C134.917 322.431 135.296 322.767 135.583 323.177C135.871 323.587 136.058 324.058 136.13 324.554C136.202 325.049 136.156 325.554 135.998 326.029C135.839 326.503 135.571 326.934 135.216 327.286ZM139.082 308.686C139.082 308.914 137.534 313.728 137.096 315.012C136.582 316.512 136.026 317.998 135.59 319.166C135.489 319.422 135.315 319.641 135.088 319.797C134.862 319.953 134.595 320.037 134.32 320.04C120.946 320.214 119.824 320.414 119.436 319.734C118.66 318.73 118.093 317.58 117.77 316.352C117.23 314.784 116.57 312.37 114.622 305.178C114.157 305.176 113.692 305.135 113.234 305.056C112.866 304.986 110.69 304.472 110.78 303.482C110.902 302.108 114.428 302.324 115.686 302.302C115.999 302.3 116.305 302.4 116.555 302.587C116.806 302.775 116.989 303.039 117.076 303.34C117.54 304.68 117.921 306.046 118.218 307.432C124.878 307.106 131.551 307.139 138.208 307.53C138.352 307.516 138.498 307.539 138.631 307.598C138.764 307.656 138.88 307.747 138.967 307.863C139.055 307.979 139.112 308.115 139.132 308.259C139.152 308.402 139.135 308.549 139.082 308.684V308.686Z" fill="#9FE870"/>
<path d="M139.055 113.691C138.411 114.027 127.273 127.415 132.405 125.823C133.133 125.597 140.405 116.383 140.763 114.731C140.806 114.517 140.782 114.295 140.694 114.095C140.607 113.895 140.46 113.727 140.273 113.613C140.087 113.499 139.87 113.446 139.652 113.46C139.434 113.474 139.226 113.555 139.055 113.691Z" fill="#163300"/>
<path d="M133.101 188.541C135.58 191.256 138.215 193.824 140.993 196.231C142.193 197.361 144.041 195.559 142.833 194.431C140.244 191.826 137.521 189.356 134.677 187.031C133.811 186.477 132.433 187.611 133.101 188.541Z" fill="#163300"/>
<path d="M52.3411 195.455C51.6691 196.455 53.2271 197.727 54.0131 196.793C55.0271 195.593 60.9071 188.779 60.6131 187.313C59.8031 183.429 53.4891 193.757 52.3411 195.455Z" fill="#163300"/>
<path d="M96.3391 163.135C95.3131 162.945 88.8051 168.721 87.4911 169.975C75.2051 161.941 76.4271 163.919 76.5791 168.775C76.6253 172.097 76.8563 175.413 77.2711 178.709C77.4211 179.751 79.0051 179.569 79.0711 178.555C79.3211 174.841 78.8431 171.139 78.7831 167.427C89.6011 174.027 86.2571 173.827 96.3591 165.551C97.5591 166.877 103.273 172.437 105.003 172.227C106.403 172.053 111.117 165.719 112.239 164.369C112.239 167.235 112.331 175.415 113.181 177.731C113.621 178.931 114.781 178.507 114.841 177.313C114.989 174.769 114.681 168.739 114.687 165.803C114.687 162.459 114.677 161.603 113.277 159.603C110.237 155.259 102.537 144.617 97.8391 138.841C93.7011 133.751 93.5191 133.641 90.6151 138.137C86.1411 145.075 78.6311 158.537 77.4831 161.097C76.9971 162.175 78.6591 162.683 79.2371 161.885C81.1611 159.227 85.5171 151.413 87.5231 147.975C92.0331 148.155 96.5497 148.079 101.051 147.747C104.765 152.147 108.275 156.691 111.651 161.347L104.763 169.705C103.825 168.961 97.3771 163.327 96.3391 163.135Z" fill="#163300"/>
<path d="M56.5572 128.843C57.7412 130.165 59.5572 128.509 58.5732 127.387C56.1852 124.677 51.0692 118.523 48.7112 116.451C47.7772 115.629 46.5112 116.915 47.1712 117.895C48.8672 120.425 54.2192 126.235 56.5572 128.843Z" fill="#163300"/>
<path d="M95.0552 117.077C95.2052 111.886 94.898 106.692 94.1372 101.555C94.0318 101.37 93.8751 101.22 93.6861 101.122C93.4971 101.025 93.2839 100.984 93.0722 101.005C92.8606 101.027 92.6596 101.109 92.4937 101.242C92.3277 101.375 92.2039 101.553 92.1372 101.755C91.9753 106.94 92.2267 112.13 92.8892 117.275C92.9495 117.533 93.101 117.761 93.3159 117.916C93.5308 118.071 93.7945 118.143 94.0584 118.119C94.3222 118.095 94.5685 117.976 94.7517 117.784C94.9349 117.593 95.0427 117.342 95.0552 117.077Z" fill="#163300"/>
<path d="M96.8052 194.511C96.8052 196.171 96.3632 207.191 96.9592 208.637C97.0645 208.819 97.216 208.971 97.3984 209.076C97.5807 209.181 97.7876 209.237 97.9982 209.237C98.2087 209.237 98.4156 209.181 98.598 209.076C98.7803 208.971 98.9318 208.819 99.0372 208.637C99.6592 207.049 98.9532 196.697 98.8712 194.511C98.7632 193.341 96.8052 193.317 96.8052 194.511Z" fill="#163300"/>
<path d="M46.7651 158.359C71.0551 112.677 126.423 117.477 146.785 154.657C122.729 191.371 75.6011 196.929 46.6551 161.629C45.7511 160.529 44.6331 161.935 45.4551 163.087C70.9031 198.487 125.277 193.867 147.729 158.087C148.461 157.178 148.888 156.061 148.95 154.896C149.012 153.73 148.706 152.575 148.075 151.593C123.385 109.309 61.5491 116.915 45.0931 157.277C44.6031 158.477 46.1791 159.463 46.7651 158.359Z" fill="#163300"/>
</svg>
