<svg width="89" height="88" viewBox="0 0 89 88" fill="none" xmlns="http://www.w3.org/2000/svg">
<rect x="0.875" width="88" height="88" rx="44" fill="#9FE870"/>
<path d="M44.875 34.5833C43.9227 34.095 42.8413 33.9176 41.7829 34.0761C40.7246 34.2345 39.7425 34.7208 38.975 35.4666C38.0386 36.4041 37.5127 37.6749 37.5127 38.9999C37.5127 40.3249 38.0386 41.5957 38.975 42.5333L43.6916 47.3333C43.8466 47.4895 44.0309 47.6135 44.234 47.6981C44.4371 47.7827 44.655 47.8262 44.875 47.8262C45.095 47.8262 45.3128 47.7827 45.5159 47.6981C45.719 47.6135 45.9034 47.4895 46.0583 47.3333L50.775 42.6166C51.7113 41.6791 52.2372 40.4083 52.2372 39.0833C52.2372 37.7582 51.7113 36.4874 50.775 35.5499C50.0171 34.7906 49.0396 34.2887 47.9809 34.1152C46.9221 33.9417 45.8356 34.1055 44.875 34.5833ZM48.4083 40.1833L44.875 43.7166L41.3416 40.1833C41.1854 40.0283 41.0614 39.844 40.9768 39.6409C40.8922 39.4378 40.8486 39.2199 40.8486 38.9999C40.8486 38.7799 40.8922 38.5621 40.9768 38.359C41.0614 38.1559 41.1854 37.9715 41.3416 37.8166C41.6539 37.5062 42.0763 37.3319 42.5166 37.3319C42.957 37.3319 43.3794 37.5062 43.6916 37.8166C43.8466 37.9728 44.0309 38.0968 44.234 38.1814C44.4371 38.266 44.655 38.3096 44.875 38.3096C45.095 38.3096 45.3128 38.266 45.5159 38.1814C45.719 38.0968 45.9034 37.9728 46.0583 37.8166C46.3706 37.5062 46.793 37.3319 47.2333 37.3319C47.6736 37.3319 48.096 37.5062 48.4083 37.8166C48.5645 37.9715 48.6885 38.1559 48.7731 38.359C48.8577 38.5621 48.9013 38.7799 48.9013 38.9999C48.9013 39.2199 48.8577 39.4378 48.7731 39.6409C48.6885 39.844 48.5645 40.0283 48.4083 40.1833ZM56.5416 27.3333H33.2083C31.8822 27.3333 30.6105 27.86 29.6728 28.7977C28.7351 29.7354 28.2083 31.0072 28.2083 32.3333V48.9999C28.2083 50.326 28.7351 51.5978 29.6728 52.5355C30.6105 53.4731 31.8822 53.9999 33.2083 53.9999H52.525L58.6916 60.1833C58.8474 60.3377 59.0321 60.4599 59.2351 60.5429C59.4382 60.6258 59.6556 60.6679 59.875 60.6666C60.0936 60.6722 60.3105 60.6266 60.5083 60.5333C60.8127 60.4082 61.0732 60.1959 61.2571 59.923C61.441 59.6502 61.54 59.329 61.5416 58.9999V32.3333C61.5416 31.0072 61.0149 29.7354 60.0772 28.7977C59.1395 27.86 57.8677 27.3333 56.5416 27.3333ZM58.2083 54.9833L54.3916 51.1499C54.2359 50.9955 54.0512 50.8732 53.8482 50.7903C53.6451 50.7074 53.4277 50.6653 53.2083 50.6666H33.2083C32.7663 50.6666 32.3424 50.491 32.0298 50.1784C31.7172 49.8659 31.5416 49.4419 31.5416 48.9999V32.3333C31.5416 31.8912 31.7172 31.4673 32.0298 31.1547C32.3424 30.8422 32.7663 30.6666 33.2083 30.6666H56.5416C56.9837 30.6666 57.4076 30.8422 57.7202 31.1547C58.0327 31.4673 58.2083 31.8912 58.2083 32.3333V54.9833Z" fill="#163300"/>
</svg>
