<svg width="217" height="211" viewBox="0 0 217 211" fill="none" xmlns="http://www.w3.org/2000/svg">
<path fill-rule="evenodd" clip-rule="evenodd" d="M16.8201 40.76C27.7581 40.292 41.4201 26.59 43.8201 17.964C46.2101 9.37 39.9921 2.982 33.4001 1.81L33.2421 1.782C29.3001 1.082 25.3061 0.369999 21.4981 1.908C-0.29192 10.702 -4.22191 41.662 16.8201 40.76ZM22.3221 17.382C22.3221 21.65 15.8681 21.65 15.8681 17.382C15.8681 13.114 22.3221 13.114 22.3221 17.382Z" fill="#163300"/>
<path fill-rule="evenodd" clip-rule="evenodd" d="M184.71 194.672C180.808 198.26 177.052 198.768 172.912 199.328C168.3 199.952 163.214 200.64 156.918 205.722C146.544 214.096 131.058 209.52 136.032 201.338C137.85 198.348 140.224 195.822 142.676 193.374C145.398 190.654 147.574 187.794 149.616 185.11C155.088 177.916 159.594 171.994 171.062 173.46C184.728 175.208 194.852 185.346 184.71 194.672ZM157.864 193.802C157.864 198.07 151.41 198.07 151.41 193.802C151.41 189.534 157.864 189.534 157.864 193.802ZM173.354 189.93C173.354 192.49 169.482 192.49 169.482 189.93C169.482 187.37 173.354 187.37 173.354 189.93Z" fill="#163300"/>
<path fill-rule="evenodd" clip-rule="evenodd" d="M171.16 158.22C178.236 158.52 185.514 158.83 195.18 153.47L195.182 153.472C211.726 144.296 217.272 129.354 216.976 110.748C216.706 93.8901 210.626 81.4981 206.996 74.0981L206.994 74.0961C206.204 72.4821 205.528 71.1061 205.056 69.9741C200.664 59.4561 199.216 52.9981 198.134 48.1701C196.862 42.5041 196.096 39.0861 191.67 33.9941C184.094 25.2781 173.956 22.2701 162.996 21.4461C157.892 21.0621 152.622 22.0821 147.018 23.1661C135.918 25.3101 123.518 27.7061 108.542 19.9581L108.456 19.9121C98.4622 14.7421 87.8402 9.24406 77.2942 12.3421C74.4422 13.1801 61.6482 19.2481 54.3902 28.4001C44.0002 41.5001 34.3282 47.8721 26.0842 53.3001C14.0502 61.2281 5.06215 67.1481 1.32615 89.0661C-0.0418457 97.0921 0.770154 101.614 2.79815 112.892C3.00015 114.012 3.21415 115.2 3.43815 116.462C5.51415 128.15 4.25815 134.122 3.33615 138.502C2.83615 140.874 2.43415 142.782 2.71615 144.874C3.59215 151.38 10.3621 162.314 15.6461 162.224C18.4041 162.178 21.0582 161.958 23.6322 161.746C35.5682 160.764 45.7662 159.924 56.3302 177.008C72.2182 202.706 82.3762 205.538 100.688 201.254C106.902 199.8 119.524 194.142 128.756 184.658C131.712 181.622 134.056 178.502 136.31 175.504C141.31 168.852 145.856 162.804 155.606 159.624C161.212 157.794 166.134 158.006 171.16 158.22ZM104.508 53.5261C104.508 57.7941 98.0542 57.7941 98.0542 53.5261C98.0542 49.2581 104.508 49.2581 104.508 53.5261ZM134.628 130.548C134.628 134.816 128.174 134.816 128.174 130.548C128.174 126.28 134.628 126.28 134.628 130.548ZM23.6142 130.548C23.6142 134.816 17.1602 134.816 17.1602 130.548C17.1602 126.28 23.6142 126.28 23.6142 130.548ZM93.7502 180.894C93.7502 183.454 89.8782 183.454 89.8782 180.894C89.8782 178.334 93.7502 178.334 93.7502 180.894ZM141.944 142.598C141.944 145.158 138.072 145.158 138.072 142.598C138.072 140.038 141.944 140.038 141.944 142.598ZM108.38 182.614C108.38 185.174 104.508 185.174 104.508 182.614C104.508 180.054 108.38 180.054 108.38 182.614ZM91.6002 33.7341C91.6002 36.2941 87.7282 36.2941 87.7282 33.7341C87.7282 31.1741 91.6002 31.1741 91.6002 33.7341ZM202.614 97.4161C202.614 99.9761 198.742 99.9761 198.742 97.4161C198.742 94.8561 202.614 94.8561 202.614 97.4161ZM40.6862 65.0381C41.1742 65.1961 41.5182 65.6741 41.3322 66.2381C40.9542 67.3901 38.0761 66.3301 37.0401 65.9481C36.8901 65.8941 36.7802 65.8521 36.7202 65.8341C36.2202 65.6821 36.1242 65.2401 36.1902 64.7461C36.3042 63.8721 36.9842 63.8361 40.6862 65.0381ZM34.0862 73.4621C32.4842 71.7421 24.1762 80.0021 22.5502 84.3921C23.4802 84.5121 25.9022 82.3061 28.2102 80.2061C29.0331 79.4453 29.8705 78.7005 30.7222 77.9721C31.1542 77.6101 31.5681 77.2761 31.9541 76.9661C33.8461 75.4441 35.0401 74.4861 34.0862 73.4621ZM43.1181 70.3181C42.5981 72.1341 42.3202 73.1021 41.0022 72.7861C39.3462 72.3901 40.7902 69.0821 41.6922 68.1821C42.3382 67.5381 43.5882 67.8081 43.4902 69.0641C43.3482 69.5161 43.2281 69.9361 43.1181 70.3181ZM36.3282 77.2181C34.4762 76.1061 30.1702 86.4741 31.1122 88.2041C31.9362 86.8681 32.6622 85.7041 33.2942 84.6921C36.9982 78.7521 37.5102 77.9281 36.3282 77.2181ZM48.7162 66.6501C49.8142 67.0541 50.0022 68.3401 48.0322 68.6121C47.6282 68.4621 47.2442 68.3281 46.8902 68.2041C45.1202 67.5841 44.0662 67.2161 44.5502 66.3021C45.0882 65.2841 45.6101 65.4821 47.7301 66.2821L48.7162 66.6501ZM45.7341 60.9961C45.7681 59.1761 43.8202 59.0261 43.3882 60.4461C43.1402 61.2621 42.9282 61.9101 42.7581 62.4301C42.2001 64.1341 42.1002 64.4421 42.6662 64.7881C43.1482 65.0821 43.5861 64.9321 44.0681 64.6801C45.2201 64.0801 45.3702 63.0601 45.5142 62.0801C45.5702 61.7041 45.6241 61.3341 45.7341 60.9961ZM33.5802 71.0101C32.3522 71.6621 20.0001 77.9201 18.7601 78.5481V78.5501C11.2481 82.3581 26.7042 69.2721 32.9342 69.1261C34.5562 69.0881 34.4222 70.5621 33.5802 71.0101ZM71.6822 152.894C71.4162 153.424 71.6822 153.952 72.1422 154.176C75.6362 155.886 76.3062 155.974 76.5482 155.126C76.6842 154.648 76.6562 154.198 76.1862 153.972C76.1302 153.946 76.0302 153.89 75.8922 153.816C74.9302 153.288 72.2282 151.806 71.6802 152.892L71.6822 152.894ZM92.9161 137.696C90.6661 141.796 81.2342 148.75 79.9002 146.814C79.1062 145.662 80.4282 144.888 82.5262 143.658C82.9522 143.408 83.4102 143.14 83.8882 142.846C84.7342 142.326 85.7062 141.674 86.7002 141.006C89.2922 139.268 92.0141 137.442 92.9161 137.696ZM72.9722 146.466C71.7102 145.958 71.2902 146.886 70.5022 148.618C70.3402 148.974 70.1642 149.364 69.9602 149.784C69.6802 151.014 70.8762 151.464 71.6122 150.92C72.6362 150.164 74.5522 147.102 72.9722 146.466ZM85.0102 132.66C85.6862 134.512 79.9022 144.138 78.2382 142.764C77.1742 141.886 77.8022 141.148 82.3282 135.824L82.3322 135.82C83.1062 134.91 83.9962 133.864 85.0102 132.66ZM65.4042 149.568C63.4162 149.546 63.4122 150.846 64.4362 151.406C64.7802 151.594 65.0902 151.766 65.3682 151.922C67.3402 153.018 67.8242 153.288 68.5062 152.362C69.1162 151.53 68.1322 151.014 66.4742 150.142C66.1155 149.955 65.7589 149.764 65.4042 149.57V149.568ZM68.7942 158.324C68.1582 159.664 66.2542 159.228 66.5562 157.434C66.7142 157.114 66.8242 156.754 66.9342 156.39C67.2202 155.44 67.5182 154.454 68.7442 154.034C69.2562 153.858 69.7122 153.776 70.1462 154.138C70.6562 154.562 70.5102 154.854 69.6962 156.484C69.4542 156.966 69.1542 157.568 68.7942 158.324ZM95.8122 144.034L94.1762 144.58L94.1502 144.588H94.1462C90.2342 145.894 81.1262 148.93 80.0462 149.314C79.1482 149.634 78.7982 151.074 80.4122 151.276C86.5962 152.05 103.808 141.368 95.8122 144.034ZM68.2682 117.17C67.8082 116.946 67.5422 116.418 67.8082 115.888L67.8062 115.886C68.3542 114.8 71.0562 116.282 72.0182 116.81C72.1562 116.884 72.2562 116.94 72.3122 116.966C72.7822 117.192 72.8102 117.642 72.6742 118.12C72.4322 118.968 71.7622 118.88 68.2682 117.17ZM69.1002 109.46C67.8382 108.952 67.4182 109.88 66.6302 111.612C66.4682 111.968 66.2922 112.358 66.0882 112.778C65.8082 114.008 67.0042 114.456 67.7402 113.914C68.7642 113.158 70.6802 110.096 69.1002 109.46ZM60.5622 114.4C59.5382 113.84 59.5422 112.54 61.5302 112.562C61.9082 112.77 62.2682 112.962 62.6002 113.136C64.2582 114.008 65.2422 114.524 64.6322 115.356C63.9502 116.282 63.4662 116.012 61.4942 114.916C61.2142 114.76 60.9062 114.588 60.5622 114.4ZM62.6842 120.428C62.3822 122.222 64.2862 122.658 64.9222 121.318C65.2822 120.562 65.5822 119.96 65.8242 119.478C66.6382 117.848 66.7842 117.558 66.2742 117.132C65.8402 116.77 65.3842 116.852 64.8722 117.028C63.6462 117.448 63.3482 118.434 63.0622 119.384C62.9522 119.748 62.8422 120.108 62.6842 120.428ZM81.6422 85.6741C81.1382 85.7481 80.6142 85.4681 80.5322 84.8781C80.3662 83.6721 83.4382 83.3541 84.5262 83.2401C84.6352 83.2312 84.7439 83.2192 84.8522 83.2041C85.3702 83.1221 85.6502 83.4741 85.8082 83.9481C86.0882 84.7881 85.4942 85.1101 81.6422 85.6741ZM77.9422 78.8581C76.6162 79.1581 76.7962 80.1541 77.1342 82.0181C77.2042 82.4041 77.2802 82.8301 77.3522 83.2941C77.8222 84.4641 79.0622 84.1541 79.3582 83.2941C79.7722 82.0861 79.6042 78.4841 77.9422 78.8581ZM73.7262 87.7741C72.5642 87.8961 71.8242 86.8221 73.4722 85.7121C73.9042 85.6681 74.3102 85.6181 74.6842 85.5721C76.5402 85.3481 77.6462 85.2141 77.6162 86.2461C77.5822 87.3941 77.0322 87.4461 74.7982 87.6661C74.4407 87.7004 74.0833 87.7364 73.7262 87.7741ZM78.9022 91.5301C79.6762 93.1781 81.4862 92.4541 81.2482 90.9881C81.1162 90.1701 81.0222 89.5101 80.9462 88.9801C80.6882 87.1601 80.6422 86.8361 79.9822 86.7761C79.4182 86.7241 79.0922 87.0521 78.7682 87.4901C77.9982 88.5361 78.3142 89.5141 78.6182 90.4581C78.7362 90.8201 78.8502 91.1781 78.9022 91.5301ZM194.378 120.528C193.874 120.602 193.35 120.322 193.268 119.732C193.102 118.526 196.174 118.208 197.262 118.094H197.264H197.274H197.282L197.45 118.074C197.496 118.07 197.542 118.064 197.588 118.058C198.106 117.976 198.386 118.328 198.544 118.802C198.824 119.642 198.23 119.964 194.378 120.528ZM190.678 113.712C189.352 114.012 189.532 115.008 189.87 116.872C189.94 117.26 190.016 117.684 190.088 118.148C190.558 119.318 191.798 119.008 192.094 118.148C192.508 116.94 192.34 113.338 190.678 113.712ZM186.462 122.628C185.3 122.75 184.56 121.676 186.208 120.566C186.642 120.522 187.048 120.472 187.422 120.426C189.278 120.202 190.382 120.068 190.352 121.1C190.318 122.248 189.768 122.3 187.534 122.52C187.177 122.554 186.819 122.59 186.462 122.628ZM191.638 126.384C192.412 128.032 194.222 127.308 193.984 125.842C193.852 125.024 193.758 124.364 193.682 123.834C193.424 122.014 193.378 121.69 192.718 121.63C192.154 121.578 191.828 121.906 191.504 122.344C190.734 123.39 191.05 124.368 191.354 125.312C191.472 125.674 191.586 126.032 191.638 126.384ZM134.146 44.4641C137.33 55.0321 153.214 51.1341 151.272 40.3641L151.27 40.3621C150.178 34.3001 185.832 43.3661 185.832 73.9641C185.832 93.7361 169.572 109.708 149.696 109.24C114.834 108.418 102.028 62.1301 132.312 43.7541C133.006 43.3341 133.912 43.6901 134.146 44.4641ZM125.226 63.8801C124.364 59.3221 131.15 58.1361 131.982 62.5341C132.844 67.0921 126.058 68.2781 125.226 63.8801ZM135.032 95.4281C130.192 96.2241 129.076 88.9921 133.792 88.2161C138.632 87.4201 139.748 94.6521 135.032 95.4281ZM147.752 102.794C144.052 102.794 144.052 97.2001 147.752 97.2001C151.452 97.2001 151.452 102.794 147.752 102.794ZM164.572 91.9941C152.912 93.1481 151.202 75.5861 162.774 74.4421C174.434 73.2881 176.144 90.8501 164.572 91.9941Z" fill="#163300"/>
</svg>
