<svg width="635" height="420" viewBox="0 0 635 420" fill="none" xmlns="http://www.w3.org/2000/svg">
<path d="M254.022 0L578 294.539L158 420L254.022 0Z" fill="white"/>
<path d="M216.727 359.465C216.727 341.786 217.391 341.872 215.398 341.876C207.468 341.897 199.539 342.191 191.611 341.857C190.866 341.825 190.712 342.206 190.465 342.649C169.099 380.682 170.798 380.184 165.489 379.705C161.071 379.306 158.984 374.699 160.855 371.461C205.494 294.109 203.762 295.09 207.065 295.061C215.858 294.981 215.826 294.758 215.623 293.574C215.366 292.083 216.616 290.088 213.485 287.288C209.535 283.756 208.999 278.126 211.853 273.26C212.531 272.103 212.477 271.427 211.763 270.392C208.737 266.005 210.839 268.426 184.171 283.363C180.895 285.199 176.684 282.299 174.276 279.985C173.805 279.533 173.408 278.865 172.51 279.483C171.806 279.966 171.357 280.094 172.102 281.091C178.417 289.546 164.179 297.818 159.204 289.535C157.879 287.33 156.487 289.279 153.217 286.138C152.211 285.169 152.209 285.434 146.566 288.786C146.142 289.038 145.634 289.143 145.527 289.838C145.04 293.042 141.425 294.351 138.479 293.087C134.057 291.188 126.364 277.689 123.286 272.42C121.293 269.01 123.046 269.415 128.559 266.041C130.375 264.93 130.144 265.207 140.161 280.942C141.386 282.866 141.44 281.591 147.318 278.901C148.887 278.183 147.845 277.402 147.973 274.835C148.162 271.049 148.981 271.097 163.975 262.97C167.102 261.276 161.64 257.305 168.629 253.247C185.238 243.604 209.507 228.606 227.074 218.196C229.636 216.678 223.283 212.541 228.361 208.144C233.626 203.584 239.365 199.729 245.413 196.314C270.972 181.885 270.025 182.664 273.48 188.643C278.203 196.816 288.434 216.583 295.649 223.91C296.739 225.017 296.149 225.897 295.391 226.821C286.5 237.644 266.138 248.401 257.516 253.079C254.368 254.789 253.376 254.539 250.747 252.197C244.941 247.025 245.539 246.017 243.962 246.994C217.406 263.42 217.998 262.313 219.159 263.481C219.676 263.999 220.125 267.116 224.684 267.534C233.657 268.355 238.372 281.704 228.788 288.695C227.517 289.621 226.698 292.496 227.269 293.954C227.509 294.565 227.948 294.283 228.294 294.283C235.388 294.275 236.226 293.588 237.601 295.821C241.446 302.058 280.099 369.447 280.13 369.501C282.335 373.34 280.044 377.725 275.59 378.37C273.494 378.674 272.396 378.594 270.216 375.524C267.411 371.57 250.827 341.523 250.827 341.523L226.286 341.804C226.286 341.804 225.883 350.824 225.885 374.669C225.885 381.387 216.652 380.877 216.715 375.694C216.746 373.038 216.773 359.465 216.727 359.465ZM166.468 258.319C167.344 267.368 172.505 278.311 180.307 281.614C183.026 282.765 181.006 282.799 217.057 260.551C244.504 243.613 243.924 244.969 242.49 243.459C239.317 240.122 233.576 229.891 229.464 220.968C228.533 218.948 230.339 218.795 203.72 234.644C166.079 257.053 166.138 256.271 166.468 258.319ZM254.435 251.786C256.722 251.624 275.29 241.065 282.965 235.271C283.906 234.562 284.389 234.205 283.251 233.121C278.165 228.287 266.073 211.609 258.244 193.353C257.883 192.509 257.749 191.913 256.581 192.562C247.658 197.528 238.689 202.411 230.692 208.853C227.553 211.384 226.324 210.189 237.122 230.282C239.766 235.202 250.239 251.532 254.435 251.786ZM290.467 221.044C264.926 186.323 276.644 182.813 260.823 190.266C259.739 190.777 259.59 191.268 260.086 192.385C265.777 205.187 275.019 221.521 284.692 232.004C285.605 232.993 286.155 232.934 287.077 232.117C296.536 223.723 294.513 226.546 290.467 221.044ZM232.038 304.135C271.548 374.119 268.45 369.81 270.048 368.697C274.341 365.713 275.897 366.219 274.887 364.531C274.859 364.484 250.93 323.318 242.677 308.543C239.138 302.209 236.881 304.132 232.036 304.132L232.038 304.135ZM209.52 304.899C202.088 304.899 201.866 304.429 200.828 306.237L166.766 365.23C165.554 367.298 167.304 366.526 171.749 368.911C174.03 370.136 173.014 369.657 209.52 304.899ZM195.414 333.927L215.434 333.711C217.517 333.688 216.769 333.789 216.956 308.395C216.983 304.624 216.969 304.666 213.17 304.655C210.772 304.647 212.311 304.137 195.414 333.927ZM218.443 365.839C218.443 370.994 219.239 369.146 223.038 369.625C224.613 369.535 224.172 368.155 224.22 367.242C224.476 362.33 224.289 348.201 224.132 308.5C224.128 307.194 224.89 305.342 223.987 304.729C223.025 304.074 221.272 304.636 219.871 304.557C218.172 304.46 218.464 299.177 218.443 365.839ZM225.911 332.107C225.862 334.339 225.839 333.276 244.624 333.268C247.469 333.268 246.285 334.289 231.381 306.583C230.396 304.754 229.474 304.009 227.395 304.252C224.476 304.595 226.488 305.5 225.908 332.107H225.911ZM149.97 274.993C150.428 279.516 152.339 283.143 156.422 285.438C157.348 285.959 158.003 286.333 158.215 284.657C158.767 280.274 163.883 276.885 168.665 278.67C169.975 279.159 170.865 278.225 171.615 277.572C172.121 277.131 171.136 276.446 170.779 275.908C164.431 266.358 166.961 263.506 164.372 264.961C150.917 272.521 149.664 271.988 149.968 274.991L149.97 274.993ZM238.872 302.169C235.686 296.197 235.988 296.06 234.653 296.146C209.279 297.782 206.33 296.213 205.648 297.524C204.709 299.328 203.745 301.115 202.653 303.167L238.872 302.169ZM231.86 278.681C232.047 266.093 212.34 266.36 212.124 278.991C211.906 291.709 231.662 291.98 231.86 278.681ZM140.256 291.512C146.608 291.669 140.14 284.84 130.898 270.218C129.185 267.506 129.078 267.569 126.253 269.201C125.001 269.923 124.061 270.11 124.924 271.532C135.327 288.672 137.925 291.453 140.256 291.512ZM250.023 339.958C247.19 334.912 247.618 335.057 246.236 335.089C231.511 335.425 226.236 335.494 226.236 335.494V339.975L250.023 339.958ZM192.065 340.08C217.464 340.08 216.981 340.664 216.773 338.919C216.557 337.094 217.672 335.563 214.988 335.639C203.552 335.966 194.74 335.763 194.74 335.763L192.065 340.08ZM165.386 290.81C172.833 290.961 173.736 280.346 165.893 280.264C158.74 280.19 157.791 290.655 165.386 290.81ZM150.193 284.237C150.663 283.949 150.808 283.767 150.504 283.162C148.931 280.029 148.958 280.014 145.932 281.589C141.766 283.758 141.507 283.489 143.927 287.106C144.617 288.139 144.275 287.866 150.193 284.237ZM217.435 290.079C217.231 294.231 216.91 294.745 218.243 294.643C226.551 294 225.444 295.525 225.541 291.583C225.608 288.773 224.957 292.251 217.435 290.079ZM219.392 267.485C216.885 263.409 217.269 263.355 214.785 264.9C212.513 266.314 212.212 268.111 213.871 270.299C214.239 270.782 215.033 268.844 219.392 267.485Z" fill="#163300"/>
<path d="M180.954 276.194C177.497 275.818 181.991 273.664 210.656 256.698C237.24 240.965 236.511 240.868 237.177 242.113C237.538 242.787 237.091 243.18 236.526 243.51C220.856 252.672 187.609 272.84 180.954 276.194Z" fill="#163300"/>
<path d="M257.184 243.902C252.778 244.142 262.196 239.03 274.586 231.519C275.376 231.04 276.101 230.679 276.588 231.468C277.239 232.525 276.987 232.516 265.84 239.117C264.742 239.768 259.13 243.058 257.184 243.902Z" fill="#163300"/>
<path d="M222.462 284.827C214.293 284.836 214.474 272.456 222.49 272.498C230.505 272.54 230.356 284.819 222.462 284.827Z" fill="#163300"/>
<path d="M165.361 282.331C169.431 282.272 169.274 288.15 165.33 288.154C161.386 288.158 161.182 282.389 165.361 282.331Z" fill="#163300"/>
</svg>
